<svg version="1.1" xmlns="http://www.w3.org/2000/svg" xmlns:xlink="http://www.w3.org/1999/xlink" width="483.85995" height="363.19736" viewBox="0,0,483.85995,363.19736"><g transform="translate(1.7558,1.09868)"><g data-paper-data="{&quot;isPaintingLayer&quot;:true}" fill-rule="nonzero" stroke-linejoin="miter" stroke-miterlimit="10" stroke-dasharray="" stroke-dashoffset="0" style="mix-blend-mode: normal"><path d="M-1.10414,362.09868v-363.19736h483.05902v363.19736z" fill="#dedede" stroke="none" stroke-width="0" stroke-linecap="butt"/><path d="M-1.7558,362.001v-64.70332h483.85995v64.70332z" fill="#efba7e" stroke="none" stroke-width="NaN" stroke-linecap="butt"/><path d="M266.76899,291.18709c0,-7.23824 5.86775,-13.10599 13.10599,-13.10599c7.23824,0 13.10599,5.86775 13.10599,13.10599c0,7.23824 -5.86775,13.106 -13.10599,13.106c-7.23824,0 -13.10599,-5.86776 -13.10599,-13.106z" fill="#f0f0f0" stroke="#000000" stroke-width="3" stroke-linecap="butt"/><path d="M208.85879,304.29305c0,-12.94413 0,-43.28025 0,-43.28025h75.58804c0,0 0,32.01599 0,45.10899c0,10.09601 -11.62127,26.82156 -24.40244,26.82156c-10.4584,0 -21.69341,0 -27.97352,0c-9.29011,0 -23.21208,-18.11875 -23.21208,-28.6503z" fill="#f0f0f0" stroke="#000000" stroke-width="3" stroke-linecap="butt"/><path d="M285.66599,264.36552c0,8.58489 -17.33033,15.54431 -38.70839,15.54431c-21.37805,0 -38.70839,-6.95943 -38.70839,-15.54431c0,-8.58489 17.33033,-15.54431 38.70839,-15.54431c21.37805,0 38.70839,6.95942 38.70839,15.54431z" fill="#ad8787" stroke="#000000" stroke-width="3" stroke-linecap="butt"/><path d="M236.21312,253.3692c0,-2.98909 0,-7.52561 0,-9.17235c0,-1.18818 1.24458,-2.61569 2.33282,-2.61569c1.72155,0 7.4464,0.13951 10.62329,0.13951c1.503,0 2.0457,0.73441 2.0457,1.56942c0,1.57171 0,7.04203 0,10.32325c0,1.50247 -1.04817,2.54594 -2.00981,2.54594c-1.62241,0 -6.81236,0 -10.12084,0c-1.6774,0 -2.87116,-1.16688 -2.87116,-2.79006z" fill="#de914f" stroke="#000000" stroke-width="1.5" stroke-linecap="butt"/><path d="M242.76768,256.32061v-14.29909h2.19719v14.29909z" fill="#eeeeee" stroke="none" stroke-width="0" stroke-linecap="butt"/><path d="M250.79184,250.52666h-14.60724v-2.19718h14.60724z" fill="#eeeeee" stroke="none" stroke-width="0" stroke-linecap="butt"/><path d="M241.43575,246.92223c0.69169,0 1.25243,0.56073 1.25243,1.25242c0,0.69169 -0.56074,1.25243 -1.25243,1.25243c-0.69169,0 -1.25243,-0.56074 -1.25243,-1.25243c0,-0.69169 0.56074,-1.25242 1.25243,-1.25242z" data-paper-data="{&quot;index&quot;:null}" fill="#000000" stroke="none" stroke-width="0" stroke-linecap="butt"/><path d="M241.87106,247.37933c0.24498,0 0.44358,0.1986 0.44358,0.44358c0,0.24498 -0.1986,0.44358 -0.44358,0.44358c-0.24498,0 -0.44358,-0.1986 -0.44358,-0.44358c0,-0.24498 0.1986,-0.44358 0.44358,-0.44358z" data-paper-data="{&quot;index&quot;:null}" fill="#ffffff" stroke="none" stroke-width="0" stroke-linecap="butt"/><path d="M241.27245,248.31144c0.1361,0 0.24643,0.11033 0.24643,0.24643c0,0.1361 -0.11033,0.24643 -0.24643,0.24643c-0.1361,0 -0.24643,-0.11034 -0.24643,-0.24643c0,-0.1361 0.11034,-0.24643 0.24643,-0.24643z" data-paper-data="{&quot;index&quot;:null}" fill="#ffffff" stroke="none" stroke-width="0" stroke-linecap="butt"/><path d="M247.46966,248.21665c0,0.69169 -0.56073,1.25242 -1.25242,1.25242c-0.69169,0 -1.25243,-0.56073 -1.25243,-1.25242c0,-0.69169 0.56074,-1.25243 1.25243,-1.25243c0.69169,0 1.25242,0.56074 1.25242,1.25243z" data-paper-data="{&quot;index&quot;:null}" fill="#000000" stroke="none" stroke-width="0" stroke-linecap="butt"/><path d="M246.22551,247.86492c0,0.24498 -0.19859,0.44358 -0.44358,0.44358c-0.24498,0 -0.44358,-0.1986 -0.44358,-0.44358c0,-0.24498 0.1986,-0.44358 0.44358,-0.44358c0.24498,0 0.44358,0.1986 0.44358,0.44358z" data-paper-data="{&quot;index&quot;:null}" fill="#ffffff" stroke="none" stroke-width="0" stroke-linecap="butt"/><path d="M246.62698,248.59988c0,0.1361 -0.11032,0.24643 -0.24643,0.24643c-0.1361,0 -0.24644,-0.11033 -0.24644,-0.24643c0,-0.1361 0.11034,-0.24643 0.24644,-0.24643c0.1361,0 0.24643,0.11033 0.24643,0.24643z" data-paper-data="{&quot;index&quot;:null}" fill="#ffffff" stroke="none" stroke-width="0" stroke-linecap="butt"/><path d="M242.93114,249.96152c0,-0.26003 0.41379,-0.47083 0.92421,-0.47083c0.51042,0 0.92422,0.2108 0.92422,0.47083c0,0.26003 -0.41379,0.47082 -0.92422,0.47082c-0.51042,0 -0.92421,-0.21079 -0.92421,-0.47082z" fill="none" stroke="#000000" stroke-width="0.5" stroke-linecap="butt"/><path d="M223.00662,270.0989v-26.6582h36.33296v26.6582z" fill="none" stroke="none" stroke-width="0" stroke-linecap="butt"/><path d="M214.7465,294.9038v-44.03615h37.53902v44.03615z" fill="none" stroke="none" stroke-width="0" stroke-linecap="butt"/><path d="M226.42245,265.16649c0,0 -1.98311,-8.9606 -2.30901,-10.90795c-0.14647,-0.87521 0.41399,-0.41514 0.41399,-0.41514l11.34336,-2.69612c0,0 0.37352,-0.20971 0.5936,0.67172c0.49117,1.96707 2.26541,10.77825 2.26541,10.77825c0,0 -1.10222,0.5622 -2.6371,1.01316c-0.95662,0.28106 -1.91636,0.54745 -2.67962,0.70678c-0.5337,0.11142 -1.9181,0.26362 -2.65053,0.37362c-2.15994,0.32438 -4.34009,0.47568 -4.34009,0.47568z" fill="#ffe2fd" stroke="#000000" stroke-width="1" stroke-linecap="butt"/><path d="M236.47874,251.74691c0.3651,1.74891 -2.35194,2.49884 -5.81254,3.22126c-3.46059,0.72242 -6.3543,1.14377 -6.71939,-0.60514c-0.3651,-1.74891 2.63699,-1.90992 6.09757,-2.63234c3.46059,-0.72242 6.06925,-1.73269 6.43435,0.01622z" fill="#ffe2fd" stroke="#000000" stroke-width="1" stroke-linecap="butt"/><path d="M225.66811,268.91522l-4.006,-19.18981l17.44955,-3.64271l4.006,19.1898z" fill="none" stroke="none" stroke-width="0" stroke-linecap="butt"/><path d="M228.61965,259.07133c-0.09218,-0.44159 0.19107,-0.87431 0.63266,-0.96649c0.44159,-0.09218 0.87431,0.19107 0.96649,0.63266c0.09218,0.44159 -0.19107,0.87431 -0.63266,0.96649c-0.44159,0.09218 -0.87431,-0.19107 -0.96649,-0.63266z" fill="#000000" stroke="none" stroke-width="0" stroke-linecap="butt"/><path d="M231.96887,258.42125c-0.08676,-0.41561 0.17983,-0.82287 0.59544,-0.90964c0.41561,-0.08676 0.82287,0.17982 0.90964,0.59544c0.08676,0.41561 -0.17982,0.82287 -0.59544,0.90964c-0.41561,0.08676 -0.82288,-0.17983 -0.90964,-0.59544z" fill="#000000" stroke="none" stroke-width="0" stroke-linecap="butt"/><path d="M229.24356,258.75721c-0.03265,-0.1564 0.06768,-0.30966 0.22408,-0.34231c0.1564,-0.03265 0.30966,0.06768 0.34231,0.22408c0.03265,0.1564 -0.06768,0.30965 -0.22408,0.3423c-0.1564,0.03265 -0.30966,-0.06767 -0.34231,-0.22407z" fill="#ffffff" stroke="none" stroke-width="0" stroke-linecap="butt"/><path d="M229.21347,259.2265c-0.01814,-0.08689 0.0376,-0.17204 0.12449,-0.19017c0.08689,-0.01814 0.17204,0.0376 0.19017,0.12449c0.01814,0.08689 -0.0376,0.17203 -0.12449,0.19017c-0.08689,0.01814 -0.17204,-0.03759 -0.19017,-0.12448z" fill="#ffffff" stroke="none" stroke-width="0" stroke-linecap="butt"/><path d="M232.62667,258.41545c-0.1564,0.03265 -0.30966,-0.06768 -0.34231,-0.22408c-0.03265,-0.1564 0.06767,-0.30966 0.22407,-0.34231c0.1564,-0.03265 0.30966,0.06768 0.34231,0.22408c0.03265,0.1564 -0.06767,0.30966 -0.22407,0.34231z" data-paper-data="{&quot;index&quot;:null}" fill="#ffffff" stroke="none" stroke-width="0" stroke-linecap="butt"/><path d="M232.94159,258.68137c-0.08689,0.01814 -0.17204,-0.0376 -0.19017,-0.12449c-0.01814,-0.08689 0.0376,-0.17204 0.12449,-0.19017c0.08689,-0.01814 0.17204,0.0376 0.19017,0.12449c0.01814,0.08689 -0.0376,0.17204 -0.12449,0.19017z" data-paper-data="{&quot;index&quot;:null}" fill="#ffffff" stroke="none" stroke-width="0" stroke-linecap="butt"/><path d="M233.47132,259.97619c0,0 -0.98304,0.42563 -1.54211,0.50433c-0.5679,0.07995 -1.83924,-0.02831 -1.83924,-0.02831" fill="none" stroke="#000000" stroke-width="0.5" stroke-linecap="round"/><path d="M233.31123,259.68126c0,0 0.22675,0.19096 0.2607,0.30044c0.03297,0.10631 -0.05983,0.3472 -0.05983,0.3472" fill="none" stroke="#000000" stroke-width="0.5" stroke-linecap="round"/><path d="M226.10143,260.46326c0,0 -0.45798,-1.41736 -0.60931,-2.14224c-0.15133,-0.72489 -0.29864,-2.2071 -0.29864,-2.2071" fill="none" stroke="#ff82f7" stroke-width="1" stroke-linecap="round"/><path d="M236.72047,257.31165c0,0 0.45799,1.41736 0.60932,2.14224c0.15133,0.72489 0.29864,2.2071 0.29864,2.2071" data-paper-data="{&quot;index&quot;:null}" fill="none" stroke="#ff82f7" stroke-width="1" stroke-linecap="round"/><path d="M250.40617,258.26401c0,0 2.01907,-8.26271 2.54523,-10.01538c0.23647,-0.78772 0.51417,-0.17574 0.51417,-0.17574l10.5359,2.40157c0,0 0.39643,-0.02147 0.21862,0.80155c-0.39681,1.83672 -2.5284,9.88969 -2.5284,9.88969c0,0 -1.14666,0.01628 -2.60754,-0.23705c-0.9105,-0.15789 -1.81759,-0.32925 -2.51748,-0.5092c-0.48938,-0.12583 -1.70286,-0.56597 -2.35692,-0.77433c-1.92882,-0.61445 -3.80359,-1.38111 -3.80359,-1.38111z" fill="#fffbf5" stroke="#000000" stroke-width="1" stroke-linecap="butt"/><path d="M264.26154,251.22195c-0.41234,1.6037 -2.9786,1.11505 -6.15188,0.29916c-3.17328,-0.8159 -5.75193,-1.65009 -5.33959,-3.25379c0.41234,-1.6037 2.97454,-0.50868 6.14782,0.30722c3.17328,0.8159 5.75599,1.04371 5.34365,2.64741z" fill="#fffbf5" stroke="#000000" stroke-width="1" stroke-linecap="butt"/><path d="M248.24436,261.07238l4.52436,-17.59659l16.00081,4.11406l-4.52436,17.59658z" fill="none" stroke="none" stroke-width="0" stroke-linecap="butt"/><path d="M254.72827,254.09523c0.10412,-0.40492 0.51678,-0.64879 0.92171,-0.54467c0.40492,0.10412 0.64879,0.51678 0.54468,0.92171c-0.10412,0.40492 -0.51678,0.64879 -0.92171,0.54468c-0.40492,-0.10412 -0.64879,-0.51678 -0.54467,-0.92171z" fill="#000000" stroke="none" stroke-width="0" stroke-linecap="butt"/><path d="M257.77932,254.92566c0.09799,-0.38111 0.48637,-0.61063 0.86749,-0.51263c0.38111,0.09799 0.61063,0.48637 0.51264,0.86749c-0.09799,0.38111 -0.48638,0.61063 -0.86749,0.51264c-0.38111,-0.09799 -0.61063,-0.48638 -0.51263,-0.86749z" fill="#000000" stroke="none" stroke-width="0" stroke-linecap="butt"/><path d="M255.37565,254.08941c0.03688,-0.14342 0.18303,-0.22979 0.32644,-0.19291c0.14342,0.03688 0.22979,0.18303 0.19291,0.32644c-0.03688,0.14342 -0.18303,0.22979 -0.32644,0.19291c-0.14342,-0.03688 -0.22979,-0.18303 -0.19291,-0.32644z" fill="#ffffff" stroke="none" stroke-width="0" stroke-linecap="butt"/><path d="M255.15852,254.46731c0.02048,-0.07968 0.10168,-0.12766 0.18136,-0.10718c0.07968,0.02048 0.12766,0.10168 0.10718,0.18136c-0.02048,0.07968 -0.10168,0.12766 -0.18136,0.10717c-0.07968,-0.02048 -0.12766,-0.10168 -0.10718,-0.18135z" fill="#ffffff" stroke="none" stroke-width="0" stroke-linecap="butt"/><path d="M258.32868,255.19013c-0.14342,-0.03688 -0.22979,-0.18303 -0.19291,-0.32644c0.03688,-0.14342 0.18303,-0.22979 0.32644,-0.19291c0.14342,0.03688 0.22979,0.18303 0.19291,0.32644c-0.03688,0.14342 -0.18303,0.22979 -0.32644,0.19291z" data-paper-data="{&quot;index&quot;:null}" fill="#ffffff" stroke="none" stroke-width="0" stroke-linecap="butt"/><path d="M258.48168,255.54016c-0.07968,-0.02048 -0.12766,-0.10168 -0.10717,-0.18136c0.02048,-0.07968 0.10168,-0.12766 0.18136,-0.10717c0.07968,0.02048 0.12766,0.10168 0.10717,0.18136c-0.02048,0.07968 -0.10168,0.12766 -0.18136,0.10717z" data-paper-data="{&quot;index&quot;:null}" fill="#ffffff" stroke="none" stroke-width="0" stroke-linecap="butt"/><path d="M258.39211,256.83368c0,0 -0.99165,-0.0485 -1.48874,-0.21191c-0.50495,-0.16599 -1.51778,-0.77644 -1.51778,-0.77644" fill="none" stroke="#000000" stroke-width="0.5" stroke-linecap="round"/><path d="M258.37974,256.52288c0,0 0.11038,0.25161 0.09379,0.35654c-0.0161,0.1019 -0.19188,0.26422 -0.19188,0.26422" fill="none" stroke="#000000" stroke-width="0.5" stroke-linecap="round"/><path d="M252.15948,254.2462c0,0 0.19938,-1.36603 0.37027,-2.03074c0.17091,-0.66471 0.65516,-1.9575 0.65516,-1.9575" fill="none" stroke="#ebfcff" stroke-width="1" stroke-linecap="round"/><path d="M262.27955,255.97255c0,0 -0.19938,1.36603 -0.37027,2.03074c-0.17091,0.66471 -0.65516,1.95749 -0.65516,1.95749" data-paper-data="{&quot;index&quot;:null}" fill="none" stroke="#ebfcff" stroke-width="1" stroke-linecap="round"/><path d="M280.44394,263.27486c-0.20975,1.97299 -2.24035,4.06286 -3.81611,5.20091c-5.99974,4.33315 -13.62379,5.38989 -20.85807,5.55641c-1.41749,0.03263 -8.82534,1.57625 -8.82534,-1.05383c0,-1.25207 0.75921,-1.47228 1.60374,-1.60374c2.89497,-0.45066 5.94404,-0.47657 8.87448,-0.54991c5.39244,-0.13496 17.24106,-2.01542 19.82838,-7.90258c0.39914,-0.90821 -1.13886,-0.84836 -0.90426,-1.70853c-0.03316,-0.12848 -0.05081,-0.26319 -0.05081,-0.40202c0,-0.88572 0.71802,-1.60374 1.60374,-1.60374c0.37202,0 0.71444,0.12666 0.98651,0.33922c1.17921,0.21193 1.75765,1.84745 1.55775,3.72782z" fill="#ad7878" stroke="none" stroke-width="0.5" stroke-linecap="butt"/><path d="M220.74353,255.88615c0.10115,0.02248 0.2116,0.06191 0.32732,0.11551c0.80592,0.01334 1.46721,0.62117 1.56437,1.40396c0.51403,0.83837 0.41697,1.72345 -1.5018,1.81329c-2.52189,0.11807 -4.64262,1.42259 -6.5607,2.91355c-1.33127,1.03482 -0.48683,5.97194 -3.37556,4.50405c-1.60091,-0.81349 -0.98744,-3.88875 -0.2375,-5.11117c1.78179,-2.90438 6.33404,-5.62919 9.76889,-5.62919z" fill="#ad7878" stroke="none" stroke-width="0.5" stroke-linecap="butt"/><path d="M218.99333,319.73026c0,0 -7.46418,-11.78133 -7.46418,-16.98744c0,-4.69272 0.25739,-22.13515 0.25739,-22.13515" fill="none" stroke="#ffdcdc" stroke-width="3.5" stroke-linecap="round"/><path d="M281.32098,275.68384c0,0 0.25739,17.44243 0.25739,22.13515c0,5.20611 -7.46418,16.98744 -7.46418,16.98744" data-paper-data="{&quot;index&quot;:null}" fill="none" stroke="#ffdcdc" stroke-width="3.5" stroke-linecap="round"/></g></g></svg>