<svg version="1.1" xmlns="http://www.w3.org/2000/svg" xmlns:xlink="http://www.w3.org/1999/xlink" width="362.5" height="193.5" viewBox="0,0,362.5,193.5"><g transform="translate(-57.25,-83.25)"><g data-paper-data="{&quot;isPaintingLayer&quot;:true}" fill-rule="nonzero" stroke-linecap="butt" stroke-linejoin="miter" stroke-miterlimit="10" stroke-dasharray="" stroke-dashoffset="0" style="mix-blend-mode: normal"><path d="M417,180.5c0,51.63862 -79.91717,93.5 -178.5,93.5c-98.58283,0 -178.5,-41.86138 -178.5,-93.5c0,-51.63862 79.91717,-93.5 178.5,-93.5c98.58283,0 178.5,41.86138 178.5,93.5z" fill="#fff4e1" stroke="#000000" stroke-width="5.5"/><path d="M60,179v-85h29v85z" fill="#ffe9c3" stroke="#000000" stroke-width="5.5"/><path d="M387.06199,188v-102h29v102z" fill="#fff4e1" stroke="#000000" stroke-width="5.5"/><path d="M63,137v-51h346v51z" fill="#ffe9c3" stroke="#000000" stroke-width="5.5"/><path d="M64.73529,192.73529v-102h345v102z" fill="#fff4e1" stroke="none" stroke-width="0"/><path d="M62,180v-6h2v6z" fill="#ffe9c3" stroke="none" stroke-width="0"/><path d="M62.28977,182.61236v-89.61236h12.5v89.61236z" fill="#fff4e1" stroke="none" stroke-width="0"/><path d="M402.61261,191.30554v-101.54418h12.5c0,0 0,80.11054 0,93.96591c0,3.93476 -3.34445,7.57827 -5.23128,7.57827c-2.22412,0 -7.26872,0 -7.26872,0z" fill="#fff4e1" stroke="none" stroke-width="0"/><g fill="#ffcd78" stroke-width="7" font-family="Handwriting" font-weight="normal" font-size="40" text-anchor="start"><text transform="translate(108.73381,170.00735) scale(0.73899,0.73899)" font-size="40" xml:space="preserve" fill="#ffcd78" fill-rule="nonzero" stroke="#ffdc9f" stroke-width="7" stroke-linecap="butt" stroke-linejoin="miter" stroke-miterlimit="10" stroke-dasharray="" stroke-dashoffset="0" font-family="Handwriting" font-weight="normal" text-anchor="start" style="mix-blend-mode: normal"><tspan x="0" dy="0">HOT CHOCOLATE</tspan></text><text transform="translate(151.23381,191.43821) scale(0.34271,0.34271)" font-size="40" xml:space="preserve" fill="#ffcd78" fill-rule="nonzero" stroke="#796138" stroke-width="7" stroke-linecap="butt" stroke-linejoin="miter" stroke-miterlimit="10" stroke-dasharray="" stroke-dashoffset="0" font-family="Handwriting" font-weight="normal" text-anchor="start" style="mix-blend-mode: normal"><tspan x="0" dy="0">A WARM AND FUZZY GAME</tspan></text></g></g></g></svg>