<svg version="1.1" xmlns="http://www.w3.org/2000/svg" xmlns:xlink="http://www.w3.org/1999/xlink" width="71.84036" height="101.05204" viewBox="0,0,71.84036,101.05204"><g transform="translate(-220.54684,-140.92276)"><g data-paper-data="{&quot;isPaintingLayer&quot;:true}" fill-rule="nonzero" stroke-linejoin="miter" stroke-miterlimit="10" stroke-dasharray="" stroke-dashoffset="0" style="mix-blend-mode: normal"><path d="M229.10547,230.40474c0,0 0,-53.90638 0,-66.0963c0,-4.66188 6.20749,-9.66715 10.79123,-9.66715c4.29842,0 13.49537,0 21.13283,0c6.66365,0 12.14014,4.73921 12.14014,9.21751c0,8.56853 0,38.67804 0,55.30507c0,6.72237 0,11.24087 0,11.24087z" fill="#ffffff" stroke="#000000" stroke-width="2" stroke-linecap="butt"/><path d="M233.43102,156.94349c0,-4.96652 7.70004,-8.99269 17.19853,-8.99269c9.49848,0 17.19853,4.02617 17.19853,8.99269c0,4.96652 -7.70004,8.99269 -17.19853,8.99269c-9.49848,0 -17.19853,-4.02617 -17.19853,-8.99269z" fill="#ff5050" stroke="#000000" stroke-width="2" stroke-linecap="butt"/><path d="M234.05145,153.74203c0,-4.96653 7.54906,-8.99269 16.8613,-8.99269c9.31224,0 16.8613,4.02617 16.8613,8.99269c0,4.96653 -7.54906,8.99269 -16.8613,8.99269c-9.31224,0 -16.8613,-4.02617 -16.8613,-8.99269z" fill="#ff5050" stroke="#000000" stroke-width="2" stroke-linecap="butt"/><path d="M229.10547,200.0544v-19.33429h43.61456v19.33429z" fill="#ff5050" stroke="none" stroke-width="0" stroke-linecap="butt"/><text transform="translate(231.35364,188.82557) scale(0.19507,0.19507)" font-size="40" xml:space="preserve" fill="#ffffff" fill-rule="nonzero" stroke="none" stroke-width="1" stroke-linecap="butt" stroke-linejoin="miter" stroke-miterlimit="10" stroke-dasharray="" stroke-dashoffset="0" font-family="Handwriting" font-weight="normal" text-anchor="start" style="mix-blend-mode: normal"><tspan x="0" dy="0">Mk. Ketterly</tspan><tspan x="0" dy="46.150000000000006px">Salt</tspan></text><path d="M244.9765,171.98512c2.29059,0 4.14749,1.85691 4.14749,4.14749c0,2.29059 -1.85691,4.14749 -4.14749,4.14749c-2.29059,0 -4.14749,-1.85691 -4.14749,-4.14749c0,-2.29059 1.85691,-4.14749 4.14749,-4.14749z" data-paper-data="{&quot;index&quot;:null}" fill="#000000" stroke="none" stroke-width="0" stroke-linecap="butt"/><path d="M246.41803,173.49886c0.81128,0 1.46894,0.65768 1.46894,1.46894c0,0.81125 -0.65768,1.46894 -1.46894,1.46894c-0.81128,0 -1.46894,-0.65768 -1.46894,-1.46894c0,-0.81128 0.65768,-1.46894 1.46894,-1.46894z" data-paper-data="{&quot;index&quot;:null}" fill="#ffffff" stroke="none" stroke-width="0" stroke-linecap="butt"/><path d="M244.43568,176.5856c0.45072,0 0.81608,0.36539 0.81608,0.81608c0,0.45072 -0.36539,0.81608 -0.81608,0.81608c-0.45072,0 -0.81608,-0.36539 -0.81608,-0.81608c0,-0.45072 0.36539,-0.81608 0.81608,-0.81608z" data-paper-data="{&quot;index&quot;:null}" fill="#ffffff" stroke="none" stroke-width="0" stroke-linecap="butt"/><path d="M264.95816,176.27173c0,2.29059 -1.85691,4.14749 -4.14749,4.14749c-2.29059,0 -4.14749,-1.85691 -4.14749,-4.14749c0,-2.29059 1.85691,-4.14749 4.14749,-4.14749c2.29059,0 4.14749,1.85691 4.14749,4.14749z" data-paper-data="{&quot;index&quot;:null}" fill="#000000" stroke="none" stroke-width="0" stroke-linecap="butt"/><path d="M260.8381,175.10693c0,0.81128 -0.65766,1.46894 -1.46894,1.46894c-0.81128,0 -1.46895,-0.65769 -1.46895,-1.46894c0,-0.81128 0.65768,-1.46894 1.46895,-1.46894c0.81128,0 1.46894,0.65766 1.46894,1.46894z" data-paper-data="{&quot;index&quot;:null}" fill="#ffffff" stroke="none" stroke-width="0" stroke-linecap="butt"/><path d="M262.16759,177.5408c0,0.45069 -0.36536,0.81609 -0.81608,0.81609c-0.45069,0 -0.81609,-0.36537 -0.81609,-0.81609c0,-0.45069 0.36537,-0.81608 0.81609,-0.81608c0.45069,0 0.81608,0.36536 0.81608,0.81608z" data-paper-data="{&quot;index&quot;:null}" fill="#ffffff" stroke="none" stroke-width="0" stroke-linecap="butt"/><path d="M244.62556,168.54962l8.0423,2.41269" fill="none" stroke="#000000" stroke-width="0.5" stroke-linecap="round"/><path d="M254.43717,171.44484l8.0423,-2.41269" data-paper-data="{&quot;index&quot;:null}" fill="none" stroke="#000000" stroke-width="0.5" stroke-linecap="round"/><path d="M261.44577,206.77506c0,3.0609 -3.59814,5.54224 -8.03668,5.54224c-4.43853,0 -8.03668,-2.48135 -8.03668,-5.54224c0,-3.0609 3.59814,-5.54224 8.03668,-5.54224c4.43853,0 8.03668,2.48135 8.03668,5.54224z" fill="#000000" stroke="none" stroke-width="0" stroke-linecap="butt"/><path d="M260.88632,208.70031c0,2.04328 -3.31554,3.69969 -7.40547,3.69969c-4.08993,0 -7.40547,-1.65641 -7.40547,-3.69969c0,-2.04328 3.31554,-3.69969 7.40547,-3.69969c4.08993,0 7.40547,1.65641 7.40547,3.69969z" fill="#ff6666" stroke="none" stroke-width="NaN" stroke-linecap="butt"/><path d="M220.54684,241.9748v-101.05204h71.84036v101.05204z" fill="none" stroke="none" stroke-width="0" stroke-linecap="butt"/></g></g></svg>