<svg version="1.1" xmlns="http://www.w3.org/2000/svg" xmlns:xlink="http://www.w3.org/1999/xlink" width="53.34728" height="90.37657" viewBox="0,0,53.34728,90.37657"><g transform="translate(-225.56178,-151.38145)"><g data-paper-data="{&quot;isPaintingLayer&quot;:true}" fill-rule="nonzero" stroke-linejoin="miter" stroke-miterlimit="10" stroke-dasharray="" stroke-dashoffset="0" style="mix-blend-mode: normal"><path d="M243.63961,234.3125c0,-6.49452 0,-40.125 0,-40.125h10.625c0,0 0,33.07845 0,39.75c0,2.24473 -1.38928,4.5 -3,4.5c-1.49579,0 -3.18255,0 -4.125,0c-1.37184,0 -3.5,-2.04266 -3.5,-4.125z" fill="#fafafa" stroke="#000000" stroke-width="1.5" stroke-linecap="butt"/><path d="M231.38961,175.1875c0,-11.59798 7.97493,-21 17.8125,-21c9.83757,0 17.8125,9.40202 17.8125,21c0,11.59798 -7.97493,21 -17.8125,21c-9.83757,0 -17.8125,-9.40202 -17.8125,-21z" fill="#fafafa" stroke="#000000" stroke-width="1.5" stroke-linecap="butt"/><path d="M235.76461,182.6875c0,0 -0.39331,-8.82885 -0.05371,-12.84786c0.02324,-0.27509 0.55168,-0.65265 0.58591,-0.8783c0.58594,-3.86287 4.8428,-9.39884 4.8428,-9.39884" fill="none" stroke="#000000" stroke-width="1.5" stroke-linecap="round"/><path d="M242.68197,170.43681c1.73669,0 3.14457,1.40788 3.14457,3.14457c0,1.73669 -1.40788,3.14457 -3.14457,3.14457c-1.73669,0 -3.14457,-1.40788 -3.14457,-3.14457c0,-1.73669 1.40788,-3.14457 3.14457,-3.14457z" data-paper-data="{&quot;index&quot;:null}" fill="#000000" stroke="none" stroke-width="0" stroke-linecap="butt"/><path d="M243.77492,171.58451c0.6151,0 1.11373,0.49864 1.11373,1.11373c0,0.61508 -0.49864,1.11373 -1.11373,1.11373c-0.6151,0 -1.11373,-0.49864 -1.11373,-1.11373c0,-0.6151 0.49864,-1.11373 1.11373,-1.11373z" data-paper-data="{&quot;index&quot;:null}" fill="#ffffff" stroke="none" stroke-width="0" stroke-linecap="butt"/><path d="M242.27193,173.92483c0.34173,0 0.61874,0.27703 0.61874,0.61874c0,0.34173 -0.27703,0.61874 -0.61874,0.61874c-0.34173,0 -0.61874,-0.27703 -0.61874,-0.61874c0,-0.34173 0.27703,-0.61874 0.61874,-0.61874z" data-paper-data="{&quot;index&quot;:null}" fill="#ffffff" stroke="none" stroke-width="0" stroke-linecap="butt"/><path d="M257.83178,173.68686c0,1.73669 -1.40788,3.14457 -3.14457,3.14457c-1.73669,0 -3.14457,-1.40788 -3.14457,-3.14457c0,-1.73669 1.40788,-3.14457 3.14457,-3.14457c1.73669,0 3.14457,1.40788 3.14457,3.14457z" data-paper-data="{&quot;index&quot;:null}" fill="#000000" stroke="none" stroke-width="0" stroke-linecap="butt"/><path d="M254.70801,172.80372c0,0.6151 -0.49863,1.11373 -1.11373,1.11373c-0.6151,0 -1.11374,-0.49865 -1.11374,-1.11373c0,-0.6151 0.49864,-1.11373 1.11374,-1.11373c0.6151,0 1.11373,0.49863 1.11373,1.11373z" data-paper-data="{&quot;index&quot;:null}" fill="#ffffff" stroke="none" stroke-width="0" stroke-linecap="butt"/><path d="M255.71601,174.64905c0,0.34171 -0.27701,0.61875 -0.61874,0.61875c-0.34171,0 -0.61875,-0.27702 -0.61875,-0.61875c0,-0.34171 0.27702,-0.61874 0.61875,-0.61874c0.34171,0 0.61874,0.27701 0.61874,0.61874z" data-paper-data="{&quot;index&quot;:null}" fill="#ffffff" stroke="none" stroke-width="0" stroke-linecap="butt"/><path d="M244.47829,178.99815l7.95399,1.87153" fill="none" stroke="#000000" stroke-width="0.5" stroke-linecap="round"/><path d="M246.97497,181.8343c0.39058,-1.41587 0.8201,-2.1395 1.58422,-1.92871c0.49861,0.13755 1.43862,0.048 1.62979,0.77326c0.1018,0.38619 -0.31118,1.42682 -0.44689,1.91879c-0.39058,1.41587 -1.32666,2.39277 -2.09078,2.18198c-0.76412,-0.21079 -1.06693,-1.52946 -0.67634,-2.94533z" fill="none" stroke="#000000" stroke-width="0.5" stroke-linecap="butt"/><path d="M248.51345,169.66133l-6.09756,-1.82927" fill="none" stroke="#000000" stroke-width="0.5" stroke-linecap="round"/><path d="M255.95247,168.19791l-6.09756,1.82927" data-paper-data="{&quot;index&quot;:null}" fill="none" stroke="#000000" stroke-width="0.5" stroke-linecap="round"/><path d="M245.46467,202.2223v29.5122" fill="none" stroke="#000000" stroke-width="0.5" stroke-linecap="round"/><path d="M225.56178,241.75802v-90.37657h53.34728v90.37657z" fill="none" stroke="none" stroke-width="0" stroke-linecap="butt"/></g></g></svg>