<svg version="1.1" xmlns="http://www.w3.org/2000/svg" xmlns:xlink="http://www.w3.org/1999/xlink" width="230.34391" height="106.73682" viewBox="0,0,230.34391,106.73682"><g transform="translate(-165.03733,-111.91428)"><g data-paper-data="{&quot;isPaintingLayer&quot;:true}" fill-rule="nonzero" stroke-linejoin="miter" stroke-miterlimit="10" stroke-dasharray="" stroke-dashoffset="0" style="mix-blend-mode: normal"><path d="M219.81836,197.12487c0,0 -0.30004,-24.99903 -0.08506,-30.3734c0.09662,-2.41546 1.33506,-0.8766 1.33506,-0.8766l31.75,-0.875c0,0 1.1128,-0.35129 1.20902,2.12173c0.21474,5.51897 0.04098,30.00327 0.04098,30.00327c0,0 -3.25225,0.88561 -7.59631,1.23373c-2.70746,0.21697 -5.41508,0.39307 -7.53914,0.39307c-1.48522,0 -5.26172,-0.36478 -7.27611,-0.47919c-5.94045,-0.33738 -11.83844,-1.14761 -11.83844,-1.14761z" fill="#fffbf5" stroke="#000000" stroke-width="1" stroke-linecap="butt"/><path d="M254.1058,166.93737c0,4.86701 -7.66295,5.35429 -17.29341,5.35429c-9.63046,0 -17.58159,-0.48728 -17.58159,-5.35429c0,-4.86701 8.09522,-3.62518 17.72568,-3.62518c9.63046,0 17.14932,-1.24183 17.14932,3.62518z" fill="#fffbf5" stroke="#000000" stroke-width="1" stroke-linecap="butt"/><path d="M215.71992,206.70157v-53.40314h48.56021v53.40314z" fill="none" stroke="none" stroke-width="0" stroke-linecap="butt"/><path d="M229.07071,182.09424c0,-1.2289 0.99623,-2.22513 2.22513,-2.22513c1.2289,0 2.22513,0.99623 2.22513,2.22513c0,1.2289 -0.99623,2.22513 -2.22513,2.22513c-1.2289,0 -2.22513,-0.99623 -2.22513,-2.22513z" fill="#000000" stroke="none" stroke-width="0" stroke-linecap="butt"/><path d="M238.3639,182.22513c0,-1.15661 0.93763,-2.09424 2.09424,-2.09424c1.15661,0 2.09424,0.93762 2.09424,2.09424c0,1.15661 -0.93762,2.09424 -2.09424,2.09424c-1.15661,0 -2.09424,-0.93763 -2.09424,-2.09424z" fill="#000000" stroke="none" stroke-width="0" stroke-linecap="butt"/><path d="M230.90936,181.60384c0,-0.43525 0.35284,-0.78809 0.78809,-0.78809c0.43525,0 0.78809,0.35285 0.78809,0.78809c0,0.43525 -0.35284,0.78809 -0.78809,0.78809c-0.43525,0 -0.78809,-0.35284 -0.78809,-0.78809z" fill="#ffffff" stroke="none" stroke-width="0" stroke-linecap="butt"/><path d="M230.56786,182.83852c0,-0.2418 0.19602,-0.43783 0.43783,-0.43783c0.2418,0 0.43783,0.19602 0.43783,0.43783c0,0.2418 -0.19602,0.43783 -0.43783,0.43783c-0.2418,0 -0.43783,-0.19602 -0.43783,-0.43783z" fill="#ffffff" stroke="none" stroke-width="0" stroke-linecap="butt"/><path d="M240.12127,182.57582c-0.43525,0 -0.78809,-0.35284 -0.78809,-0.78809c0,-0.43525 0.35284,-0.78809 0.78809,-0.78809c0.43525,0 0.78809,0.35285 0.78809,0.78809c0,0.43525 -0.35284,0.78809 -0.78809,0.78809z" data-paper-data="{&quot;index&quot;:null}" fill="#ffffff" stroke="none" stroke-width="0" stroke-linecap="butt"/><path d="M240.81304,183.46024c-0.2418,0 -0.43783,-0.19603 -0.43783,-0.43783c0,-0.2418 0.19602,-0.43783 0.43783,-0.43783c0.2418,0 0.43783,0.19602 0.43783,0.43783c0,0.2418 -0.19602,0.43783 -0.43783,0.43783z" data-paper-data="{&quot;index&quot;:null}" fill="#ffffff" stroke="none" stroke-width="0" stroke-linecap="butt"/><path d="M241.50481,187.20804c0,0 -2.85839,0.58777 -4.39306,0.48642c-1.55893,-0.10295 -4.8889,-1.09938 -4.8889,-1.09938" fill="none" stroke="#000000" stroke-width="0.5" stroke-linecap="round"/><path d="M241.24211,186.33239c0,0 0.49836,0.63547 0.52795,0.9463c0.02875,0.30187 -0.35282,0.89258 -0.35282,0.89258" fill="none" stroke="#000000" stroke-width="0.5" stroke-linecap="round"/><path d="M221.86873,184.40415c0,0 -0.43228,-4.03458 -0.43228,-6.05187c0,-2.01729 0.43228,-6.05187 0.43228,-6.05187" fill="none" stroke="#ebfcff" stroke-width="1" stroke-linecap="round"/><path d="M251.94077,181.91136c0,0 0.43228,4.03458 0.43228,6.05187c0,2.01729 -0.43228,6.05187 -0.43228,6.05187" data-paper-data="{&quot;index&quot;:null}" fill="none" stroke="#ebfcff" stroke-width="1" stroke-linecap="round"/><text transform="translate(259.40918,185.49672) scale(0.30015,0.30015)" font-size="40" xml:space="preserve" fill="#000000" fill-rule="nonzero" stroke="none" stroke-width="1" stroke-linecap="butt" stroke-linejoin="miter" stroke-miterlimit="10" stroke-dasharray="" stroke-dashoffset="0" font-family="Handwriting" font-weight="normal" text-anchor="start" style="mix-blend-mode: normal"><tspan x="0" dy="0">- White Marshmellow</tspan></text><path d="M165.03733,218.6511v-106.73682h230.34391v106.73682z" fill="none" stroke="none" stroke-width="0" stroke-linecap="butt"/></g></g></svg>