<svg version="1.1" xmlns="http://www.w3.org/2000/svg" xmlns:xlink="http://www.w3.org/1999/xlink" width="137.5722" height="173.09603" viewBox="0,0,137.5722,173.09603"><g transform="translate(-170.5379,-56.26119)"><g data-paper-data="{&quot;isPaintingLayer&quot;:true}" fill-rule="nonzero" stroke-linejoin="miter" stroke-miterlimit="10" stroke-dasharray="" stroke-dashoffset="0" style="mix-blend-mode: normal"><path d="M219.81837,197.12487c0,0 -0.30004,-24.99903 -0.08506,-30.3734c0.09662,-2.41546 1.33506,-0.8766 1.33506,-0.8766l31.75,-0.875c0,0 1.1128,-0.35129 1.20902,2.12173c0.21474,5.51897 0.04098,30.00327 0.04098,30.00327c0,0 -3.25225,0.88561 -7.59631,1.23373c-2.70746,0.21697 -5.41508,0.39307 -7.53914,0.39307c-1.48522,0 -5.26172,-0.36478 -7.27611,-0.47919c-5.94045,-0.33738 -11.83844,-1.14761 -11.83844,-1.14761z" fill="#fffbf5" stroke="#000000" stroke-width="1" stroke-linecap="butt"/><path d="M254.10581,166.93737c0,4.86701 -7.66295,5.35429 -17.29341,5.35429c-9.63046,0 -17.58159,-0.48728 -17.58159,-5.35429c0,-4.86701 8.09522,-3.62518 17.72568,-3.62518c9.63046,0 17.14932,-1.24183 17.14932,3.62518z" fill="#fffbf5" stroke="#000000" stroke-width="1" stroke-linecap="butt"/><path d="M215.71993,206.70158v-53.40314h48.56021v53.40314z" fill="none" stroke="none" stroke-width="0" stroke-linecap="butt"/><path d="M229.07072,182.09425c0,-1.2289 0.99623,-2.22513 2.22513,-2.22513c1.2289,0 2.22513,0.99623 2.22513,2.22513c0,1.2289 -0.99623,2.22513 -2.22513,2.22513c-1.2289,0 -2.22513,-0.99623 -2.22513,-2.22513z" fill="#000000" stroke="none" stroke-width="0" stroke-linecap="butt"/><path d="M238.36391,182.22514c0,-1.15661 0.93763,-2.09424 2.09424,-2.09424c1.15661,0 2.09424,0.93762 2.09424,2.09424c0,1.15661 -0.93762,2.09424 -2.09424,2.09424c-1.15661,0 -2.09424,-0.93763 -2.09424,-2.09424z" fill="#000000" stroke="none" stroke-width="0" stroke-linecap="butt"/><path d="M230.90937,181.60384c0,-0.43525 0.35284,-0.78809 0.78809,-0.78809c0.43525,0 0.78809,0.35285 0.78809,0.78809c0,0.43525 -0.35284,0.78809 -0.78809,0.78809c-0.43525,0 -0.78809,-0.35284 -0.78809,-0.78809z" fill="#ffffff" stroke="none" stroke-width="0" stroke-linecap="butt"/><path d="M230.56787,182.83853c0,-0.2418 0.19602,-0.43783 0.43783,-0.43783c0.2418,0 0.43783,0.19602 0.43783,0.43783c0,0.2418 -0.19602,0.43783 -0.43783,0.43783c-0.2418,0 -0.43783,-0.19602 -0.43783,-0.43783z" fill="#ffffff" stroke="none" stroke-width="0" stroke-linecap="butt"/><path d="M240.12128,182.57583c-0.43525,0 -0.78809,-0.35284 -0.78809,-0.78809c0,-0.43525 0.35284,-0.78809 0.78809,-0.78809c0.43525,0 0.78809,0.35285 0.78809,0.78809c0,0.43525 -0.35284,0.78809 -0.78809,0.78809z" data-paper-data="{&quot;index&quot;:null}" fill="#ffffff" stroke="none" stroke-width="0" stroke-linecap="butt"/><path d="M240.81305,183.46025c-0.2418,0 -0.43783,-0.19603 -0.43783,-0.43783c0,-0.2418 0.19602,-0.43783 0.43783,-0.43783c0.2418,0 0.43783,0.19602 0.43783,0.43783c0,0.2418 -0.19602,0.43783 -0.43783,0.43783z" data-paper-data="{&quot;index&quot;:null}" fill="#ffffff" stroke="none" stroke-width="0" stroke-linecap="butt"/><path d="M241.50482,187.20805c0,0 -2.85839,0.58777 -4.39306,0.48642c-1.55893,-0.10295 -4.8889,-1.09938 -4.8889,-1.09938" fill="none" stroke="#000000" stroke-width="0.5" stroke-linecap="round"/><path d="M241.24212,186.3324c0,0 0.49836,0.63547 0.52795,0.9463c0.02875,0.30187 -0.35282,0.89258 -0.35282,0.89258" fill="none" stroke="#000000" stroke-width="0.5" stroke-linecap="round"/><path d="M221.86874,184.40416c0,0 -0.43228,-4.03458 -0.43228,-6.05187c0,-2.01729 0.43228,-6.05187 0.43228,-6.05187" fill="none" stroke="#ebfcff" stroke-width="1" stroke-linecap="round"/><path d="M251.94078,181.91137c0,0 0.43228,4.03458 0.43228,6.05187c0,2.01729 -0.43228,6.05187 -0.43228,6.05187" data-paper-data="{&quot;index&quot;:null}" fill="none" stroke="#ebfcff" stroke-width="1" stroke-linecap="round"/><path d="M222.12997,167.9428l-20.45243,-36.72139" fill="#f1efed" stroke="#000000" stroke-width="2" stroke-linecap="round"/><path d="M252.78171,165.81842l13.0264,-32.77612" fill="#f1efed" stroke="#000000" stroke-width="2" stroke-linecap="round"/><path d="M277.0603,138.20152c0,9.21848 -7.52573,18.20896 -37.02488,18.20896c-29.49915,0 -41.27363,-8.99047 -41.27363,-18.20896c0,-9.21848 9.34662,-46.73632 38.84577,-46.73632c29.49915,0 39.45274,37.51784 39.45274,46.73632z" fill="#f1efed" stroke="#000000" stroke-width="2" stroke-linecap="butt"/><path d="M224.68421,119.76252c0,0 -2.30181,-7.57434 -2.71169,-9.22741c-0.18421,-0.74295 0.32841,-0.38458 0.32841,-0.38458l9.57611,-3.07359c0,0 0.30728,-0.20521 0.55522,0.5382c0.55331,1.65904 2.66555,9.11877 2.66555,9.11877c0,0 -0.91052,0.55685 -2.20054,1.04683c-0.80401,0.30538 -1.61168,0.59834 -2.25749,0.78617c-0.45157,0.13134 -1.63206,0.35437 -2.25465,0.49771c-1.836,0.42271 -3.70092,0.69791 -3.70092,0.69791z" fill="#fffbf5" stroke="#000000" stroke-width="1" stroke-linecap="butt"/><path d="M232.43981,107.55218c0.43037,1.4798 -1.85643,2.30557 -4.78454,3.15716c-2.92811,0.85159 -5.38871,1.40653 -5.81909,-0.07327c-0.43037,-1.4798 2.14076,-1.81806 5.06887,-2.66965c2.92811,-0.85159 5.10438,-1.89404 5.53475,-0.41424z" fill="#fffbf5" stroke="#000000" stroke-width="1" stroke-linecap="butt"/><path d="M224.28493,123.03669l-4.72227,-16.23705l14.76457,-4.29402l4.72227,16.23704z" fill="none" stroke="none" stroke-width="0" stroke-linecap="butt"/><path d="M226.16825,114.37435c-0.10867,-0.37364 0.10613,-0.76463 0.47978,-0.87331c0.37365,-0.10867 0.76464,0.10614 0.87331,0.47979c0.10867,0.37364 -0.10613,0.76463 -0.47978,0.8733c-0.37365,0.10867 -0.76463,-0.10614 -0.8733,-0.47978z" fill="#000000" stroke="none" stroke-width="0" stroke-linecap="butt"/><path d="M229.00538,113.59238c-0.10227,-0.35166 0.0999,-0.71966 0.45156,-0.82193c0.35166,-0.10228 0.71966,0.0999 0.82193,0.45156c0.10227,0.35166 -0.0999,0.71966 -0.45156,0.82193c-0.35166,0.10228 -0.71966,-0.0999 -0.82193,-0.45156z" fill="#000000" stroke="none" stroke-width="0" stroke-linecap="butt"/><path d="M226.68392,114.06266c-0.03849,-0.13233 0.03759,-0.27082 0.16993,-0.30931c0.13234,-0.03849 0.27082,0.0376 0.3093,0.16993c0.03849,0.13233 -0.03759,0.27081 -0.16993,0.3093c-0.13234,0.03849 -0.27081,-0.03759 -0.3093,-0.16993z" fill="#ffffff" stroke="none" stroke-width="0" stroke-linecap="butt"/><path d="M226.68927,114.46826c-0.02138,-0.07352 0.02088,-0.15046 0.0944,-0.17184c0.07352,-0.02138 0.15046,0.02089 0.17184,0.09441c0.02138,0.07352 -0.02089,0.15046 -0.09441,0.17184c-0.07352,0.02138 -0.15045,-0.02089 -0.17183,-0.09441z" fill="#ffffff" stroke="none" stroke-width="0" stroke-linecap="butt"/><path d="M229.57072,113.5436c-0.13234,0.03849 -0.27081,-0.03759 -0.3093,-0.16992c-0.03849,-0.13233 0.03759,-0.27082 0.16993,-0.30931c0.13234,-0.03849 0.27081,0.0376 0.3093,0.16993c0.03849,0.13233 -0.03759,0.27081 -0.16993,0.3093z" data-paper-data="{&quot;index&quot;:null}" fill="#ffffff" stroke="none" stroke-width="0" stroke-linecap="butt"/><path d="M229.85925,113.75134c-0.07352,0.02138 -0.15045,-0.02088 -0.17183,-0.0944c-0.02138,-0.07352 0.02088,-0.15046 0.0944,-0.17184c0.07352,-0.02138 0.15045,0.02089 0.17183,0.09441c0.02138,0.07352 -0.02088,0.15045 -0.0944,0.17183z" data-paper-data="{&quot;index&quot;:null}" fill="#ffffff" stroke="none" stroke-width="0" stroke-linecap="butt"/><path d="M230.40099,114.82967c0,0 -0.81711,0.43147 -1.29269,0.53636c-0.48309,0.10655 -1.58366,0.09804 -1.58366,0.09804" fill="none" stroke="#000000" stroke-width="0.5" stroke-linecap="round"/><path d="M230.24369,114.58666c0,0 0.20772,0.14914 0.2442,0.24103c0.03544,0.08924 -0.02835,0.30258 -0.02835,0.30258" fill="none" stroke="#000000" stroke-width="0.5" stroke-linecap="round"/><path d="M224.18277,115.71352c0,0 -0.48819,-1.18847 -0.66658,-1.80182c-0.17838,-0.61335 -0.40372,-1.87828 -0.40372,-1.87828" fill="none" stroke="#ebfcff" stroke-width="1" stroke-linecap="round"/><path d="M233.10564,112.29642c0,0 0.4882,1.18848 0.66658,1.80183c0.17838,0.61335 0.40372,1.87828 0.40372,1.87828" data-paper-data="{&quot;index&quot;:null}" fill="none" stroke="#ebfcff" stroke-width="1" stroke-linecap="round"/><path d="M248.73652,122.62124c0,0 5.68529,-5.50876 6.96834,-6.62876c0.57665,-0.50338 0.49215,0.11636 0.49215,0.11636l7.11002,7.11312c0,0 0.32295,0.17954 -0.22499,0.7398c-1.22282,1.25032 -6.8928,6.53808 -6.8928,6.53808c0,0 -0.9114,-0.55541 -1.93674,-1.47894c-0.63905,-0.57559 -1.26872,-1.16011 -1.73092,-1.64871c-0.32318,-0.34164 -1.06103,-1.28973 -1.47304,-1.778c-1.21502,-1.4399 -2.31204,-2.97294 -2.31204,-2.97294z" fill="#fffbf5" stroke="#000000" stroke-width="1" stroke-linecap="butt"/><path d="M263.14149,123.9397c-1.11957,1.05906 -2.89911,-0.59763 -4.99468,-2.81295c-2.09557,-2.21532 -3.71363,-4.15035 -2.59406,-5.20941c1.11957,-1.05906 2.59541,1.07332 4.69098,3.28864c2.09557,2.21532 4.01733,3.67466 2.89776,4.73372z" fill="#fffbf5" stroke="#000000" stroke-width="1" stroke-linecap="butt"/><path d="M245.64176,123.76234l12.28443,-11.62042l10.56661,11.1704l-12.28442,11.62043z" fill="none" stroke="none" stroke-width="0" stroke-linecap="butt"/><path d="M254.20734,121.47894c0.28268,-0.26741 0.72862,-0.25502 0.99604,0.02766c0.26741,0.28269 0.25501,0.72862 -0.02767,0.99603c-0.28268,0.26741 -0.72862,0.25502 -0.99604,-0.02766c-0.26741,-0.28269 -0.25501,-0.72862 0.02767,-0.99603z" fill="#000000" stroke="none" stroke-width="0" stroke-linecap="butt"/><path d="M256.19939,123.64515c0.26606,-0.25168 0.68577,-0.24002 0.93745,0.02604c0.25167,0.26606 0.24002,0.68577 -0.02604,0.93744c-0.26606,0.25168 -0.68577,0.24002 -0.93744,-0.02604c-0.25168,-0.26606 -0.24002,-0.68577 0.02604,-0.93744z" fill="#000000" stroke="none" stroke-width="0" stroke-linecap="butt"/><path d="M254.72023,121.79517c0.10012,-0.09471 0.25806,-0.09032 0.35277,0.0098c0.09471,0.10012 0.09032,0.25807 -0.0098,0.35278c-0.10012,0.09471 -0.25806,0.09032 -0.35277,-0.0098c-0.09471,-0.10012 -0.09032,-0.25807 0.00981,-0.35278z" fill="#ffffff" stroke="none" stroke-width="0" stroke-linecap="butt"/><path d="M254.3619,121.98529c0.05562,-0.05262 0.14338,-0.05019 0.19599,0.00544c0.05262,0.05563 0.05018,0.14337 -0.00545,0.19599c-0.05562,0.05262 -0.14337,0.05018 -0.19599,-0.00544c-0.05262,-0.05563 -0.05018,-0.14337 0.00544,-0.19598z" fill="#ffffff" stroke="none" stroke-width="0" stroke-linecap="butt"/><path d="M256.50113,124.12571c-0.09471,-0.10012 -0.09033,-0.25806 0.00979,-0.35277c0.10012,-0.09471 0.25806,-0.09032 0.35278,0.0098c0.09471,0.10012 0.09032,0.25807 -0.0098,0.35277c-0.10012,0.09471 -0.25806,0.09032 -0.35277,-0.0098z" data-paper-data="{&quot;index&quot;:null}" fill="#ffffff" stroke="none" stroke-width="0" stroke-linecap="butt"/><path d="M256.44822,124.47728c-0.05262,-0.05563 -0.05018,-0.14337 0.00545,-0.19598c0.05563,-0.05262 0.14337,-0.05018 0.19598,0.00544c0.05262,0.05563 0.05018,0.14337 -0.00544,0.19598c-0.05563,0.05262 -0.14337,0.05018 -0.19599,-0.00544z" data-paper-data="{&quot;index&quot;:null}" fill="#ffffff" stroke="none" stroke-width="0" stroke-linecap="butt"/><path d="M255.73664,125.45193c0,0 -0.75718,-0.52963 -1.06781,-0.90471c-0.31554,-0.38101 -0.81092,-1.36382 -0.81092,-1.36382" fill="none" stroke="#000000" stroke-width="0.5" stroke-linecap="round"/><path d="M255.8809,125.20096c0,0 -0.03773,0.25292 -0.1028,0.32735c-0.06319,0.0723 -0.28209,0.11306 -0.28209,0.11306" fill="none" stroke="#000000" stroke-width="0.5" stroke-linecap="round"/><path d="M252.10884,120.32488c0,0 0.83402,-0.97735 1.29806,-1.41631c0.46404,-0.43896 1.48619,-1.21744 1.48619,-1.21744" fill="none" stroke="#ebfcff" stroke-width="1" stroke-linecap="round"/><path d="M259.22587,126.69998c0,0 -0.83402,0.97736 -1.29806,1.41632c-0.46404,0.43896 -1.48619,1.21743 -1.48619,1.21743" data-paper-data="{&quot;index&quot;:null}" fill="none" stroke="#ebfcff" stroke-width="1" stroke-linecap="round"/><path d="M241.36083,111.25008c0,0 -2.30181,-7.57434 -2.71168,-9.22741c-0.18421,-0.74295 0.3284,-0.38458 0.3284,-0.38458l9.57611,-3.07359c0,0 0.30728,-0.20521 0.55522,0.5382c0.55331,1.65904 2.66555,9.11877 2.66555,9.11877c0,0 -0.91052,0.55685 -2.20054,1.04683c-0.80401,0.30538 -1.61168,0.59834 -2.25749,0.78617c-0.45157,0.13134 -1.63206,0.35437 -2.25465,0.49771c-1.836,0.42271 -3.70092,0.69791 -3.70092,0.69791z" fill="#fffbf5" stroke="#000000" stroke-width="1" stroke-linecap="butt"/><path d="M249.11642,99.03974c0.43037,1.4798 -1.85643,2.30556 -4.78454,3.15715c-2.92811,0.85159 -5.38871,1.40654 -5.81909,-0.07326c-0.43037,-1.4798 2.14076,-1.81806 5.06887,-2.66965c2.92811,-0.85159 5.10438,-1.89404 5.53475,-0.41424z" fill="#fffbf5" stroke="#000000" stroke-width="1" stroke-linecap="butt"/><path d="M240.96155,114.52425l-4.72227,-16.23705l14.76457,-4.29402l4.72227,16.23704z" fill="none" stroke="none" stroke-width="0" stroke-linecap="butt"/><path d="M242.84486,105.86191c-0.10867,-0.37364 0.10613,-0.76463 0.47978,-0.87331c0.37365,-0.10867 0.76463,0.10614 0.8733,0.47978c0.10867,0.37364 -0.10613,0.76463 -0.47978,0.87331c-0.37365,0.10867 -0.76463,-0.10614 -0.8733,-0.47978z" fill="#000000" stroke="none" stroke-width="0" stroke-linecap="butt"/><path d="M245.682,105.07994c-0.10227,-0.35166 0.0999,-0.71966 0.45156,-0.82193c0.35166,-0.10228 0.71966,0.09989 0.82193,0.45156c0.10227,0.35166 -0.0999,0.71966 -0.45156,0.82194c-0.35166,0.10228 -0.71966,-0.0999 -0.82193,-0.45156z" fill="#000000" stroke="none" stroke-width="0" stroke-linecap="butt"/><path d="M243.36053,105.55022c-0.03849,-0.13233 0.03759,-0.27082 0.16993,-0.30931c0.13234,-0.03849 0.27082,0.0376 0.3093,0.16993c0.03849,0.13233 -0.03759,0.27081 -0.16993,0.3093c-0.13234,0.03849 -0.27081,-0.03759 -0.3093,-0.16993z" fill="#ffffff" stroke="none" stroke-width="0" stroke-linecap="butt"/><path d="M243.36588,105.95582c-0.02138,-0.07352 0.02088,-0.15046 0.0944,-0.17184c0.07352,-0.02138 0.15046,0.02089 0.17184,0.09441c0.02138,0.07352 -0.02089,0.15046 -0.09441,0.17184c-0.07352,0.02138 -0.15045,-0.02089 -0.17183,-0.09441z" fill="#ffffff" stroke="none" stroke-width="0" stroke-linecap="butt"/><path d="M246.24733,105.03116c-0.13234,0.03849 -0.27081,-0.03759 -0.3093,-0.16992c-0.03849,-0.13233 0.03759,-0.27082 0.16993,-0.30931c0.13234,-0.03849 0.27081,0.0376 0.3093,0.16993c0.03849,0.13233 -0.03759,0.27081 -0.16993,0.3093z" data-paper-data="{&quot;index&quot;:null}" fill="#ffffff" stroke="none" stroke-width="0" stroke-linecap="butt"/><path d="M246.53587,105.2389c-0.07352,0.02138 -0.15045,-0.02088 -0.17183,-0.0944c-0.02138,-0.07352 0.02088,-0.15046 0.0944,-0.17184c0.07352,-0.02138 0.15045,0.02088 0.17183,0.0944c0.02138,0.07352 -0.02088,0.15046 -0.0944,0.17184z" data-paper-data="{&quot;index&quot;:null}" fill="#ffffff" stroke="none" stroke-width="0" stroke-linecap="butt"/><path d="M247.07761,106.31723c0,0 -0.81711,0.43147 -1.29269,0.53636c-0.48309,0.10655 -1.58366,0.09805 -1.58366,0.09805" fill="none" stroke="#000000" stroke-width="0.5" stroke-linecap="round"/><path d="M246.9203,106.07422c0,0 0.20772,0.14915 0.2442,0.24104c0.03544,0.08924 -0.02835,0.30258 -0.02835,0.30258" fill="none" stroke="#000000" stroke-width="0.5" stroke-linecap="round"/><path d="M240.85938,107.20108c0,0 -0.4882,-1.18847 -0.66658,-1.80182c-0.17838,-0.61335 -0.40372,-1.87828 -0.40372,-1.87828" fill="none" stroke="#ebfcff" stroke-width="1" stroke-linecap="round"/><path d="M249.78225,103.78398c0,0 0.4882,1.18848 0.66658,1.80183c0.17838,0.61335 0.40372,1.87828 0.40372,1.87828" data-paper-data="{&quot;index&quot;:null}" fill="none" stroke="#ebfcff" stroke-width="1" stroke-linecap="round"/><path d="M209.94292,140.22519c0,0 -2.30181,-7.57434 -2.71168,-9.22741c-0.18421,-0.74295 0.32841,-0.38458 0.32841,-0.38458l9.5761,-3.0736c0,0 0.30728,-0.20521 0.55522,0.5382c0.55331,1.65903 2.66556,9.11877 2.66556,9.11877c0,0 -0.91052,0.55686 -2.20054,1.04683c-0.80401,0.30538 -1.61168,0.59834 -2.2575,0.78617c-0.45157,0.13134 -1.63206,0.35437 -2.25465,0.49771c-1.836,0.42272 -3.70092,0.69791 -3.70092,0.69791z" fill="#fffbf5" stroke="#000000" stroke-width="1" stroke-linecap="butt"/><path d="M217.69851,128.01486c0.43037,1.4798 -1.85643,2.30557 -4.78454,3.15716c-2.92811,0.85159 -5.38871,1.40653 -5.81909,-0.07327c-0.43037,-1.4798 2.14076,-1.81806 5.06887,-2.66965c2.92811,-0.85159 5.10438,-1.89404 5.53475,-0.41424z" fill="#fffbf5" stroke="#000000" stroke-width="1" stroke-linecap="butt"/><path d="M209.54364,143.49937l-4.72227,-16.23705l14.76456,-4.29403l4.72228,16.23704z" fill="none" stroke="none" stroke-width="0" stroke-linecap="butt"/><path d="M211.42695,134.83702c-0.10867,-0.37365 0.10613,-0.76463 0.47978,-0.8733c0.37365,-0.10867 0.76463,0.10614 0.8733,0.47978c0.10867,0.37365 -0.10613,0.76463 -0.47978,0.8733c-0.37365,0.10867 -0.76463,-0.10614 -0.8733,-0.47978z" fill="#000000" stroke="none" stroke-width="0" stroke-linecap="butt"/><path d="M214.26409,134.05505c-0.10227,-0.35166 0.0999,-0.71966 0.45156,-0.82193c0.35166,-0.10227 0.71966,0.0999 0.82193,0.45156c0.10227,0.35166 -0.0999,0.71966 -0.45156,0.82193c-0.35166,0.10227 -0.71966,-0.0999 -0.82193,-0.45156z" fill="#000000" stroke="none" stroke-width="0" stroke-linecap="butt"/><path d="M211.94262,134.52533c-0.03849,-0.13234 0.03759,-0.27081 0.16993,-0.3093c0.13234,-0.03849 0.27082,0.03759 0.3093,0.16993c0.03849,0.13234 -0.03759,0.27081 -0.16993,0.3093c-0.13234,0.03849 -0.27081,-0.03759 -0.3093,-0.16993z" fill="#ffffff" stroke="none" stroke-width="0" stroke-linecap="butt"/><path d="M211.94797,134.93093c-0.02138,-0.07352 0.02088,-0.15046 0.0944,-0.17184c0.07352,-0.02138 0.15046,0.02089 0.17184,0.09441c0.02138,0.07352 -0.02088,0.15046 -0.0944,0.17184c-0.07352,0.02138 -0.15046,-0.02089 -0.17184,-0.09441z" fill="#ffffff" stroke="none" stroke-width="0" stroke-linecap="butt"/><path d="M214.82942,134.00628c-0.13234,0.03849 -0.27081,-0.03759 -0.3093,-0.16992c-0.03849,-0.13234 0.03759,-0.27082 0.16993,-0.30931c0.13234,-0.03849 0.27081,0.0376 0.3093,0.16993c0.03849,0.13234 -0.03759,0.27081 -0.16993,0.3093z" data-paper-data="{&quot;index&quot;:null}" fill="#ffffff" stroke="none" stroke-width="0" stroke-linecap="butt"/><path d="M215.11796,134.21402c-0.07352,0.02138 -0.15045,-0.02088 -0.17183,-0.0944c-0.02138,-0.07352 0.02088,-0.15046 0.0944,-0.17184c0.07352,-0.02138 0.15045,0.02088 0.17183,0.0944c0.02138,0.07352 -0.02088,0.15046 -0.0944,0.17184z" data-paper-data="{&quot;index&quot;:null}" fill="#ffffff" stroke="none" stroke-width="0" stroke-linecap="butt"/><path d="M215.6597,135.29235c0,0 -0.81711,0.43147 -1.29269,0.53636c-0.48309,0.10655 -1.58366,0.09804 -1.58366,0.09804" fill="none" stroke="#000000" stroke-width="0.5" stroke-linecap="round"/><path d="M215.50239,135.04935c0,0 0.20772,0.14914 0.2442,0.24103c0.03544,0.08924 -0.02835,0.30258 -0.02835,0.30258" fill="none" stroke="#000000" stroke-width="0.5" stroke-linecap="round"/><path d="M209.44147,136.1762c0,0 -0.4882,-1.18847 -0.66658,-1.80182c-0.17838,-0.61335 -0.40372,-1.87828 -0.40372,-1.87828" fill="none" stroke="#ebfcff" stroke-width="1" stroke-linecap="round"/><path d="M218.36434,132.7591c0,0 0.4882,1.18848 0.66658,1.80183c0.17838,0.61335 0.40372,1.87828 0.40372,1.87828" data-paper-data="{&quot;index&quot;:null}" fill="none" stroke="#ebfcff" stroke-width="1" stroke-linecap="round"/><path d="M226.86967,142.41726c0,0 0.30365,-7.91055 0.45732,-9.60673c0.06906,-0.76233 0.43618,-0.25593 0.43618,-0.25593l10.05466,0.22944c0,0 0.35752,-0.09335 0.34852,0.69026c-0.02007,1.74876 -0.46535,9.48897 -0.46535,9.48897c0,0 -1.04262,0.22822 -2.42194,0.26906c-0.85968,0.02545 -1.71875,0.03797 -2.39047,0.00411c-0.46969,-0.02368 -1.65816,-0.19924 -2.29337,-0.26753c-1.87324,-0.2014 -3.72553,-0.55165 -3.72553,-0.55165z" fill="#fffbf5" stroke="#000000" stroke-width="1" stroke-linecap="butt"/><path d="M238.19408,133.4173c-0.07759,1.53916 -2.50871,1.57109 -5.55427,1.41756c-3.04556,-0.15353 -5.55228,-0.43438 -5.47469,-1.97354c0.07759,-1.53916 2.61785,-1.01738 5.66341,-0.86385c3.04556,0.15353 5.44315,-0.11933 5.36556,1.41983z" fill="#fffbf5" stroke="#000000" stroke-width="1" stroke-linecap="butt"/><path d="M225.4209,145.38049l0.85136,-16.88836l15.35681,0.77415l-0.85135,16.88836z" fill="none" stroke="none" stroke-width="0" stroke-linecap="butt"/><path d="M230.03528,137.81144c0.01959,-0.38863 0.35052,-0.6878 0.73915,-0.66821c0.38863,0.01959 0.6878,0.35052 0.66821,0.73916c-0.01959,0.38863 -0.35052,0.6878 -0.73915,0.66821c-0.38863,-0.01959 -0.6878,-0.35052 -0.66821,-0.73916z" fill="#000000" stroke="none" stroke-width="0" stroke-linecap="butt"/><path d="M232.9721,138.00099c0.01844,-0.36577 0.3299,-0.64734 0.69568,-0.6289c0.36577,0.01844 0.64734,0.3299 0.6289,0.69568c-0.01844,0.36577 -0.3299,0.64734 -0.69568,0.6289c-0.36577,-0.01844 -0.64734,-0.3299 -0.6289,-0.69568z" fill="#000000" stroke="none" stroke-width="0" stroke-linecap="butt"/><path d="M230.62456,137.68567c0.00694,-0.13764 0.12415,-0.2436 0.26179,-0.23666c0.13764,0.00694 0.2436,0.12415 0.23666,0.26179c-0.00694,0.13764 -0.12415,0.2436 -0.26179,0.23666c-0.13764,-0.00694 -0.2436,-0.12415 -0.23666,-0.26179z" fill="#ffffff" stroke="none" stroke-width="0" stroke-linecap="butt"/><path d="M230.49688,138.07069c0.00386,-0.07647 0.06897,-0.13534 0.14544,-0.13149c0.07647,0.00386 0.13534,0.06897 0.13148,0.14544c-0.00386,0.07647 -0.06897,0.13534 -0.14544,0.13148c-0.07647,-0.00386 -0.13534,-0.06897 -0.13148,-0.14544z" fill="#ffffff" stroke="none" stroke-width="0" stroke-linecap="butt"/><path d="M233.52226,138.1399c-0.13764,-0.00694 -0.2436,-0.12414 -0.23667,-0.26179c0.00694,-0.13764 0.12415,-0.2436 0.26179,-0.23666c0.13764,0.00694 0.2436,0.12415 0.23666,0.26179c-0.00694,0.13764 -0.12414,0.2436 -0.26179,0.23666z" data-paper-data="{&quot;index&quot;:null}" fill="#ffffff" stroke="none" stroke-width="0" stroke-linecap="butt"/><path d="M233.72693,138.43061c-0.07647,-0.00386 -0.13534,-0.06897 -0.13148,-0.14544c0.00386,-0.07647 0.06897,-0.13534 0.14544,-0.13148c0.07647,0.00386 0.13534,0.06897 0.13148,0.14544c-0.00386,0.07647 -0.06897,0.13534 -0.14544,0.13148z" data-paper-data="{&quot;index&quot;:null}" fill="#ffffff" stroke="none" stroke-width="0" stroke-linecap="butt"/><path d="M233.88595,139.62687c0,0 -0.91332,0.14031 -1.39703,0.08379c-0.49136,-0.05741 -1.52855,-0.42561 -1.52855,-0.42561" fill="none" stroke="#000000" stroke-width="0.5" stroke-linecap="round"/><path d="M233.81684,139.34576c0,0 0.14747,0.20891 0.15187,0.30768c0.00428,0.09592 -0.12581,0.27665 -0.12581,0.27665" fill="none" stroke="#000000" stroke-width="0.5" stroke-linecap="round"/><path d="M227.72088,138.42712c0,0 -0.07238,-1.2828 -0.04023,-1.92075c0.03216,-0.63795 0.23318,-1.90697 0.23318,-1.90697" fill="none" stroke="#ebfcff" stroke-width="1" stroke-linecap="round"/><path d="M237.27069,138.1182c0,0 0.07239,1.2828 0.04023,1.92075c-0.03216,0.63795 -0.23318,1.90697 -0.23318,1.90697" data-paper-data="{&quot;index&quot;:null}" fill="none" stroke="#ebfcff" stroke-width="1" stroke-linecap="round"/><path d="M233.76048,130.06595c0,0 0.38192,-9.94937 0.57519,-12.08271c0.08686,-0.95881 0.54859,-0.3219 0.54859,-0.3219l12.64609,0.28858c0,0 0.44967,-0.11742 0.43835,0.86816c-0.02525,2.19947 -0.58529,11.93461 -0.58529,11.93461c0,0 -1.31133,0.28705 -3.04616,0.33841c-1.08124,0.03201 -2.16173,0.04776 -3.00657,0.00517c-0.59075,-0.02978 -2.08553,-0.25059 -2.88446,-0.33649c-2.35605,-0.2533 -4.68573,-0.69383 -4.68573,-0.69383z" fill="#fffbf5" stroke="#000000" stroke-width="1" stroke-linecap="butt"/><path d="M248.00358,118.74639c-0.09759,1.93585 -3.15529,1.97602 -6.9858,1.78292c-3.83051,-0.1931 -6.9833,-0.54633 -6.88571,-2.48219c0.09759,-1.93585 3.29256,-1.2796 7.12307,-1.0865c3.83051,0.1931 6.84603,-0.15009 6.74844,1.78577z" fill="#fffbf5" stroke="#000000" stroke-width="1" stroke-linecap="butt"/><path d="M231.93831,133.79291l1.07078,-21.24107l19.31479,0.97368l-1.07077,21.24107z" fill="none" stroke="none" stroke-width="0" stroke-linecap="butt"/><path d="M237.74198,124.27305c0.02464,-0.4888 0.44086,-0.86507 0.92966,-0.84043c0.4888,0.02464 0.86506,0.44087 0.84042,0.92967c-0.02464,0.4888 -0.44085,0.86507 -0.92965,0.84043c-0.4888,-0.02464 -0.86507,-0.44087 -0.84043,-0.92967z" fill="#000000" stroke="none" stroke-width="0" stroke-linecap="butt"/><path d="M241.43571,124.51145c0.02319,-0.46004 0.41493,-0.81418 0.87497,-0.79099c0.46004,0.02319 0.81419,0.41493 0.791,0.87497c-0.02319,0.46004 -0.41493,0.81418 -0.87497,0.79099c-0.46004,-0.02319 -0.81419,-0.41493 -0.791,-0.87497z" fill="#000000" stroke="none" stroke-width="0" stroke-linecap="butt"/><path d="M238.48314,124.11486c0.00872,-0.17312 0.15614,-0.30638 0.32926,-0.29766c0.17312,0.00872 0.30639,0.15615 0.29766,0.32927c-0.00872,0.17312 -0.15615,0.30638 -0.32927,0.29766c-0.17312,-0.00872 -0.30638,-0.15614 -0.29766,-0.32926z" fill="#ffffff" stroke="none" stroke-width="0" stroke-linecap="butt"/><path d="M238.32255,124.59911c0.00485,-0.09618 0.08674,-0.17022 0.18292,-0.16537c0.09618,0.00485 0.17022,0.08675 0.16537,0.18292c-0.00485,0.09618 -0.08675,0.17022 -0.18292,0.16537c-0.09618,-0.00485 -0.17022,-0.08675 -0.16537,-0.18292z" fill="#ffffff" stroke="none" stroke-width="0" stroke-linecap="butt"/><path d="M242.12768,124.68617c-0.17312,-0.00872 -0.30638,-0.15614 -0.29766,-0.32926c0.00872,-0.17312 0.15615,-0.30638 0.32927,-0.29766c0.17312,0.00872 0.30638,0.15615 0.29765,0.32927c-0.00872,0.17312 -0.15614,0.30638 -0.32926,0.29766z" data-paper-data="{&quot;index&quot;:null}" fill="#ffffff" stroke="none" stroke-width="0" stroke-linecap="butt"/><path d="M242.38509,125.05182c-0.09618,-0.00485 -0.17022,-0.08675 -0.16537,-0.18292c0.00485,-0.09618 0.08675,-0.17022 0.18292,-0.16537c0.09618,0.00485 0.17022,0.08675 0.16537,0.18292c-0.00485,0.09618 -0.08675,0.17022 -0.18292,0.16537z" data-paper-data="{&quot;index&quot;:null}" fill="#ffffff" stroke="none" stroke-width="0" stroke-linecap="butt"/><path d="M242.58511,126.55638c0,0 -1.14871,0.17647 -1.7571,0.10539c-0.618,-0.07221 -1.9225,-0.5353 -1.9225,-0.5353" fill="none" stroke="#000000" stroke-width="0.5" stroke-linecap="round"/><path d="M242.49817,126.20282c0,0 0.18548,0.26275 0.19102,0.38698c0.00538,0.12064 -0.15823,0.34795 -0.15823,0.34795" fill="none" stroke="#000000" stroke-width="0.5" stroke-linecap="round"/><path d="M234.83108,125.04741c0,0 -0.09103,-1.61342 -0.05059,-2.41579c0.04044,-0.80238 0.29328,-2.39846 0.29328,-2.39846" fill="none" stroke="#ebfcff" stroke-width="1" stroke-linecap="round"/><path d="M246.8422,124.65887c0,0 0.09104,1.61342 0.0506,2.4158c-0.04044,0.80238 -0.29328,2.39846 -0.29328,2.39846" data-paper-data="{&quot;index&quot;:null}" fill="none" stroke="#ebfcff" stroke-width="1" stroke-linecap="round"/><path d="M246.04406,142.34954c0,0 0.38192,-9.94936 0.57519,-12.08271c0.08686,-0.95881 0.54859,-0.3219 0.54859,-0.3219l12.64609,0.28859c0,0 0.44966,-0.11742 0.43835,0.86816c-0.02525,2.19947 -0.5853,11.93461 -0.5853,11.93461c0,0 -1.31133,0.28705 -3.04616,0.33841c-1.08125,0.03201 -2.16173,0.04775 -3.00657,0.00517c-0.59074,-0.02978 -2.08553,-0.2506 -2.88446,-0.33649c-2.35604,-0.2533 -4.68573,-0.69383 -4.68573,-0.69383z" fill="#fffbf5" stroke="#000000" stroke-width="1" stroke-linecap="butt"/><path d="M260.28716,131.02997c-0.09759,1.93586 -3.15529,1.97603 -6.9858,1.78293c-3.83051,-0.1931 -6.98331,-0.54633 -6.88572,-2.48219c0.09759,-1.93586 3.29256,-1.2796 7.12308,-1.0865c3.83051,0.1931 6.84603,-0.15009 6.74844,1.78576z" fill="#fffbf5" stroke="#000000" stroke-width="1" stroke-linecap="butt"/><path d="M244.2219,146.07649l1.07077,-21.24107l19.31479,0.97367l-1.07077,21.24107z" fill="none" stroke="none" stroke-width="0" stroke-linecap="butt"/><path d="M250.02556,136.55663c0.02464,-0.4888 0.44086,-0.86507 0.92966,-0.84043c0.4888,0.02464 0.86507,0.44086 0.84043,0.92967c-0.02464,0.4888 -0.44085,0.86507 -0.92965,0.84043c-0.4888,-0.02464 -0.86507,-0.44086 -0.84043,-0.92966z" fill="#000000" stroke="none" stroke-width="0" stroke-linecap="butt"/><path d="M253.71929,136.79503c0.02319,-0.46004 0.41494,-0.81419 0.87498,-0.79099c0.46004,0.0232 0.81419,0.41494 0.791,0.87498c-0.02319,0.46004 -0.41493,0.81419 -0.87497,0.79099c-0.46004,-0.0232 -0.81419,-0.41494 -0.791,-0.87498z" fill="#000000" stroke="none" stroke-width="0" stroke-linecap="butt"/><path d="M250.76672,136.39844c0.00872,-0.17312 0.15614,-0.30639 0.32926,-0.29767c0.17312,0.00872 0.30639,0.15615 0.29766,0.32927c-0.00872,0.17312 -0.15615,0.30638 -0.32927,0.29766c-0.17312,-0.00872 -0.30638,-0.15614 -0.29765,-0.32926z" fill="#ffffff" stroke="none" stroke-width="0" stroke-linecap="butt"/><path d="M250.60613,136.88268c0.00485,-0.09618 0.08674,-0.17023 0.18292,-0.16538c0.09618,0.00485 0.17022,0.08675 0.16537,0.18293c-0.00485,0.09618 -0.08674,0.17023 -0.18292,0.16538c-0.09618,-0.00485 -0.17022,-0.08674 -0.16537,-0.18292z" fill="#ffffff" stroke="none" stroke-width="0" stroke-linecap="butt"/><path d="M254.41126,136.96974c-0.17312,-0.00872 -0.30638,-0.15614 -0.29766,-0.32926c0.00872,-0.17312 0.15615,-0.30638 0.32927,-0.29766c0.17312,0.00872 0.30638,0.15615 0.29765,0.32927c-0.00872,0.17312 -0.15614,0.30638 -0.32926,0.29765z" data-paper-data="{&quot;index&quot;:null}" fill="#ffffff" stroke="none" stroke-width="0" stroke-linecap="butt"/><path d="M254.66868,137.3354c-0.09618,-0.00485 -0.17022,-0.08675 -0.16537,-0.18293c0.00485,-0.09618 0.08674,-0.17022 0.18292,-0.16537c0.09618,0.00485 0.17022,0.08675 0.16537,0.18293c-0.00485,0.09618 -0.08674,0.17022 -0.18292,0.16537z" data-paper-data="{&quot;index&quot;:null}" fill="#ffffff" stroke="none" stroke-width="0" stroke-linecap="butt"/><path d="M254.86869,138.83995c0,0 -1.14872,0.17647 -1.7571,0.10538c-0.618,-0.0722 -1.92251,-0.5353 -1.92251,-0.5353" fill="none" stroke="#000000" stroke-width="0.5" stroke-linecap="round"/><path d="M254.78175,138.4864c0,0 0.18548,0.26275 0.19102,0.38698c0.00538,0.12064 -0.15823,0.34794 -0.15823,0.34794" fill="none" stroke="#000000" stroke-width="0.5" stroke-linecap="round"/><path d="M247.11466,137.33099c0,0 -0.09103,-1.61341 -0.05059,-2.4158c0.04044,-0.80238 0.29328,-2.39846 0.29328,-2.39846" fill="none" stroke="#ebfcff" stroke-width="1" stroke-linecap="round"/><path d="M259.12577,136.94245c0,0 0.09104,1.61342 0.0506,2.4158c-0.04044,0.80238 -0.29328,2.39846 -0.29328,2.39846" data-paper-data="{&quot;index&quot;:null}" fill="none" stroke="#ebfcff" stroke-width="1" stroke-linecap="round"/><path d="M209.87953,114.94731c0,0 0.27757,-7.23094 0.41803,-8.7814c0.06313,-0.69684 0.3987,-0.23395 0.3987,-0.23395l9.19085,0.20974c0,0 0.3268,-0.08534 0.31858,0.63095c-0.01835,1.59852 -0.42538,8.67376 -0.42538,8.67376c0,0 -0.95304,0.20862 -2.21387,0.24594c-0.78582,0.02326 -1.57108,0.03471 -2.1851,0.00376c-0.42934,-0.02164 -1.51571,-0.18213 -2.09635,-0.24455c-1.71231,-0.18409 -3.40547,-0.50426 -3.40547,-0.50426z" fill="#fffbf5" stroke="#000000" stroke-width="1" stroke-linecap="butt"/><path d="M220.23105,106.72054c-0.07093,1.40693 -2.29318,1.43612 -5.0771,1.29578c-2.78392,-0.14034 -5.07528,-0.39706 -5.00436,-1.80399c0.07093,-1.40693 2.39295,-0.92998 5.17686,-0.78964c2.78392,0.14034 4.97552,-0.10908 4.90459,1.29785z" fill="#fffbf5" stroke="#000000" stroke-width="1" stroke-linecap="butt"/><path d="M208.55523,117.65596l0.77821,-15.43746l14.03749,0.70764l-0.77821,15.43745z" fill="none" stroke="none" stroke-width="0" stroke-linecap="butt"/><path d="M212.77318,110.73717c0.01791,-0.35525 0.32041,-0.62871 0.67565,-0.6108c0.35525,0.01791 0.62871,0.32041 0.6108,0.67566c-0.01791,0.35525 -0.3204,0.62871 -0.67565,0.6108c-0.35525,-0.01791 -0.62871,-0.32041 -0.6108,-0.67566z" fill="#000000" stroke="none" stroke-width="0" stroke-linecap="butt"/><path d="M215.45769,110.91043c0.01686,-0.33434 0.30156,-0.59173 0.63591,-0.57487c0.33434,0.01686 0.59173,0.30156 0.57487,0.63591c-0.01686,0.33434 -0.30156,0.59173 -0.63591,0.57487c-0.33434,-0.01686 -0.59174,-0.30156 -0.57488,-0.63591z" fill="#000000" stroke="none" stroke-width="0" stroke-linecap="butt"/><path d="M213.31183,110.62221c0.00634,-0.12582 0.11348,-0.22267 0.2393,-0.21634c0.12582,0.00634 0.22268,0.11349 0.21633,0.2393c-0.00634,0.12582 -0.11349,0.22267 -0.2393,0.21633c-0.12582,-0.00634 -0.22267,-0.11348 -0.21633,-0.2393z" fill="#ffffff" stroke="none" stroke-width="0" stroke-linecap="butt"/><path d="M213.19512,110.97414c0.00352,-0.0699 0.06304,-0.12372 0.13294,-0.12019c0.0699,0.00352 0.12372,0.06304 0.12019,0.13295c-0.00352,0.0699 -0.06304,0.12372 -0.13295,0.12019c-0.0699,-0.00352 -0.12371,-0.06304 -0.12018,-0.13295z" fill="#ffffff" stroke="none" stroke-width="0" stroke-linecap="butt"/><path d="M215.96059,111.03742c-0.12582,-0.00634 -0.22267,-0.11348 -0.21633,-0.2393c0.00634,-0.12582 0.11348,-0.22267 0.2393,-0.21634c0.12582,0.00634 0.22267,0.11349 0.21632,0.2393c-0.00634,0.12582 -0.11347,0.22267 -0.23929,0.21633z" data-paper-data="{&quot;index&quot;:null}" fill="#ffffff" stroke="none" stroke-width="0" stroke-linecap="butt"/><path d="M216.14768,111.30316c-0.0699,-0.00352 -0.12371,-0.06304 -0.12019,-0.13295c0.00352,-0.0699 0.06304,-0.12371 0.13295,-0.12019c0.0699,0.00352 0.12371,0.06304 0.12019,0.13295c-0.00352,0.0699 -0.06304,0.12371 -0.13295,0.12019z" data-paper-data="{&quot;index&quot;:null}" fill="#ffffff" stroke="none" stroke-width="0" stroke-linecap="butt"/><path d="M216.29304,112.39664c0,0 -0.83486,0.12825 -1.27701,0.07659c-0.44915,-0.05248 -1.39723,-0.38905 -1.39723,-0.38905" fill="none" stroke="#000000" stroke-width="0.5" stroke-linecap="round"/><path d="M216.22986,112.13968c0,0 0.13481,0.19096 0.13883,0.28125c0.00391,0.08768 -0.115,0.25288 -0.115,0.25288" fill="none" stroke="#000000" stroke-width="0.5" stroke-linecap="round"/><path d="M210.65761,111.29996c0,0 -0.06616,-1.17259 -0.03677,-1.75574c0.02939,-0.58315 0.21315,-1.74314 0.21315,-1.74314" fill="none" stroke="#ebfcff" stroke-width="1" stroke-linecap="round"/><path d="M219.38698,111.01758c0,0 0.06616,1.17259 0.03677,1.75574c-0.02939,0.58315 -0.21315,1.74314 -0.21315,1.74314" data-paper-data="{&quot;index&quot;:null}" fill="none" stroke="#ebfcff" stroke-width="1" stroke-linecap="round"/><path d="M227.32232,106.89756c0,0 0.27757,-7.23094 0.41803,-8.7814c0.06313,-0.69684 0.3987,-0.23394 0.3987,-0.23394l9.19084,0.20973c0,0 0.32681,-0.08534 0.31858,0.63095c-0.01835,1.59852 -0.42538,8.67377 -0.42538,8.67377c0,0 -0.95305,0.20862 -2.21388,0.24595c-0.78582,0.02326 -1.57108,0.03471 -2.18509,0.00375c-0.42934,-0.02164 -1.51571,-0.18212 -2.09635,-0.24455c-1.71231,-0.18409 -3.40547,-0.50426 -3.40547,-0.50426z" fill="#fffbf5" stroke="#000000" stroke-width="1" stroke-linecap="butt"/><path d="M237.67383,98.67079c-0.07092,1.40693 -2.29318,1.43612 -5.0771,1.29578c-2.78392,-0.14034 -5.07528,-0.39706 -5.00436,-1.80399c0.07092,-1.40693 2.39295,-0.92998 5.17687,-0.78964c2.78392,0.14034 4.97551,-0.10908 4.90459,1.29785z" fill="#fffbf5" stroke="#000000" stroke-width="1" stroke-linecap="butt"/><path d="M225.99802,109.6062l0.77821,-15.43745l14.03749,0.70764l-0.7782,15.43745z" fill="none" stroke="none" stroke-width="0" stroke-linecap="butt"/><path d="M230.21597,102.68742c0.01791,-0.35524 0.32041,-0.62871 0.67566,-0.6108c0.35524,0.01791 0.62871,0.32041 0.6108,0.67565c-0.01791,0.35524 -0.32041,0.62871 -0.67565,0.6108c-0.35524,-0.01791 -0.62871,-0.32041 -0.6108,-0.67565z" fill="#000000" stroke="none" stroke-width="0" stroke-linecap="butt"/><path d="M232.90048,102.86068c0.01686,-0.33434 0.30156,-0.59173 0.6359,-0.57487c0.33435,0.01686 0.59174,0.30156 0.57488,0.63591c-0.01686,0.33434 -0.30156,0.59173 -0.63591,0.57487c-0.33435,-0.01686 -0.59173,-0.30156 -0.57487,-0.63591z" fill="#000000" stroke="none" stroke-width="0" stroke-linecap="butt"/><path d="M230.75462,102.57246c0.00634,-0.12582 0.11348,-0.22267 0.2393,-0.21634c0.12582,0.00634 0.22268,0.11348 0.21633,0.2393c-0.00634,0.12582 -0.11348,0.22266 -0.23931,0.21633c-0.12582,-0.00634 -0.22266,-0.11347 -0.21633,-0.23929z" fill="#ffffff" stroke="none" stroke-width="0" stroke-linecap="butt"/><path d="M230.63791,102.92439c0.00352,-0.0699 0.06304,-0.12372 0.13294,-0.12019c0.0699,0.00352 0.12371,0.06305 0.12019,0.13295c-0.00352,0.0699 -0.06304,0.12371 -0.13294,0.12019c-0.0699,-0.00352 -0.12371,-0.06304 -0.12019,-0.13294z" fill="#ffffff" stroke="none" stroke-width="0" stroke-linecap="butt"/><path d="M233.40338,102.98767c-0.12582,-0.00634 -0.22267,-0.11348 -0.21634,-0.2393c0.00634,-0.12582 0.11348,-0.22267 0.23931,-0.21634c0.12582,0.00634 0.22267,0.11348 0.21632,0.23931c-0.00634,0.12582 -0.11347,0.22267 -0.23929,0.21633z" data-paper-data="{&quot;index&quot;:null}" fill="#ffffff" stroke="none" stroke-width="0" stroke-linecap="butt"/><path d="M233.59046,103.25341c-0.0699,-0.00352 -0.12371,-0.06305 -0.12018,-0.13295c0.00352,-0.0699 0.06305,-0.12371 0.13295,-0.12018c0.0699,0.00352 0.12371,0.06304 0.12018,0.13294c-0.00352,0.0699 -0.06305,0.12371 -0.13295,0.12019z" data-paper-data="{&quot;index&quot;:null}" fill="#ffffff" stroke="none" stroke-width="0" stroke-linecap="butt"/><path d="M233.73583,104.34688c0,0 -0.83485,0.12826 -1.27701,0.07659c-0.44914,-0.05248 -1.39723,-0.38904 -1.39723,-0.38904" fill="none" stroke="#000000" stroke-width="0.5" stroke-linecap="round"/><path d="M233.67264,104.08992c0,0 0.1348,0.19096 0.13883,0.28125c0.00392,0.08768 -0.115,0.25288 -0.115,0.25288" fill="none" stroke="#000000" stroke-width="0.5" stroke-linecap="round"/><path d="M228.1004,103.2502c0,0 -0.06616,-1.17258 -0.03677,-1.75573c0.02939,-0.58315 0.21315,-1.74314 0.21315,-1.74314" fill="none" stroke="#ebfcff" stroke-width="1" stroke-linecap="round"/><path d="M236.82977,102.96782c0,0 0.06616,1.17259 0.03677,1.75574c-0.02939,0.58315 -0.21316,1.74315 -0.21316,1.74315" data-paper-data="{&quot;index&quot;:null}" fill="none" stroke="#ebfcff" stroke-width="1" stroke-linecap="round"/><path d="M259.93922,138.60402c0,0 0.27757,-7.23094 0.41804,-8.7814c0.06313,-0.69684 0.3987,-0.23395 0.3987,-0.23395l9.19084,0.20973c0,0 0.3268,-0.08534 0.31858,0.63095c-0.01835,1.59851 -0.42537,8.67377 -0.42537,8.67377c0,0 -0.95305,0.20862 -2.21387,0.24595c-0.78582,0.02326 -1.57109,0.0347 -2.1851,0.00376c-0.42934,-0.02164 -1.51571,-0.18213 -2.09634,-0.24455c-1.71231,-0.18409 -3.40547,-0.50426 -3.40547,-0.50426z" fill="#fffbf5" stroke="#000000" stroke-width="1" stroke-linecap="butt"/><path d="M270.29075,130.37726c-0.07092,1.40693 -2.29318,1.43612 -5.0771,1.29578c-2.78392,-0.14034 -5.07528,-0.39706 -5.00435,-1.80399c0.07092,-1.40693 2.39294,-0.92998 5.17686,-0.78964c2.78392,0.14034 4.97552,-0.10908 4.90459,1.29785z" fill="#fffbf5" stroke="#000000" stroke-width="1" stroke-linecap="butt"/><path d="M258.61492,141.31266l0.77821,-15.43745l14.03749,0.70764l-0.7782,15.43745z" fill="none" stroke="none" stroke-width="0" stroke-linecap="butt"/><path d="M262.83288,134.39389c0.01791,-0.35525 0.32041,-0.62871 0.67566,-0.61081c0.35524,0.01791 0.62871,0.32041 0.6108,0.67566c-0.01791,0.35524 -0.3204,0.62871 -0.67565,0.6108c-0.35525,-0.01791 -0.62872,-0.32041 -0.61081,-0.67565z" fill="#000000" stroke="none" stroke-width="0" stroke-linecap="butt"/><path d="M265.51739,134.56714c0.01686,-0.33435 0.30156,-0.59173 0.6359,-0.57487c0.33435,0.01686 0.59174,0.30157 0.57488,0.63591c-0.01686,0.33434 -0.30156,0.59173 -0.6359,0.57487c-0.33435,-0.01686 -0.59174,-0.30156 -0.57488,-0.63591z" fill="#000000" stroke="none" stroke-width="0" stroke-linecap="butt"/><path d="M263.37154,134.27893c0.00634,-0.12582 0.11348,-0.22267 0.2393,-0.21634c0.12582,0.00634 0.22268,0.11349 0.21633,0.23931c-0.00634,0.12582 -0.11349,0.22266 -0.23931,0.21633c-0.12582,-0.00634 -0.22266,-0.11347 -0.21632,-0.23929z" fill="#ffffff" stroke="none" stroke-width="0" stroke-linecap="butt"/><path d="M263.25483,134.63086c0.00352,-0.0699 0.06304,-0.12371 0.13294,-0.12019c0.0699,0.00352 0.12372,0.06304 0.12019,0.13295c-0.00352,0.0699 -0.06304,0.12371 -0.13294,0.12019c-0.0699,-0.00352 -0.12371,-0.06304 -0.12018,-0.13295z" fill="#ffffff" stroke="none" stroke-width="0" stroke-linecap="butt"/><path d="M266.0203,134.69414c-0.12582,-0.00634 -0.22267,-0.11348 -0.21633,-0.2393c0.00634,-0.12582 0.11348,-0.22267 0.23931,-0.21634c0.12582,0.00634 0.22267,0.11348 0.21632,0.23931c-0.00633,0.12582 -0.11347,0.22267 -0.23929,0.21633z" data-paper-data="{&quot;index&quot;:null}" fill="#ffffff" stroke="none" stroke-width="0" stroke-linecap="butt"/><path d="M266.20738,134.95988c-0.0699,-0.00352 -0.12371,-0.06304 -0.12018,-0.13294c0.00353,-0.0699 0.06304,-0.12371 0.13295,-0.12019c0.0699,0.00352 0.12371,0.06305 0.12019,0.13295c-0.00353,0.0699 -0.06305,0.12371 -0.13295,0.12018z" data-paper-data="{&quot;index&quot;:null}" fill="#ffffff" stroke="none" stroke-width="0" stroke-linecap="butt"/><path d="M266.35274,136.05334c0,0 -0.83486,0.12826 -1.27702,0.07659c-0.44915,-0.05248 -1.39723,-0.38905 -1.39723,-0.38905" fill="none" stroke="#000000" stroke-width="0.5" stroke-linecap="round"/><path d="M266.28956,135.79638c0,0 0.13481,0.19096 0.13883,0.28125c0.00392,0.08768 -0.115,0.25288 -0.115,0.25288" fill="none" stroke="#000000" stroke-width="0.5" stroke-linecap="round"/><path d="M260.71731,134.95666c0,0 -0.06615,-1.17258 -0.03676,-1.75574c0.02939,-0.58315 0.21315,-1.74313 0.21315,-1.74313" fill="none" stroke="#ebfcff" stroke-width="1" stroke-linecap="round"/><path d="M269.44669,134.67429c0,0 0.06616,1.17259 0.03677,1.75574c-0.02939,0.58315 -0.21316,1.74314 -0.21316,1.74314" data-paper-data="{&quot;index&quot;:null}" fill="none" stroke="#ebfcff" stroke-width="1" stroke-linecap="round"/><path d="M217.59595,147.85278c0,0 0.27757,-7.23094 0.41804,-8.7814c0.06313,-0.69684 0.3987,-0.23395 0.3987,-0.23395l9.19085,0.20973c0,0 0.3268,-0.08534 0.31858,0.63095c-0.01835,1.59851 -0.42538,8.67377 -0.42538,8.67377c0,0 -0.95304,0.20862 -2.21388,0.24595c-0.78582,0.02327 -1.57108,0.0347 -2.18509,0.00375c-0.42934,-0.02164 -1.5157,-0.18213 -2.09634,-0.24455c-1.71231,-0.18409 -3.40547,-0.50426 -3.40547,-0.50426z" fill="#fffbf5" stroke="#000000" stroke-width="1" stroke-linecap="butt"/><path d="M227.94746,139.62602c-0.07092,1.40693 -2.29318,1.43612 -5.0771,1.29578c-2.78392,-0.14034 -5.07528,-0.39706 -5.00436,-1.80399c0.07092,-1.40693 2.39294,-0.92998 5.17687,-0.78964c2.78392,0.14034 4.97552,-0.10908 4.90459,1.29785z" fill="#fffbf5" stroke="#000000" stroke-width="1" stroke-linecap="butt"/><path d="M216.27165,150.56142l0.77821,-15.43746l14.03748,0.70765l-0.7782,15.43745z" fill="none" stroke="none" stroke-width="0" stroke-linecap="butt"/><path d="M220.4896,143.64265c0.01791,-0.35524 0.32041,-0.62871 0.67566,-0.6108c0.35525,0.01791 0.62871,0.32041 0.6108,0.67565c-0.01791,0.35524 -0.3204,0.62871 -0.67565,0.6108c-0.35525,-0.01791 -0.62871,-0.32041 -0.6108,-0.67565z" fill="#000000" stroke="none" stroke-width="0" stroke-linecap="butt"/><path d="M223.17411,143.8159c0.01686,-0.33435 0.30156,-0.59173 0.6359,-0.57487c0.33434,0.01686 0.59174,0.30156 0.57488,0.63591c-0.01686,0.33435 -0.30156,0.59173 -0.6359,0.57487c-0.33434,-0.01686 -0.59174,-0.30156 -0.57488,-0.63591z" fill="#000000" stroke="none" stroke-width="0" stroke-linecap="butt"/><path d="M221.02825,143.52769c0.00633,-0.12582 0.11348,-0.22267 0.2393,-0.21633c0.12582,0.00634 0.22268,0.11348 0.21633,0.2393c-0.00633,0.12582 -0.11349,0.22266 -0.23931,0.21633c-0.12582,-0.00634 -0.22266,-0.11347 -0.21632,-0.23929z" fill="#ffffff" stroke="none" stroke-width="0" stroke-linecap="butt"/><path d="M220.91154,143.87962c0.00353,-0.0699 0.06304,-0.12372 0.13294,-0.12019c0.0699,0.00352 0.12372,0.06305 0.12019,0.13295c-0.00353,0.0699 -0.06304,0.12372 -0.13295,0.12019c-0.0699,-0.00352 -0.12371,-0.06305 -0.12018,-0.13295z" fill="#ffffff" stroke="none" stroke-width="0" stroke-linecap="butt"/><path d="M223.67701,143.9429c-0.12582,-0.00634 -0.22267,-0.11348 -0.21634,-0.2393c0.00633,-0.12582 0.11349,-0.22267 0.23931,-0.21633c0.12582,0.00634 0.22267,0.11348 0.21632,0.23931c-0.00633,0.12582 -0.11347,0.22267 -0.23929,0.21633z" data-paper-data="{&quot;index&quot;:null}" fill="#ffffff" stroke="none" stroke-width="0" stroke-linecap="butt"/><path d="M223.86409,144.20864c-0.0699,-0.00352 -0.12371,-0.06305 -0.12018,-0.13295c0.00353,-0.0699 0.06304,-0.12371 0.13295,-0.12018c0.0699,0.00352 0.12371,0.06305 0.12018,0.13295c-0.00353,0.0699 -0.06304,0.12371 -0.13295,0.12018z" data-paper-data="{&quot;index&quot;:null}" fill="#ffffff" stroke="none" stroke-width="0" stroke-linecap="butt"/><path d="M224.00946,145.3021c0,0 -0.83486,0.12826 -1.27702,0.07659c-0.44914,-0.05247 -1.39722,-0.38905 -1.39722,-0.38905" fill="none" stroke="#000000" stroke-width="0.5" stroke-linecap="round"/><path d="M223.94627,145.04515c0,0 0.13481,0.19096 0.13883,0.28125c0.00392,0.08768 -0.115,0.25288 -0.115,0.25288" fill="none" stroke="#000000" stroke-width="0.5" stroke-linecap="round"/><path d="M218.37403,144.20543c0,0 -0.06615,-1.17258 -0.03677,-1.75573c0.02939,-0.58315 0.21315,-1.74313 0.21315,-1.74313" fill="none" stroke="#ebfcff" stroke-width="1" stroke-linecap="round"/><path d="M227.1034,143.92305c0,0 0.06616,1.17259 0.03677,1.75574c-0.02939,0.58315 -0.21316,1.74314 -0.21316,1.74314" data-paper-data="{&quot;index&quot;:null}" fill="none" stroke="#ebfcff" stroke-width="1" stroke-linecap="round"/><path d="M215.91933,128.57418c0,0 0.27757,-7.23094 0.41804,-8.7814c0.06313,-0.69684 0.3987,-0.23394 0.3987,-0.23394l9.19084,0.20973c0,0 0.32681,-0.08534 0.31858,0.63095c-0.01835,1.59851 -0.42538,8.67376 -0.42538,8.67376c0,0 -0.95305,0.20862 -2.21388,0.24595c-0.78582,0.02326 -1.57109,0.0347 -2.1851,0.00376c-0.42934,-0.02164 -1.5157,-0.18213 -2.09634,-0.24455c-1.71231,-0.18409 -3.40547,-0.50426 -3.40547,-0.50426z" fill="#fffbf5" stroke="#000000" stroke-width="1" stroke-linecap="butt"/><path d="M226.27084,120.34741c-0.07092,1.40693 -2.29318,1.43612 -5.0771,1.29578c-2.78392,-0.14034 -5.07528,-0.39706 -5.00436,-1.80399c0.07092,-1.40693 2.39294,-0.92998 5.17686,-0.78964c2.78392,0.14034 4.97552,-0.10908 4.90459,1.29785z" fill="#fffbf5" stroke="#000000" stroke-width="1" stroke-linecap="butt"/><path d="M214.59503,131.28282l0.77821,-15.43745l14.03749,0.70765l-0.77821,15.43745z" fill="none" stroke="none" stroke-width="0" stroke-linecap="butt"/><path d="M218.81298,124.36404c0.01791,-0.35524 0.32041,-0.62871 0.67566,-0.6108c0.35524,0.01791 0.62871,0.32041 0.6108,0.67566c-0.01791,0.35524 -0.3204,0.62871 -0.67565,0.6108c-0.35524,-0.01791 -0.62871,-0.32041 -0.6108,-0.67566z" fill="#000000" stroke="none" stroke-width="0" stroke-linecap="butt"/><path d="M221.49749,124.5373c0.01686,-0.33435 0.30156,-0.59173 0.63591,-0.57487c0.33435,0.01686 0.59173,0.30156 0.57487,0.63591c-0.01686,0.33435 -0.30156,0.59173 -0.6359,0.57487c-0.33435,-0.01686 -0.59174,-0.30156 -0.57488,-0.63591z" fill="#000000" stroke="none" stroke-width="0" stroke-linecap="butt"/><path d="M219.35163,124.24908c0.00634,-0.12582 0.11348,-0.22267 0.2393,-0.21633c0.12582,0.00634 0.22268,0.11348 0.21633,0.23931c-0.00634,0.12582 -0.11348,0.22266 -0.23931,0.21632c-0.12582,-0.00634 -0.22266,-0.11347 -0.21632,-0.23929z" fill="#ffffff" stroke="none" stroke-width="0" stroke-linecap="butt"/><path d="M219.23492,124.60101c0.00352,-0.0699 0.06304,-0.12372 0.13294,-0.12019c0.0699,0.00352 0.12372,0.06305 0.12019,0.13295c-0.00352,0.0699 -0.06305,0.12371 -0.13295,0.12019c-0.0699,-0.00352 -0.12371,-0.06304 -0.12018,-0.13294z" fill="#ffffff" stroke="none" stroke-width="0" stroke-linecap="butt"/><path d="M222.00039,124.66429c-0.12582,-0.00634 -0.22267,-0.11348 -0.21633,-0.2393c0.00634,-0.12582 0.11348,-0.22267 0.23931,-0.21634c0.12582,0.00634 0.22267,0.11348 0.21632,0.23931c-0.00634,0.12582 -0.11347,0.22267 -0.23929,0.21633z" data-paper-data="{&quot;index&quot;:null}" fill="#ffffff" stroke="none" stroke-width="0" stroke-linecap="butt"/><path d="M222.18747,124.93003c-0.0699,-0.00352 -0.12371,-0.06305 -0.12018,-0.13295c0.00352,-0.0699 0.06304,-0.12371 0.13294,-0.12018c0.0699,0.00352 0.12371,0.06304 0.12019,0.13294c-0.00352,0.0699 -0.06305,0.12371 -0.13295,0.12019z" data-paper-data="{&quot;index&quot;:null}" fill="#ffffff" stroke="none" stroke-width="0" stroke-linecap="butt"/><path d="M222.33284,126.0235c0,0 -0.83486,0.12826 -1.27702,0.07659c-0.44914,-0.05247 -1.39722,-0.38904 -1.39722,-0.38904" fill="none" stroke="#000000" stroke-width="0.5" stroke-linecap="round"/><path d="M222.26965,125.76654c0,0 0.13481,0.19096 0.13883,0.28124c0.00392,0.08768 -0.115,0.25288 -0.115,0.25288" fill="none" stroke="#000000" stroke-width="0.5" stroke-linecap="round"/><path d="M216.69741,124.92682c0,0 -0.06616,-1.17259 -0.03677,-1.75574c0.02939,-0.58315 0.21315,-1.74313 0.21315,-1.74313" fill="none" stroke="#ebfcff" stroke-width="1" stroke-linecap="round"/><path d="M225.42678,124.64444c0,0 0.06616,1.17259 0.03677,1.75574c-0.02939,0.58315 -0.21316,1.74314 -0.21316,1.74314" data-paper-data="{&quot;index&quot;:null}" fill="none" stroke="#ebfcff" stroke-width="1" stroke-linecap="round"/><path d="M170.5379,214.6791v-158.41791h117.75124v158.41791z" fill="none" stroke="none" stroke-width="0" stroke-linecap="butt"/><path d="M173.47246,229.35723v-143.07277h134.63764v143.07277z" fill="none" stroke="none" stroke-width="0" stroke-linecap="butt"/></g></g></svg>