<svg version="1.1" xmlns="http://www.w3.org/2000/svg" xmlns:xlink="http://www.w3.org/1999/xlink" width="138.33146" height="147.77015" viewBox="0,0,138.33146,147.77015"><g transform="translate(-171.20147,-65.36567)"><g data-paper-data="{&quot;isPaintingLayer&quot;:true}" fill-rule="nonzero" stroke-linejoin="miter" stroke-miterlimit="10" stroke-dasharray="" stroke-dashoffset="0" style="mix-blend-mode: normal"><path d="M215.71992,206.70158v-53.40314h48.56021v53.40314z" fill="none" stroke="none" stroke-width="0" stroke-linecap="butt"/><path d="M201.67753,131.22141l20.45243,36.72139" fill="none" stroke="#000000" stroke-width="2" stroke-linecap="round"/><path d="M265.8081,133.0423l-13.0264,32.77612" fill="none" stroke="#000000" stroke-width="2" stroke-linecap="round"/><path d="M277.0603,138.20151c0,9.21848 -7.52573,18.20896 -37.02488,18.20896c-29.49915,0 -41.27363,-8.99047 -41.27363,-18.20896c0,-9.21848 9.34662,-46.73632 38.84577,-46.73632c29.49915,0 39.45274,37.51784 39.45274,46.73632z" fill="#ffadfa" stroke="#000000" stroke-width="2" stroke-linecap="butt"/><path d="M219.81836,197.12487c0,0 -0.30004,-24.99903 -0.08506,-30.3734c0.09662,-2.41546 1.33506,-0.8766 1.33506,-0.8766l31.75,-0.875c0,0 1.1128,-0.35129 1.20902,2.12173c0.21474,5.51897 0.04098,30.00327 0.04098,30.00327c0,0 -3.25225,0.88561 -7.59631,1.23373c-2.70746,0.21697 -5.41508,0.39307 -7.53914,0.39307c-1.48522,0 -5.26172,-0.36478 -7.27611,-0.47919c-5.94045,-0.33738 -11.83844,-1.14761 -11.83844,-1.14761z" fill="#ffe2fd" stroke="#000000" stroke-width="1" stroke-linecap="butt"/><path d="M254.1058,166.93737c0,4.86701 -7.66295,5.35429 -17.29341,5.35429c-9.63046,0 -17.58159,-0.48728 -17.58159,-5.35429c0,-4.86701 8.09522,-3.62518 17.72568,-3.62518c9.63046,0 17.14932,-1.24183 17.14932,3.62518z" fill="#ffe2fd" stroke="#000000" stroke-width="1" stroke-linecap="butt"/><path d="M229.07071,182.09425c0,-1.2289 0.99623,-2.22513 2.22513,-2.22513c1.2289,0 2.22513,0.99623 2.22513,2.22513c0,1.2289 -0.99623,2.22513 -2.22513,2.22513c-1.2289,0 -2.22513,-0.99623 -2.22513,-2.22513z" fill="#000000" stroke="none" stroke-width="0" stroke-linecap="butt"/><path d="M238.3639,182.22514c0,-1.15661 0.93763,-2.09424 2.09424,-2.09424c1.15661,0 2.09424,0.93762 2.09424,2.09424c0,1.15661 -0.93762,2.09424 -2.09424,2.09424c-1.15661,0 -2.09424,-0.93763 -2.09424,-2.09424z" fill="#000000" stroke="none" stroke-width="0" stroke-linecap="butt"/><path d="M230.90936,181.60384c0,-0.43525 0.35284,-0.78809 0.78809,-0.78809c0.43525,0 0.78809,0.35285 0.78809,0.78809c0,0.43525 -0.35284,0.78809 -0.78809,0.78809c-0.43525,0 -0.78809,-0.35284 -0.78809,-0.78809z" fill="#ffffff" stroke="none" stroke-width="0" stroke-linecap="butt"/><path d="M230.56786,182.83853c0,-0.2418 0.19602,-0.43783 0.43783,-0.43783c0.2418,0 0.43783,0.19602 0.43783,0.43783c0,0.2418 -0.19602,0.43783 -0.43783,0.43783c-0.2418,0 -0.43783,-0.19602 -0.43783,-0.43783z" fill="#ffffff" stroke="none" stroke-width="0" stroke-linecap="butt"/><path d="M240.12127,182.57583c-0.43525,0 -0.78809,-0.35284 -0.78809,-0.78809c0,-0.43525 0.35284,-0.78809 0.78809,-0.78809c0.43525,0 0.78809,0.35285 0.78809,0.78809c0,0.43525 -0.35284,0.78809 -0.78809,0.78809z" data-paper-data="{&quot;index&quot;:null}" fill="#ffffff" stroke="none" stroke-width="0" stroke-linecap="butt"/><path d="M240.81304,183.46025c-0.2418,0 -0.43783,-0.19603 -0.43783,-0.43783c0,-0.2418 0.19602,-0.43783 0.43783,-0.43783c0.2418,0 0.43783,0.19602 0.43783,0.43783c0,0.2418 -0.19602,0.43783 -0.43783,0.43783z" data-paper-data="{&quot;index&quot;:null}" fill="#ffffff" stroke="none" stroke-width="0" stroke-linecap="butt"/><path d="M241.50481,187.20805c0,0 -2.85839,0.58777 -4.39306,0.48642c-1.55893,-0.10295 -4.8889,-1.09938 -4.8889,-1.09938" fill="none" stroke="#000000" stroke-width="0.5" stroke-linecap="round"/><path d="M241.24211,186.3324c0,0 0.49836,0.63547 0.52795,0.9463c0.02875,0.30187 -0.35282,0.89258 -0.35282,0.89258" fill="none" stroke="#000000" stroke-width="0.5" stroke-linecap="round"/><path d="M221.58054,184.40416c0,0 -0.43228,-4.03458 -0.43228,-6.05187c0,-2.01729 0.43228,-6.05187 0.43228,-6.05187" fill="none" stroke="#ff82f7" stroke-width="1" stroke-linecap="round"/><path d="M251.65259,181.91137c0,0 0.43228,4.03458 0.43228,6.05187c0,2.01729 -0.43228,6.05187 -0.43228,6.05187" data-paper-data="{&quot;index&quot;:null}" fill="none" stroke="#ff82f7" stroke-width="1" stroke-linecap="round"/><path d="M218.29489,114.67443l4.95479,-15.29211l13.90533,4.50546l-4.95479,15.29211z" fill="none" stroke="none" stroke-width="0" stroke-linecap="butt"/><path d="M220.35702,112.31238c0,0 2.23352,-7.18637 2.79372,-8.70538c0.25178,-0.68271 0.46363,-0.12715 0.46363,-0.12715l9.17287,2.69524c0,0 0.35124,0.00266 0.14935,0.71974c-0.45057,1.6003 -2.772,8.59531 -2.772,8.59531c0,0 -1.01345,-0.04816 -2.28968,-0.35152c-0.79542,-0.18907 -1.58709,-0.38986 -2.19532,-0.58693c-0.4253,-0.1378 -1.47286,-0.59264 -2.03907,-0.8123c-1.66976,-0.64777 -3.28349,-1.427 -3.28349,-1.427z" fill="#ffe2fd" stroke="#000000" stroke-width="1" stroke-linecap="butt"/><path d="M232.97613,106.84934c-0.45156,1.39368 -2.69108,0.82224 -5.44878,-0.07128c-2.7577,-0.89352 -4.98932,-1.77076 -4.53776,-3.16445c0.45156,-1.39368 2.65443,-0.287 5.41214,0.60652c2.7577,0.89352 5.02596,1.23552 4.5744,2.6292z" fill="#ffe2fd" stroke="#000000" stroke-width="1" stroke-linecap="butt"/><path d="M224.40101,108.86677c0.11402,-0.3519 0.49172,-0.54474 0.84362,-0.43072c0.3519,0.11402 0.54474,0.49172 0.43072,0.84362c-0.11402,0.3519 -0.49172,0.54474 -0.84362,0.43072c-0.3519,-0.11402 -0.54474,-0.49172 -0.43072,-0.84362z" fill="#000000" stroke="none" stroke-width="0" stroke-linecap="butt"/><path d="M227.04999,109.76648c0.10731,-0.3312 0.4628,-0.51269 0.794,-0.40538c0.3312,0.10731 0.5127,0.46279 0.40538,0.79399c-0.10731,0.3312 -0.46279,0.5127 -0.79399,0.40539c-0.3312,-0.10731 -0.5127,-0.4628 -0.40539,-0.794z" fill="#000000" stroke="none" stroke-width="0" stroke-linecap="butt"/><path d="M224.97301,108.89693c0.04038,-0.12463 0.17415,-0.19294 0.29879,-0.15255c0.12464,0.04039 0.19293,0.17416 0.15255,0.29879c-0.04038,0.12463 -0.17416,0.19294 -0.29879,0.15256c-0.12464,-0.04039 -0.19293,-0.17416 -0.15255,-0.29879z" fill="#ffffff" stroke="none" stroke-width="0" stroke-linecap="butt"/><path d="M224.76066,109.2188c0.02244,-0.06924 0.09675,-0.10719 0.166,-0.08475c0.06924,0.02244 0.10718,0.09675 0.08475,0.166c-0.02244,0.06924 -0.09675,0.10719 -0.16599,0.08475c-0.06924,-0.02244 -0.10719,-0.09675 -0.08475,-0.166z" fill="#ffffff" stroke="none" stroke-width="0" stroke-linecap="butt"/><path d="M227.52068,110.02995c-0.12464,-0.04039 -0.19294,-0.17415 -0.15255,-0.29879c0.04038,-0.12463 0.17416,-0.19293 0.29879,-0.15255c0.12464,0.04039 0.19293,0.17416 0.15255,0.29879c-0.04038,0.12463 -0.17415,0.19293 -0.29879,0.15255z" data-paper-data="{&quot;index&quot;:null}" fill="#ffffff" stroke="none" stroke-width="0" stroke-linecap="butt"/><path d="M227.63671,110.34739c-0.06924,-0.02244 -0.10719,-0.09676 -0.08475,-0.16599c0.02244,-0.06924 0.09675,-0.10719 0.166,-0.08476c0.06924,0.02244 0.10719,0.09676 0.08476,0.166c-0.02244,0.06924 -0.09676,0.10719 -0.166,0.08475z" data-paper-data="{&quot;index&quot;:null}" fill="#ffffff" stroke="none" stroke-width="0" stroke-linecap="butt"/><path d="M227.48708,111.48476c0,0 -0.87304,-0.0969 -1.3031,-0.26831c-0.43685,-0.17412 -1.29794,-0.76841 -1.29794,-0.76841" fill="none" stroke="#000000" stroke-width="0.5" stroke-linecap="round"/><path d="M227.49309,111.20964c0,0 0.08375,0.22821 0.06339,0.31996c-0.01978,0.08911 -0.18385,0.22285 -0.18385,0.22285" fill="none" stroke="#000000" stroke-width="0.5" stroke-linecap="round"/><path d="M222.04186,108.83327c0,0 0.25055,-1.19542 0.43771,-1.77307c0.18716,-0.57765 0.68528,-1.69286 0.68528,-1.69286" fill="none" stroke="#ff82f7" stroke-width="1" stroke-linecap="round"/><path d="M230.88435,110.90956c0,0 -0.25055,1.19542 -0.43771,1.77308c-0.18716,0.57765 -0.68528,1.69286 -0.68528,1.69286" data-paper-data="{&quot;index&quot;:null}" fill="none" stroke="#ff82f7" stroke-width="1" stroke-linecap="round"/><path d="M248.18046,142.73911l4.95479,-15.29211l13.90533,4.50546l-4.95479,15.29211z" fill="none" stroke="none" stroke-width="0" stroke-linecap="butt"/><path d="M250.24259,140.37705c0,0 2.23352,-7.18636 2.79372,-8.70538c0.25178,-0.68271 0.46363,-0.12715 0.46363,-0.12715l9.17287,2.69523c0,0 0.35124,0.00266 0.14934,0.71974c-0.45056,1.60029 -2.772,8.59531 -2.772,8.59531c0,0 -1.01346,-0.04816 -2.28969,-0.35152c-0.79542,-0.18907 -1.58709,-0.38986 -2.19532,-0.58693c-0.4253,-0.1378 -1.47286,-0.59264 -2.03907,-0.8123c-1.66976,-0.64777 -3.28349,-1.42701 -3.28349,-1.42701z" fill="#ffe2fd" stroke="#000000" stroke-width="1" stroke-linecap="butt"/><path d="M262.8617,134.914c-0.45157,1.39368 -2.69108,0.82224 -5.44878,-0.07128c-2.7577,-0.89353 -4.98932,-1.77077 -4.53776,-3.16445c0.45156,-1.39368 2.65443,-0.287 5.41214,0.60653c2.7577,0.89353 5.02597,1.23552 4.5744,2.6292z" fill="#ffe2fd" stroke="#000000" stroke-width="1" stroke-linecap="butt"/><path d="M254.28658,136.93144c0.11402,-0.3519 0.49172,-0.54475 0.84362,-0.43072c0.3519,0.11402 0.54474,0.49172 0.43072,0.84362c-0.11402,0.3519 -0.49172,0.54475 -0.84362,0.43072c-0.3519,-0.11402 -0.54474,-0.49172 -0.43072,-0.84362z" fill="#000000" stroke="none" stroke-width="0" stroke-linecap="butt"/><path d="M256.93556,137.83115c0.10731,-0.3312 0.46279,-0.5127 0.79399,-0.40538c0.3312,0.10731 0.5127,0.46279 0.40539,0.79399c-0.10731,0.3312 -0.46279,0.5127 -0.79399,0.40538c-0.3312,-0.10731 -0.5127,-0.46279 -0.40539,-0.79399z" fill="#000000" stroke="none" stroke-width="0" stroke-linecap="butt"/><path d="M254.85858,136.96159c0.04038,-0.12464 0.17415,-0.19294 0.29879,-0.15255c0.12464,0.04038 0.19293,0.17416 0.15255,0.29879c-0.04038,0.12464 -0.17415,0.19294 -0.29879,0.15256c-0.12464,-0.04038 -0.19293,-0.17416 -0.15255,-0.29879z" fill="#ffffff" stroke="none" stroke-width="0" stroke-linecap="butt"/><path d="M254.64623,137.28346c0.02244,-0.06924 0.09675,-0.10718 0.166,-0.08475c0.06924,0.02244 0.10718,0.09675 0.08475,0.16599c-0.02244,0.06924 -0.09675,0.10719 -0.16599,0.08475c-0.06924,-0.02244 -0.10719,-0.09675 -0.08475,-0.166z" fill="#ffffff" stroke="none" stroke-width="0" stroke-linecap="butt"/><path d="M257.40624,138.09461c-0.12464,-0.04038 -0.19293,-0.17415 -0.15255,-0.29879c0.04039,-0.12464 0.17415,-0.19293 0.29879,-0.15255c0.12464,0.04038 0.19293,0.17416 0.15255,0.29879c-0.04039,0.12464 -0.17415,0.19293 -0.29879,0.15255z" data-paper-data="{&quot;index&quot;:null}" fill="#ffffff" stroke="none" stroke-width="0" stroke-linecap="butt"/><path d="M257.52228,138.41206c-0.06924,-0.02244 -0.10718,-0.09675 -0.08475,-0.16599c0.02243,-0.06924 0.09675,-0.10719 0.166,-0.08476c0.06924,0.02244 0.10719,0.09676 0.08475,0.166c-0.02243,0.06924 -0.09675,0.10718 -0.166,0.08475z" data-paper-data="{&quot;index&quot;:null}" fill="#ffffff" stroke="none" stroke-width="0" stroke-linecap="butt"/><path d="M257.37265,139.54944c0,0 -0.87304,-0.0969 -1.30309,-0.26831c-0.43685,-0.17412 -1.29795,-0.76841 -1.29795,-0.76841" fill="none" stroke="#000000" stroke-width="0.5" stroke-linecap="round"/><path d="M257.37865,139.27432c0,0 0.08375,0.22821 0.06338,0.31996c-0.01977,0.08911 -0.18385,0.22285 -0.18385,0.22285" fill="none" stroke="#000000" stroke-width="0.5" stroke-linecap="round"/><path d="M251.92743,136.89794c0,0 0.25055,-1.19542 0.43771,-1.77308c0.18716,-0.57765 0.68528,-1.69286 0.68528,-1.69286" fill="none" stroke="#ff82f7" stroke-width="1" stroke-linecap="round"/><path d="M260.76991,138.97422c0,0 -0.25055,1.19542 -0.43771,1.77308c-0.18716,0.57765 -0.68529,1.69286 -0.68529,1.69286" data-paper-data="{&quot;index&quot;:null}" fill="none" stroke="#ff82f7" stroke-width="1" stroke-linecap="round"/><path d="M251.70948,134.92401l-3.90861,-15.59234l14.17834,-3.55415l3.90861,15.59235z" fill="none" stroke="none" stroke-width="0" stroke-linecap="butt"/><path d="M252.20519,131.82788c0,0 -1.91729,-7.27712 -2.24788,-8.86203c-0.14858,-0.71233 0.32565,-0.35366 0.32565,-0.35366l9.20614,-2.57928c0,0 0.2992,-0.18401 0.50829,0.53101c0.46663,1.59569 2.20792,8.75719 2.20792,8.75719c0,0 -0.88475,0.4966 -2.12763,0.91619c-0.77463,0.26151 -1.5523,0.5111 -2.17246,0.66656c-0.43365,0.1087 -1.56299,0.2786 -2.15951,0.39264c-1.75915,0.33628 -3.54052,0.53139 -3.54052,0.53139z" fill="#ffe2fd" stroke="#000000" stroke-width="1" stroke-linecap="butt"/><path d="M260.00681,120.50439c0.35622,1.42105 -1.8455,2.12417 -4.65735,2.82903c-2.81185,0.70486 -5.16904,1.14454 -5.52526,-0.27651c-0.35622,-1.42105 2.09827,-1.65096 4.91012,-2.35582c2.81185,-0.70486 4.91627,-1.61776 5.27249,-0.19671z" fill="#ffe2fd" stroke="#000000" stroke-width="1" stroke-linecap="butt"/><path d="M253.80655,126.76215c-0.08995,-0.35881 0.12801,-0.7226 0.48682,-0.81254c0.35881,-0.08995 0.7226,0.12801 0.81254,0.48682c0.08995,0.35881 -0.12801,0.72259 -0.48682,0.81254c-0.35881,0.08995 -0.7226,-0.12801 -0.81254,-0.48682z" fill="#000000" stroke="none" stroke-width="0" stroke-linecap="butt"/><path d="M256.5295,126.12019c-0.08465,-0.3377 0.12048,-0.68009 0.45818,-0.76475c0.3377,-0.08465 0.68009,0.12049 0.76475,0.45819c0.08465,0.3377 -0.12048,0.68009 -0.45818,0.76475c-0.3377,0.08465 -0.68009,-0.12049 -0.76475,-0.45819z" fill="#000000" stroke="none" stroke-width="0" stroke-linecap="butt"/><path d="M254.30749,126.48439c-0.03186,-0.12708 0.04533,-0.25593 0.17242,-0.28778c0.12708,-0.03185 0.25593,0.04534 0.28778,0.17242c0.03186,0.12708 -0.04534,0.25593 -0.17242,0.28778c-0.12708,0.03185 -0.25592,-0.04534 -0.28778,-0.17242z" fill="#ffffff" stroke="none" stroke-width="0" stroke-linecap="butt"/><path d="M254.29815,126.86988c-0.0177,-0.0706 0.02518,-0.14218 0.09579,-0.15988c0.0706,-0.0177 0.14218,0.02518 0.15988,0.09579c0.0177,0.0706 -0.02519,0.14218 -0.09579,0.15988c-0.0706,0.0177 -0.14218,-0.02518 -0.15988,-0.09579z" fill="#ffffff" stroke="none" stroke-width="0" stroke-linecap="butt"/><path d="M257.06827,126.09396c-0.12709,0.03185 -0.25592,-0.04534 -0.28778,-0.17243c-0.03186,-0.12708 0.04533,-0.25593 0.17242,-0.28778c0.12709,-0.03185 0.25592,0.04534 0.28778,0.17242c0.03186,0.12708 -0.04533,0.25593 -0.17242,0.28778z" data-paper-data="{&quot;index&quot;:null}" fill="#ffffff" stroke="none" stroke-width="0" stroke-linecap="butt"/><path d="M257.33498,126.30156c-0.0706,0.0177 -0.14218,-0.02519 -0.15988,-0.09579c-0.0177,-0.0706 0.02518,-0.14218 0.09578,-0.15989c0.0706,-0.0177 0.14219,0.02519 0.15989,0.09579c0.0177,0.0706 -0.02519,0.14218 -0.0958,0.15989z" data-paper-data="{&quot;index&quot;:null}" fill="#ffffff" stroke="none" stroke-width="0" stroke-linecap="butt"/><path d="M257.81127,127.34518c0,0 -0.79156,0.38082 -1.24706,0.46355c-0.4627,0.08404 -1.5079,0.03683 -1.5079,0.03683" fill="none" stroke="#000000" stroke-width="0.5" stroke-linecap="round"/><path d="M257.67047,127.10874c0,0 0.19202,0.14907 0.22341,0.23766c0.03049,0.08603 -0.03769,0.28643 -0.03769,0.28643" fill="none" stroke="#000000" stroke-width="0.5" stroke-linecap="round"/><path d="M251.78867,127.98479c0,0 -0.4215,-1.14635 -0.56915,-1.73535c-0.14765,-0.58899 -0.31673,-1.79863 -0.31673,-1.79863" fill="none" stroke="#ff82f7" stroke-width="1" stroke-linecap="round"/><path d="M260.38649,125.05596c0,0 0.4215,1.14636 0.56915,1.73535c0.14765,0.58899 0.31673,1.79863 0.31673,1.79863" data-paper-data="{&quot;index&quot;:null}" fill="none" stroke="#ff82f7" stroke-width="1" stroke-linecap="round"/><path d="M243.05277,113.82451l-3.90861,-15.59234l14.17834,-3.55416l3.90861,15.59235z" fill="none" stroke="none" stroke-width="0" stroke-linecap="butt"/><path d="M243.54848,110.72839c0,0 -1.91729,-7.27712 -2.24788,-8.86203c-0.14858,-0.71233 0.32564,-0.35366 0.32564,-0.35366l9.20615,-2.57929c0,0 0.29919,-0.18401 0.50829,0.53101c0.46663,1.59569 2.20792,8.75719 2.20792,8.75719c0,0 -0.88475,0.49661 -2.12763,0.91619c-0.77463,0.26151 -1.5523,0.5111 -2.17247,0.66657c-0.43365,0.10871 -1.56298,0.2786 -2.15951,0.39263c-1.75915,0.33628 -3.54052,0.53139 -3.54052,0.53139z" fill="#ffe2fd" stroke="#000000" stroke-width="1" stroke-linecap="butt"/><path d="M251.35009,99.40489c0.35622,1.42105 -1.84549,2.12417 -4.65734,2.82903c-2.81185,0.70486 -5.16904,1.14454 -5.52526,-0.27651c-0.35622,-1.42105 2.09826,-1.65095 4.91011,-2.35581c2.81185,-0.70486 4.91627,-1.61776 5.27249,-0.19671z" fill="#ffe2fd" stroke="#000000" stroke-width="1" stroke-linecap="butt"/><path d="M245.14983,105.66265c-0.08995,-0.35881 0.12801,-0.7226 0.48682,-0.81254c0.35881,-0.08995 0.7226,0.12802 0.81254,0.48683c0.08995,0.35881 -0.12801,0.72259 -0.48682,0.81254c-0.35881,0.08995 -0.72259,-0.12801 -0.81254,-0.48682z" fill="#000000" stroke="none" stroke-width="0" stroke-linecap="butt"/><path d="M247.87278,105.02069c-0.08465,-0.3377 0.12048,-0.68009 0.45818,-0.76474c0.3377,-0.08465 0.68009,0.12049 0.76475,0.45819c0.08465,0.3377 -0.12048,0.68009 -0.45818,0.76474c-0.3377,0.08465 -0.68009,-0.12049 -0.76475,-0.45819z" fill="#000000" stroke="none" stroke-width="0" stroke-linecap="butt"/><path d="M245.65078,105.38489c-0.03186,-0.12708 0.04533,-0.25593 0.17242,-0.28778c0.12708,-0.03185 0.25592,0.04534 0.28778,0.17242c0.03186,0.12708 -0.04533,0.25593 -0.17242,0.28778c-0.12708,0.03185 -0.25592,-0.04534 -0.28778,-0.17242z" fill="#ffffff" stroke="none" stroke-width="0" stroke-linecap="butt"/><path d="M245.64143,105.77038c-0.0177,-0.0706 0.02518,-0.14218 0.09579,-0.15988c0.0706,-0.0177 0.14218,0.02519 0.15988,0.09579c0.0177,0.0706 -0.02518,0.14218 -0.09579,0.15988c-0.0706,0.0177 -0.14218,-0.02519 -0.15988,-0.09579z" fill="#ffffff" stroke="none" stroke-width="0" stroke-linecap="butt"/><path d="M248.41156,104.99446c-0.12708,0.03185 -0.25592,-0.04534 -0.28778,-0.17243c-0.03186,-0.12708 0.04534,-0.25593 0.17242,-0.28778c0.12708,-0.03185 0.25592,0.04534 0.28778,0.17242c0.03186,0.12708 -0.04534,0.25593 -0.17242,0.28778z" data-paper-data="{&quot;index&quot;:null}" fill="#ffffff" stroke="none" stroke-width="0" stroke-linecap="butt"/><path d="M248.67827,105.20206c-0.0706,0.0177 -0.14219,-0.02519 -0.15988,-0.09579c-0.0177,-0.0706 0.02518,-0.14218 0.09579,-0.15989c0.0706,-0.0177 0.14219,0.02518 0.15989,0.09579c0.0177,0.0706 -0.02519,0.14218 -0.09579,0.15989z" data-paper-data="{&quot;index&quot;:null}" fill="#ffffff" stroke="none" stroke-width="0" stroke-linecap="butt"/><path d="M249.15455,106.24568c0,0 -0.79156,0.38082 -1.24706,0.46355c-0.4627,0.08404 -1.5079,0.03683 -1.5079,0.03683" fill="none" stroke="#000000" stroke-width="0.5" stroke-linecap="round"/><path d="M249.01376,106.00924c0,0 0.19202,0.14907 0.22341,0.23766c0.03049,0.08603 -0.03769,0.28643 -0.03769,0.28643" fill="none" stroke="#000000" stroke-width="0.5" stroke-linecap="round"/><path d="M243.13195,106.88529c0,0 -0.4215,-1.14635 -0.56915,-1.73535c-0.14765,-0.58899 -0.31673,-1.79863 -0.31673,-1.79863" fill="none" stroke="#ff82f7" stroke-width="1" stroke-linecap="round"/><path d="M251.72978,103.95646c0,0 0.4215,1.14636 0.56915,1.73535c0.14765,0.58899 0.31673,1.79863 0.31673,1.79863" data-paper-data="{&quot;index&quot;:null}" fill="none" stroke="#ff82f7" stroke-width="1" stroke-linecap="round"/><path d="M222.25675,147.35186l-3.90861,-15.59234l14.17833,-3.55415l3.90862,15.59235z" fill="none" stroke="none" stroke-width="0" stroke-linecap="butt"/><path d="M222.75246,144.25574c0,0 -1.91729,-7.27712 -2.24788,-8.86203c-0.14858,-0.71232 0.32564,-0.35366 0.32564,-0.35366l9.20614,-2.57928c0,0 0.2992,-0.18401 0.50829,0.531c0.46663,1.59569 2.20792,8.75719 2.20792,8.75719c0,0 -0.88475,0.4966 -2.12763,0.91619c-0.77463,0.26151 -1.5523,0.5111 -2.17247,0.66656c-0.43365,0.1087 -1.56298,0.2786 -2.15951,0.39264c-1.75915,0.33628 -3.54052,0.53139 -3.54052,0.53139z" fill="#ffe2fd" stroke="#000000" stroke-width="1" stroke-linecap="butt"/><path d="M230.55407,132.93226c0.35622,1.42104 -1.84549,2.12417 -4.65734,2.82903c-2.81185,0.70486 -5.16904,1.14454 -5.52526,-0.27651c-0.35622,-1.42104 2.09826,-1.65096 4.91011,-2.35582c2.81185,-0.70486 4.91627,-1.61775 5.27249,-0.19671z" fill="#ffe2fd" stroke="#000000" stroke-width="1" stroke-linecap="butt"/><path d="M224.35381,139.19c-0.08995,-0.35881 0.12801,-0.7226 0.48682,-0.81254c0.35881,-0.08995 0.7226,0.12802 0.81254,0.48683c0.08995,0.35881 -0.12801,0.72259 -0.48682,0.81254c-0.35881,0.08995 -0.72259,-0.12801 -0.81254,-0.48682z" fill="#000000" stroke="none" stroke-width="0" stroke-linecap="butt"/><path d="M227.07676,138.54805c-0.08465,-0.3377 0.12048,-0.68009 0.45818,-0.76474c0.3377,-0.08465 0.68009,0.12048 0.76475,0.45818c0.08465,0.3377 -0.12048,0.68009 -0.45818,0.76475c-0.3377,0.08465 -0.68009,-0.12049 -0.76475,-0.45819z" fill="#000000" stroke="none" stroke-width="0" stroke-linecap="butt"/><path d="M224.85476,138.91226c-0.03186,-0.12708 0.04533,-0.25593 0.17242,-0.28779c0.12708,-0.03186 0.25592,0.04534 0.28778,0.17242c0.03186,0.12708 -0.04533,0.25593 -0.17242,0.28779c-0.12708,0.03186 -0.25592,-0.04533 -0.28778,-0.17242z" fill="#ffffff" stroke="none" stroke-width="0" stroke-linecap="butt"/><path d="M224.84541,139.29773c-0.0177,-0.0706 0.02518,-0.14218 0.09579,-0.15988c0.0706,-0.0177 0.14218,0.02519 0.15988,0.09579c0.0177,0.0706 -0.02518,0.14218 -0.09579,0.15988c-0.0706,0.0177 -0.14218,-0.02518 -0.15988,-0.09579z" fill="#ffffff" stroke="none" stroke-width="0" stroke-linecap="butt"/><path d="M227.61554,138.52182c-0.12708,0.03186 -0.25592,-0.04534 -0.28778,-0.17242c-0.03186,-0.12708 0.04534,-0.25593 0.17242,-0.28778c0.12708,-0.03186 0.25592,0.04535 0.28778,0.17242c0.03186,0.12708 -0.04534,0.25593 -0.17242,0.28778z" data-paper-data="{&quot;index&quot;:null}" fill="#ffffff" stroke="none" stroke-width="0" stroke-linecap="butt"/><path d="M227.88225,138.72942c-0.0706,0.0177 -0.14219,-0.02519 -0.15988,-0.09579c-0.0177,-0.0706 0.02518,-0.14219 0.09579,-0.15989c0.0706,-0.0177 0.14219,0.02518 0.15989,0.09579c0.0177,0.0706 -0.02519,0.14219 -0.09579,0.15989z" data-paper-data="{&quot;index&quot;:null}" fill="#ffffff" stroke="none" stroke-width="0" stroke-linecap="butt"/><path d="M228.35853,139.77305c0,0 -0.79156,0.38082 -1.24706,0.46356c-0.4627,0.08404 -1.5079,0.03683 -1.5079,0.03683" fill="none" stroke="#000000" stroke-width="0.5" stroke-linecap="round"/><path d="M228.21774,139.53661c0,0 0.19202,0.14907 0.22341,0.23765c0.03049,0.08604 -0.03769,0.28644 -0.03769,0.28644" fill="none" stroke="#000000" stroke-width="0.5" stroke-linecap="round"/><path d="M222.33593,140.41265c0,0 -0.4215,-1.14635 -0.56915,-1.73535c-0.14765,-0.589 -0.31673,-1.79862 -0.31673,-1.79862" fill="none" stroke="#ff82f7" stroke-width="1" stroke-linecap="round"/><path d="M230.93376,137.48383c0,0 0.4215,1.14636 0.56915,1.73535c0.14765,0.589 0.31672,1.79863 0.31672,1.79863" data-paper-data="{&quot;index&quot;:null}" fill="none" stroke="#ff82f7" stroke-width="1" stroke-linecap="round"/><path d="M230.91365,131.52137l1.72793,-20.25576l18.41884,1.57123l-1.72793,20.25576z" fill="none" stroke="none" stroke-width="0" stroke-linecap="butt"/><path d="M232.77805,128.02155c0,0 0.69507,-9.49182 0.95051,-11.52335c0.1148,-0.91305 0.53475,-0.2893 0.53475,-0.2893l12.07105,0.69543c0,0 0.43345,-0.09724 0.38993,0.84389c-0.09712,2.10029 -0.95525,11.38154 -0.95525,11.38154c0,0 -1.26223,0.23068 -2.92119,0.22216c-1.03396,-0.00531 -2.06665,-0.02612 -2.87231,-0.09485c-0.56334,-0.04806 -1.98396,-0.30861 -2.74432,-0.41718c-2.24229,-0.32018 -4.45318,-0.81834 -4.45318,-0.81834z" fill="#ffe2fd" stroke="#000000" stroke-width="1" stroke-linecap="butt"/><path d="M236.77379,122.61982c0.03976,-0.46612 0.44987,-0.81176 0.91599,-0.77199c0.46612,0.03976 0.81176,0.44987 0.77199,0.91599c-0.03976,0.46612 -0.44987,0.81175 -0.91599,0.77199c-0.46612,-0.03976 -0.81176,-0.44987 -0.77199,-0.91599z" fill="#000000" stroke="none" stroke-width="0" stroke-linecap="butt"/><path d="M240.29445,122.97016c0.03742,-0.4387 0.4234,-0.764 0.8621,-0.72658c0.4387,0.03742 0.76401,0.4234 0.72658,0.8621c-0.03742,0.4387 -0.4234,0.764 -0.86211,0.72658c-0.4387,-0.03742 -0.764,-0.4234 -0.72658,-0.8621z" fill="#000000" stroke="none" stroke-width="0" stroke-linecap="butt"/><path d="M237.48706,122.49331c0.01408,-0.16509 0.15933,-0.28751 0.32442,-0.27342c0.16509,0.01408 0.28751,0.15934 0.27342,0.32442c-0.01408,0.16509 -0.15933,0.28751 -0.32442,0.27342c-0.16509,-0.01408 -0.28751,-0.15933 -0.27342,-0.32442z" fill="#ffffff" stroke="none" stroke-width="0" stroke-linecap="butt"/><path d="M237.31758,122.95057c0.00782,-0.09172 0.08852,-0.15972 0.18024,-0.1519c0.09172,0.00782 0.15972,0.08852 0.1519,0.18024c-0.00782,0.09172 -0.08851,0.15972 -0.18023,0.1519c-0.09172,-0.00782 -0.15973,-0.08852 -0.1519,-0.18024z" fill="#ffffff" stroke="none" stroke-width="0" stroke-linecap="butt"/><path d="M240.94967,123.16005c-0.16509,-0.01408 -0.28751,-0.15933 -0.27342,-0.32442c0.01408,-0.16509 0.15933,-0.28751 0.32442,-0.27342c0.16509,0.01408 0.28751,0.15933 0.27342,0.32442c-0.01408,0.16509 -0.15933,0.28751 -0.32442,0.27343z" data-paper-data="{&quot;index&quot;:null}" fill="#ffffff" stroke="none" stroke-width="0" stroke-linecap="butt"/><path d="M241.18345,123.51789c-0.09172,-0.00782 -0.15973,-0.08852 -0.1519,-0.18024c0.00782,-0.09172 0.08852,-0.15972 0.18024,-0.1519c0.09172,0.00782 0.15972,0.08852 0.1519,0.18024c-0.00782,0.09172 -0.08851,0.15972 -0.18023,0.1519z" data-paper-data="{&quot;index&quot;:null}" fill="#ffffff" stroke="none" stroke-width="0" stroke-linecap="butt"/><path d="M241.32457,124.96181c0,0 -1.1032,0.13046 -1.68202,0.04236c-0.58797,-0.08949 -1.81879,-0.57518 -1.81879,-0.57518" fill="none" stroke="#000000" stroke-width="0.5" stroke-linecap="round"/><path d="M241.25326,124.62117c0,0 0.16847,0.25716 0.16963,0.37601c0.00114,0.11543 -0.16271,0.32714 -0.16271,0.32714" fill="none" stroke="#000000" stroke-width="0.5" stroke-linecap="round"/><path d="M233.85803,123.25362c0,0 -0.03342,-1.5443 0.03185,-2.30946c0.06527,-0.76516 0.35978,-2.28148 0.35978,-2.28148" fill="none" stroke="#ff82f7" stroke-width="1" stroke-linecap="round"/><path d="M245.34499,123.28113c0,0 0.03342,1.5443 -0.03185,2.30946c-0.06527,0.76516 -0.35978,2.28148 -0.35978,2.28148" data-paper-data="{&quot;index&quot;:null}" fill="none" stroke="#ff82f7" stroke-width="1" stroke-linecap="round"/><path d="M208.86571,134.74692l-4.98273,-19.70924l17.92188,-4.53086l4.98273,19.70924z" fill="none" stroke="none" stroke-width="0" stroke-linecap="butt"/><path d="M209.48476,130.8301c0,0 -2.44324,-9.19827 -2.86535,-11.20182c-0.18972,-0.90048 0.41093,-0.44809 0.41093,-0.44809l11.63618,-3.28533c0,0 0.37792,-0.23347 0.64417,0.67025c0.59419,2.01683 2.81455,11.06933 2.81455,11.06933c0,0 -1.11767,0.6303 -2.68842,1.1641c-0.97899,0.33269 -1.96184,0.65031 -2.74576,0.8485c-0.54814,0.13858 -1.97595,0.35632 -2.73007,0.50204c-2.22389,0.42975 -4.47624,0.68103 -4.47624,0.68103z" fill="#ffe2fd" stroke="#000000" stroke-width="1" stroke-linecap="butt"/><path d="M211.49706,124.41954c-0.11466,-0.45354 0.16006,-0.91417 0.6136,-1.02883c0.45354,-0.11466 0.91418,0.16006 1.02883,0.61361c0.11466,0.45354 -0.16006,0.91417 -0.6136,1.02883c-0.45354,0.11466 -0.91417,-0.16006 -1.02883,-0.6136z" fill="#000000" stroke="none" stroke-width="0" stroke-linecap="butt"/><path d="M214.93906,123.60075c-0.10791,-0.42686 0.15065,-0.8604 0.57751,-0.96831c0.42686,-0.10791 0.8604,0.15064 0.96832,0.57751c0.10791,0.42686 -0.15064,0.86039 -0.57751,0.96831c-0.42686,0.10791 -0.8604,-0.15064 -0.96832,-0.57751z" fill="#000000" stroke="none" stroke-width="0" stroke-linecap="butt"/><path d="M212.12989,124.06699c-0.04061,-0.16064 0.05669,-0.32378 0.21732,-0.36439c0.16064,-0.04061 0.32379,0.0567 0.36439,0.21733c0.04061,0.16064 -0.05669,0.32378 -0.21732,0.36439c-0.16064,0.04061 -0.32378,-0.05669 -0.36439,-0.21732z" fill="#ffffff" stroke="none" stroke-width="0" stroke-linecap="butt"/><path d="M212.11905,124.55453c-0.02256,-0.08924 0.03149,-0.17988 0.12074,-0.20244c0.08924,-0.02256 0.17988,0.03149 0.20244,0.12074c0.02256,0.08924 -0.03149,0.17987 -0.12073,0.20244c-0.08924,0.02256 -0.17988,-0.03149 -0.20244,-0.12074z" fill="#ffffff" stroke="none" stroke-width="0" stroke-linecap="butt"/><path d="M215.62037,123.56621c-0.16064,0.04061 -0.32378,-0.05669 -0.36439,-0.21732c-0.04061,-0.16064 0.05669,-0.32378 0.21733,-0.36439c0.16064,-0.04061 0.32378,0.05669 0.36439,0.21732c0.04061,0.16064 -0.05669,0.32378 -0.21732,0.36439z" data-paper-data="{&quot;index&quot;:null}" fill="#ffffff" stroke="none" stroke-width="0" stroke-linecap="butt"/><path d="M215.9582,123.82807c-0.08924,0.02256 -0.17988,-0.0315 -0.20244,-0.12074c-0.02256,-0.08924 0.03149,-0.17988 0.12074,-0.20244c0.08924,-0.02256 0.17988,0.03149 0.20244,0.12074c0.02256,0.08924 -0.03149,0.17988 -0.12074,0.20244z" data-paper-data="{&quot;index&quot;:null}" fill="#ffffff" stroke="none" stroke-width="0" stroke-linecap="butt"/><path d="M216.56319,125.14671c0,0 -1.00009,0.48363 -1.57594,0.58941c-0.58495,0.10746 -1.9069,0.05041 -1.9069,0.05041" fill="none" stroke="#000000" stroke-width="0.5" stroke-linecap="round"/><path d="M216.38454,124.84804c0,0 0.24322,0.18803 0.28314,0.29999c0.03878,0.10873 -0.04693,0.36234 -0.04693,0.36234" fill="none" stroke="#000000" stroke-width="0.5" stroke-linecap="round"/><path d="M208.94823,125.97091c0,0 -0.53598,-1.44869 -0.7242,-2.1932c-0.18822,-0.74451 -0.40513,-2.27387 -0.40513,-2.27387" fill="none" stroke="#ff82f7" stroke-width="1" stroke-linecap="round"/><path d="M219.81418,122.24506c0,0 0.53599,1.44869 0.72421,2.1932c0.18822,0.74451 0.40512,2.27387 0.40512,2.27387" data-paper-data="{&quot;index&quot;:null}" fill="none" stroke="#ff82f7" stroke-width="1" stroke-linecap="round"/><path d="M237.65704,141.87129l-2.67456,-10.57923l9.61984,-2.43201l2.67455,10.57923z" fill="none" stroke="none" stroke-width="0" stroke-linecap="butt"/><path d="M237.98933,139.76889c0,0 -1.31145,-4.93731 -1.53802,-6.01275c-0.10183,-0.48334 0.22058,-0.24052 0.22058,-0.24052l6.24589,-1.76345c0,0 0.20285,-0.12532 0.34577,0.35977c0.31894,1.08256 1.51075,5.94163 1.51075,5.94163c0,0 -0.59992,0.33832 -1.44305,0.62485c-0.52549,0.17858 -1.05305,0.34906 -1.47383,0.45544c-0.29422,0.07438 -1.06062,0.19126 -1.4654,0.26948c-1.19371,0.23067 -2.40269,0.36555 -2.40269,0.36555z" fill="#ffe2fd" stroke="#000000" stroke-width="1" stroke-linecap="butt"/><path d="M239.06946,136.32792c-0.06155,-0.24345 0.08591,-0.49069 0.32936,-0.55224c0.24345,-0.06155 0.4907,0.08591 0.55224,0.32936c0.06155,0.24345 -0.08591,0.49069 -0.32936,0.55224c-0.24345,0.06155 -0.4907,-0.08591 -0.55224,-0.32936z" fill="#000000" stroke="none" stroke-width="0" stroke-linecap="butt"/><path d="M240.91701,135.88842c-0.05793,-0.22913 0.08086,-0.46183 0.30999,-0.51976c0.22913,-0.05793 0.46183,0.08086 0.51976,0.30999c0.05793,0.22913 -0.08086,0.46183 -0.30999,0.51976c-0.22913,0.05793 -0.46183,-0.08086 -0.51976,-0.30999z" fill="#000000" stroke="none" stroke-width="0" stroke-linecap="butt"/><path d="M239.40914,136.13869c-0.0218,-0.08622 0.03043,-0.17379 0.11665,-0.19559c0.08622,-0.0218 0.1738,0.03043 0.19559,0.11665c0.0218,0.08622 -0.03043,0.17379 -0.11665,0.19559c-0.08622,0.0218 -0.17379,-0.03043 -0.19559,-0.11665z" fill="#ffffff" stroke="none" stroke-width="0" stroke-linecap="butt"/><path d="M239.40332,136.40038c-0.01211,-0.0479 0.01691,-0.09655 0.06481,-0.10866c0.0479,-0.01211 0.09655,0.0169 0.10866,0.06481c0.01211,0.0479 -0.0169,0.09655 -0.0648,0.10866c-0.0479,0.01211 -0.09656,-0.0169 -0.10867,-0.06481z" fill="#ffffff" stroke="none" stroke-width="0" stroke-linecap="butt"/><path d="M241.28271,135.86987c-0.08622,0.0218 -0.17379,-0.03043 -0.19559,-0.11665c-0.0218,-0.08622 0.03043,-0.17379 0.11666,-0.19559c0.08622,-0.0218 0.17379,0.03043 0.19559,0.11665c0.0218,0.08622 -0.03043,0.17379 -0.11665,0.19559z" data-paper-data="{&quot;index&quot;:null}" fill="#ffffff" stroke="none" stroke-width="0" stroke-linecap="butt"/><path d="M241.46404,136.01044c-0.0479,0.01211 -0.09655,-0.01691 -0.10866,-0.06481c-0.01211,-0.0479 0.01691,-0.09655 0.06481,-0.10866c0.0479,-0.01211 0.09655,0.01691 0.10866,0.06481c0.01211,0.0479 -0.0169,0.09655 -0.06481,0.10866z" data-paper-data="{&quot;index&quot;:null}" fill="#ffffff" stroke="none" stroke-width="0" stroke-linecap="butt"/><path d="M241.78878,136.71824c0,0 -0.53681,0.2596 -0.84591,0.31638c-0.31398,0.05768 -1.02356,0.02706 -1.02356,0.02706" fill="none" stroke="#000000" stroke-width="0.5" stroke-linecap="round"/><path d="M241.69289,136.55793c0,0 0.13055,0.10093 0.15198,0.16102c0.02082,0.05836 -0.02519,0.19449 -0.02519,0.19449" fill="none" stroke="#000000" stroke-width="0.5" stroke-linecap="round"/><path d="M237.70133,137.16064c0,0 -0.2877,-0.77761 -0.38873,-1.17723c-0.10103,-0.39963 -0.21746,-1.22054 -0.21746,-1.22054" fill="none" stroke="#ff82f7" stroke-width="1" stroke-linecap="round"/><path d="M243.5338,135.16073c0,0 0.2877,0.77761 0.38873,1.17723c0.10103,0.39963 0.21746,1.22053 0.21746,1.22053" data-paper-data="{&quot;index&quot;:null}" fill="none" stroke="#ff82f7" stroke-width="1" stroke-linecap="round"/><path d="M234.46302,153.8514l-2.67456,-10.57924l9.61984,-2.43201l2.67456,10.57923z" fill="none" stroke="none" stroke-width="0" stroke-linecap="butt"/><path d="M234.7953,151.74898c0,0 -1.31144,-4.93731 -1.53802,-6.01275c-0.10183,-0.48335 0.22058,-0.24052 0.22058,-0.24052l6.24589,-1.76345c0,0 0.20285,-0.12533 0.34577,0.35977c0.31894,1.08256 1.51075,5.94163 1.51075,5.94163c0,0 -0.59992,0.33832 -1.44305,0.62485c-0.52549,0.17857 -1.05304,0.34906 -1.47382,0.45544c-0.29422,0.07438 -1.06062,0.19126 -1.4654,0.26948c-1.1937,0.23067 -2.40269,0.36555 -2.40269,0.36555z" fill="#ffe2fd" stroke="#000000" stroke-width="1" stroke-linecap="butt"/><path d="M235.87543,148.30802c-0.06155,-0.24345 0.08591,-0.4907 0.32936,-0.55224c0.24345,-0.06154 0.4907,0.08591 0.55225,0.32936c0.06154,0.24345 -0.08592,0.4907 -0.32937,0.55224c-0.24344,0.06154 -0.49069,-0.08591 -0.55224,-0.32936z" fill="#000000" stroke="none" stroke-width="0" stroke-linecap="butt"/><path d="M237.72298,147.86852c-0.05792,-0.22913 0.08087,-0.46183 0.30999,-0.51976c0.22912,-0.05793 0.46183,0.08085 0.51976,0.30998c0.05793,0.22913 -0.08086,0.46183 -0.30999,0.51976c-0.22912,0.05793 -0.46183,-0.08086 -0.51976,-0.30998z" fill="#000000" stroke="none" stroke-width="0" stroke-linecap="butt"/><path d="M236.21511,148.11878c-0.0218,-0.08623 0.03043,-0.17379 0.11665,-0.19559c0.08623,-0.0218 0.17379,0.03044 0.19559,0.11666c0.0218,0.08623 -0.03042,0.17378 -0.11665,0.19558c-0.08623,0.0218 -0.17379,-0.03042 -0.19559,-0.11665z" fill="#ffffff" stroke="none" stroke-width="0" stroke-linecap="butt"/><path d="M236.20929,148.38047c-0.01211,-0.0479 0.01691,-0.09655 0.06481,-0.10866c0.0479,-0.01211 0.09655,0.0169 0.10866,0.06481c0.01211,0.0479 -0.0169,0.09655 -0.0648,0.10866c-0.0479,0.01211 -0.09656,-0.0169 -0.10867,-0.0648z" fill="#ffffff" stroke="none" stroke-width="0" stroke-linecap="butt"/><path d="M238.08868,147.84998c-0.08623,0.0218 -0.17379,-0.03043 -0.19559,-0.11666c-0.0218,-0.08623 0.03043,-0.17379 0.11665,-0.19559c0.08623,-0.0218 0.1738,0.03043 0.19559,0.11665c0.0218,0.08623 -0.03043,0.17379 -0.11665,0.19559z" data-paper-data="{&quot;index&quot;:null}" fill="#ffffff" stroke="none" stroke-width="0" stroke-linecap="butt"/><path d="M238.27002,147.99054c-0.0479,0.01211 -0.09656,-0.01691 -0.10867,-0.06481c-0.01211,-0.0479 0.01691,-0.09655 0.06481,-0.10867c0.0479,-0.01211 0.09655,0.01691 0.10866,0.06481c0.01211,0.0479 -0.0169,0.09655 -0.0648,0.10866z" data-paper-data="{&quot;index&quot;:null}" fill="#ffffff" stroke="none" stroke-width="0" stroke-linecap="butt"/><path d="M238.59475,148.69833c0,0 -0.53682,0.2596 -0.84591,0.31638c-0.31399,0.05768 -1.02355,0.02706 -1.02355,0.02706" fill="none" stroke="#000000" stroke-width="0.5" stroke-linecap="round"/><path d="M238.49886,148.53803c0,0 0.13055,0.10093 0.15198,0.16102c0.02081,0.05836 -0.02519,0.19449 -0.02519,0.19449" fill="none" stroke="#000000" stroke-width="0.5" stroke-linecap="round"/><path d="M234.5073,149.14074c0,0 -0.2877,-0.77761 -0.38873,-1.17724c-0.10103,-0.39962 -0.21745,-1.22054 -0.21745,-1.22054" fill="none" stroke="#ff82f7" stroke-width="1" stroke-linecap="round"/><path d="M240.33977,147.14083c0,0 0.2877,0.77761 0.38873,1.17723c0.10103,0.39962 0.21746,1.22053 0.21746,1.22053" data-paper-data="{&quot;index&quot;:null}" fill="none" stroke="#ff82f7" stroke-width="1" stroke-linecap="round"/><path d="M232.48292,103.92106l-2.67456,-10.57923l9.61984,-2.43201l2.67455,10.57923z" fill="none" stroke="none" stroke-width="0" stroke-linecap="butt"/><path d="M232.8152,101.81864c0,0 -1.31145,-4.93731 -1.53802,-6.01275c-0.10183,-0.48335 0.22057,-0.24052 0.22057,-0.24052l6.2459,-1.76345c0,0 0.20285,-0.12533 0.34577,0.35976c0.31895,1.08256 1.51075,5.94164 1.51075,5.94164c0,0 -0.59992,0.33832 -1.44305,0.62484c-0.52549,0.17857 -1.05304,0.34906 -1.47383,0.45544c-0.29423,0.07438 -1.06062,0.19126 -1.4654,0.26948c-1.1937,0.23068 -2.40269,0.36555 -2.40269,0.36555z" fill="#ffe2fd" stroke="#000000" stroke-width="1" stroke-linecap="butt"/><path d="M233.89533,98.37767c-0.06154,-0.24345 0.08591,-0.49069 0.32936,-0.55224c0.24345,-0.06154 0.4907,0.08591 0.55224,0.32936c0.06154,0.24345 -0.08592,0.4907 -0.32936,0.55224c-0.24345,0.06154 -0.4907,-0.08591 -0.55224,-0.32936z" fill="#000000" stroke="none" stroke-width="0" stroke-linecap="butt"/><path d="M235.74288,97.93818c-0.05793,-0.22913 0.08086,-0.46183 0.30999,-0.51976c0.22913,-0.05793 0.46184,0.08086 0.51976,0.30999c0.05793,0.22913 -0.08086,0.46183 -0.30999,0.51976c-0.22913,0.05793 -0.46184,-0.08086 -0.51976,-0.30999z" fill="#000000" stroke="none" stroke-width="0" stroke-linecap="butt"/><path d="M234.23501,98.18844c-0.0218,-0.08623 0.03043,-0.17379 0.11666,-0.19559c0.08623,-0.0218 0.1738,0.03044 0.19559,0.11666c0.0218,0.08623 -0.03043,0.17378 -0.11665,0.19558c-0.08623,0.0218 -0.17379,-0.03042 -0.19559,-0.11665z" fill="#ffffff" stroke="none" stroke-width="0" stroke-linecap="butt"/><path d="M234.22919,98.45013c-0.01211,-0.0479 0.01691,-0.09655 0.06481,-0.10866c0.0479,-0.01211 0.09655,0.0169 0.10866,0.06481c0.01211,0.0479 -0.0169,0.09655 -0.0648,0.10866c-0.0479,0.01211 -0.09655,-0.0169 -0.10867,-0.06481z" fill="#ffffff" stroke="none" stroke-width="0" stroke-linecap="butt"/><path d="M236.10858,97.91964c-0.08623,0.0218 -0.17379,-0.03043 -0.19559,-0.11666c-0.0218,-0.08623 0.03043,-0.17379 0.11665,-0.19559c0.08623,-0.0218 0.1738,0.03043 0.19559,0.11665c0.0218,0.08623 -0.03042,0.17379 -0.11665,0.19559z" data-paper-data="{&quot;index&quot;:null}" fill="#ffffff" stroke="none" stroke-width="0" stroke-linecap="butt"/><path d="M236.28992,98.06019c-0.0479,0.01211 -0.09655,-0.01691 -0.10867,-0.06481c-0.01211,-0.0479 0.01691,-0.09655 0.06481,-0.10867c0.0479,-0.01211 0.09655,0.01691 0.10866,0.06481c0.01211,0.0479 -0.0169,0.09655 -0.06481,0.10866z" data-paper-data="{&quot;index&quot;:null}" fill="#ffffff" stroke="none" stroke-width="0" stroke-linecap="butt"/><path d="M236.61465,98.76799c0,0 -0.53681,0.2596 -0.84591,0.31638c-0.31399,0.05768 -1.02355,0.02705 -1.02355,0.02705" fill="none" stroke="#000000" stroke-width="0.5" stroke-linecap="round"/><path d="M236.51876,98.60768c0,0 0.13055,0.10093 0.15198,0.16102c0.02081,0.05836 -0.02519,0.1945 -0.02519,0.1945" fill="none" stroke="#000000" stroke-width="0.5" stroke-linecap="round"/><path d="M232.5272,99.2104c0,0 -0.2877,-0.77761 -0.38873,-1.17723c-0.10103,-0.39962 -0.21746,-1.22054 -0.21746,-1.22054" fill="none" stroke="#ff82f7" stroke-width="1" stroke-linecap="round"/><path d="M238.35967,97.21049c0,0 0.2877,0.77761 0.38873,1.17723c0.10103,0.39962 0.21746,1.22053 0.21746,1.22053" data-paper-data="{&quot;index&quot;:null}" fill="none" stroke="#ff82f7" stroke-width="1" stroke-linecap="round"/><path d="M187.83641,210.73383v-145.36816h121.69652v145.36816z" fill="none" stroke="none" stroke-width="0" stroke-linecap="butt"/><path d="M171.20147,213.13583v-124.25594h134.63764v124.25594z" fill="none" stroke="none" stroke-width="0" stroke-linecap="butt"/></g></g></svg>