<svg version="1.1" xmlns="http://www.w3.org/2000/svg" xmlns:xlink="http://www.w3.org/1999/xlink" width="131.56538" height="163.34225" viewBox="0,0,131.56538,163.34225"><g transform="translate(-177.518,-55.95771)"><g data-paper-data="{&quot;isPaintingLayer&quot;:true}" fill-rule="nonzero" stroke-linejoin="miter" stroke-miterlimit="10" stroke-dasharray="" stroke-dashoffset="0" style="mix-blend-mode: normal"><path d="M201.67753,131.22141l20.45243,36.72139" fill="none" stroke="#000000" stroke-width="2" stroke-linecap="round"/><path d="M217.31226,194.60043c0,-7.50497 0,-18.89518 0,-23.02977c0,-2.98328 3.12487,-6.56743 5.8572,-6.56743c4.32245,0 18.69629,0.35026 26.67277,0.35026c3.7737,0 5.13631,1.84395 5.13631,3.94046c0,3.94623 0,17.68103 0,25.91944c0,3.77237 -2.63172,6.39229 -5.0462,6.39229c-4.07353,0 -17.10437,0 -25.41122,0c-4.21157,0 -7.20885,-2.92977 -7.20885,-7.00525z" fill="#de914f" stroke="#000000" stroke-width="1.5" stroke-linecap="butt"/><path d="M233.76934,200.81726v-35.90193h5.51664v35.90193z" fill="#eeeeee" stroke="none" stroke-width="0" stroke-linecap="butt"/><path d="M253.91626,187.46344h-36.67562v-5.51664h36.67562z" fill="#eeeeee" stroke="none" stroke-width="0" stroke-linecap="butt"/><path d="M230.42515,178.41346c1.73669,0 3.14457,1.40788 3.14457,3.14457c0,1.73669 -1.40788,3.14457 -3.14457,3.14457c-1.73669,0 -3.14457,-1.40788 -3.14457,-3.14457c0,-1.73669 1.40788,-3.14457 3.14457,-3.14457z" data-paper-data="{&quot;index&quot;:null}" fill="#000000" stroke="none" stroke-width="0" stroke-linecap="butt"/><path d="M231.5181,179.56116c0.6151,0 1.11373,0.49864 1.11373,1.11373c0,0.61508 -0.49864,1.11373 -1.11373,1.11373c-0.6151,0 -1.11373,-0.49864 -1.11373,-1.11373c0,-0.6151 0.49864,-1.11373 1.11373,-1.11373z" data-paper-data="{&quot;index&quot;:null}" fill="#ffffff" stroke="none" stroke-width="0" stroke-linecap="butt"/><path d="M230.01511,181.90148c0.34173,0 0.61874,0.27703 0.61874,0.61874c0,0.34173 -0.27703,0.61874 -0.61874,0.61874c-0.34173,0 -0.61874,-0.27703 -0.61874,-0.61874c0,-0.34173 0.27703,-0.61874 0.61874,-0.61874z" data-paper-data="{&quot;index&quot;:null}" fill="#ffffff" stroke="none" stroke-width="0" stroke-linecap="butt"/><path d="M245.57497,181.66351c0,1.73669 -1.40788,3.14457 -3.14457,3.14457c-1.73669,0 -3.14457,-1.40788 -3.14457,-3.14457c0,-1.73669 1.40788,-3.14457 3.14457,-3.14457c1.73669,0 3.14457,1.40788 3.14457,3.14457z" data-paper-data="{&quot;index&quot;:null}" fill="#000000" stroke="none" stroke-width="0" stroke-linecap="butt"/><path d="M242.45119,180.78037c0,0.6151 -0.49863,1.11373 -1.11373,1.11373c-0.6151,0 -1.11374,-0.49865 -1.11374,-1.11373c0,-0.6151 0.49864,-1.11373 1.11374,-1.11373c0.6151,0 1.11373,0.49863 1.11373,1.11373z" data-paper-data="{&quot;index&quot;:null}" fill="#ffffff" stroke="none" stroke-width="0" stroke-linecap="butt"/><path d="M243.45919,182.6257c0,0.34171 -0.27701,0.61875 -0.61874,0.61875c-0.34171,0 -0.61875,-0.27702 -0.61875,-0.61875c0,-0.34171 0.27702,-0.61874 0.61875,-0.61874c0.34171,0 0.61874,0.27701 0.61874,0.61874z" data-paper-data="{&quot;index&quot;:null}" fill="#ffffff" stroke="none" stroke-width="0" stroke-linecap="butt"/><path d="M234.17975,186.04447c0,-0.65288 1.03892,-1.18214 2.32049,-1.18214c1.28157,0 2.32049,0.52926 2.32049,1.18214c0,0.65288 -1.03892,1.18214 -2.32049,1.18214c-1.28157,0 -2.32049,-0.52926 -2.32049,-1.18214z" fill="none" stroke="#000000" stroke-width="0.5" stroke-linecap="butt"/><path d="M252.7817,165.81842l13.0264,-32.77612" fill="none" stroke="#000000" stroke-width="2" stroke-linecap="round"/><path d="M277.0603,138.20151c0,9.21848 -7.52573,18.20896 -37.02488,18.20896c-29.49915,0 -41.27363,-8.99047 -41.27363,-18.20896c0,-9.21848 9.34662,-46.73632 38.84577,-46.73632c29.49915,0 39.45274,37.51784 39.45274,46.73632z" fill="#ffcdcd" stroke="#000000" stroke-width="2" stroke-linecap="butt"/><path d="M229.81977,119.49606c-0.84222,-2.17953 -2.12045,-5.48739 -2.58444,-6.68812c-0.33479,-0.86638 0.17049,-2.25794 0.96399,-2.56457c1.25529,-0.48507 5.46893,-1.99641 7.7854,-2.89155c1.09593,-0.42349 1.69858,-0.0409 1.93385,0.56795c0.44285,1.14603 1.98419,5.13479 2.90872,7.52732c0.42334,1.09554 -0.04693,2.15173 -0.74812,2.42269c-1.183,0.45714 -4.96731,1.91948 -7.37972,2.85169c-1.22309,0.47263 -2.42232,-0.04185 -2.87968,-1.22542z" fill="#de914f" stroke="#000000" stroke-width="1.5" stroke-linecap="butt"/><path d="M235.43072,119.80128l-4.02898,-10.42635l1.6021,-0.61909l4.02898,10.42635z" fill="#eeeeee" stroke="none" stroke-width="0" stroke-linecap="butt"/><path d="M239.64909,113.31562l-10.65104,4.1158l-0.61909,-1.6021l10.65104,-4.1158z" fill="#eeeeee" stroke="none" stroke-width="0" stroke-linecap="butt"/><path d="M231.81139,113.32362c0.50436,-0.19489 1.07122,0.05598 1.26611,0.56033c0.19489,0.50436 -0.05597,1.07122 -0.56033,1.26611c-0.50436,0.19489 -1.07122,-0.05598 -1.26611,-0.56033c-0.19489,-0.50436 0.05598,-1.07122 0.56033,-1.26611z" data-paper-data="{&quot;index&quot;:null}" fill="#000000" stroke="none" stroke-width="0" stroke-linecap="butt"/><path d="M232.25759,113.53427c0.17863,-0.06903 0.3794,0.01983 0.44842,0.19845c0.06903,0.17863 -0.01983,0.3794 -0.19845,0.44843c-0.17863,0.06903 -0.3794,-0.01983 -0.44843,-0.19845c-0.06903,-0.17863 0.01983,-0.3794 0.19846,-0.44843z" data-paper-data="{&quot;index&quot;:null}" fill="#ffffff" stroke="none" stroke-width="0" stroke-linecap="butt"/><path d="M232.08374,114.3826c0.09924,-0.03835 0.21078,0.01102 0.24913,0.11025c0.03835,0.09924 -0.01102,0.21078 -0.11026,0.24913c-0.09924,0.03835 -0.21078,-0.01102 -0.24913,-0.11025c-0.03835,-0.09924 0.01102,-0.21078 0.11026,-0.24913z" data-paper-data="{&quot;index&quot;:null}" fill="#ffffff" stroke="none" stroke-width="0" stroke-linecap="butt"/><path d="M236.5758,112.56733c0.19489,0.50436 -0.05598,1.07122 -0.56033,1.26611c-0.50436,0.19489 -1.07122,-0.05598 -1.26611,-0.56033c-0.19489,-0.50436 0.05598,-1.07122 0.56033,-1.26611c0.50436,-0.19489 1.07122,0.05598 1.26611,0.56033z" data-paper-data="{&quot;index&quot;:null}" fill="#000000" stroke="none" stroke-width="0" stroke-linecap="butt"/><path d="M235.56951,112.66141c0.06903,0.17863 -0.01982,0.3794 -0.19845,0.44843c-0.17863,0.06903 -0.3794,-0.01983 -0.44843,-0.19845c-0.06903,-0.17863 0.01983,-0.3794 0.19846,-0.44843c0.17863,-0.06903 0.37939,0.01982 0.44842,0.19845z" data-paper-data="{&quot;index&quot;:null}" fill="#ffffff" stroke="none" stroke-width="0" stroke-linecap="butt"/><path d="M236.06933,113.08419c0.03835,0.09924 -0.01101,0.21078 -0.11025,0.24913c-0.09924,0.03835 -0.21078,-0.01101 -0.24913,-0.11026c-0.03835,-0.09924 0.01101,-0.21078 0.11026,-0.24913c0.09924,-0.03835 0.21078,0.01101 0.24913,0.11025z" data-paper-data="{&quot;index&quot;:null}" fill="#ffffff" stroke="none" stroke-width="0" stroke-linecap="butt"/><path d="M233.75813,115.11841c-0.07327,-0.1896 0.16905,-0.4599 0.54124,-0.60372c0.37218,-0.14382 0.73329,-0.1067 0.80656,0.0829c0.07327,0.1896 -0.16905,0.45989 -0.54124,0.60371c-0.37218,0.14382 -0.73329,0.10671 -0.80656,-0.0829z" fill="none" stroke="#000000" stroke-width="0.5" stroke-linecap="butt"/><path d="M242.75663,131.25176c0.28791,-2.3188 0.72487,-5.838 0.88349,-7.11546c0.11445,-0.92174 1.21743,-1.90924 2.06163,-1.80443c1.3355,0.16582 5.76312,0.82546 8.22759,1.13146c1.16595,0.14477 1.51622,0.76676 1.43579,1.41452c-0.15139,1.21926 -0.6783,5.46287 -0.99435,8.00828c-0.14472,1.16554 -1.05834,1.87405 -1.80434,1.78142c-1.25859,-0.15627 -5.2847,-0.65617 -7.85125,-0.97485c-1.30124,-0.16157 -2.11491,-1.18176 -1.95856,-2.44095z" fill="#de914f" stroke="#000000" stroke-width="1.5" stroke-linecap="butt"/><path d="M247.55706,134.17268l1.3773,-11.09254l1.70446,0.21163l-1.3773,11.09255z" fill="#eeeeee" stroke="none" stroke-width="0" stroke-linecap="butt"/><path d="M254.33989,130.4509l-11.33159,-1.40698l0.21163,-1.70447l11.33159,1.40699z" fill="#eeeeee" stroke="none" stroke-width="0" stroke-linecap="butt"/><path d="M247.42907,126.75357c0.53658,0.06662 0.91756,0.55563 0.85093,1.09221c-0.06662,0.53658 -0.55562,0.91756 -1.0922,0.85094c-0.53658,-0.06662 -0.91756,-0.55563 -0.85093,-1.09221c0.06662,-0.53658 0.55562,-0.91756 1.0922,-0.85094z" data-paper-data="{&quot;index&quot;:null}" fill="#000000" stroke="none" stroke-width="0" stroke-linecap="butt"/><path d="M247.72273,127.1501c0.19005,0.02359 0.32497,0.19679 0.30138,0.38683c-0.0236,0.19004 -0.19679,0.32499 -0.38683,0.30139c-0.19005,-0.02359 -0.32498,-0.19679 -0.30139,-0.38683c0.02359,-0.19005 0.1968,-0.32498 0.38684,-0.30138z" data-paper-data="{&quot;index&quot;:null}" fill="#ffffff" stroke="none" stroke-width="0" stroke-linecap="butt"/><path d="M247.16858,127.81553c0.10559,0.01311 0.18054,0.10933 0.16743,0.21491c-0.01311,0.10559 -0.10933,0.18054 -0.21491,0.16743c-0.10559,-0.01311 -0.18054,-0.10933 -0.16743,-0.21491c0.01311,-0.10559 0.10933,-0.18054 0.21491,-0.16743z" data-paper-data="{&quot;index&quot;:null}" fill="#ffffff" stroke="none" stroke-width="0" stroke-linecap="butt"/><path d="M251.9852,128.33891c-0.06662,0.53658 -0.55562,0.91756 -1.0922,0.85094c-0.53658,-0.06662 -0.91756,-0.55563 -0.85093,-1.09221c0.06662,-0.53658 0.55562,-0.91756 1.0922,-0.85094c0.53658,0.06662 0.91756,0.55563 0.85093,1.09221z" data-paper-data="{&quot;index&quot;:null}" fill="#000000" stroke="none" stroke-width="0" stroke-linecap="butt"/><path d="M251.05393,127.94622c-0.02359,0.19005 -0.19679,0.32497 -0.38683,0.30138c-0.19005,-0.02359 -0.32498,-0.1968 -0.30139,-0.38683c0.02359,-0.19005 0.19679,-0.32497 0.38684,-0.30138c0.19005,0.02359 0.32497,0.19679 0.30138,0.38683z" data-paper-data="{&quot;index&quot;:null}" fill="#ffffff" stroke="none" stroke-width="0" stroke-linecap="butt"/><path d="M251.29458,128.55503c-0.01311,0.10557 -0.10932,0.18055 -0.21491,0.16744c-0.10557,-0.01311 -0.18055,-0.10932 -0.16744,-0.21491c0.01311,-0.10557 0.10933,-0.18055 0.21492,-0.16743c0.10557,0.01311 0.18054,0.10932 0.16743,0.21491z" data-paper-data="{&quot;index&quot;:null}" fill="#ffffff" stroke="none" stroke-width="0" stroke-linecap="butt"/><path d="M248.29638,129.25534c0.02505,-0.20172 0.36634,-0.32538 0.7623,-0.27622c0.39596,0.04916 0.69665,0.25255 0.67161,0.45427c-0.02505,0.20172 -0.36634,0.32538 -0.7623,0.27622c-0.39596,-0.04916 -0.69665,-0.25255 -0.67161,-0.45427z" fill="none" stroke="#000000" stroke-width="0.5" stroke-linecap="butt"/><path d="M249.22774,116.14282c-0.84222,-2.17953 -2.12045,-5.48738 -2.58444,-6.68812c-0.33479,-0.86638 0.17049,-2.25794 0.96399,-2.56457c1.25529,-0.48507 5.46893,-1.99641 7.7854,-2.89154c1.09592,-0.42349 1.69858,-0.04091 1.93386,0.56794c0.44286,1.14603 1.98419,5.13479 2.90873,7.52732c0.42334,1.09554 -0.04693,2.15174 -0.74812,2.42269c-1.183,0.45714 -4.96732,1.91948 -7.37973,2.85169c-1.22309,0.47263 -2.42232,-0.04185 -2.87968,-1.22542z" fill="#de914f" stroke="#000000" stroke-width="1.5" stroke-linecap="butt"/><path d="M254.83868,116.44805l-4.02898,-10.42635l1.6021,-0.61908l4.02898,10.42636z" fill="#eeeeee" stroke="none" stroke-width="0" stroke-linecap="butt"/><path d="M259.05705,109.96239l-10.65104,4.1158l-0.61909,-1.6021l10.65105,-4.1158z" fill="#eeeeee" stroke="none" stroke-width="0" stroke-linecap="butt"/><path d="M251.21935,109.97038c0.50436,-0.1949 1.07121,0.05598 1.26611,0.56033c0.1949,0.50436 -0.05597,1.07121 -0.56033,1.26611c-0.50436,0.1949 -1.07121,-0.05598 -1.26611,-0.56033c-0.1949,-0.50436 0.05597,-1.07121 0.56033,-1.26611z" data-paper-data="{&quot;index&quot;:null}" fill="#000000" stroke="none" stroke-width="0" stroke-linecap="butt"/><path d="M251.66555,110.18103c0.17863,-0.06903 0.37939,0.01982 0.44842,0.19845c0.06903,0.17862 -0.01982,0.37941 -0.19845,0.44843c-0.17863,0.06903 -0.3794,-0.01982 -0.44843,-0.19845c-0.06903,-0.17863 0.01983,-0.37941 0.19846,-0.44843z" data-paper-data="{&quot;index&quot;:null}" fill="#ffffff" stroke="none" stroke-width="0" stroke-linecap="butt"/><path d="M251.4917,111.02936c0.09924,-0.03835 0.21078,0.01102 0.24912,0.11025c0.03835,0.09924 -0.01102,0.21078 -0.11025,0.24912c-0.09924,0.03835 -0.21078,-0.01102 -0.24912,-0.11025c-0.03835,-0.09924 0.01102,-0.21078 0.11025,-0.24912z" data-paper-data="{&quot;index&quot;:null}" fill="#ffffff" stroke="none" stroke-width="0" stroke-linecap="butt"/><path d="M255.98376,109.2141c0.1949,0.50436 -0.05598,1.07122 -0.56033,1.26611c-0.50436,0.1949 -1.07121,-0.05598 -1.26611,-0.56034c-0.1949,-0.50436 0.05597,-1.07121 0.56033,-1.26611c0.50436,-0.1949 1.07122,0.05598 1.26611,0.56033z" data-paper-data="{&quot;index&quot;:null}" fill="#000000" stroke="none" stroke-width="0" stroke-linecap="butt"/><path d="M254.97747,109.30818c0.06903,0.17863 -0.01982,0.3794 -0.19845,0.44843c-0.17863,0.06903 -0.3794,-0.01983 -0.44843,-0.19845c-0.06903,-0.17863 0.01983,-0.3794 0.19846,-0.44843c0.17863,-0.06903 0.3794,0.01982 0.44843,0.19845z" data-paper-data="{&quot;index&quot;:null}" fill="#ffffff" stroke="none" stroke-width="0" stroke-linecap="butt"/><path d="M255.4773,109.73096c0.03834,0.09923 -0.01101,0.21078 -0.11025,0.24913c-0.09923,0.03835 -0.21078,-0.01101 -0.24913,-0.11025c-0.03834,-0.09923 0.01102,-0.21078 0.11026,-0.24913c0.09923,-0.03835 0.21077,0.01101 0.24912,0.11026z" data-paper-data="{&quot;index&quot;:null}" fill="#ffffff" stroke="none" stroke-width="0" stroke-linecap="butt"/><path d="M253.1661,111.76517c-0.07326,-0.18961 0.16906,-0.4599 0.54124,-0.60372c0.37218,-0.14382 0.73329,-0.10671 0.80656,0.0829c0.07326,0.18961 -0.16906,0.4599 -0.54124,0.60372c-0.37218,0.14382 -0.73329,0.10671 -0.80656,-0.0829z" fill="none" stroke="#000000" stroke-width="0.5" stroke-linecap="butt"/><path d="M205.58278,134.75748c0.75071,-2.21272 1.89005,-5.57094 2.30363,-6.78996c0.29841,-0.87957 1.57824,-1.62373 2.38383,-1.35042c1.27441,0.43236 5.47727,1.97343 7.82901,2.7713c1.11261,0.37748 1.32992,1.05743 1.12021,1.67556c-0.39473,1.16349 -1.7686,5.21297 -2.59268,7.64194c-0.37734,1.11222 -1.41533,1.62142 -2.1272,1.3799c-1.20102,-0.40747 -5.04296,-1.71092 -7.4921,-2.54184c-1.24171,-0.42128 -1.83235,-1.58489 -1.42469,-2.78648z" fill="#de914f" stroke="#000000" stroke-width="1.5" stroke-linecap="butt"/><path d="M209.69365,138.5885l3.59121,-10.58512l1.62649,0.55182l-3.59121,10.58512z" fill="#eeeeee" stroke="none" stroke-width="0" stroke-linecap="butt"/><path d="M217.08879,136.3147l-10.81323,-3.6686l0.55182,-1.6265l10.81323,3.6686z" fill="#eeeeee" stroke="none" stroke-width="0" stroke-linecap="butt"/><path d="M211.06807,131.29668c0.51204,0.17372 0.7863,0.72964 0.61258,1.24168c-0.17372,0.51204 -0.72964,0.7863 -1.24167,0.61258c-0.51204,-0.17372 -0.7863,-0.72964 -0.61258,-1.24168c0.17372,-0.51204 0.72964,-0.7863 1.24167,-0.61258z" data-paper-data="{&quot;index&quot;:null}" fill="#000000" stroke="none" stroke-width="0" stroke-linecap="butt"/><path d="M211.27551,131.74439c0.18135,0.06152 0.27849,0.25842 0.21696,0.43977c-0.06152,0.18135 -0.25842,0.2785 -0.43977,0.21697c-0.18135,-0.06152 -0.27849,-0.25842 -0.21697,-0.43977c0.06152,-0.18135 0.25843,-0.27849 0.43978,-0.21696z" data-paper-data="{&quot;index&quot;:null}" fill="#ffffff" stroke="none" stroke-width="0" stroke-linecap="butt"/><path d="M210.59827,132.28406c0.10076,0.03418 0.15471,0.14357 0.12053,0.24432c-0.03418,0.10076 -0.14357,0.15471 -0.24432,0.12053c-0.10076,-0.03418 -0.15471,-0.14357 -0.12053,-0.24432c0.03418,-0.10076 0.14357,-0.15471 0.24432,-0.12053z" data-paper-data="{&quot;index&quot;:null}" fill="#ffffff" stroke="none" stroke-width="0" stroke-linecap="butt"/><path d="M215.20965,133.77031c-0.17372,0.51204 -0.72964,0.7863 -1.24167,0.61258c-0.51204,-0.17372 -0.7863,-0.72964 -0.61258,-1.24168c0.17372,-0.51204 0.72964,-0.7863 1.24167,-0.61258c0.51204,0.17372 0.7863,0.72964 0.61258,1.24168z" data-paper-data="{&quot;index&quot;:null}" fill="#000000" stroke="none" stroke-width="0" stroke-linecap="butt"/><path d="M214.377,133.19747c-0.06152,0.18135 -0.25842,0.27849 -0.43977,0.21696c-0.18135,-0.06152 -0.27849,-0.25843 -0.21697,-0.43977c0.06152,-0.18135 0.25842,-0.27848 0.43977,-0.21696c0.18135,0.06152 0.27849,0.25842 0.21696,0.43977z" data-paper-data="{&quot;index&quot;:null}" fill="#ffffff" stroke="none" stroke-width="0" stroke-linecap="butt"/><path d="M214.48961,133.84237c-0.03418,0.10075 -0.14357,0.15472 -0.24432,0.12054c-0.10075,-0.03418 -0.15472,-0.14357 -0.12054,-0.24432c0.03418,-0.10075 0.14357,-0.15472 0.24433,-0.12053c0.10075,0.03418 0.15472,0.14356 0.12053,0.24432z" data-paper-data="{&quot;index&quot;:null}" fill="#ffffff" stroke="none" stroke-width="0" stroke-linecap="butt"/><path d="M211.41174,133.92213c0.06531,-0.19249 0.42456,-0.24461 0.8024,-0.11642c0.37785,0.12819 0.63122,0.38816 0.56591,0.58065c-0.06531,0.19249 -0.42456,0.24461 -0.8024,0.11642c-0.37785,-0.12819 -0.63122,-0.38816 -0.56591,-0.58065z" fill="none" stroke="#000000" stroke-width="0.5" stroke-linecap="butt"/><path d="M225.14995,135.81221c0.75071,-2.21273 1.89005,-5.57094 2.30363,-6.78996c0.29841,-0.87958 1.57824,-1.62373 2.38383,-1.35042c1.27441,0.43237 5.47727,1.97343 7.82901,2.7713c1.11262,0.37748 1.32992,1.05743 1.12021,1.67556c-0.39473,1.16349 -1.76861,5.21298 -2.59268,7.64194c-0.37734,1.11222 -1.41533,1.62142 -2.1272,1.3799c-1.20102,-0.40747 -5.04296,-1.71092 -7.4921,-2.54184c-1.24171,-0.42128 -1.83236,-1.58489 -1.4247,-2.78648z" fill="#de914f" stroke="#000000" stroke-width="1.5" stroke-linecap="butt"/><path d="M229.26081,139.64323l3.59121,-10.58512l1.62649,0.55182l-3.59121,10.58512z" fill="#eeeeee" stroke="none" stroke-width="0" stroke-linecap="butt"/><path d="M236.65596,137.36942l-10.81322,-3.6686l0.55181,-1.62649l10.81323,3.6686z" fill="#eeeeee" stroke="none" stroke-width="0" stroke-linecap="butt"/><path d="M230.63523,132.35141c0.51203,0.17371 0.78629,0.72964 0.61258,1.24168c-0.17371,0.51203 -0.72964,0.78629 -1.24167,0.61258c-0.51203,-0.17371 -0.78629,-0.72964 -0.61258,-1.24167c0.17371,-0.51203 0.72964,-0.78629 1.24167,-0.61258z" data-paper-data="{&quot;index&quot;:null}" fill="#000000" stroke="none" stroke-width="0" stroke-linecap="butt"/><path d="M230.84267,132.79912c0.18135,0.06152 0.27849,0.25841 0.21696,0.43976c-0.06152,0.18134 -0.25842,0.2785 -0.43977,0.21697c-0.18135,-0.06152 -0.27849,-0.25842 -0.21696,-0.43977c0.06152,-0.18135 0.25842,-0.27849 0.43977,-0.21696z" data-paper-data="{&quot;index&quot;:null}" fill="#ffffff" stroke="none" stroke-width="0" stroke-linecap="butt"/><path d="M230.16544,133.33879c0.10075,0.03419 0.15471,0.14357 0.12053,0.24432c-0.03419,0.10075 -0.14357,0.15471 -0.24432,0.12053c-0.10075,-0.03419 -0.15471,-0.14357 -0.12053,-0.24432c0.03419,-0.10075 0.14357,-0.15471 0.24432,-0.12053z" data-paper-data="{&quot;index&quot;:null}" fill="#ffffff" stroke="none" stroke-width="0" stroke-linecap="butt"/><path d="M234.77681,134.82504c-0.17371,0.51203 -0.72964,0.78629 -1.24167,0.61258c-0.51203,-0.17371 -0.78629,-0.72964 -0.61258,-1.24168c0.17371,-0.51203 0.72964,-0.78629 1.24167,-0.61258c0.51203,0.17371 0.78629,0.72964 0.61258,1.24167z" data-paper-data="{&quot;index&quot;:null}" fill="#000000" stroke="none" stroke-width="0" stroke-linecap="butt"/><path d="M233.94416,134.2522c-0.06152,0.18135 -0.25842,0.27849 -0.43977,0.21696c-0.18135,-0.06152 -0.27849,-0.25843 -0.21697,-0.43977c0.06152,-0.18135 0.25842,-0.27848 0.43977,-0.21696c0.18135,0.06152 0.27848,0.25842 0.21696,0.43977z" data-paper-data="{&quot;index&quot;:null}" fill="#ffffff" stroke="none" stroke-width="0" stroke-linecap="butt"/><path d="M234.05677,134.89709c-0.03418,0.10074 -0.14357,0.15473 -0.24432,0.12054c-0.10074,-0.03418 -0.15472,-0.14357 -0.12053,-0.24432c0.03418,-0.10074 0.14357,-0.15472 0.24433,-0.12053c0.10074,0.03418 0.15472,0.14356 0.12053,0.24432z" data-paper-data="{&quot;index&quot;:null}" fill="#ffffff" stroke="none" stroke-width="0" stroke-linecap="butt"/><path d="M230.9789,134.97686c0.06531,-0.19249 0.42456,-0.24461 0.80241,-0.11642c0.37785,0.12819 0.63122,0.38816 0.56591,0.58065c-0.06531,0.19249 -0.42456,0.24461 -0.80241,0.11642c-0.37785,-0.12819 -0.63122,-0.38816 -0.56591,-0.58065z" fill="none" stroke="#000000" stroke-width="0.5" stroke-linecap="butt"/><path d="M250.1798,146.2749c0.75071,-2.21273 1.89005,-5.57094 2.30363,-6.78996c0.29841,-0.87957 1.57824,-1.62373 2.38383,-1.35042c1.27441,0.43237 5.47727,1.97343 7.82901,2.7713c1.11262,0.37748 1.32992,1.05743 1.12021,1.67556c-0.39474,1.16349 -1.76861,5.21298 -2.59268,7.64194c-0.37734,1.11222 -1.41533,1.62142 -2.1272,1.3799c-1.20101,-0.40747 -5.04296,-1.71091 -7.4921,-2.54183c-1.24171,-0.42128 -1.83236,-1.58489 -1.4247,-2.78648z" fill="#de914f" stroke="#000000" stroke-width="1.5" stroke-linecap="butt"/><path d="M254.29066,150.10591l3.59121,-10.58512l1.62649,0.55182l-3.59121,10.58512z" fill="#eeeeee" stroke="none" stroke-width="0" stroke-linecap="butt"/><path d="M261.6858,147.83211l-10.81322,-3.6686l0.55182,-1.6265l10.81323,3.6686z" fill="#eeeeee" stroke="none" stroke-width="0" stroke-linecap="butt"/><path d="M255.66508,142.8141c0.51203,0.17371 0.78629,0.72964 0.61258,1.24167c-0.17371,0.51203 -0.72964,0.78629 -1.24167,0.61258c-0.51203,-0.17371 -0.78629,-0.72964 -0.61258,-1.24168c0.17371,-0.51203 0.72964,-0.78629 1.24167,-0.61258z" data-paper-data="{&quot;index&quot;:null}" fill="#000000" stroke="none" stroke-width="0" stroke-linecap="butt"/><path d="M255.87252,143.2618c0.18135,0.06152 0.27849,0.25841 0.21696,0.43976c-0.06152,0.18134 -0.25842,0.2785 -0.43977,0.21697c-0.18135,-0.06152 -0.2785,-0.25842 -0.21697,-0.43977c0.06152,-0.18135 0.25842,-0.27849 0.43977,-0.21696z" data-paper-data="{&quot;index&quot;:null}" fill="#ffffff" stroke="none" stroke-width="0" stroke-linecap="butt"/><path d="M255.19529,143.80147c0.10075,0.03419 0.15471,0.14357 0.12053,0.24432c-0.03419,0.10075 -0.14357,0.15471 -0.24432,0.12053c-0.10075,-0.03419 -0.15471,-0.14357 -0.12053,-0.24432c0.03419,-0.10075 0.14357,-0.15471 0.24432,-0.12053z" data-paper-data="{&quot;index&quot;:null}" fill="#ffffff" stroke="none" stroke-width="0" stroke-linecap="butt"/><path d="M259.80667,145.28773c-0.17372,0.51203 -0.72964,0.78629 -1.24167,0.61258c-0.51204,-0.17371 -0.7863,-0.72964 -0.61258,-1.24167c0.17371,-0.51203 0.72964,-0.78629 1.24168,-0.61258c0.51203,0.17371 0.78629,0.72964 0.61257,1.24168z" data-paper-data="{&quot;index&quot;:null}" fill="#000000" stroke="none" stroke-width="0" stroke-linecap="butt"/><path d="M258.97401,144.71488c-0.06153,0.18135 -0.25842,0.27849 -0.43977,0.21697c-0.18135,-0.06152 -0.27849,-0.25843 -0.21696,-0.43978c0.06152,-0.18135 0.25842,-0.27848 0.43977,-0.21696c0.18135,0.06152 0.27849,0.25842 0.21696,0.43977z" data-paper-data="{&quot;index&quot;:null}" fill="#ffffff" stroke="none" stroke-width="0" stroke-linecap="butt"/><path d="M259.08662,145.35978c-0.03418,0.10074 -0.14356,0.15473 -0.24432,0.12054c-0.10074,-0.03418 -0.15472,-0.14356 -0.12054,-0.24432c0.03418,-0.10074 0.14357,-0.15472 0.24433,-0.12054c0.10075,0.03418 0.15472,0.14356 0.12053,0.24432z" data-paper-data="{&quot;index&quot;:null}" fill="#ffffff" stroke="none" stroke-width="0" stroke-linecap="butt"/><path d="M256.00874,145.43955c0.06531,-0.19249 0.42456,-0.24461 0.80241,-0.11642c0.37785,0.12819 0.63122,0.38816 0.56591,0.58065c-0.06531,0.19249 -0.42456,0.24461 -0.80241,0.11642c-0.37785,-0.12819 -0.63122,-0.38816 -0.56591,-0.58065z" fill="none" stroke="#000000" stroke-width="0.5" stroke-linecap="butt"/><path d="M260.03552,129.12068c0.75071,-2.21273 1.89005,-5.57094 2.30363,-6.78996c0.29841,-0.87957 1.57824,-1.62373 2.38383,-1.35042c1.2744,0.43237 5.47727,1.97343 7.82901,2.7713c1.11262,0.37748 1.32992,1.05743 1.12021,1.67556c-0.39474,1.16349 -1.7686,5.21298 -2.59268,7.64194c-0.37734,1.11222 -1.41533,1.62142 -2.1272,1.3799c-1.20101,-0.40747 -5.04296,-1.71091 -7.4921,-2.54183c-1.24171,-0.42128 -1.83236,-1.58489 -1.42469,-2.78648z" fill="#de914f" stroke="#000000" stroke-width="1.5" stroke-linecap="butt"/><path d="M264.14638,132.95169l3.59121,-10.58512l1.62649,0.55182l-3.59121,10.58512z" fill="#eeeeee" stroke="none" stroke-width="0" stroke-linecap="butt"/><path d="M271.54152,130.67788l-10.81322,-3.6686l0.55181,-1.6265l10.81323,3.6686z" fill="#eeeeee" stroke="none" stroke-width="0" stroke-linecap="butt"/><path d="M265.5208,125.65987c0.51203,0.17371 0.78629,0.72964 0.61258,1.24167c-0.17372,0.51204 -0.72964,0.78629 -1.24167,0.61258c-0.51203,-0.17372 -0.78629,-0.72964 -0.61258,-1.24168c0.17371,-0.51203 0.72963,-0.78629 1.24167,-0.61258z" data-paper-data="{&quot;index&quot;:null}" fill="#000000" stroke="none" stroke-width="0" stroke-linecap="butt"/><path d="M265.72824,126.10757c0.18135,0.06152 0.27849,0.25842 0.21696,0.43977c-0.06152,0.18134 -0.25842,0.2785 -0.43977,0.21697c-0.18135,-0.06152 -0.2785,-0.25842 -0.21697,-0.43977c0.06153,-0.18135 0.25842,-0.27849 0.43977,-0.21696z" data-paper-data="{&quot;index&quot;:null}" fill="#ffffff" stroke="none" stroke-width="0" stroke-linecap="butt"/><path d="M265.05101,126.64724c0.10075,0.03419 0.15471,0.14357 0.12053,0.24432c-0.03419,0.10075 -0.14357,0.15472 -0.24431,0.12054c-0.10076,-0.03419 -0.15472,-0.14358 -0.12054,-0.24432c0.03418,-0.10075 0.14357,-0.15471 0.24432,-0.12053z" data-paper-data="{&quot;index&quot;:null}" fill="#ffffff" stroke="none" stroke-width="0" stroke-linecap="butt"/><path d="M269.66238,128.13349c-0.17372,0.51203 -0.72963,0.78629 -1.24167,0.61258c-0.51204,-0.17371 -0.78629,-0.72964 -0.61258,-1.24167c0.17372,-0.51203 0.72964,-0.78629 1.24167,-0.61258c0.51204,0.17371 0.78629,0.72964 0.61257,1.24168z" data-paper-data="{&quot;index&quot;:null}" fill="#000000" stroke="none" stroke-width="0" stroke-linecap="butt"/><path d="M268.82973,127.56065c-0.06153,0.18135 -0.25842,0.27849 -0.43977,0.21697c-0.18135,-0.06152 -0.27849,-0.25843 -0.21696,-0.43977c0.06153,-0.18135 0.25842,-0.27848 0.43977,-0.21696c0.18135,0.06152 0.27848,0.25842 0.21696,0.43977z" data-paper-data="{&quot;index&quot;:null}" fill="#ffffff" stroke="none" stroke-width="0" stroke-linecap="butt"/><path d="M268.94234,128.20555c-0.03418,0.10074 -0.14357,0.15472 -0.24432,0.12054c-0.10075,-0.03418 -0.15472,-0.14356 -0.12054,-0.24432c0.03418,-0.10074 0.14357,-0.15472 0.24433,-0.12053c0.10075,0.03418 0.15472,0.14356 0.12053,0.24432z" data-paper-data="{&quot;index&quot;:null}" fill="#ffffff" stroke="none" stroke-width="0" stroke-linecap="butt"/><path d="M265.86447,128.28532c0.06531,-0.19249 0.42455,-0.24461 0.80241,-0.11642c0.37785,0.12819 0.63122,0.38816 0.56591,0.58065c-0.06531,0.19249 -0.42455,0.24461 -0.8024,0.11642c-0.37785,-0.12819 -0.63122,-0.38816 -0.56591,-0.58065z" fill="none" stroke="#000000" stroke-width="0.5" stroke-linecap="butt"/><path d="M211.62258,115.30475c0.75071,-2.21273 1.89005,-5.57094 2.30363,-6.78996c0.29841,-0.87958 1.57824,-1.62372 2.38383,-1.35042c1.27441,0.43237 5.47727,1.97343 7.82901,2.7713c1.11262,0.37748 1.32992,1.05743 1.12021,1.67556c-0.39474,1.16348 -1.76861,5.21298 -2.59268,7.64194c-0.37734,1.11222 -1.41533,1.62142 -2.1272,1.3799c-1.20101,-0.40747 -5.04296,-1.71091 -7.4921,-2.54183c-1.24171,-0.42128 -1.83236,-1.58489 -1.42469,-2.78648z" fill="#de914f" stroke="#000000" stroke-width="1.5" stroke-linecap="butt"/><path d="M215.73344,119.13576l3.59121,-10.58512l1.62649,0.55182l-3.59121,10.58512z" fill="#eeeeee" stroke="none" stroke-width="0" stroke-linecap="butt"/><path d="M223.12859,116.86196l-10.81322,-3.6686l0.55181,-1.6265l10.81323,3.6686z" fill="#eeeeee" stroke="none" stroke-width="0" stroke-linecap="butt"/><path d="M217.10786,111.84394c0.51204,0.17371 0.7863,0.72964 0.61258,1.24167c-0.17372,0.51203 -0.72963,0.78629 -1.24167,0.61258c-0.51204,-0.17371 -0.7863,-0.72964 -0.61258,-1.24168c0.17372,-0.51203 0.72963,-0.78629 1.24167,-0.61258z" data-paper-data="{&quot;index&quot;:null}" fill="#000000" stroke="none" stroke-width="0" stroke-linecap="butt"/><path d="M217.3153,112.29165c0.18135,0.06152 0.27849,0.25841 0.21696,0.43976c-0.06153,0.18134 -0.25842,0.2785 -0.43977,0.21697c-0.18135,-0.06153 -0.2785,-0.25842 -0.21697,-0.43977c0.06153,-0.18135 0.25842,-0.27849 0.43977,-0.21696z" data-paper-data="{&quot;index&quot;:null}" fill="#ffffff" stroke="none" stroke-width="0" stroke-linecap="butt"/><path d="M216.63807,112.83132c0.10075,0.03418 0.15471,0.14357 0.12053,0.24432c-0.03418,0.10076 -0.14357,0.15472 -0.24432,0.12053c-0.10075,-0.03418 -0.15472,-0.14357 -0.12054,-0.24432c0.03418,-0.10076 0.14357,-0.15471 0.24432,-0.12053z" data-paper-data="{&quot;index&quot;:null}" fill="#ffffff" stroke="none" stroke-width="0" stroke-linecap="butt"/><path d="M221.24945,114.31758c-0.17372,0.51203 -0.72963,0.78629 -1.24167,0.61258c-0.51204,-0.17371 -0.78629,-0.72964 -0.61258,-1.24167c0.17372,-0.51203 0.72964,-0.78629 1.24167,-0.61258c0.51204,0.17371 0.78629,0.72964 0.61257,1.24168z" data-paper-data="{&quot;index&quot;:null}" fill="#000000" stroke="none" stroke-width="0" stroke-linecap="butt"/><path d="M220.41679,113.74473c-0.06153,0.18135 -0.25842,0.27849 -0.43977,0.21696c-0.18135,-0.06153 -0.27849,-0.25843 -0.21697,-0.43977c0.06153,-0.18135 0.25842,-0.27848 0.43977,-0.21696c0.18135,0.06152 0.27849,0.25842 0.21696,0.43977z" data-paper-data="{&quot;index&quot;:null}" fill="#ffffff" stroke="none" stroke-width="0" stroke-linecap="butt"/><path d="M220.5294,114.38962c-0.03418,0.10074 -0.14357,0.15473 -0.24432,0.12054c-0.10075,-0.03418 -0.15472,-0.14357 -0.12054,-0.24432c0.03418,-0.10075 0.14357,-0.15472 0.24433,-0.12053c0.10075,0.03418 0.15472,0.14356 0.12053,0.24432z" data-paper-data="{&quot;index&quot;:null}" fill="#ffffff" stroke="none" stroke-width="0" stroke-linecap="butt"/><path d="M217.45153,114.46939c0.06531,-0.19249 0.42455,-0.24461 0.8024,-0.11642c0.37785,0.12819 0.63122,0.38816 0.56591,0.58065c-0.06531,0.19249 -0.42455,0.24461 -0.80241,0.11642c-0.37785,-0.12819 -0.63122,-0.38816 -0.56591,-0.58065z" fill="none" stroke="#000000" stroke-width="0.5" stroke-linecap="butt"/><path d="M224.51313,103.30973c0.75071,-2.21273 1.89005,-5.57094 2.30362,-6.78996c0.29841,-0.87958 1.57825,-1.62372 2.38383,-1.35042c1.27441,0.43237 5.47727,1.97343 7.82901,2.7713c1.11262,0.37748 1.32992,1.05743 1.12021,1.67556c-0.39473,1.16348 -1.76861,5.21297 -2.59268,7.64194c-0.37734,1.11222 -1.41533,1.62142 -2.1272,1.3799c-1.20102,-0.40747 -5.04296,-1.71091 -7.4921,-2.54184c-1.24171,-0.42127 -1.83235,-1.58489 -1.42469,-2.78648z" fill="#de914f" stroke="#000000" stroke-width="1.5" stroke-linecap="butt"/><path d="M228.62399,107.14074l3.59121,-10.58512l1.62649,0.55182l-3.59121,10.58512z" fill="#eeeeee" stroke="none" stroke-width="0" stroke-linecap="butt"/><path d="M236.01914,104.86694l-10.81322,-3.6686l0.55182,-1.62649l10.81323,3.6686z" fill="#eeeeee" stroke="none" stroke-width="0" stroke-linecap="butt"/><path d="M229.99841,99.84892c0.51203,0.17372 0.78629,0.72964 0.61258,1.24168c-0.17371,0.51203 -0.72964,0.78629 -1.24167,0.61258c-0.51203,-0.17372 -0.78629,-0.72964 -0.61258,-1.24168c0.17371,-0.51203 0.72964,-0.78629 1.24167,-0.61258z" data-paper-data="{&quot;index&quot;:null}" fill="#000000" stroke="none" stroke-width="0" stroke-linecap="butt"/><path d="M230.20585,100.29663c0.18135,0.06153 0.27849,0.25841 0.21696,0.43976c-0.06152,0.18134 -0.25842,0.2785 -0.43977,0.21697c-0.18135,-0.06153 -0.2785,-0.25843 -0.21697,-0.43977c0.06152,-0.18135 0.25842,-0.27849 0.43977,-0.21696z" data-paper-data="{&quot;index&quot;:null}" fill="#ffffff" stroke="none" stroke-width="0" stroke-linecap="butt"/><path d="M229.52862,100.8363c0.10075,0.03418 0.15471,0.14357 0.12053,0.24432c-0.03419,0.10076 -0.14357,0.15472 -0.24432,0.12054c-0.10075,-0.03418 -0.15472,-0.14357 -0.12054,-0.24432c0.03419,-0.10076 0.14358,-0.15471 0.24432,-0.12053z" data-paper-data="{&quot;index&quot;:null}" fill="#ffffff" stroke="none" stroke-width="0" stroke-linecap="butt"/><path d="M234.14,102.32256c-0.17371,0.51203 -0.72964,0.78629 -1.24167,0.61258c-0.51203,-0.17372 -0.78629,-0.72964 -0.61258,-1.24168c0.17371,-0.51203 0.72964,-0.78629 1.24167,-0.61258c0.51203,0.17372 0.78629,0.72964 0.61257,1.24168z" data-paper-data="{&quot;index&quot;:null}" fill="#000000" stroke="none" stroke-width="0" stroke-linecap="butt"/><path d="M233.30734,101.74971c-0.06152,0.18135 -0.25842,0.27849 -0.43977,0.21697c-0.18135,-0.06153 -0.27849,-0.25843 -0.21696,-0.43977c0.06152,-0.18135 0.25842,-0.27849 0.43977,-0.21696c0.18135,0.06153 0.27848,0.25842 0.21696,0.43977z" data-paper-data="{&quot;index&quot;:null}" fill="#ffffff" stroke="none" stroke-width="0" stroke-linecap="butt"/><path d="M233.41995,102.3946c-0.03418,0.10075 -0.14356,0.15472 -0.24432,0.12054c-0.10074,-0.03418 -0.15472,-0.14356 -0.12054,-0.24432c0.03418,-0.10075 0.14357,-0.15472 0.24433,-0.12053c0.10074,0.03418 0.15472,0.14356 0.12053,0.24432z" data-paper-data="{&quot;index&quot;:null}" fill="#ffffff" stroke="none" stroke-width="0" stroke-linecap="butt"/><path d="M230.34208,102.47437c0.06531,-0.19249 0.42455,-0.24461 0.8024,-0.11642c0.37785,0.12819 0.63122,0.38816 0.56591,0.58065c-0.06531,0.19249 -0.42455,0.24461 -0.8024,0.11642c-0.37785,-0.12819 -0.63122,-0.38816 -0.56591,-0.58065z" fill="none" stroke="#000000" stroke-width="0.5" stroke-linecap="butt"/><path d="M217.98079,148.36942c0.75071,-2.21273 1.89005,-5.57094 2.30363,-6.78996c0.29841,-0.87957 1.57824,-1.62372 2.38383,-1.35042c1.27441,0.43237 5.47727,1.97343 7.82901,2.7713c1.11262,0.37748 1.32992,1.05743 1.12021,1.67556c-0.39473,1.16349 -1.76861,5.21298 -2.59268,7.64194c-0.37734,1.11222 -1.41533,1.62142 -2.1272,1.3799c-1.20102,-0.40747 -5.04296,-1.71091 -7.4921,-2.54184c-1.24171,-0.42127 -1.83236,-1.58489 -1.4247,-2.78648z" fill="#de914f" stroke="#000000" stroke-width="1.5" stroke-linecap="butt"/><path d="M222.09165,152.20044l3.59121,-10.58512l1.62649,0.55182l-3.59121,10.58512z" fill="#eeeeee" stroke="none" stroke-width="0" stroke-linecap="butt"/><path d="M229.4868,149.92663l-10.81322,-3.6686l0.55182,-1.62649l10.81323,3.6686z" fill="#eeeeee" stroke="none" stroke-width="0" stroke-linecap="butt"/><path d="M223.46607,144.90862c0.51203,0.17371 0.78629,0.72964 0.61258,1.24167c-0.17371,0.51203 -0.72964,0.78629 -1.24167,0.61258c-0.51203,-0.17371 -0.78629,-0.72964 -0.61258,-1.24167c0.17371,-0.51203 0.72964,-0.78629 1.24167,-0.61258z" data-paper-data="{&quot;index&quot;:null}" fill="#000000" stroke="none" stroke-width="0" stroke-linecap="butt"/><path d="M223.67351,145.35633c0.18135,0.06153 0.27849,0.25842 0.21696,0.43977c-0.06152,0.18134 -0.25842,0.2785 -0.43977,0.21697c-0.18135,-0.06153 -0.2785,-0.25843 -0.21697,-0.43977c0.06152,-0.18135 0.25842,-0.27849 0.43977,-0.21696z" data-paper-data="{&quot;index&quot;:null}" fill="#ffffff" stroke="none" stroke-width="0" stroke-linecap="butt"/><path d="M222.99628,145.896c0.10075,0.03418 0.15471,0.14357 0.12053,0.24432c-0.03419,0.10076 -0.14357,0.15471 -0.24432,0.12053c-0.10075,-0.03418 -0.15471,-0.14357 -0.12053,-0.24432c0.03419,-0.10076 0.14357,-0.15471 0.24432,-0.12053z" data-paper-data="{&quot;index&quot;:null}" fill="#ffffff" stroke="none" stroke-width="0" stroke-linecap="butt"/><path d="M227.60766,147.38225c-0.17371,0.51203 -0.72964,0.78629 -1.24167,0.61258c-0.51203,-0.17372 -0.78629,-0.72964 -0.61258,-1.24167c0.17371,-0.51204 0.72964,-0.78629 1.24168,-0.61258c0.51203,0.17371 0.78629,0.72964 0.61257,1.24168z" data-paper-data="{&quot;index&quot;:null}" fill="#000000" stroke="none" stroke-width="0" stroke-linecap="butt"/><path d="M226.775,146.80941c-0.06152,0.18135 -0.25842,0.27849 -0.43977,0.21696c-0.18135,-0.06152 -0.27849,-0.25843 -0.21696,-0.43977c0.06152,-0.18135 0.25842,-0.27848 0.43977,-0.21696c0.18135,0.06152 0.27848,0.25842 0.21696,0.43977z" data-paper-data="{&quot;index&quot;:null}" fill="#ffffff" stroke="none" stroke-width="0" stroke-linecap="butt"/><path d="M226.88761,147.4543c-0.03418,0.10074 -0.14356,0.15472 -0.24432,0.12054c-0.10074,-0.03418 -0.15472,-0.14357 -0.12054,-0.24432c0.03418,-0.10075 0.14357,-0.15472 0.24433,-0.12054c0.10074,0.03418 0.15472,0.14356 0.12053,0.24432z" data-paper-data="{&quot;index&quot;:null}" fill="#ffffff" stroke="none" stroke-width="0" stroke-linecap="butt"/><path d="M223.80974,147.53407c0.06531,-0.19249 0.42455,-0.24461 0.8024,-0.11642c0.37785,0.12819 0.63122,0.38816 0.56591,0.58065c-0.06531,0.19249 -0.42455,0.24461 -0.8024,0.11642c-0.37785,-0.12819 -0.63122,-0.38816 -0.56591,-0.58065z" fill="none" stroke="#000000" stroke-width="0.5" stroke-linecap="butt"/><path d="M236.94099,147.60325c0.75071,-2.21273 1.89005,-5.57094 2.30362,-6.78996c0.29841,-0.87957 1.57825,-1.62373 2.38383,-1.35042c1.27441,0.43237 5.47727,1.97343 7.82901,2.7713c1.11262,0.37748 1.32992,1.05743 1.12021,1.67556c-0.39473,1.16349 -1.76861,5.21298 -2.59268,7.64194c-0.37734,1.11222 -1.41533,1.62142 -2.1272,1.3799c-1.20102,-0.40747 -5.04296,-1.71091 -7.4921,-2.54183c-1.24171,-0.42128 -1.83235,-1.58489 -1.42469,-2.78648z" fill="#de914f" stroke="#000000" stroke-width="1.5" stroke-linecap="butt"/><path d="M241.05185,151.43426l3.59121,-10.58512l1.62649,0.55182l-3.59121,10.58512z" fill="#eeeeee" stroke="none" stroke-width="0" stroke-linecap="butt"/><path d="M248.447,149.16046l-10.81323,-3.6686l0.55182,-1.6265l10.81323,3.6686z" fill="#eeeeee" stroke="none" stroke-width="0" stroke-linecap="butt"/><path d="M242.42627,144.14245c0.51203,0.17371 0.78629,0.72964 0.61258,1.24167c-0.17371,0.51203 -0.72964,0.78629 -1.24167,0.61258c-0.51203,-0.17371 -0.78629,-0.72964 -0.61258,-1.24168c0.17371,-0.51203 0.72964,-0.78629 1.24167,-0.61258z" data-paper-data="{&quot;index&quot;:null}" fill="#000000" stroke="none" stroke-width="0" stroke-linecap="butt"/><path d="M242.63371,144.59015c0.18135,0.06152 0.27849,0.25841 0.21696,0.43976c-0.06152,0.18134 -0.25842,0.2785 -0.43977,0.21697c-0.18135,-0.06152 -0.2785,-0.25842 -0.21697,-0.43977c0.06152,-0.18135 0.25842,-0.27849 0.43977,-0.21696z" data-paper-data="{&quot;index&quot;:null}" fill="#ffffff" stroke="none" stroke-width="0" stroke-linecap="butt"/><path d="M241.95648,145.12982c0.10075,0.03419 0.15471,0.14357 0.12053,0.24432c-0.03419,0.10075 -0.14357,0.15471 -0.24432,0.12053c-0.10075,-0.03419 -0.15472,-0.14357 -0.12054,-0.24432c0.03419,-0.10075 0.14358,-0.15471 0.24432,-0.12053z" data-paper-data="{&quot;index&quot;:null}" fill="#ffffff" stroke="none" stroke-width="0" stroke-linecap="butt"/><path d="M246.56785,146.61609c-0.17371,0.51203 -0.72964,0.78629 -1.24167,0.61258c-0.51203,-0.17371 -0.78629,-0.72964 -0.61258,-1.24167c0.17371,-0.51203 0.72964,-0.78629 1.24167,-0.61258c0.51203,0.17371 0.78629,0.72964 0.61257,1.24168z" data-paper-data="{&quot;index&quot;:null}" fill="#000000" stroke="none" stroke-width="0" stroke-linecap="butt"/><path d="M245.7352,146.04323c-0.06152,0.18135 -0.25842,0.27849 -0.43977,0.21697c-0.18135,-0.06152 -0.27849,-0.25843 -0.21696,-0.43977c0.06152,-0.18135 0.25842,-0.27848 0.43977,-0.21696c0.18135,0.06152 0.27848,0.25842 0.21696,0.43977z" data-paper-data="{&quot;index&quot;:null}" fill="#ffffff" stroke="none" stroke-width="0" stroke-linecap="butt"/><path d="M245.84781,146.68813c-0.03418,0.10074 -0.14356,0.15473 -0.24432,0.12054c-0.10074,-0.03418 -0.15472,-0.14356 -0.12054,-0.24432c0.03418,-0.10074 0.14357,-0.15472 0.24433,-0.12054c0.10074,0.03418 0.15472,0.14356 0.12053,0.24432z" data-paper-data="{&quot;index&quot;:null}" fill="#ffffff" stroke="none" stroke-width="0" stroke-linecap="butt"/><path d="M242.76994,146.7679c0.06531,-0.19249 0.42455,-0.24461 0.8024,-0.11642c0.37785,0.12819 0.63122,0.38816 0.56591,0.58065c-0.06531,0.19249 -0.42455,0.24461 -0.8024,0.11642c-0.37785,-0.12819 -0.63122,-0.38816 -0.56591,-0.58065z" fill="none" stroke="#000000" stroke-width="0.5" stroke-linecap="butt"/><path d="M177.518,215.89303v-159.93532h123.21393v159.93532z" fill="none" stroke="none" stroke-width="NaN" stroke-linecap="butt"/><path d="M185.4763,219.29996v-144.04605h123.60708v144.04605z" fill="none" stroke="none" stroke-width="0" stroke-linecap="butt"/></g></g></svg>