<svg version="1.1" xmlns="http://www.w3.org/2000/svg" xmlns:xlink="http://www.w3.org/1999/xlink" width="220.61107" height="122" viewBox="0,0,220.61107,122"><g transform="translate(-168.60604,-125)"><g data-paper-data="{&quot;isPaintingLayer&quot;:true}" fill-rule="nonzero" stroke-linejoin="miter" stroke-miterlimit="10" stroke-dasharray="" stroke-dashoffset="0" style="mix-blend-mode: normal"><path d="M217.31225,194.60042c0,-7.50497 0,-18.89518 0,-23.02977c0,-2.98328 3.12487,-6.56743 5.8572,-6.56743c4.32245,0 18.69629,0.35026 26.67277,0.35026c3.7737,0 5.13631,1.84395 5.13631,3.94046c0,3.94623 0,17.68103 0,25.91944c0,3.77237 -2.63172,6.39229 -5.0462,6.39229c-4.07353,0 -17.10437,0 -25.41122,0c-4.21157,0 -7.20885,-2.92977 -7.20885,-7.00525z" fill="#de914f" stroke="#000000" stroke-width="1.5" stroke-linecap="butt"/><path d="M233.76933,200.81726v-35.90193h5.51664v35.90193z" fill="#eeeeee" stroke="none" stroke-width="0" stroke-linecap="butt"/><path d="M253.91625,187.46343h-36.67562v-5.51664h36.67562z" fill="#eeeeee" stroke="none" stroke-width="0" stroke-linecap="butt"/><path d="M230.42514,178.41346c1.73669,0 3.14457,1.40788 3.14457,3.14457c0,1.73669 -1.40788,3.14457 -3.14457,3.14457c-1.73669,0 -3.14457,-1.40788 -3.14457,-3.14457c0,-1.73669 1.40788,-3.14457 3.14457,-3.14457z" data-paper-data="{&quot;index&quot;:null}" fill="#000000" stroke="none" stroke-width="0" stroke-linecap="butt"/><path d="M231.51809,179.56115c0.6151,0 1.11373,0.49864 1.11373,1.11373c0,0.61508 -0.49864,1.11373 -1.11373,1.11373c-0.6151,0 -1.11373,-0.49864 -1.11373,-1.11373c0,-0.6151 0.49864,-1.11373 1.11373,-1.11373z" data-paper-data="{&quot;index&quot;:null}" fill="#ffffff" stroke="none" stroke-width="0" stroke-linecap="butt"/><path d="M230.0151,181.90148c0.34173,0 0.61874,0.27703 0.61874,0.61874c0,0.34173 -0.27703,0.61874 -0.61874,0.61874c-0.34173,0 -0.61874,-0.27703 -0.61874,-0.61874c0,-0.34173 0.27703,-0.61874 0.61874,-0.61874z" data-paper-data="{&quot;index&quot;:null}" fill="#ffffff" stroke="none" stroke-width="0" stroke-linecap="butt"/><path d="M245.57496,181.6635c0,1.73669 -1.40788,3.14457 -3.14457,3.14457c-1.73669,0 -3.14457,-1.40788 -3.14457,-3.14457c0,-1.73669 1.40788,-3.14457 3.14457,-3.14457c1.73669,0 3.14457,1.40788 3.14457,3.14457z" data-paper-data="{&quot;index&quot;:null}" fill="#000000" stroke="none" stroke-width="0" stroke-linecap="butt"/><path d="M242.45118,180.78036c0,0.6151 -0.49863,1.11373 -1.11373,1.11373c-0.6151,0 -1.11374,-0.49865 -1.11374,-1.11373c0,-0.6151 0.49864,-1.11373 1.11374,-1.11373c0.6151,0 1.11373,0.49863 1.11373,1.11373z" data-paper-data="{&quot;index&quot;:null}" fill="#ffffff" stroke="none" stroke-width="0" stroke-linecap="butt"/><path d="M243.45918,182.62569c0,0.34171 -0.27701,0.61875 -0.61874,0.61875c-0.34171,0 -0.61875,-0.27702 -0.61875,-0.61875c0,-0.34171 0.27702,-0.61874 0.61875,-0.61874c0.34171,0 0.61874,0.27701 0.61874,0.61874z" data-paper-data="{&quot;index&quot;:null}" fill="#ffffff" stroke="none" stroke-width="0" stroke-linecap="butt"/><path d="M234.04456,186.45001c0,-0.65288 1.03892,-1.18214 2.32049,-1.18214c1.28157,0 2.32049,0.52926 2.32049,1.18214c0,0.65288 -1.03892,1.18214 -2.32049,1.18214c-1.28157,0 -2.32049,-0.52926 -2.32049,-1.18214z" fill="none" stroke="#000000" stroke-width="0.5" stroke-linecap="butt"/><path d="M200.67477,206.77205v-44.3958h60.50788v44.3958z" fill="none" stroke="none" stroke-width="0" stroke-linecap="butt"/><path d="M188,247v-122h104v122z" fill="none" stroke="none" stroke-width="0" stroke-linecap="butt"/><text transform="translate(259.40916,185.49672) scale(0.30016,0.30016)" font-size="40" xml:space="preserve" fill="#000000" fill-rule="nonzero" stroke="none" stroke-width="1" stroke-linecap="butt" stroke-linejoin="miter" stroke-miterlimit="10" stroke-dasharray="" stroke-dashoffset="0" font-family="Handwriting" font-weight="normal" text-anchor="start" style="mix-blend-mode: normal"><tspan x="0" dy="0">-  Mr. Moustache</tspan></text><path d="M232.34417,185.33979l3.78502,-2.16287l4.05537,2.16287" fill="none" stroke="#000000" stroke-width="1.5" stroke-linecap="round"/><path d="M168.60604,229.68166v-94.73299h220.61107v94.73299z" fill="none" stroke="none" stroke-width="0" stroke-linecap="butt"/></g></g></svg>