<svg version="1.1" xmlns="http://www.w3.org/2000/svg" xmlns:xlink="http://www.w3.org/1999/xlink" width="255.32487" height="135.83216" viewBox="0,0,255.32487,135.83216"><g transform="translate(-166.33505,-108.58426)"><g data-paper-data="{&quot;isPaintingLayer&quot;:true}" fill-rule="nonzero" stroke-linecap="butt" stroke-linejoin="miter" stroke-miterlimit="10" stroke-dasharray="" stroke-dashoffset="0" style="mix-blend-mode: normal"><path d="M186.02431,244.41642v-122h104v122z" fill="none" stroke="none" stroke-width="0"/><text transform="translate(259.49859,185.49673) scale(0.30016,0.30016)" font-size="40" xml:space="preserve" fill="#000000" fill-rule="nonzero" stroke="none" stroke-width="1" stroke-linecap="butt" stroke-linejoin="miter" stroke-miterlimit="10" stroke-dasharray="" stroke-dashoffset="0" font-family="Handwriting" font-weight="normal" text-anchor="start" style="mix-blend-mode: normal"><tspan x="0" dy="0">-  Pineapple(Don't ask why</tspan><tspan x="0" dy="48px">                        it is in the game)</tspan><tspan x="0" dy="48px"> </tspan></text><path d="M250.03537,162.38837c0.09406,-0.96244 0.24054,-2.21209 0.95385,-2.75487c0.64647,-0.49193 1.82059,-0.32772 2.69285,-0.24248c0.96419,0.09423 2.33021,0.05918 2.87295,0.77458c0.49,0.64589 0.20948,2.00161 0.1244,2.87212c-0.11661,1.19309 -0.2889,2.42686 -1.2906,2.92037c-0.53868,0.26539 -1.71449,0.13968 -2.3561,0.07697c-0.71268,-0.06965 -1.84188,-0.30937 -2.34558,-0.74428c-0.793,-0.6847 -0.76143,-1.7804 -0.65177,-2.90242z" fill="#2ab5ff" stroke="#000000" stroke-width="2"/><path d="M253.44038,160.92145c-0.03584,0.36676 -0.39408,0.6319 -0.80013,0.59222c-0.40606,-0.03969 -0.70617,-0.36917 -0.67033,-0.73593c0.03584,-0.36676 0.39408,-0.6319 0.80013,-0.59222c0.40606,0.03969 0.70617,0.36918 0.67033,0.73593z" fill="#a4dfff" stroke="none" stroke-width="0"/><path d="M254.64178,161.85238c-0.03584,0.36676 -0.39408,0.6319 -0.80013,0.59222c-0.40606,-0.03969 -0.70617,-0.36917 -0.67033,-0.73593c0.03584,-0.36676 0.39408,-0.63191 0.80013,-0.59222c0.40606,0.03969 0.70617,0.36918 0.67033,0.73594z" fill="#a4dfff" stroke="none" stroke-width="0"/><path d="M255.86313,161.1092c-0.03584,0.36676 -0.39408,0.6319 -0.80013,0.59222c-0.40606,-0.03969 -0.70617,-0.36917 -0.67033,-0.73593c0.03584,-0.36676 0.39408,-0.63191 0.80013,-0.59222c0.40606,0.03969 0.70617,0.36918 0.67033,0.73594z" fill="#a4dfff" stroke="none" stroke-width="0"/><path d="M251.9634,161.90336c0.42213,0.04126 0.73089,0.41691 0.68963,0.83904c-0.04126,0.42213 -0.41691,0.73089 -0.83903,0.68963c-0.42213,-0.04126 -0.73089,-0.41691 -0.68963,-0.83903c0.04126,-0.42213 0.41691,-0.73089 0.83903,-0.68963z" data-paper-data="{&quot;index&quot;:null}" fill="#000000" stroke="none" stroke-width="0"/><path d="M252.20179,162.20829c0.14951,0.01461 0.25886,0.14766 0.24425,0.29716c-0.01461,0.1495 -0.14766,0.25886 -0.29717,0.24425c-0.14951,-0.01461 -0.25886,-0.14766 -0.24425,-0.29717c0.01461,-0.14951 0.14766,-0.25886 0.29716,-0.24425z" data-paper-data="{&quot;index&quot;:null}" fill="#ffffff" stroke="none" stroke-width="0"/><path d="M251.78087,162.74144c0.08306,0.00812 0.14381,0.08203 0.1357,0.16509c-0.00812,0.08306 -0.08204,0.14381 -0.16509,0.1357c-0.08306,-0.00812 -0.14381,-0.08204 -0.13569,-0.16509c0.00812,-0.08306 0.08203,-0.14381 0.16509,-0.13569z" data-paper-data="{&quot;index&quot;:null}" fill="#ffffff" stroke="none" stroke-width="0"/><path d="M255.658,163.05323c-0.04126,0.42213 -0.41691,0.73089 -0.83903,0.68963c-0.42213,-0.04126 -0.73089,-0.41691 -0.68963,-0.83903c0.04126,-0.42213 0.41691,-0.73089 0.83903,-0.68963c0.42213,0.04126 0.73089,0.41691 0.68963,0.83903z" data-paper-data="{&quot;index&quot;:null}" fill="#000000" stroke="none" stroke-width="0"/><path d="M254.83027,162.76436c-0.01461,0.14951 -0.14766,0.25886 -0.29717,0.24425c-0.14951,-0.01461 -0.25886,-0.14766 -0.24425,-0.29716c0.01461,-0.14951 0.14766,-0.25886 0.29717,-0.24425c0.14951,0.01461 0.25886,0.14766 0.24425,0.29717z" data-paper-data="{&quot;index&quot;:null}" fill="#ffffff" stroke="none" stroke-width="0"/><path d="M255.03144,163.23684c-0.00812,0.08306 -0.08203,0.14381 -0.16509,0.1357c-0.08306,-0.00812 -0.14381,-0.08203 -0.1357,-0.16509c0.00812,-0.08306 0.08203,-0.14381 0.16509,-0.13569c0.08306,0.00812 0.14381,0.08203 0.1357,0.16509z" data-paper-data="{&quot;index&quot;:null}" fill="#ffffff" stroke="none" stroke-width="0"/><path d="M223.42836,163.67262c-0.13278,-0.2382 -0.04731,-0.53895 0.19089,-0.67173c0.2382,-0.13278 0.53895,-0.04731 0.67173,0.19089c0.13278,0.2382 0.04731,0.53895 -0.19089,0.67173c-0.2382,0.13278 -0.53895,0.04731 -0.67173,-0.19089z" fill="#ffa3cf" stroke="none" stroke-width="0.5"/><path d="M225.4875,164.16978c-0.13278,-0.2382 -0.04731,-0.53896 0.19089,-0.67173c0.2382,-0.13278 0.53895,-0.04731 0.67173,0.19089c0.13278,0.2382 0.04731,0.53896 -0.19089,0.67173c-0.2382,0.13278 -0.53895,0.04731 -0.67173,-0.19089z" fill="#ffa3cf" stroke="none" stroke-width="0.5"/><path d="M221.90244,164.75819c-1.01145,-1.81455 -0.36041,-4.10549 1.45415,-5.11694c1.81455,-1.01145 4.10548,-0.3604 5.11694,1.45415c1.01145,1.81455 1.17628,5.77519 -0.63827,6.78664c-1.81455,1.01145 -4.92136,-1.3093 -5.93281,-3.12385z" fill="#ffa3a3" stroke="#000000" stroke-width="2"/><path d="M224.33622,158.337l0.44765,0.08953l0.50011,0.17886c0.09188,0.03232 0.17277,0.09702 0.22392,0.18878c0.11123,0.19956 0.03963,0.4515 -0.15992,0.56274c-0.0228,0.01271 -0.04628,0.02304 -0.07016,0.03105c-0.01947,0.12067 -0.09199,0.23159 -0.20705,0.29572c-0.04149,0.02313 -0.08526,0.03836 -0.12955,0.04617c0.30053,0.46545 -0.13212,0.89494 -0.67182,1.18897c-0.08188,0.0628 -0.16841,0.12073 -0.25856,0.17355l0.06426,0.12226l-0.37396,0.19656c-0.03211,0.01702 -0.06549,0.02938 -0.09935,0.03732l0.00481,0.01613l-0.43529,0.12983c-0.18382,0.059 -0.38976,-0.01758 -0.48736,-0.19268c-0.05758,-0.1033 -0.06617,-0.22063 -0.03338,-0.32522l-0.27406,0.01785c-0.15737,0.01368 -0.31552,-0.06388 -0.3974,-0.21079c-0.07594,-0.13624 -0.06666,-0.2969 0.01037,-0.42052c-0.10385,-0.06569 -0.27109,-0.22036 -0.16476,-0.49649c0.06449,-0.16749 0.17366,-0.23433 0.27661,-0.25633c-0.04529,-0.17746 0.03206,-0.37001 0.19959,-0.46339l0.39426,-0.21976l0.00335,0.00602l0.01694,-0.0166c0.00833,0.00013 0.01665,0.00026 0.02497,0.00038l-0.00413,-0.00983l0.41408,-0.17403c0.08562,-0.03733 0.17834,-0.04338 0.26413,-0.02216l0.08559,-0.19228c0.03485,-0.08063 0.09556,-0.15086 0.17821,-0.19693c0.10936,-0.06095 0.23445,-0.067 0.34349,-0.02718c0.14152,-0.09009 0.31441,-0.05752 0.31441,-0.05752z" fill="#a3ffa7" stroke="none" stroke-width="0.5"/><path d="M222.65166,162.68299c-0.11123,-0.19956 -0.03963,-0.45151 0.15992,-0.56274c0.19956,-0.11123 0.45151,-0.03963 0.56274,0.15992c0.11123,0.19956 0.03963,0.45151 -0.15992,0.56274c-0.19956,0.11123 -0.45151,0.03964 -0.56274,-0.15992z" fill="#ffa3cf" stroke="none" stroke-width="0.5"/><path d="M224.03557,163.00254c-0.11123,-0.19956 -0.03964,-0.4515 0.15992,-0.56274c0.19956,-0.11123 0.4515,-0.03963 0.56274,0.15992c0.11123,0.19956 0.03964,0.45151 -0.15992,0.56274c-0.19956,0.11123 -0.45151,0.03963 -0.56274,-0.15992z" fill="#ffa3cf" stroke="none" stroke-width="0.5"/><path d="M222.98443,164.87071c-0.11123,-0.19956 -0.03963,-0.4515 0.15992,-0.56274c0.19956,-0.11123 0.4515,-0.03964 0.56274,0.15992c0.11123,0.19956 0.03963,0.4515 -0.15992,0.56274c-0.19956,0.11123 -0.4515,0.03964 -0.56274,-0.15992z" fill="#ffa3cf" stroke="none" stroke-width="0.5"/><path d="M224.41831,161.526c-0.11123,-0.19956 -0.03963,-0.45151 0.15992,-0.56274c0.19956,-0.11123 0.45151,-0.03964 0.56274,0.15992c0.11123,0.19956 0.03963,0.45151 -0.15992,0.56274c-0.19956,0.11123 -0.45151,0.03963 -0.56274,-0.15992z" fill="#ffa3cf" stroke="none" stroke-width="0.5"/><path d="M225.59348,163.47382c-0.11123,-0.19956 -0.03964,-0.45151 0.15992,-0.56274c0.19956,-0.11123 0.45151,-0.03963 0.56274,0.15992c0.11123,0.19956 0.03964,0.4515 -0.15992,0.56274c-0.19956,0.11123 -0.45151,0.03964 -0.56274,-0.15992z" fill="#ffa3cf" stroke="none" stroke-width="0.5"/><path d="M226.34802,162.00065c-0.11123,-0.19956 -0.03964,-0.45151 0.15992,-0.56274c0.19956,-0.11123 0.45151,-0.03963 0.56274,0.15992c0.11123,0.19956 0.03963,0.45151 -0.15992,0.56274c-0.19956,0.11123 -0.45151,0.03963 -0.56274,-0.15992z" fill="#ffa3cf" stroke="none" stroke-width="0.5"/><path d="M226.3928,163.77471c-0.11123,-0.19956 -0.03964,-0.45151 0.15992,-0.56274c0.19956,-0.11123 0.4515,-0.03963 0.56274,0.15992c0.11123,0.19956 0.03963,0.45151 -0.15992,0.56274c-0.19956,0.11123 -0.4515,0.03963 -0.56274,-0.15992z" fill="#ffa3cf" stroke="none" stroke-width="0.5"/><path d="M227.29912,163.95853c-0.11123,-0.19956 -0.03963,-0.45151 0.15992,-0.56274c0.19956,-0.11123 0.4515,-0.03963 0.56274,0.15992c0.11123,0.19956 0.03963,0.45151 -0.15992,0.56274c-0.19956,0.11123 -0.4515,0.03963 -0.56274,-0.15992z" fill="#ffa3cf" stroke="none" stroke-width="0.5"/><path d="M223.38685,162.68184c0.38985,-0.2173 0.88205,-0.07743 1.09935,0.31242c0.2173,0.38985 0.07743,0.88205 -0.31242,1.09936c-0.38985,0.2173 -0.88205,0.07743 -1.09936,-0.31242c-0.2173,-0.38985 -0.07743,-0.88205 0.31242,-1.09935z" data-paper-data="{&quot;index&quot;:null}" fill="#000000" stroke="none" stroke-width="0"/><path d="M223.68637,162.80271c0.13808,-0.07696 0.3124,-0.02742 0.38936,0.11065c0.07696,0.13807 0.02742,0.3124 -0.11065,0.38936c-0.13808,0.07696 -0.3124,0.02742 -0.38936,-0.11065c-0.07696,-0.13808 -0.02742,-0.3124 0.11065,-0.38936z" data-paper-data="{&quot;index&quot;:null}" fill="#ffffff" stroke="none" stroke-width="0"/><path d="M223.73125,163.51613c0.07671,-0.04276 0.17356,-0.01523 0.21631,0.06147c0.04276,0.07671 0.01523,0.17356 -0.06147,0.21631c-0.07671,0.04276 -0.17356,0.01523 -0.21631,-0.06147c-0.04276,-0.07671 -0.01523,-0.17356 0.06147,-0.21631z" data-paper-data="{&quot;index&quot;:null}" fill="#ffffff" stroke="none" stroke-width="0"/><path d="M227.10489,161.51576c0.2173,0.38985 0.07743,0.88205 -0.31242,1.09935c-0.38985,0.2173 -0.88205,0.07743 -1.09936,-0.31242c-0.2173,-0.38985 -0.07743,-0.88205 0.31242,-1.09935c0.38985,-0.2173 0.88205,-0.07743 1.09936,0.31242z" data-paper-data="{&quot;index&quot;:null}" fill="#000000" stroke="none" stroke-width="0"/><path d="M226.29317,161.70838c0.07696,0.13808 0.02742,0.3124 -0.11065,0.38936c-0.13808,0.07696 -0.31241,0.02742 -0.38937,-0.11065c-0.07696,-0.13808 -0.02742,-0.3124 0.11065,-0.38936c0.13808,-0.07696 0.3124,-0.02743 0.38936,0.11065z" data-paper-data="{&quot;index&quot;:null}" fill="#ffffff" stroke="none" stroke-width="0"/><path d="M226.75034,161.99649c0.04276,0.0767 0.01524,0.17356 -0.06147,0.21632c-0.0767,0.04276 -0.17356,0.01524 -0.21632,-0.06147c-0.04276,-0.0767 -0.01523,-0.17356 0.06148,-0.21632c0.0767,-0.04276 0.17356,-0.01524 0.21632,0.06147z" data-paper-data="{&quot;index&quot;:null}" fill="#ffffff" stroke="none" stroke-width="0"/><path d="M220.77669,195.26557c0,-7.64943 0,-19.98908 0,-24.57985c0,-3.40425 4.91532,-7.64247 8.67524,-7.64247c3.74362,0 12.07529,0 19.0029,0c6.00034,0 10.94733,3.71 10.94733,6.81626c0,0.25053 0,3.21188 0,3.5114c0,4.76535 0,12.76046 0,20.24223c0,4.64393 -4.23823,8.05558 -7.64248,8.05558c-4.31138,0 -15.4572,0 -23.13397,0c-4.52794,0 -7.84903,-2.63143 -7.84903,-6.40315z" fill="#ffee6a" stroke="#000000" stroke-width="2"/><path d="M230.69125,199.47182v-35.36433h2.47864v35.36433z" fill="#ffed6f" stroke="#fff291" stroke-width="2"/><path d="M236.20374,199.69602v-35.63992h2.47864v35.63992z" fill="#ffed6f" stroke="#fff291" stroke-width="2"/><path d="M240.68346,199.74869v-35.64725h2.47864v35.64725z" fill="#ffed6f" stroke="#fff291" stroke-width="2"/><path d="M245.08553,199.40896l-0.387,-35.28222l2.76889,0.09366l0.09675,35.18856z" fill="#ffed6f" stroke="#fff291" stroke-width="2"/><path d="M250.59802,199.72991l-0.387,-32.32382l2.96238,0.85356l-0.09675,31.47026z" fill="#ffed6f" stroke="#fff291" stroke-width="2"/><path d="M254.30374,197.37694l0.48375,-28.70593l1.70464,0.49271l-0.09675,27.38283z" fill="#ffed6f" stroke="#fff291" stroke-width="2"/><path d="M222.96611,196.77868l0.38699,-28.14347l2.09164,-1.8662l-0.38699,31.25381z" fill="#ffed6f" stroke="#fff291" stroke-width="2"/><path d="M226.47834,199.58686l0.09675,-33.77039l2.96238,-1.19073l-0.58049,34.96112z" fill="#ffed6f" stroke="#fff291" stroke-width="2"/><path d="M222.87534,173.87042h34.47006v2.47864h-34.47006z" fill="#ffed6f" stroke="#fff291" stroke-width="2"/><path d="M221.8463,179.38291h36.44477v2.47864h-36.44477z" fill="#ffed6f" stroke="none" stroke-width="0"/><path d="M221.70421,183.86263h36.54152v2.47864h-36.54152z" fill="#ffed6f" stroke="none" stroke-width="0"/><path d="M223.02763,188.2647l34.03025,-0.387l-0.09034,2.76889l-33.93991,0.09675z" fill="#ffed6f" stroke="#fff291" stroke-width="2"/><path d="M222.79611,193.77719l34.11235,-0.387l-0.90079,2.96238l-33.21156,-0.09675z" fill="#ffed6f" stroke="#fff291" stroke-width="2"/><path d="M225.05966,197.48291l30.85217,0.48375l-0.52955,1.70464l-29.43015,-0.09675z" fill="#ffed6f" stroke="#fff291" stroke-width="2"/><path d="M225.46126,166.14528l27.74084,0.38699l1.8395,2.09164l-30.80668,-0.38699z" fill="#ffed6f" stroke="#fff291" stroke-width="2"/><path d="M223.11802,169.83636l32.73382,0.09675l1.15418,2.96238l-33.88801,-0.5805z" fill="#ffed6f" stroke="#fff291" stroke-width="2"/><path d="M232.55825,176.2612c2.28019,0 4.12866,1.84848 4.12866,4.12866c0,2.28019 -1.84848,4.12866 -4.12866,4.12866c-2.28019,0 -4.12866,-1.84848 -4.12866,-4.12866c0,-2.28019 1.84848,-4.12866 4.12866,-4.12866z" data-paper-data="{&quot;index&quot;:null}" fill="#000000" stroke="none" stroke-width="0"/><path d="M233.99324,177.76806c0.8076,0 1.46227,0.65469 1.46227,1.46227c0,0.80757 -0.65469,1.46227 -1.46227,1.46227c-0.8076,0 -1.46227,-0.65469 -1.46227,-1.46227c0,-0.8076 0.65469,-1.46227 1.46227,-1.46227z" data-paper-data="{&quot;index&quot;:null}" fill="#ffffff" stroke="none" stroke-width="0"/><path d="M232.01989,180.8408c0.44867,0 0.81238,0.36373 0.81238,0.81237c0,0.44867 -0.36373,0.81238 -0.81238,0.81238c-0.44867,0 -0.81237,-0.36373 -0.81237,-0.81238c0,-0.44867 0.36373,-0.81237 0.81237,-0.81237z" data-paper-data="{&quot;index&quot;:null}" fill="#ffffff" stroke="none" stroke-width="0"/><path d="M252.44921,180.52835c0,2.28019 -1.84848,4.12866 -4.12866,4.12866c-2.28019,0 -4.12866,-1.84848 -4.12866,-4.12866c0,-2.28019 1.84848,-4.12866 4.12866,-4.12866c2.28019,0 4.12866,1.84848 4.12866,4.12866z" data-paper-data="{&quot;index&quot;:null}" fill="#000000" stroke="none" stroke-width="0"/><path d="M248.34784,179.36883c0,0.8076 -0.65468,1.46227 -1.46227,1.46227c-0.8076,0 -1.46229,-0.6547 -1.46229,-1.46227c0,-0.8076 0.65469,-1.46227 1.46229,-1.46227c0.8076,0 1.46227,0.65467 1.46227,1.46227z" data-paper-data="{&quot;index&quot;:null}" fill="#ffffff" stroke="none" stroke-width="0"/><path d="M249.6713,181.79165c0,0.44865 -0.3637,0.81239 -0.81237,0.81239c-0.44865,0 -0.81239,-0.36371 -0.81239,-0.81239c0,-0.44865 0.36371,-0.81237 0.81239,-0.81237c0.44865,0 0.81237,0.3637 0.81237,0.81237z" data-paper-data="{&quot;index&quot;:null}" fill="#ffffff" stroke="none" stroke-width="0"/><path d="M243.83771,186.1974c0,1.80106 -1.75205,3.2611 -3.91332,3.2611c-2.16127,0 -3.91332,-1.46004 -3.91332,-3.2611c0,-1.80106 1.75205,-3.2611 3.91332,-3.2611c2.16127,0 3.91332,1.46004 3.91332,3.2611z" fill="#000000" stroke="none" stroke-width="NaN"/><path d="M243.07842,187.81941c0,0.70568 -1.42977,1.71272 -3.1264,1.71272c-1.69663,0 -3.1264,-0.95267 -3.1264,-1.65835c0,-0.70568 1.37539,-1.27775 3.07203,-1.27775c1.69663,0 3.18077,0.51769 3.18077,1.22337z" fill="#fb9a9a" stroke="none" stroke-width="0"/><path d="M172.38389,224.56787v-115.98361h141.80328v115.98361z" fill="none" stroke="none" stroke-width="NaN"/><path d="M230.99637,163.21786c0,-1.50216 0.90259,-2.10172 1.6231,-2.34103c0.02832,-1.02949 0.679,-1.9035 1.58931,-2.25929c0.83974,-1.32775 2.75739,-1.72443 4.38994,-2.36737c0.45344,-0.63421 1.19598,-1.04759 2.03506,-1.04759c0.52034,0 1.00356,0.15897 1.40372,0.43099l0.32036,-0.24027c0.42124,-0.32311 0.94829,-0.51515 1.5202,-0.51515c1.38071,0 2.5,1.11929 2.5,2.5c0,0.34826 -0.07121,0.67989 -0.19986,0.98112l-0.1245,0.31124l1.94867,0.48717c1.1133,0.25265 1.9444,1.24829 1.9444,2.43804c0,1.03935 -0.63424,1.93056 -1.53681,2.30771l-2.8677,1.27453l-0.0081,-0.01822l-0.05054,0.04339c-0.02831,-0.01435 -0.05661,-0.02869 -0.08492,-0.04304l0.02566,0.06671l-0.13066,0.05025c-0.36147,0.52812 -0.92031,0.91048 -1.57024,1.04081l-2.81915,0.62648c-0.19068,0.04655 -0.38994,0.07123 -0.59496,0.07123c-0.78427,0 -1.4842,-0.36114 -1.94256,-0.92619c-0.85103,0.03666 -1.45957,-0.43255 -1.82563,-0.84297l-1.85362,0.41192l-1.19118,0.05953c0,0 -2.5,0 -2.5,-2.5z" fill="#00ff60" stroke="none" stroke-width="0.5"/><path d="M166.33505,234.54808v-96.67956h255.32487v96.67956z" fill="none" stroke="none" stroke-width="0"/></g></g></svg>