<svg version="1.1" xmlns="http://www.w3.org/2000/svg" xmlns:xlink="http://www.w3.org/1999/xlink" width="252.72944" height="147.67715" viewBox="0,0,252.72944,147.67715"><g transform="translate(-132.59453,-93.74631)"><g data-paper-data="{&quot;isPaintingLayer&quot;:true}" fill-rule="nonzero" stroke-linecap="butt" stroke-linejoin="miter" stroke-miterlimit="10" stroke-dasharray="" stroke-dashoffset="0" style="mix-blend-mode: normal"><path d="M185.49614,241.42346v-122h104v122z" fill="none" stroke="none" stroke-width="0"/><text transform="translate(259.40916,185.49673) scale(0.30016,0.30016)" font-size="40" xml:space="preserve" fill="#000000" fill-rule="nonzero" stroke="none" stroke-width="1" stroke-linecap="butt" stroke-linejoin="miter" stroke-miterlimit="10" stroke-dasharray="" stroke-dashoffset="0" font-family="Handwriting" font-weight="normal" text-anchor="start" style="mix-blend-mode: normal"><tspan x="0" dy="0">-  Sweet Strawberry</tspan><tspan x="0" dy="48px"> </tspan></text><path d="M172.38389,224.56787v-115.98361h141.80328v115.98361z" fill="none" stroke="none" stroke-width="NaN"/><path d="M229.8222,176.21651c-0.02495,-1.28118 0.99349,-2.34004 2.27467,-2.36499c1.28118,-0.02495 2.34004,0.99349 2.36499,2.27467c0.02495,1.28118 -0.99349,2.34004 -2.27467,2.36499c-1.28118,0.02495 -2.34004,-0.99349 -2.36499,-2.27467z" fill="#ffa3cf" stroke="none" stroke-width="0.5"/><path d="M238.33174,185.1266c0,-0.12534 0.02095,-0.2458 0.05954,-0.35806c-0.66087,-0.39777 -1.10896,-1.1161 -1.12507,-1.94421c-0.02495,-1.28118 0.99351,-2.34008 2.27467,-2.36499c1.28118,-0.02495 2.34004,0.99349 2.36499,2.27467c0.01886,0.96819 -0.55816,1.80943 -1.39412,2.17343c0.01431,0.07083 0.02181,0.14412 0.02181,0.21915c0,0.60801 -0.4929,1.10091 -1.10091,1.10091c-0.60801,0 -1.10091,-0.4929 -1.10091,-1.10091z" fill="#ffa3cf" stroke="none" stroke-width="0.5"/><path d="M221.09615,177.35107c-0.18994,-9.75967 7.56789,-17.8255 17.3276,-18.01542c9.75967,-0.18994 17.82544,7.5679 18.01542,17.3276c0.18994,9.75967 -7.86946,26.55258 -17.62914,26.74253c-9.75967,0.18994 -17.5239,-16.29501 -17.71385,-26.05469z" fill="#ffa3a3" stroke="#000000" stroke-width="2"/><path d="M245.73745,156.28546l1.65925,1.35957l1.67965,1.84592c0.30978,0.33689 0.50249,0.78383 0.5121,1.27738c0.02086,1.07333 -0.8323,1.96034 -1.90562,1.98126c-0.12263,0.00239 -0.24283,-0.00659 -0.35957,-0.02608c-0.34714,0.45757 -0.89282,0.75759 -1.51167,0.76961c-0.22316,0.00436 -0.43834,-0.02909 -0.63931,-0.09447c0.21914,2.59414 -2.52363,3.42062 -5.41142,3.44889c-0.47828,0.07975 -0.96509,0.12903 -1.45564,0.14912l-0.00333,0.64899l-1.98512,-0.01017c-0.17077,-0.00028 -0.33651,-0.02269 -0.4945,-0.06451l-0.01565,0.07753l-2.09222,-0.42235c-0.89274,-0.16104 -1.57794,-0.93332 -1.59626,-1.8751c-0.01082,-0.55561 0.21256,-1.06126 0.57946,-1.42273l-1.17623,-0.53095c-0.68298,-0.29066 -1.16779,-0.96149 -1.18313,-1.75164c-0.01425,-0.73277 0.3789,-1.37872 0.97131,-1.72146c-0.28577,-0.50174 -0.63806,-1.51251 0.41256,-2.4232c0.63725,-0.55239 1.23765,-0.58866 1.71325,-0.45267c0.20387,-0.83609 0.94979,-1.46405 1.85085,-1.48158l2.12055,-0.04125l0.0006,0.03237l0.10691,-0.03146c0.03426,0.01892 0.06849,0.03783 0.10274,0.0567l0.00457,-0.04989l2.1018,0.19219c0.43756,0.03416 0.83553,0.21374 1.14455,0.49115l0.77949,-0.60866c0.32255,-0.25753 0.72942,-0.41482 1.17395,-0.42348c0.58818,-0.01141 1.12042,0.23963 1.48482,0.64552c0.7859,-0.0613 1.43117,0.45547 1.43117,0.45547z" fill="#a3ffa7" stroke="none" stroke-width="0.5"/><path d="M229.15596,170.59429c-0.02086,-1.07333 0.83232,-1.96039 1.90562,-1.98126c1.07333,-0.02086 1.96039,0.83232 1.98126,1.90562c0.02086,1.07333 -0.83232,1.96039 -1.90562,1.98126c-1.07333,0.02086 -1.9604,-0.83227 -1.98126,-1.90562z" fill="#ffa3cf" stroke="none" stroke-width="0.5"/><path d="M234.19112,174.9748c-0.02086,-1.07333 0.83226,-1.96036 1.90562,-1.98126c1.07333,-0.02086 1.96034,0.8323 1.98126,1.90562c0.02086,1.07333 -0.83227,1.9604 -1.90562,1.98126c-1.07333,0.02086 -1.96039,-0.83232 -1.98126,-1.90562z" fill="#ffa3cf" stroke="none" stroke-width="0.5"/><path d="M225.33596,180.20631c-0.02086,-1.07333 0.8323,-1.96034 1.90562,-1.98126c1.07333,-0.02086 1.96036,0.83226 1.98126,1.90562c0.02086,1.07333 -0.8323,1.96034 -1.90562,1.98126c-1.07333,0.02086 -1.96036,-0.83226 -1.98126,-1.90562z" fill="#ffa3cf" stroke="none" stroke-width="0.5"/><path d="M239.03823,169.6949c-0.02086,-1.07333 0.83232,-1.96039 1.90562,-1.98126c1.07333,-0.02086 1.9604,0.83227 1.98126,1.90562c0.02086,1.07333 -0.83232,1.96039 -1.90562,1.98126c-1.07333,0.02086 -1.96039,-0.83232 -1.98126,-1.90562z" fill="#ffa3cf" stroke="none" stroke-width="0.5"/><path d="M239.24213,180.17138c-0.02086,-1.07333 0.83227,-1.9604 1.90562,-1.98126c1.07333,-0.02086 1.96039,0.83232 1.98126,1.90562c0.02086,1.07333 -0.83226,1.96036 -1.90562,1.98126c-1.07333,0.02086 -1.9604,-0.83227 -1.98126,-1.90562z" fill="#ffa3cf" stroke="none" stroke-width="0.5"/><path d="M245.99502,175.92363c-0.02086,-1.07333 0.83227,-1.9604 1.90562,-1.98126c1.07333,-0.02086 1.96039,0.83232 1.98126,1.90562c0.02086,1.07333 -0.83232,1.96039 -1.90562,1.98126c-1.07333,0.02086 -1.96039,-0.83232 -1.98126,-1.90562z" fill="#ffa3cf" stroke="none" stroke-width="0.5"/><path d="M241.89357,183.18401c-0.02086,-1.07333 0.83227,-1.9604 1.90562,-1.98126c1.07333,-0.02086 1.96034,0.8323 1.98126,1.90562c0.02086,1.07333 -0.83232,1.96039 -1.90562,1.98126c-1.07333,0.02086 -1.96034,-0.8323 -1.98126,-1.90562z" fill="#ffa3cf" stroke="none" stroke-width="0.5"/><path d="M245.24727,185.94721c-0.02086,-1.07333 0.83232,-1.96039 1.90562,-1.98126c1.07333,-0.02086 1.96034,0.8323 1.98126,1.90562c0.02086,1.07333 -0.83232,1.96039 -1.90562,1.98126c-1.07333,0.02086 -1.96034,-0.8323 -1.98126,-1.90562z" fill="#ffa3cf" stroke="none" stroke-width="0.5"/><path d="M231.83716,172.01504c2.09683,-0.04078 3.82973,1.62594 3.87053,3.72277c0.04078,2.09683 -1.62594,3.82973 -3.72278,3.87056c-2.09683,0.04078 -3.82973,-1.62594 -3.87056,-3.72278c-0.04078,-2.09683 1.62594,-3.82973 3.72277,-3.87053z" data-paper-data="{&quot;index&quot;:null}" fill="#000000" stroke="none" stroke-width="0"/><path d="M233.18374,173.37503c0.74266,-0.01443 1.3564,0.57588 1.37084,1.3185c0.01444,0.74262 -0.57588,1.3564 -1.3185,1.37084c-0.74266,0.01443 -1.3564,-0.57588 -1.37084,-1.3185c-0.01443,-0.74266 0.57588,-1.3564 1.3185,-1.37084z" data-paper-data="{&quot;index&quot;:null}" fill="#ffffff" stroke="none" stroke-width="0"/><path d="M231.42406,176.23601c0.41259,-0.00803 0.75357,0.31995 0.76158,0.73249c0.00803,0.41259 -0.31995,0.75357 -0.73249,0.76158c-0.41259,0.00803 -0.75357,-0.31995 -0.76158,-0.73249c-0.00803,-0.41259 0.31995,-0.75357 0.73249,-0.76158z" data-paper-data="{&quot;index&quot;:null}" fill="#ffffff" stroke="none" stroke-width="0"/><path d="M250.20497,175.58306c0.04078,2.09683 -1.62594,3.82973 -3.72277,3.87053c-2.09683,0.04078 -3.82973,-1.62594 -3.87056,-3.72278c-0.04078,-2.09683 1.62594,-3.82973 3.72277,-3.87053c2.09683,-0.04078 3.82973,1.62594 3.87056,3.72278z" data-paper-data="{&quot;index&quot;:null}" fill="#000000" stroke="none" stroke-width="0"/><path d="M246.41269,174.59019c0.01443,0.74266 -0.57588,1.3564 -1.3185,1.37084c-0.74266,0.01443 -1.35643,-0.57591 -1.37087,-1.31853c-0.01443,-0.74266 0.57588,-1.3564 1.3185,-1.37084c0.74266,-0.01443 1.35641,0.57585 1.37084,1.3185z" data-paper-data="{&quot;index&quot;:null}" fill="#ffffff" stroke="none" stroke-width="0"/><path d="M247.67306,176.79451c0.00806,0.41255 -0.31992,0.75358 -0.73252,0.76161c-0.41255,0.00806 -0.75358,-0.31992 -0.76161,-0.73252c-0.00806,-0.41255 0.31995,-0.75357 0.73255,-0.7616c0.41255,-0.00806 0.75358,0.31992 0.76161,0.73252z" data-paper-data="{&quot;index&quot;:null}" fill="#ffffff" stroke="none" stroke-width="0"/><path d="M230.29746,183.60661c0,-0.60801 0.4929,-1.10091 1.10091,-1.10091c0.60801,0 1.10091,0.4929 1.10091,1.10091c0,0.60801 -0.4929,1.10091 -1.10091,1.10091c-0.60801,0 -1.10091,-0.4929 -1.10091,-1.10091z" fill="#ffa3cf" stroke="none" stroke-width="0.5"/><path d="M227.04033,189.90374c0,-0.60801 0.4929,-1.10091 1.10091,-1.10091c0.60801,0 1.10091,0.4929 1.10091,1.10091c0,0.60801 -0.4929,1.10091 -1.10091,1.10091c-0.60801,0 -1.10091,-0.4929 -1.10091,-1.10091z" fill="#ffa3cf" stroke="none" stroke-width="0.5"/><path d="M237.68031,193.8123c0,-0.60801 0.4929,-1.10091 1.10091,-1.10091c0.60801,0 1.10091,0.4929 1.10091,1.10091c0,0.60801 -0.4929,1.10091 -1.10091,1.10091c-0.60801,0 -1.10091,-0.4929 -1.10091,-1.10091z" fill="#ffa3cf" stroke="none" stroke-width="0.5"/><path d="M244.62886,191.85802c0,-0.60801 0.4929,-1.10091 1.10091,-1.10091c0.60801,0 1.10091,0.4929 1.10091,1.10091c0,0.60801 -0.4929,1.10091 -1.10091,1.10091c-0.60801,0 -1.10091,-0.4929 -1.10091,-1.10091z" fill="#ffa3cf" stroke="none" stroke-width="0.5"/><path d="M232.90317,190.12088c0,-0.60801 0.4929,-1.10091 1.10091,-1.10091c0.60801,0 1.10091,0.4929 1.10091,1.10091c0,0.60801 -0.4929,1.10091 -1.10091,1.10091c-0.60801,0 -1.10091,-0.4929 -1.10091,-1.10091z" fill="#ffa3cf" stroke="none" stroke-width="0.5"/><path d="M236.37746,195.98372c0,-0.60801 0.4929,-1.10091 1.10091,-1.10091c0.60801,0 1.10091,0.4929 1.10091,1.10091c0,0.60801 -0.4929,1.10091 -1.10091,1.10091c-0.60801,0 -1.10091,-0.4929 -1.10091,-1.10091z" fill="#ffa3cf" stroke="none" stroke-width="0.5"/><path d="M246.58314,169.2752c0,-0.60801 0.4929,-1.10091 1.10091,-1.10091c0.60801,0 1.10091,0.4929 1.10091,1.10091c0,0.60801 -0.4929,1.10091 -1.10091,1.10091c-0.60801,0 -1.10091,-0.4929 -1.10091,-1.10091z" fill="#ffa3cf" stroke="none" stroke-width="0.5"/><path d="M242.69195,183.21623c0,1.22417 -1.75205,2.21655 -3.91332,2.21655c-2.16127,0 -3.91332,-0.99238 -3.91332,-2.21655c0,-1.22417 1.75205,-2.21655 3.91332,-2.21655c2.16127,0 3.91332,0.99238 3.91332,2.21655z" fill="#000000" stroke="none" stroke-width="NaN"/><path d="M242.63688,188.368c0,0.47965 -1.42977,1.16413 -3.1264,1.16413c-1.69663,0 -3.1264,-0.64753 -3.1264,-1.12717c0,-0.47965 1.37539,-0.86848 3.07203,-0.86848c1.69663,0 3.18077,0.35187 3.18077,0.83152z" fill="#fb9a9a" stroke="none" stroke-width="0"/><path d="M194.23586,210.5404v-74.61845h191.08811v74.61845z" fill="none" stroke="none" stroke-width="0"/><path d="M132.59453,98.93716v-5.19085h3.89314v5.19085z" fill="none" stroke="none" stroke-width="0"/></g></g></svg>