<svg version="1.1" xmlns="http://www.w3.org/2000/svg" xmlns:xlink="http://www.w3.org/1999/xlink" width="183.62627" height="145.99262" viewBox="0,0,183.62627,145.99262"><g transform="translate(-170.55261,-80.12033)"><g data-paper-data="{&quot;isPaintingLayer&quot;:true}" fill-rule="nonzero" stroke-linejoin="miter" stroke-miterlimit="10" stroke-dasharray="" stroke-dashoffset="0" style="mix-blend-mode: normal"><path d="M228.76588,173.39961c-0.02495,-1.28118 0.99349,-2.34004 2.27467,-2.36499c1.28118,-0.02495 2.34004,0.99349 2.36499,2.27467c0.02495,1.28118 -0.99349,2.34004 -2.27467,2.36499c-1.28118,0.02495 -2.34004,-0.99349 -2.36499,-2.27467z" fill="#ffa3cf" stroke="none" stroke-width="0.5" stroke-linecap="butt"/><path d="M237.27542,182.3097c0,-0.12534 0.02095,-0.2458 0.05954,-0.35806c-0.66087,-0.39777 -1.10896,-1.1161 -1.12507,-1.94421c-0.02495,-1.28118 0.99351,-2.34008 2.27467,-2.36499c1.28118,-0.02495 2.34004,0.99349 2.36499,2.27467c0.01886,0.96819 -0.55816,1.80943 -1.39412,2.17343c0.01431,0.07083 0.02181,0.14412 0.02181,0.21915c0,0.60801 -0.4929,1.10091 -1.10091,1.10091c-0.60801,0 -1.10091,-0.4929 -1.10091,-1.10091z" fill="#ffa3cf" stroke="none" stroke-width="0.5" stroke-linecap="butt"/><path d="M220.03983,174.53417c-0.18994,-9.75967 7.56789,-17.8255 17.3276,-18.01542c9.75967,-0.18994 17.82544,7.5679 18.01542,17.3276c0.18994,9.75967 -7.86946,26.55258 -17.62914,26.74253c-9.75967,0.18994 -17.5239,-16.29501 -17.71385,-26.05469z" fill="#ffa3a3" stroke="#000000" stroke-width="2" stroke-linecap="butt"/><path d="M244.68113,153.46856l1.65925,1.35957l1.67965,1.84592c0.30978,0.33689 0.50249,0.78383 0.5121,1.27738c0.02086,1.07333 -0.8323,1.96034 -1.90562,1.98126c-0.12263,0.00239 -0.24283,-0.00659 -0.35957,-0.02608c-0.34714,0.45757 -0.89282,0.75759 -1.51167,0.76961c-0.22316,0.00436 -0.43834,-0.02909 -0.63931,-0.09447c0.21914,2.59414 -2.52363,3.42062 -5.41142,3.44889c-0.47828,0.07975 -0.96509,0.12903 -1.45564,0.14912l-0.00333,0.64899l-1.98512,-0.01017c-0.17077,-0.00028 -0.33651,-0.02269 -0.4945,-0.06451l-0.01565,0.07753l-2.09222,-0.42235c-0.89274,-0.16104 -1.57794,-0.93332 -1.59626,-1.8751c-0.01082,-0.55561 0.21256,-1.06126 0.57946,-1.42273l-1.17623,-0.53095c-0.68298,-0.29066 -1.16779,-0.96149 -1.18313,-1.75164c-0.01425,-0.73277 0.3789,-1.37872 0.97131,-1.72146c-0.28577,-0.50174 -0.63806,-1.51251 0.41256,-2.4232c0.63725,-0.55239 1.23765,-0.58866 1.71325,-0.45267c0.20387,-0.83609 0.94979,-1.46405 1.85085,-1.48158l2.12055,-0.04125l0.0006,0.03237l0.10691,-0.03146c0.03426,0.01892 0.06849,0.03783 0.10274,0.0567l0.00457,-0.04989l2.1018,0.19219c0.43756,0.03416 0.83553,0.21374 1.14455,0.49115l0.77949,-0.60866c0.32255,-0.25753 0.72942,-0.41482 1.17395,-0.42348c0.58818,-0.01141 1.12042,0.23963 1.48482,0.64552c0.7859,-0.0613 1.43117,0.45547 1.43117,0.45547z" fill="#a3ffa7" stroke="none" stroke-width="0.5" stroke-linecap="butt"/><path d="M228.09964,167.77739c-0.02086,-1.07333 0.83232,-1.96039 1.90562,-1.98126c1.07333,-0.02086 1.96039,0.83232 1.98126,1.90562c0.02086,1.07333 -0.83232,1.96039 -1.90562,1.98126c-1.07333,0.02086 -1.9604,-0.83227 -1.98126,-1.90562z" fill="#ffa3cf" stroke="none" stroke-width="0.5" stroke-linecap="butt"/><path d="M233.1348,172.1579c-0.02086,-1.07333 0.83226,-1.96036 1.90562,-1.98126c1.07333,-0.02086 1.96034,0.8323 1.98126,1.90562c0.02086,1.07333 -0.83227,1.9604 -1.90562,1.98126c-1.07333,0.02086 -1.96039,-0.83232 -1.98126,-1.90562z" fill="#ffa3cf" stroke="none" stroke-width="0.5" stroke-linecap="butt"/><path d="M224.27964,177.38941c-0.02086,-1.07333 0.8323,-1.96034 1.90562,-1.98126c1.07333,-0.02086 1.96036,0.83226 1.98126,1.90562c0.02086,1.07333 -0.8323,1.96034 -1.90562,1.98126c-1.07333,0.02086 -1.96036,-0.83226 -1.98126,-1.90562z" fill="#ffa3cf" stroke="none" stroke-width="0.5" stroke-linecap="butt"/><path d="M237.98191,166.878c-0.02086,-1.07333 0.83232,-1.96039 1.90562,-1.98126c1.07333,-0.02086 1.9604,0.83227 1.98126,1.90562c0.02086,1.07333 -0.83232,1.96039 -1.90562,1.98126c-1.07333,0.02086 -1.96039,-0.83232 -1.98126,-1.90562z" fill="#ffa3cf" stroke="none" stroke-width="0.5" stroke-linecap="butt"/><path d="M238.18581,177.35448c-0.02086,-1.07333 0.83227,-1.9604 1.90562,-1.98126c1.07333,-0.02086 1.96039,0.83232 1.98126,1.90562c0.02086,1.07333 -0.83226,1.96036 -1.90562,1.98126c-1.07333,0.02086 -1.9604,-0.83227 -1.98126,-1.90562z" fill="#ffa3cf" stroke="none" stroke-width="0.5" stroke-linecap="butt"/><path d="M244.9387,173.10673c-0.02086,-1.07333 0.83227,-1.9604 1.90562,-1.98126c1.07333,-0.02086 1.96039,0.83232 1.98126,1.90562c0.02086,1.07333 -0.83232,1.96039 -1.90562,1.98126c-1.07333,0.02086 -1.96039,-0.83232 -1.98126,-1.90562z" fill="#ffa3cf" stroke="none" stroke-width="0.5" stroke-linecap="butt"/><path d="M240.83725,180.36711c-0.02086,-1.07333 0.83227,-1.9604 1.90562,-1.98126c1.07333,-0.02086 1.96034,0.8323 1.98126,1.90562c0.02086,1.07333 -0.83232,1.96039 -1.90562,1.98126c-1.07333,0.02086 -1.96034,-0.8323 -1.98126,-1.90562z" fill="#ffa3cf" stroke="none" stroke-width="0.5" stroke-linecap="butt"/><path d="M244.19095,183.13031c-0.02086,-1.07333 0.83232,-1.96039 1.90562,-1.98126c1.07333,-0.02086 1.96034,0.8323 1.98126,1.90562c0.02086,1.07333 -0.83232,1.96039 -1.90562,1.98126c-1.07333,0.02086 -1.96034,-0.8323 -1.98126,-1.90562z" fill="#ffa3cf" stroke="none" stroke-width="0.5" stroke-linecap="butt"/><path d="M230.78084,169.19814c2.09683,-0.04078 3.82973,1.62594 3.87053,3.72277c0.04078,2.09683 -1.62594,3.82973 -3.72278,3.87056c-2.09683,0.04078 -3.82973,-1.62594 -3.87056,-3.72278c-0.04078,-2.09683 1.62594,-3.82973 3.72277,-3.87053z" data-paper-data="{&quot;index&quot;:null}" fill="#000000" stroke="none" stroke-width="0" stroke-linecap="butt"/><path d="M232.12742,170.55813c0.74266,-0.01443 1.3564,0.57588 1.37084,1.3185c0.01444,0.74262 -0.57588,1.3564 -1.3185,1.37084c-0.74266,0.01443 -1.3564,-0.57588 -1.37084,-1.3185c-0.01443,-0.74266 0.57588,-1.3564 1.3185,-1.37084z" data-paper-data="{&quot;index&quot;:null}" fill="#ffffff" stroke="none" stroke-width="0" stroke-linecap="butt"/><path d="M230.36774,173.41911c0.41259,-0.00803 0.75357,0.31995 0.76158,0.73249c0.00803,0.41259 -0.31995,0.75357 -0.73249,0.76158c-0.41259,0.00803 -0.75357,-0.31995 -0.76158,-0.73249c-0.00803,-0.41259 0.31995,-0.75357 0.73249,-0.76158z" data-paper-data="{&quot;index&quot;:null}" fill="#ffffff" stroke="none" stroke-width="0" stroke-linecap="butt"/><path d="M249.14865,172.76616c0.04078,2.09683 -1.62594,3.82973 -3.72277,3.87053c-2.09683,0.04078 -3.82973,-1.62594 -3.87056,-3.72278c-0.04078,-2.09683 1.62594,-3.82973 3.72277,-3.87053c2.09683,-0.04078 3.82973,1.62594 3.87056,3.72278z" data-paper-data="{&quot;index&quot;:null}" fill="#000000" stroke="none" stroke-width="0" stroke-linecap="butt"/><path d="M245.35637,171.77329c0.01443,0.74266 -0.57588,1.3564 -1.3185,1.37084c-0.74266,0.01443 -1.35643,-0.57591 -1.37087,-1.31853c-0.01443,-0.74266 0.57588,-1.3564 1.3185,-1.37084c0.74266,-0.01443 1.35641,0.57585 1.37084,1.3185z" data-paper-data="{&quot;index&quot;:null}" fill="#ffffff" stroke="none" stroke-width="0" stroke-linecap="butt"/><path d="M246.61674,173.97761c0.00806,0.41255 -0.31992,0.75358 -0.73252,0.76161c-0.41255,0.00806 -0.75358,-0.31992 -0.76161,-0.73252c-0.00806,-0.41255 0.31995,-0.75357 0.73255,-0.7616c0.41255,-0.00806 0.75358,0.31992 0.76161,0.73252z" data-paper-data="{&quot;index&quot;:null}" fill="#ffffff" stroke="none" stroke-width="0" stroke-linecap="butt"/><path d="M229.24114,180.78971c0,-0.60801 0.4929,-1.10091 1.10091,-1.10091c0.60801,0 1.10091,0.4929 1.10091,1.10091c0,0.60801 -0.4929,1.10091 -1.10091,1.10091c-0.60801,0 -1.10091,-0.4929 -1.10091,-1.10091z" fill="#ffa3cf" stroke="none" stroke-width="0.5" stroke-linecap="butt"/><path d="M225.98401,187.08684c0,-0.60801 0.4929,-1.10091 1.10091,-1.10091c0.60801,0 1.10091,0.4929 1.10091,1.10091c0,0.60801 -0.4929,1.10091 -1.10091,1.10091c-0.60801,0 -1.10091,-0.4929 -1.10091,-1.10091z" fill="#ffa3cf" stroke="none" stroke-width="0.5" stroke-linecap="butt"/><path d="M236.62399,190.9954c0,-0.60801 0.4929,-1.10091 1.10091,-1.10091c0.60801,0 1.10091,0.4929 1.10091,1.10091c0,0.60801 -0.4929,1.10091 -1.10091,1.10091c-0.60801,0 -1.10091,-0.4929 -1.10091,-1.10091z" fill="#ffa3cf" stroke="none" stroke-width="0.5" stroke-linecap="butt"/><path d="M243.57254,189.04112c0,-0.60801 0.4929,-1.10091 1.10091,-1.10091c0.60801,0 1.10091,0.4929 1.10091,1.10091c0,0.60801 -0.4929,1.10091 -1.10091,1.10091c-0.60801,0 -1.10091,-0.4929 -1.10091,-1.10091z" fill="#ffa3cf" stroke="none" stroke-width="0.5" stroke-linecap="butt"/><path d="M231.84685,187.30398c0,-0.60801 0.4929,-1.10091 1.10091,-1.10091c0.60801,0 1.10091,0.4929 1.10091,1.10091c0,0.60801 -0.4929,1.10091 -1.10091,1.10091c-0.60801,0 -1.10091,-0.4929 -1.10091,-1.10091z" fill="#ffa3cf" stroke="none" stroke-width="0.5" stroke-linecap="butt"/><path d="M235.32114,193.16682c0,-0.60801 0.4929,-1.10091 1.10091,-1.10091c0.60801,0 1.10091,0.4929 1.10091,1.10091c0,0.60801 -0.4929,1.10091 -1.10091,1.10091c-0.60801,0 -1.10091,-0.4929 -1.10091,-1.10091z" fill="#ffa3cf" stroke="none" stroke-width="0.5" stroke-linecap="butt"/><path d="M245.52682,166.4583c0,-0.60801 0.4929,-1.10091 1.10091,-1.10091c0.60801,0 1.10091,0.4929 1.10091,1.10091c0,0.60801 -0.4929,1.10091 -1.10091,1.10091c-0.60801,0 -1.10091,-0.4929 -1.10091,-1.10091z" fill="#ffa3cf" stroke="none" stroke-width="0.5" stroke-linecap="butt"/><path d="M241.63562,180.39934c0,1.22417 -1.75205,2.21655 -3.91332,2.21655c-2.16127,0 -3.91332,-0.99239 -3.91332,-2.21655c0,-1.22417 1.75205,-2.21655 3.91332,-2.21655c2.16127,0 3.91332,0.99239 3.91332,2.21655z" fill="#000000" stroke="none" stroke-width="NaN" stroke-linecap="butt"/><path d="M241.58055,185.5511c0,0.47965 -1.42977,1.16413 -3.1264,1.16413c-1.69663,0 -3.1264,-0.64753 -3.1264,-1.12717c0,-0.47965 1.37539,-0.86848 3.07203,-0.86848c1.69663,0 3.18077,0.35188 3.18077,0.83152z" fill="#fb9a9a" stroke="none" stroke-width="0" stroke-linecap="butt"/><path d="M201.67758,131.22141l20.45243,36.72139" fill="none" stroke="#000000" stroke-width="2" stroke-linecap="round"/><path d="M252.78175,165.81842l13.0264,-32.77612" fill="none" stroke="#000000" stroke-width="2" stroke-linecap="round"/><path d="M277.06033,138.20151c0,9.21848 -7.52573,18.20896 -37.02488,18.20896c-29.49915,0 -41.27363,-8.99047 -41.27363,-18.20896c0,-9.21848 9.34662,-46.73632 38.84577,-46.73632c29.49915,0 39.45274,37.51784 39.45274,46.73632z" fill="#ffe0e0" stroke="#000000" stroke-width="2" stroke-linecap="butt"/><path d="M221.67411,114.28375c-0.06476,-0.50065 0.28861,-0.95904 0.78927,-1.0238c0.50065,-0.06476 0.95904,0.28862 1.0238,0.78927c0.06476,0.50065 -0.28861,0.95904 -0.78927,1.0238c-0.50065,0.06476 -0.95904,-0.28861 -1.0238,-0.78927z" fill="#ffa3cf" stroke="none" stroke-width="0.5" stroke-linecap="butt"/><path d="M225.38903,117.40776c-0.00538,-0.04909 -0.00235,-0.09716 0.00795,-0.14278c-0.27588,-0.1274 -0.48219,-0.38947 -0.52405,-0.71308c-0.06476,-0.50065 0.28862,-0.95905 0.78927,-1.0238c0.50065,-0.06476 0.95904,0.28862 1.0238,0.78927c0.04895,0.37834 -0.14091,0.73255 -0.45265,0.91098c0.00865,0.02712 0.01472,0.0555 0.01794,0.08488c0.0261,0.23811 -0.14577,0.45229 -0.38387,0.47839c-0.2381,0.0261 -0.45229,-0.14576 -0.47839,-0.38387z" fill="#ffa3cf" stroke="none" stroke-width="0.5" stroke-linecap="butt"/><path d="M218.30559,115.10263c-0.49333,-3.81385 2.19849,-7.30555 6.01236,-7.79887c3.81385,-0.49333 7.30552,2.1985 7.79887,6.01237c0.49333,3.81385 -1.94197,10.73611 -5.75582,11.22945c-3.81385,0.49333 -7.56206,-5.62908 -8.05539,-9.44294z" fill="#ffa3a3" stroke="#000000" stroke-width="2" stroke-linecap="butt"/><path d="M227.05115,105.79532l0.70815,0.4612l0.73701,0.65078c0.13577,0.11863 0.23042,0.28538 0.25537,0.47825c0.05425,0.41944 -0.24179,0.80343 -0.66121,0.85769c-0.04792,0.0062 -0.09537,0.00784 -0.14193,0.00522c-0.1163,0.19409 -0.31712,0.33501 -0.55895,0.36628c-0.08721,0.01129 -0.1729,0.00742 -0.25441,-0.00956c0.19717,1.00649 -0.84145,1.44788 -1.97113,1.58292c-0.18388,0.05176 -0.3724,0.09196 -0.56365,0.12089l0.02656,0.25429l-0.77784,0.08123c-0.06689,0.00722 -0.13276,0.00556 -0.19642,-0.00404l-0.0028,0.03104l-0.83747,-0.07559c-0.35652,-0.02474 -0.65801,-0.29776 -0.7056,-0.66579c-0.02809,-0.21712 0.03768,-0.42472 0.16585,-0.58203l-0.48341,-0.15744c-0.27994,-0.08451 -0.49859,-0.3264 -0.53852,-0.63518c-0.03704,-0.28635 0.0892,-0.55619 0.30648,-0.71584c-0.13345,-0.18422 -0.3148,-0.56493 0.05755,-0.96666c0.22584,-0.24367 0.45941,-0.28365 0.6515,-0.25082c0.04395,-0.33617 0.3091,-0.61411 0.66122,-0.65966l0.82866,-0.10718l0.00162,0.01265l0.04051,-0.01691c0.01423,0.00594 0.02844,0.01188 0.04267,0.0178l-0.00035,-0.01974l0.83134,-0.01496c0.17282,-0.0054 0.33638,0.04784 0.4693,0.14321l0.27913,-0.27182c0.11526,-0.1147 0.26784,-0.19375 0.44155,-0.21623c0.22985,-0.02971 0.44906,0.04574 0.60918,0.18905c0.30514,-0.05774 0.58002,0.11693 0.58002,0.11693z" fill="#a3ffa7" stroke="none" stroke-width="0.5" stroke-linecap="butt"/><path d="M221.17187,112.11062c-0.05425,-0.41943 0.24179,-0.80344 0.66121,-0.85769c0.41943,-0.05424 0.80344,0.24179 0.85769,0.66121c0.05425,0.41943 -0.24179,0.80344 -0.66121,0.85769c-0.41943,0.05424 -0.80344,-0.24178 -0.85769,-0.66121z" fill="#ffa3cf" stroke="none" stroke-width="0.5" stroke-linecap="butt"/><path d="M223.33173,113.60994c-0.05425,-0.41944 0.24177,-0.80343 0.66121,-0.85769c0.41943,-0.05424 0.80343,0.24179 0.85769,0.66121c0.05425,0.41944 -0.24177,0.80345 -0.66121,0.85769c-0.41943,0.05424 -0.80345,-0.2418 -0.85769,-0.66122z" fill="#ffa3cf" stroke="none" stroke-width="0.5" stroke-linecap="butt"/><path d="M220.08852,116.03878c-0.05425,-0.41944 0.24179,-0.80342 0.66121,-0.85769c0.41943,-0.05424 0.80343,0.24177 0.85769,0.66121c0.05425,0.41944 -0.24179,0.80342 -0.66121,0.85769c-0.41943,0.05424 -0.80343,-0.24177 -0.85769,-0.66121z" fill="#ffa3cf" stroke="none" stroke-width="0.5" stroke-linecap="butt"/><path d="M225.00327,111.33419c-0.05425,-0.41943 0.24179,-0.80344 0.66121,-0.85769c0.41943,-0.05424 0.80344,0.24178 0.85769,0.66121c0.05425,0.41943 -0.24179,0.80344 -0.66121,0.85769c-0.41943,0.05424 -0.80344,-0.24179 -0.85769,-0.66121z" fill="#ffa3cf" stroke="none" stroke-width="0.5" stroke-linecap="butt"/><path d="M225.53284,115.42816c-0.05425,-0.41943 0.24177,-0.80344 0.66121,-0.85769c0.41943,-0.05424 0.80344,0.24179 0.85769,0.66121c0.05425,0.41943 -0.24177,0.80343 -0.66121,0.85769c-0.41943,0.05424 -0.80344,-0.24178 -0.85769,-0.66121z" fill="#ffa3cf" stroke="none" stroke-width="0.5" stroke-linecap="butt"/><path d="M227.99501,113.47481c-0.05425,-0.41944 0.24177,-0.80345 0.66121,-0.85769c0.41943,-0.05424 0.80344,0.24179 0.85769,0.66121c0.05425,0.41943 -0.24179,0.80345 -0.66121,0.85769c-0.41943,0.05424 -0.80344,-0.24179 -0.85769,-0.66121z" fill="#ffa3cf" stroke="none" stroke-width="0.5" stroke-linecap="butt"/><path d="M226.7005,116.49412c-0.05425,-0.41944 0.24178,-0.80344 0.66122,-0.85768c0.41943,-0.05424 0.80342,0.24179 0.85768,0.66121c0.05425,0.41943 -0.24179,0.80344 -0.66121,0.85768c-0.41943,0.05424 -0.80342,-0.24179 -0.85769,-0.66121z" fill="#ffa3cf" stroke="none" stroke-width="0.5" stroke-linecap="butt"/><path d="M228.13246,117.43226c-0.05425,-0.41944 0.24179,-0.80344 0.66121,-0.85769c0.41943,-0.05424 0.80342,0.24179 0.85769,0.66121c0.05425,0.41944 -0.24179,0.80344 -0.66121,0.85769c-0.41943,0.05424 -0.80342,-0.24179 -0.85769,-0.66121z" fill="#ffa3cf" stroke="none" stroke-width="0.5" stroke-linecap="butt"/><path d="M222.28284,112.5519c0.81939,-0.10598 1.56957,0.47234 1.67555,1.29174c0.10598,0.8194 -0.47234,1.56956 -1.29174,1.67556c-0.81939,0.10598 -1.56956,-0.47234 -1.67556,-1.29174c-0.10598,-0.8194 0.47234,-1.56957 1.29173,-1.67555z" data-paper-data="{&quot;index&quot;:null}" fill="#000000" stroke="none" stroke-width="0" stroke-linecap="butt"/><path d="M222.86856,113.02669c0.29021,-0.03753 0.5559,0.16729 0.59344,0.45749c0.03753,0.2902 -0.1673,0.5559 -0.4575,0.59344c-0.29021,0.03753 -0.5559,-0.16729 -0.59343,-0.45749c-0.03753,-0.29022 0.1673,-0.5559 0.4575,-0.59344z" data-paper-data="{&quot;index&quot;:null}" fill="#ffffff" stroke="none" stroke-width="0" stroke-linecap="butt"/><path d="M222.30226,114.22262c0.16123,-0.02085 0.30884,0.09295 0.32969,0.25416c0.02086,0.16123 -0.09295,0.30884 -0.25416,0.32968c-0.16123,0.02085 -0.30885,-0.09295 -0.32969,-0.25416c-0.02086,-0.16123 0.09295,-0.30884 0.25416,-0.32968z" data-paper-data="{&quot;index&quot;:null}" fill="#ffffff" stroke="none" stroke-width="0" stroke-linecap="butt"/><path d="M229.62906,113.16072c0.10598,0.8194 -0.47234,1.56956 -1.29174,1.67555c-0.81939,0.10598 -1.56956,-0.47234 -1.67556,-1.29174c-0.10598,-0.8194 0.47234,-1.56956 1.29173,-1.67555c0.81939,-0.10598 1.56957,0.47234 1.67557,1.29174z" data-paper-data="{&quot;index&quot;:null}" fill="#000000" stroke="none" stroke-width="0" stroke-linecap="butt"/><path d="M228.10134,112.93469c0.03753,0.29022 -0.16729,0.5559 -0.45749,0.59343c-0.29021,0.03753 -0.55592,-0.1673 -0.59345,-0.4575c-0.03753,-0.29022 0.1673,-0.5559 0.4575,-0.59344c0.29021,-0.03753 0.55591,0.16729 0.59344,0.4575z" data-paper-data="{&quot;index&quot;:null}" fill="#ffffff" stroke="none" stroke-width="0" stroke-linecap="butt"/><path d="M228.68954,113.74383c0.02086,0.16121 -0.09294,0.30885 -0.25417,0.3297c-0.16121,0.02087 -0.30884,-0.09293 -0.3297,-0.25417c-0.02086,-0.16121 0.09294,-0.30885 0.25418,-0.3297c0.16121,-0.02087 0.30885,0.09293 0.3297,0.25417z" data-paper-data="{&quot;index&quot;:null}" fill="#ffffff" stroke="none" stroke-width="0" stroke-linecap="butt"/><path d="M222.17746,117.1574c-0.0261,-0.23811 0.14577,-0.45229 0.38387,-0.47839c0.2381,-0.0261 0.45229,0.14577 0.47839,0.38388c0.0261,0.23811 -0.14577,0.45228 -0.38388,0.47838c-0.2381,0.0261 -0.45228,-0.14576 -0.47839,-0.38387z" fill="#ffa3cf" stroke="none" stroke-width="0.5" stroke-linecap="butt"/><path d="M221.17224,119.76325c-0.0261,-0.23811 0.14576,-0.45229 0.38387,-0.47839c0.2381,-0.0261 0.45229,0.14576 0.47839,0.38387c0.0261,0.23811 -0.14577,0.45229 -0.38388,0.47839c-0.2381,0.0261 -0.45228,-0.14576 -0.47838,-0.38387z" fill="#ffa3cf" stroke="none" stroke-width="0.5" stroke-linecap="butt"/><path d="M225.50677,120.83715c-0.0261,-0.23811 0.14577,-0.45229 0.38387,-0.47839c0.2381,-0.0261 0.45229,0.14576 0.47839,0.38387c0.0261,0.23811 -0.14577,0.45229 -0.38387,0.47839c-0.2381,0.0261 -0.45228,-0.14576 -0.47839,-0.38387z" fill="#ffa3cf" stroke="none" stroke-width="0.5" stroke-linecap="butt"/><path d="M228.14401,119.77355c-0.0261,-0.23811 0.14577,-0.45229 0.38387,-0.47839c0.2381,-0.0261 0.45229,0.14576 0.47839,0.38387c0.0261,0.23811 -0.14577,0.45229 -0.38387,0.47839c-0.2381,0.0261 -0.45229,-0.14577 -0.47839,-0.38388z" fill="#ffa3cf" stroke="none" stroke-width="0.5" stroke-linecap="butt"/><path d="M223.47752,119.59661c-0.0261,-0.23811 0.14577,-0.45229 0.38387,-0.47839c0.2381,-0.0261 0.45229,0.14576 0.47839,0.38387c0.0261,0.23811 -0.14577,0.45229 -0.38387,0.47839c-0.2381,0.0261 -0.45228,-0.14576 -0.47839,-0.38387z" fill="#ffa3cf" stroke="none" stroke-width="0.5" stroke-linecap="butt"/><path d="M225.08977,121.74343c-0.0261,-0.23811 0.14577,-0.45229 0.38387,-0.47839c0.2381,-0.0261 0.45229,0.14576 0.47839,0.38387c0.0261,0.23811 -0.14577,0.45229 -0.38387,0.47839c-0.2381,0.0261 -0.45228,-0.14576 -0.47839,-0.38387z" fill="#ffa3cf" stroke="none" stroke-width="0.5" stroke-linecap="butt"/><path d="M227.93994,110.84596c-0.0261,-0.23811 0.14577,-0.45229 0.38387,-0.47839c0.2381,-0.0261 0.45229,0.14576 0.47839,0.38387c0.0261,0.23811 -0.14577,0.45229 -0.38388,0.47839c-0.2381,0.0261 -0.45228,-0.14577 -0.47839,-0.38388z" fill="#ffa3cf" stroke="none" stroke-width="0.5" stroke-linecap="butt"/><path d="M227.01453,116.47247c0.05255,0.4794 -0.59097,0.94324 -1.43735,1.03601c-0.84638,0.09278 -1.5751,-0.22064 -1.62765,-0.70004c-0.05255,-0.4794 0.59097,-0.94324 1.43735,-1.03602c0.84638,-0.09278 1.5751,0.22065 1.62765,0.70005z" fill="#000000" stroke="none" stroke-width="NaN" stroke-linecap="butt"/><path d="M227.21411,118.49233c0.02059,0.18784 -0.50994,0.51727 -1.17436,0.5901c-0.66442,0.07283 -1.25213,-0.11937 -1.27272,-0.30721c-0.02059,-0.18784 0.50134,-0.39915 1.16577,-0.47198c0.66442,-0.07283 1.26073,0.00126 1.28132,0.18909z" fill="#fb9a9a" stroke="none" stroke-width="0" stroke-linecap="butt"/><path d="M242.26619,122.0242c-0.00728,-0.37377 0.28983,-0.68267 0.6636,-0.68994c0.37376,-0.00728 0.68267,0.28983 0.68995,0.6636c0.00728,0.37377 -0.28984,0.68267 -0.6636,0.68994c-0.37376,0.00728 -0.68266,-0.28983 -0.68994,-0.6636z" fill="#ffa3cf" stroke="none" stroke-width="0.5" stroke-linecap="butt"/><path d="M244.74871,124.62358c0,-0.03656 0.00611,-0.07171 0.01737,-0.10446c-0.1928,-0.11604 -0.32352,-0.3256 -0.32823,-0.56719c-0.00728,-0.37377 0.28984,-0.68268 0.6636,-0.68995c0.37376,-0.00728 0.68266,0.28983 0.68994,0.6636c0.0055,0.28245 -0.16283,0.52788 -0.40671,0.63407c0.00418,0.02066 0.00636,0.04205 0.00636,0.06394c0,0.17737 -0.1438,0.32117 -0.32117,0.32117c-0.17738,0 -0.32117,-0.14379 -0.32117,-0.32117z" fill="#ffa3cf" stroke="none" stroke-width="0.5" stroke-linecap="butt"/><path d="M239.72051,122.35519c-0.05541,-2.84722 2.20781,-5.2003 5.05505,-5.2557c2.84723,-0.05541 5.20028,2.20781 5.25571,5.05504c0.05541,2.84722 -2.29579,7.74629 -5.14302,7.8017c-2.84723,0.05541 -5.11231,-4.75381 -5.16772,-7.60104z" fill="#ffa3a3" stroke="#000000" stroke-width="2" stroke-linecap="butt"/><path d="M246.90921,116.20965l0.48406,0.39663l0.49001,0.53852c0.09037,0.09828 0.14659,0.22867 0.14939,0.37265c0.00609,0.31312 -0.24281,0.57189 -0.55594,0.578c-0.03578,0.00069 -0.07084,-0.00192 -0.10489,-0.0076c-0.10127,0.13349 -0.26046,0.22101 -0.441,0.22452c-0.0651,0.00127 -0.12788,-0.00848 -0.18651,-0.02756c0.06393,0.7568 -0.73623,0.99791 -1.5787,1.00616c-0.13953,0.02326 -0.28155,0.03764 -0.42466,0.0435l-0.00097,0.18933l-0.57913,-0.00297c-0.04982,-0.00008 -0.09817,-0.00662 -0.14426,-0.01882l-0.00457,0.02262l-0.61037,-0.12322c-0.26044,-0.04698 -0.46034,-0.27228 -0.46569,-0.54703c-0.00315,-0.16209 0.06202,-0.3096 0.16905,-0.41506l-0.34314,-0.1549c-0.19925,-0.08479 -0.34068,-0.2805 -0.34516,-0.51101c-0.00415,-0.21377 0.11054,-0.40222 0.28336,-0.50221c-0.08337,-0.14638 -0.18614,-0.44125 0.12036,-0.70693c0.1859,-0.16115 0.36106,-0.17173 0.49981,-0.13205c0.05947,-0.24392 0.27709,-0.42712 0.53996,-0.43223l0.61863,-0.01203l0.00018,0.00944l0.03119,-0.00918c0.01,0.00552 0.01998,0.01104 0.02997,0.01655l0.00133,-0.01456l0.61317,0.05607c0.12765,0.00996 0.24375,0.06236 0.3339,0.14329l0.22741,-0.17757c0.0941,-0.07513 0.21279,-0.12102 0.34248,-0.12354c0.17159,-0.00333 0.32686,0.06991 0.43317,0.18832c0.22928,-0.01789 0.41752,0.13288 0.41752,0.13288z" fill="#a3ffa7" stroke="none" stroke-width="0.5" stroke-linecap="butt"/><path d="M242.07183,120.38401c-0.00609,-0.31312 0.24281,-0.57191 0.55593,-0.578c0.31313,-0.00608 0.57191,0.24282 0.578,0.55594c0.00609,0.31312 -0.24282,0.57191 -0.55594,0.578c-0.31313,0.00608 -0.57191,-0.2428 -0.578,-0.55593z" fill="#ffa3cf" stroke="none" stroke-width="0.5" stroke-linecap="butt"/><path d="M243.54075,121.66196c-0.00609,-0.31312 0.2428,-0.57191 0.55594,-0.578c0.31313,-0.00608 0.5719,0.24281 0.578,0.55593c0.00609,0.31312 -0.24281,0.57191 -0.55594,0.578c-0.31313,0.00608 -0.57191,-0.24281 -0.578,-0.55593z" fill="#ffa3cf" stroke="none" stroke-width="0.5" stroke-linecap="butt"/><path d="M240.9574,123.18816c-0.00609,-0.31312 0.24281,-0.57189 0.55594,-0.578c0.31313,-0.00608 0.57191,0.2428 0.578,0.55594c0.00609,0.31312 -0.24281,0.57189 -0.55594,0.578c-0.31313,0.00608 -0.57191,-0.2428 -0.578,-0.55594z" fill="#ffa3cf" stroke="none" stroke-width="0.5" stroke-linecap="butt"/><path d="M244.95482,120.12163c-0.00609,-0.31312 0.24282,-0.57191 0.55594,-0.578c0.31313,-0.00608 0.57191,0.2428 0.578,0.55593c0.00609,0.31312 -0.24282,0.57191 -0.55594,0.578c-0.31313,0.00608 -0.57191,-0.24281 -0.578,-0.55593z" fill="#ffa3cf" stroke="none" stroke-width="0.5" stroke-linecap="butt"/><path d="M245.0143,123.17797c-0.00609,-0.31312 0.24281,-0.57192 0.55594,-0.578c0.31313,-0.00608 0.57191,0.24282 0.578,0.55594c0.00609,0.31312 -0.2428,0.5719 -0.55594,0.578c-0.31313,0.00608 -0.57191,-0.2428 -0.578,-0.55593z" fill="#ffa3cf" stroke="none" stroke-width="0.5" stroke-linecap="butt"/><path d="M246.98435,121.93876c-0.00609,-0.31312 0.24281,-0.57192 0.55594,-0.578c0.31313,-0.00608 0.57191,0.24282 0.578,0.55594c0.00609,0.31312 -0.24282,0.57191 -0.55594,0.578c-0.31313,0.00608 -0.57191,-0.24281 -0.578,-0.55593z" fill="#ffa3cf" stroke="none" stroke-width="0.5" stroke-linecap="butt"/><path d="M245.78782,124.05686c-0.00609,-0.31312 0.24281,-0.57192 0.55594,-0.578c0.31313,-0.00608 0.5719,0.24281 0.578,0.55594c0.00609,0.31312 -0.24282,0.57191 -0.55594,0.578c-0.31313,0.00608 -0.5719,-0.24281 -0.578,-0.55594z" fill="#ffa3cf" stroke="none" stroke-width="0.5" stroke-linecap="butt"/><path d="M246.7662,124.86298c-0.00609,-0.31312 0.24282,-0.57191 0.55594,-0.578c0.31313,-0.00608 0.5719,0.24281 0.578,0.55593c0.00609,0.31312 -0.24282,0.57191 -0.55594,0.578c-0.31313,0.00608 -0.5719,-0.24281 -0.578,-0.55593z" fill="#ffa3cf" stroke="none" stroke-width="0.5" stroke-linecap="butt"/><path d="M242.85402,120.79849c0.61172,-0.01189 1.11726,0.47434 1.12917,1.08606c0.0119,0.61172 -0.47434,1.11726 -1.08606,1.12917c-0.61172,0.01189 -1.11727,-0.47434 -1.12918,-1.08606c-0.0119,-0.61172 0.47434,-1.11726 1.08606,-1.12916z" data-paper-data="{&quot;index&quot;:null}" fill="#000000" stroke="none" stroke-width="0" stroke-linecap="butt"/><path d="M243.24687,121.19525c0.21666,-0.00421 0.3957,0.16801 0.39992,0.38465c0.00421,0.21664 -0.16801,0.39571 -0.38465,0.39992c-0.21666,0.00421 -0.39571,-0.16801 -0.39992,-0.38466c-0.00421,-0.21666 0.16801,-0.3957 0.38466,-0.39992z" data-paper-data="{&quot;index&quot;:null}" fill="#ffffff" stroke="none" stroke-width="0" stroke-linecap="butt"/><path d="M242.73351,122.02989c0.12036,-0.00235 0.21985,0.09334 0.22218,0.2137c0.00234,0.12037 -0.09334,0.21984 -0.2137,0.22218c-0.12036,0.00235 -0.21984,-0.09334 -0.22218,-0.21369c-0.00234,-0.12037 0.09334,-0.21985 0.21369,-0.22218z" data-paper-data="{&quot;index&quot;:null}" fill="#ffffff" stroke="none" stroke-width="0" stroke-linecap="butt"/><path d="M248.21253,121.83941c0.0119,0.61172 -0.47434,1.11726 -1.08606,1.12917c-0.61172,0.01189 -1.11726,-0.47434 -1.12917,-1.08607c-0.0119,-0.61172 0.47434,-1.11726 1.08606,-1.12916c0.61172,-0.01189 1.11727,0.47434 1.12918,1.08606z" data-paper-data="{&quot;index&quot;:null}" fill="#000000" stroke="none" stroke-width="0" stroke-linecap="butt"/><path d="M247.1062,121.54975c0.00421,0.21666 -0.16801,0.3957 -0.38465,0.39992c-0.21666,0.00421 -0.39571,-0.16801 -0.39993,-0.38466c-0.00421,-0.21666 0.168,-0.3957 0.38465,-0.39992c0.21666,-0.00421 0.39571,0.16799 0.39992,0.38465z" data-paper-data="{&quot;index&quot;:null}" fill="#ffffff" stroke="none" stroke-width="0" stroke-linecap="butt"/><path d="M247.47389,122.19283c0.00235,0.12036 -0.09333,0.21984 -0.2137,0.22218c-0.12035,0.00235 -0.21984,-0.09333 -0.22218,-0.2137c-0.00235,-0.12036 0.09334,-0.21984 0.21371,-0.22219c0.12035,-0.00235 0.21984,0.09333 0.22218,0.2137z" data-paper-data="{&quot;index&quot;:null}" fill="#ffffff" stroke="none" stroke-width="0" stroke-linecap="butt"/><path d="M242.40484,124.18015c0,-0.17737 0.14379,-0.32117 0.32117,-0.32117c0.17738,0 0.32118,0.1438 0.32118,0.32117c0,0.17737 -0.1438,0.32117 -0.32118,0.32117c-0.17738,0 -0.32117,-0.1438 -0.32117,-0.32117z" fill="#ffa3cf" stroke="none" stroke-width="0.5" stroke-linecap="butt"/><path d="M241.45463,126.01723c0,-0.17737 0.1438,-0.32117 0.32117,-0.32117c0.17738,0 0.32117,0.1438 0.32117,0.32117c0,0.17737 -0.1438,0.32117 -0.32117,0.32117c-0.17738,0 -0.32117,-0.14379 -0.32117,-0.32117z" fill="#ffa3cf" stroke="none" stroke-width="0.5" stroke-linecap="butt"/><path d="M244.55867,127.15749c0,-0.17737 0.1438,-0.32117 0.32117,-0.32117c0.17738,0 0.32117,0.1438 0.32117,0.32117c0,0.17737 -0.1438,0.32117 -0.32117,0.32117c-0.17738,0 -0.32117,-0.1438 -0.32117,-0.32117z" fill="#ffa3cf" stroke="none" stroke-width="0.5" stroke-linecap="butt"/><path d="M246.58579,126.58736c0,-0.17737 0.1438,-0.32118 0.32118,-0.32118c0.17738,0 0.32117,0.1438 0.32117,0.32118c0,0.17737 -0.14379,0.32117 -0.32117,0.32117c-0.17738,0 -0.32118,-0.14379 -0.32118,-0.32117z" fill="#ffa3cf" stroke="none" stroke-width="0.5" stroke-linecap="butt"/><path d="M243.16501,126.08058c0,-0.17737 0.1438,-0.32117 0.32118,-0.32117c0.17738,0 0.32117,0.14379 0.32117,0.32117c0,0.17737 -0.14379,0.32118 -0.32117,0.32118c-0.17738,0 -0.32118,-0.1438 -0.32118,-0.32118z" fill="#ffa3cf" stroke="none" stroke-width="0.5" stroke-linecap="butt"/><path d="M244.17858,127.79097c0,-0.17737 0.14379,-0.32117 0.32117,-0.32117c0.17738,0 0.32118,0.1438 0.32118,0.32117c0,0.17737 -0.1438,0.32117 -0.32118,0.32117c-0.17738,0 -0.32117,-0.14379 -0.32117,-0.32117z" fill="#ffa3cf" stroke="none" stroke-width="0.5" stroke-linecap="butt"/><path d="M247.15592,119.99919c0,-0.17737 0.14379,-0.32117 0.32117,-0.32117c0.17738,0 0.32118,0.1438 0.32118,0.32117c0,0.17737 -0.1438,0.32117 -0.32118,0.32117c-0.17738,0 -0.32117,-0.14379 -0.32117,-0.32117z" fill="#ffa3cf" stroke="none" stroke-width="0.5" stroke-linecap="butt"/><path d="M246.02073,124.06626c0,0.35713 -0.51113,0.64664 -1.14164,0.64664c-0.63052,0 -1.14165,-0.28951 -1.14165,-0.64664c0,-0.35713 0.51114,-0.64665 1.14165,-0.64665c0.63052,0 1.14164,0.28952 1.14164,0.64665z" fill="#000000" stroke="none" stroke-width="NaN" stroke-linecap="butt"/><path d="M246.00466,125.5692c0,0.13993 -0.41711,0.33962 -0.91207,0.33962c-0.49497,0 -0.91208,-0.18891 -0.91208,-0.32884c0,-0.13993 0.40125,-0.25336 0.89622,-0.25336c0.49497,0 0.92793,0.10265 0.92793,0.24258z" fill="#fb9a9a" stroke="none" stroke-width="0" stroke-linecap="butt"/><path d="M215.75211,131.60167c-0.00728,-0.37376 0.28983,-0.68266 0.6636,-0.68994c0.37376,-0.00728 0.68267,0.28984 0.68995,0.6636c0.00728,0.37376 -0.28984,0.68266 -0.6636,0.68994c-0.37376,0.00728 -0.68266,-0.28984 -0.68994,-0.6636z" fill="#ffa3cf" stroke="none" stroke-width="0.5" stroke-linecap="butt"/><path d="M218.23463,134.20104c0,-0.03656 0.00611,-0.07171 0.01737,-0.10446c-0.1928,-0.11605 -0.32352,-0.3256 -0.32823,-0.56719c-0.00728,-0.37376 0.28984,-0.68268 0.6636,-0.68994c0.37376,-0.00728 0.68267,0.28983 0.68995,0.66359c0.0055,0.28245 -0.16283,0.52787 -0.40671,0.63406c0.00418,0.02067 0.00636,0.04205 0.00636,0.06394c0,0.17738 -0.1438,0.32117 -0.32118,0.32117c-0.17738,0 -0.32117,-0.14379 -0.32117,-0.32117z" fill="#ffa3cf" stroke="none" stroke-width="0.5" stroke-linecap="butt"/><path d="M213.20642,131.93266c-0.05541,-2.84723 2.20781,-5.2003 5.05505,-5.25571c2.84723,-0.05541 5.20028,2.20781 5.2557,5.05505c0.05541,2.84723 -2.29578,7.74628 -5.14301,7.8017c-2.84723,0.05541 -5.11231,-4.7538 -5.16772,-7.60103z" fill="#ffa3a3" stroke="#000000" stroke-width="2" stroke-linecap="butt"/><path d="M220.39512,125.78711l0.48406,0.39663l0.49001,0.53852c0.09037,0.09828 0.14659,0.22867 0.14939,0.37265c0.00609,0.31312 -0.24281,0.57189 -0.55594,0.578c-0.03578,0.00069 -0.07084,-0.00192 -0.10489,-0.0076c-0.10127,0.13349 -0.26046,0.22101 -0.441,0.22452c-0.0651,0.00127 -0.12788,-0.00849 -0.18651,-0.02756c0.06393,0.7568 -0.73623,0.99792 -1.5787,1.00616c-0.13953,0.02327 -0.28155,0.03764 -0.42466,0.0435l-0.00097,0.18933l-0.57913,-0.00297c-0.04982,-0.00008 -0.09818,-0.00662 -0.14427,-0.01882l-0.00456,0.02262l-0.61037,-0.12322c-0.26044,-0.04698 -0.46034,-0.27228 -0.46569,-0.54703c-0.00315,-0.16209 0.06202,-0.3096 0.16905,-0.41506l-0.34314,-0.1549c-0.19925,-0.08479 -0.34069,-0.2805 -0.34516,-0.51101c-0.00415,-0.21377 0.11054,-0.40222 0.28337,-0.50221c-0.08337,-0.14638 -0.18614,-0.44125 0.12036,-0.70693c0.1859,-0.16115 0.36106,-0.17173 0.49981,-0.13205c0.05947,-0.24392 0.27708,-0.42712 0.53995,-0.43223l0.61864,-0.01203l0.00018,0.00944l0.03119,-0.00918c0.01,0.00552 0.01998,0.01104 0.02997,0.01654l0.00133,-0.01456l0.61317,0.05607c0.12765,0.00996 0.24375,0.06236 0.3339,0.14329l0.22741,-0.17757c0.0941,-0.07513 0.21279,-0.12102 0.34248,-0.12355c0.17159,-0.00333 0.32686,0.06991 0.43317,0.18832c0.22928,-0.01789 0.41752,0.13288 0.41752,0.13288z" fill="#a3ffa7" stroke="none" stroke-width="0.5" stroke-linecap="butt"/><path d="M215.55774,129.96148c-0.00609,-0.31313 0.24281,-0.57191 0.55593,-0.578c0.31313,-0.00609 0.57191,0.24282 0.578,0.55594c0.00609,0.31313 -0.24282,0.57191 -0.55594,0.578c-0.31313,0.00609 -0.57191,-0.24281 -0.578,-0.55594z" fill="#ffa3cf" stroke="none" stroke-width="0.5" stroke-linecap="butt"/><path d="M217.02667,131.23942c-0.00609,-0.31313 0.2428,-0.57191 0.55594,-0.578c0.31313,-0.00609 0.5719,0.24281 0.578,0.55593c0.00609,0.31313 -0.24281,0.57191 -0.55594,0.578c-0.31313,0.00609 -0.57191,-0.24281 -0.578,-0.55593z" fill="#ffa3cf" stroke="none" stroke-width="0.5" stroke-linecap="butt"/><path d="M214.44332,132.76563c-0.00609,-0.31313 0.24281,-0.5719 0.55593,-0.578c0.31313,-0.00609 0.57191,0.2428 0.578,0.55594c0.00609,0.31313 -0.24281,0.5719 -0.55593,0.578c-0.31313,0.00609 -0.57191,-0.2428 -0.578,-0.55594z" fill="#ffa3cf" stroke="none" stroke-width="0.5" stroke-linecap="butt"/><path d="M218.44073,129.6991c-0.00609,-0.31313 0.24282,-0.57191 0.55594,-0.578c0.31313,-0.00609 0.57191,0.2428 0.578,0.55593c0.00609,0.31313 -0.24282,0.57191 -0.55594,0.578c-0.31313,0.00609 -0.57191,-0.24281 -0.578,-0.55593z" fill="#ffa3cf" stroke="none" stroke-width="0.5" stroke-linecap="butt"/><path d="M218.50022,132.75544c-0.00609,-0.31313 0.24281,-0.57191 0.55594,-0.578c0.31313,-0.00609 0.57191,0.24282 0.578,0.55594c0.00609,0.31313 -0.2428,0.57191 -0.55594,0.578c-0.31313,0.00609 -0.57191,-0.24281 -0.578,-0.55594z" fill="#ffa3cf" stroke="none" stroke-width="0.5" stroke-linecap="butt"/><path d="M220.47026,131.51623c-0.00609,-0.31313 0.24281,-0.57191 0.55594,-0.578c0.31313,-0.00609 0.57191,0.24282 0.578,0.55594c0.00609,0.31313 -0.24282,0.57191 -0.55594,0.578c-0.31313,0.00609 -0.57191,-0.24282 -0.578,-0.55594z" fill="#ffa3cf" stroke="none" stroke-width="0.5" stroke-linecap="butt"/><path d="M219.27373,133.63432c-0.00609,-0.31313 0.24281,-0.57191 0.55594,-0.578c0.31313,-0.00609 0.5719,0.24281 0.578,0.55594c0.00609,0.31313 -0.24282,0.57191 -0.55594,0.578c-0.31313,0.00609 -0.5719,-0.24281 -0.578,-0.55594z" fill="#ffa3cf" stroke="none" stroke-width="0.5" stroke-linecap="butt"/><path d="M220.25212,134.44044c-0.00609,-0.31313 0.24282,-0.57191 0.55594,-0.578c0.31313,-0.00609 0.5719,0.24281 0.578,0.55594c0.00609,0.31313 -0.24282,0.57191 -0.55594,0.578c-0.31313,0.00609 -0.5719,-0.24281 -0.578,-0.55594z" fill="#ffa3cf" stroke="none" stroke-width="0.5" stroke-linecap="butt"/><path d="M216.33994,130.37596c0.61172,-0.0119 1.11726,0.47434 1.12917,1.08606c0.0119,0.61172 -0.47434,1.11726 -1.08606,1.12917c-0.61172,0.0119 -1.11727,-0.47434 -1.12918,-1.08606c-0.0119,-0.61172 0.47434,-1.11725 1.08606,-1.12916z" data-paper-data="{&quot;index&quot;:null}" fill="#000000" stroke="none" stroke-width="0" stroke-linecap="butt"/><path d="M216.73278,130.77271c0.21666,-0.00421 0.39571,0.16801 0.39992,0.38466c0.00421,0.21664 -0.16801,0.39571 -0.38466,0.39992c-0.21666,0.00421 -0.3957,-0.16801 -0.39992,-0.38466c-0.00421,-0.21666 0.16801,-0.39571 0.38465,-0.39992z" data-paper-data="{&quot;index&quot;:null}" fill="#ffffff" stroke="none" stroke-width="0" stroke-linecap="butt"/><path d="M216.21942,131.60736c0.12036,-0.00234 0.21984,0.09334 0.22218,0.2137c0.00234,0.12036 -0.09334,0.21984 -0.2137,0.22217c-0.12036,0.00234 -0.21984,-0.09334 -0.22217,-0.21369c-0.00234,-0.12036 0.09334,-0.21984 0.21369,-0.22218z" data-paper-data="{&quot;index&quot;:null}" fill="#ffffff" stroke="none" stroke-width="0" stroke-linecap="butt"/><path d="M221.69845,131.41687c0.0119,0.61172 -0.47434,1.11726 -1.08606,1.12917c-0.61172,0.0119 -1.11726,-0.47434 -1.12917,-1.08606c-0.0119,-0.61172 0.47434,-1.11725 1.08606,-1.12916c0.61172,-0.0119 1.11726,0.47434 1.12917,1.08606z" data-paper-data="{&quot;index&quot;:null}" fill="#000000" stroke="none" stroke-width="0" stroke-linecap="butt"/><path d="M220.59211,131.12722c0.00421,0.21666 -0.168,0.3957 -0.38465,0.39992c-0.21666,0.00421 -0.39571,-0.16801 -0.39993,-0.38466c-0.00421,-0.21666 0.168,-0.3957 0.38465,-0.39992c0.21666,-0.00421 0.39571,0.16799 0.39992,0.38465z" data-paper-data="{&quot;index&quot;:null}" fill="#ffffff" stroke="none" stroke-width="0" stroke-linecap="butt"/><path d="M220.9598,131.77029c0.00235,0.12035 -0.09333,0.21984 -0.2137,0.22219c-0.12035,0.00235 -0.21984,-0.09333 -0.22218,-0.2137c-0.00235,-0.12035 0.09334,-0.21984 0.21371,-0.22218c0.12035,-0.00235 0.21984,0.09333 0.22218,0.2137z" data-paper-data="{&quot;index&quot;:null}" fill="#ffffff" stroke="none" stroke-width="0" stroke-linecap="butt"/><path d="M215.89076,133.75761c0,-0.17738 0.14379,-0.32118 0.32117,-0.32118c0.17738,0 0.32117,0.1438 0.32117,0.32118c0,0.17738 -0.1438,0.32117 -0.32117,0.32117c-0.17738,0 -0.32117,-0.14379 -0.32117,-0.32117z" fill="#ffa3cf" stroke="none" stroke-width="0.5" stroke-linecap="butt"/><path d="M214.94054,135.5947c0,-0.17738 0.14379,-0.32118 0.32117,-0.32118c0.17738,0 0.32118,0.1438 0.32118,0.32118c0,0.17738 -0.1438,0.32117 -0.32118,0.32117c-0.17738,0 -0.32117,-0.14379 -0.32117,-0.32117z" fill="#ffa3cf" stroke="none" stroke-width="0.5" stroke-linecap="butt"/><path d="M218.04458,136.73496c0,-0.17738 0.14379,-0.32118 0.32117,-0.32118c0.17738,0 0.32118,0.1438 0.32118,0.32118c0,0.17738 -0.1438,0.32117 -0.32118,0.32117c-0.17738,0 -0.32117,-0.14379 -0.32117,-0.32117z" fill="#ffa3cf" stroke="none" stroke-width="0.5" stroke-linecap="butt"/><path d="M220.07171,136.16483c0,-0.17738 0.1438,-0.32118 0.32117,-0.32118c0.17738,0 0.32117,0.1438 0.32117,0.32118c0,0.17738 -0.1438,0.32117 -0.32117,0.32117c-0.17738,0 -0.32117,-0.14379 -0.32117,-0.32117z" fill="#ffa3cf" stroke="none" stroke-width="0.5" stroke-linecap="butt"/><path d="M216.65093,135.65804c0,-0.17738 0.1438,-0.32117 0.32118,-0.32117c0.17738,0 0.32117,0.14379 0.32117,0.32117c0,0.17738 -0.14379,0.32118 -0.32117,0.32118c-0.17738,0 -0.32118,-0.1438 -0.32118,-0.32118z" fill="#ffa3cf" stroke="none" stroke-width="0.5" stroke-linecap="butt"/><path d="M217.6645,137.36843c0,-0.17738 0.14379,-0.32117 0.32117,-0.32117c0.17738,0 0.32117,0.1438 0.32117,0.32117c0,0.17738 -0.1438,0.32117 -0.32117,0.32117c-0.17738,0 -0.32117,-0.1438 -0.32117,-0.32117z" fill="#ffa3cf" stroke="none" stroke-width="0.5" stroke-linecap="butt"/><path d="M220.64184,129.57665c0,-0.17738 0.14379,-0.32117 0.32117,-0.32117c0.17738,0 0.32117,0.1438 0.32117,0.32117c0,0.17738 -0.1438,0.32117 -0.32117,0.32117c-0.17738,0 -0.32117,-0.1438 -0.32117,-0.32117z" fill="#ffa3cf" stroke="none" stroke-width="0.5" stroke-linecap="butt"/><path d="M219.50664,133.64372c0,0.35713 -0.51113,0.64664 -1.14165,0.64664c-0.63052,0 -1.14165,-0.28951 -1.14165,-0.64664c0,-0.35713 0.51113,-0.64664 1.14165,-0.64664c0.63052,0 1.14165,0.28951 1.14165,0.64664z" fill="#000000" stroke="none" stroke-width="NaN" stroke-linecap="butt"/><path d="M219.49058,135.14667c0,0.13993 -0.41711,0.33962 -0.91208,0.33962c-0.49497,0 -0.91207,-0.18891 -0.91207,-0.32883c0,-0.13993 0.40125,-0.25337 0.89622,-0.25337c0.49497,0 0.92793,0.10265 0.92793,0.24258z" fill="#fb9a9a" stroke="none" stroke-width="0" stroke-linecap="butt"/><path d="M240.62931,137.45647c0.16232,-0.33676 0.56691,-0.47817 0.90367,-0.31585c0.33676,0.16232 0.47817,0.56692 0.31585,0.90368c-0.16232,0.33676 -0.56691,0.47816 -0.90367,0.31585c-0.33676,-0.16232 -0.47817,-0.56691 -0.31585,-0.90367z" fill="#ffa3cf" stroke="none" stroke-width="0.5" stroke-linecap="butt"/><path d="M241.67019,140.89685c0.01651,-0.03262 0.03784,-0.06122 0.06268,-0.08535c-0.11961,-0.19062 -0.14158,-0.43662 -0.03666,-0.65429c0.16232,-0.33676 0.56692,-0.47817 0.90367,-0.31585c0.33676,0.16232 0.47817,0.56691 0.31585,0.90367c-0.12267,0.25449 -0.38369,0.39742 -0.64924,0.38202c-0.00561,0.02033 -0.01331,0.04038 -0.0232,0.05991c-0.08011,0.15825 -0.27336,0.2216 -0.43161,0.14149c-0.15825,-0.08011 -0.2216,-0.27335 -0.14149,-0.4316z" fill="#ffa3cf" stroke="none" stroke-width="0.5" stroke-linecap="butt"/><path d="M238.20857,136.60202c1.23651,-2.5653 4.31852,-3.64253 6.88383,-2.406c2.5653,1.23651 3.64251,4.31851 2.406,6.88383c-1.23651,2.5653 -5.5469,5.8743 -8.11221,4.63779c-2.5653,-1.23651 -2.41412,-6.5503 -1.17761,-9.11561z" fill="#ffa3a3" stroke="#000000" stroke-width="2" stroke-linecap="butt"/><path d="M247.39793,134.36578l0.25274,0.57249l0.19397,0.70177c0.03625,0.1285 0.0275,0.27023 -0.03503,0.39996c-0.136,0.28212 -0.47493,0.40058 -0.75705,0.2646c-0.03223,-0.01554 -0.06234,-0.0337 -0.09015,-0.05416c-0.15064,0.07336 -0.33221,0.07955 -0.49487,0.00114c-0.05866,-0.02827 -0.11026,-0.06533 -0.15395,-0.10883c-0.28477,0.70408 -1.10757,0.55782 -1.86293,0.18467c-0.135,-0.04226 -0.2682,-0.09358 -0.39853,-0.15299l-0.08638,0.16849l-0.51535,-0.26421c-0.04441,-0.02257 -0.08461,-0.05025 -0.12022,-0.08195l-0.01429,0.01812l-0.48891,-0.3856c-0.21114,-0.15955 -0.28773,-0.45084 -0.16842,-0.69839c0.07039,-0.14604 0.19516,-0.24821 0.33828,-0.29395l-0.23619,-0.29318c-0.13947,-0.16565 -0.17727,-0.40413 -0.07715,-0.61181c0.09285,-0.1926 0.28029,-0.30893 0.47964,-0.32009c-0.00827,-0.16825 0.03321,-0.47776 0.42666,-0.57636c0.23864,-0.05981 0.3997,0.00986 0.50557,0.10792c0.16323,-0.19076 0.44012,-0.25592 0.67696,-0.14176l0.55738,0.26867l-0.00411,0.00851l0.03198,0.0059c0.00643,0.00944 0.01284,0.01887 0.01926,0.02829l0.00777,-0.01238l0.52174,0.32697c0.10939,0.06654 0.18931,0.16573 0.23319,0.27865l0.28309,-0.05572c0.11789,-0.02453 0.24451,-0.01187 0.36136,0.04445c0.1546,0.07453 0.26005,0.21 0.30142,0.36366c0.21264,0.08759 0.31249,0.30713 0.31249,0.30713z" fill="#a3ffa7" stroke="none" stroke-width="0.5" stroke-linecap="butt"/><path d="M241.19669,135.90532c0.136,-0.28212 0.47494,-0.40059 0.75706,-0.2646c0.28212,0.136 0.40059,0.47494 0.26461,0.75706c-0.136,0.28212 -0.47495,0.40059 -0.75706,0.2646c-0.28212,-0.136 -0.4006,-0.47494 -0.2646,-0.75706z" fill="#ffa3cf" stroke="none" stroke-width="0.5" stroke-linecap="butt"/><path d="M241.93008,137.70893c0.136,-0.28212 0.47492,-0.40059 0.75705,-0.2646c0.28212,0.136 0.40058,0.47493 0.26461,0.75705c-0.136,0.28212 -0.47494,0.4006 -0.75706,0.2646c-0.28212,-0.136 -0.40058,-0.47494 -0.2646,-0.75705z" fill="#ffa3cf" stroke="none" stroke-width="0.5" stroke-linecap="butt"/><path d="M238.93591,137.90383c0.136,-0.28212 0.47493,-0.40058 0.75706,-0.2646c0.28212,0.136 0.40059,0.47493 0.2646,0.75706c-0.136,0.28212 -0.47493,0.40058 -0.75706,0.2646c-0.28212,-0.136 -0.40059,-0.47493 -0.2646,-0.75706z" fill="#ffa3cf" stroke="none" stroke-width="0.5" stroke-linecap="butt"/><path d="M243.88739,136.97332c0.136,-0.28212 0.47494,-0.40059 0.75706,-0.2646c0.28212,0.136 0.4006,0.47493 0.2646,0.75705c-0.136,0.28212 -0.47494,0.40059 -0.75706,0.2646c-0.28212,-0.136 -0.40059,-0.47494 -0.2646,-0.75705z" fill="#ffa3cf" stroke="none" stroke-width="0.5" stroke-linecap="butt"/><path d="M242.56006,139.72704c0.136,-0.28212 0.47494,-0.4006 0.75706,-0.2646c0.28212,0.136 0.40059,0.47495 0.2646,0.75706c-0.136,0.28212 -0.47493,0.40059 -0.75706,0.2646c-0.28212,-0.136 -0.4006,-0.47494 -0.2646,-0.75706z" fill="#ffa3cf" stroke="none" stroke-width="0.5" stroke-linecap="butt"/><path d="M244.87742,139.51119c0.136,-0.28212 0.47493,-0.40059 0.75705,-0.2646c0.28212,0.136 0.40059,0.47494 0.2646,0.75706c-0.136,0.28212 -0.47494,0.40059 -0.75705,0.2646c-0.28212,-0.136 -0.40059,-0.47495 -0.2646,-0.75706z" fill="#ffa3cf" stroke="none" stroke-width="0.5" stroke-linecap="butt"/><path d="M242.85324,140.86054c0.136,-0.28212 0.47493,-0.4006 0.75705,-0.2646c0.28212,0.136 0.40058,0.47493 0.26461,0.75706c-0.136,0.28212 -0.47494,0.40059 -0.75706,0.2646c-0.28212,-0.136 -0.40058,-0.47493 -0.2646,-0.75706z" fill="#ffa3cf" stroke="none" stroke-width="0.5" stroke-linecap="butt"/><path d="M243.36206,142.02164c0.136,-0.28212 0.47494,-0.40059 0.75706,-0.2646c0.28212,0.136 0.40058,0.47493 0.2646,0.75706c-0.136,0.28212 -0.47494,0.40059 -0.75706,0.2646c-0.28212,-0.136 -0.40058,-0.47493 -0.2646,-0.75706z" fill="#ffa3cf" stroke="none" stroke-width="0.5" stroke-linecap="butt"/><path d="M241.70736,136.62839c0.55114,0.26567 0.78258,0.92782 0.51692,1.47897c-0.26567,0.55114 -0.92781,0.78258 -1.47897,0.51692c-0.55114,-0.26567 -0.78258,-0.92782 -0.51692,-1.47897c0.26567,-0.55114 0.92782,-0.78257 1.47896,-0.51691z" data-paper-data="{&quot;index&quot;:null}" fill="#000000" stroke="none" stroke-width="0" stroke-linecap="butt"/><path d="M241.87866,137.1598c0.1952,0.0941 0.27717,0.32862 0.18308,0.52382c-0.09409,0.1952 -0.32862,0.27716 -0.52382,0.18308c-0.1952,-0.0941 -0.27716,-0.32861 -0.18308,-0.52381c0.0941,-0.1952 0.32861,-0.27717 0.52381,-0.18308z" data-paper-data="{&quot;index&quot;:null}" fill="#ffffff" stroke="none" stroke-width="0" stroke-linecap="butt"/><path d="M241.04368,137.67261c0.10845,0.05227 0.15399,0.18258 0.10171,0.29101c-0.05227,0.10845 -0.18257,0.15398 -0.291,0.10171c-0.10845,-0.05227 -0.15399,-0.18257 -0.10171,-0.291c0.05227,-0.10845 0.18257,-0.15399 0.291,-0.10172z" data-paper-data="{&quot;index&quot;:null}" fill="#ffffff" stroke="none" stroke-width="0" stroke-linecap="butt"/><path d="M246.01807,139.97726c-0.26567,0.55114 -0.92782,0.78258 -1.47897,0.51692c-0.55114,-0.26567 -0.78257,-0.92782 -0.51691,-1.47897c0.26567,-0.55114 0.92781,-0.78257 1.47895,-0.51691c0.55114,0.26567 0.78259,0.92781 0.51693,1.47897z" data-paper-data="{&quot;index&quot;:null}" fill="#000000" stroke="none" stroke-width="0" stroke-linecap="butt"/><path d="M245.16183,139.21916c-0.0941,0.1952 -0.32861,0.27716 -0.52381,0.18308c-0.1952,-0.0941 -0.27716,-0.32862 -0.18308,-0.52382c0.0941,-0.1952 0.32861,-0.27716 0.52381,-0.18308c0.1952,0.0941 0.27717,0.32861 0.18308,0.52381z" data-paper-data="{&quot;index&quot;:null}" fill="#ffffff" stroke="none" stroke-width="0" stroke-linecap="butt"/><path d="M245.19943,139.95898c-0.05226,0.10844 -0.18256,0.15399 -0.29102,0.10171c-0.10844,-0.05226 -0.15399,-0.18256 -0.10171,-0.29101c0.05226,-0.10844 0.18257,-0.15399 0.29102,-0.10171c0.10844,0.05226 0.15399,0.18256 0.10172,0.29101z" data-paper-data="{&quot;index&quot;:null}" fill="#ffffff" stroke="none" stroke-width="0" stroke-linecap="butt"/><path d="M239.77928,139.44261c0.08011,-0.15825 0.27335,-0.2216 0.4316,-0.14149c0.15825,0.08011 0.2216,0.27336 0.14149,0.43161c-0.08011,0.15825 -0.27335,0.22159 -0.4316,0.14148c-0.15825,-0.08011 -0.2216,-0.27335 -0.14149,-0.4316z" fill="#ffa3cf" stroke="none" stroke-width="0.5" stroke-linecap="butt"/><path d="M238.10178,140.65249c0.08011,-0.15825 0.27335,-0.22161 0.43161,-0.1415c0.15825,0.08011 0.2216,0.27336 0.14149,0.43161c-0.08011,0.15825 -0.27336,0.2216 -0.43161,0.14149c-0.15825,-0.08011 -0.2216,-0.27335 -0.14149,-0.4316z" fill="#ffa3cf" stroke="none" stroke-width="0.5" stroke-linecap="butt"/><path d="M240.35619,143.07176c0.08011,-0.15825 0.27335,-0.2216 0.43161,-0.14149c0.15825,0.08011 0.2216,0.27335 0.14149,0.4316c-0.08011,0.15825 -0.27336,0.2216 -0.43161,0.14149c-0.15825,-0.08011 -0.2216,-0.27335 -0.14149,-0.4316z" fill="#ffa3cf" stroke="none" stroke-width="0.5" stroke-linecap="butt"/><path d="M242.42228,143.47865c0.08011,-0.15825 0.27336,-0.2216 0.43161,-0.14149c0.15825,0.08011 0.2216,0.27335 0.14149,0.4316c-0.08011,0.15825 -0.27335,0.2216 -0.43161,0.14149c-0.15825,-0.08011 -0.2216,-0.27335 -0.14149,-0.4316z" fill="#ffa3cf" stroke="none" stroke-width="0.5" stroke-linecap="butt"/><path d="M239.59917,141.4815c0.08011,-0.15825 0.27335,-0.2216 0.4316,-0.14149c0.15825,0.08011 0.2216,0.27335 0.14149,0.4316c-0.08011,0.15825 -0.27335,0.2216 -0.43161,0.14149c-0.15825,-0.08011 -0.2216,-0.27335 -0.14149,-0.43161z" fill="#ffa3cf" stroke="none" stroke-width="0.5" stroke-linecap="butt"/><path d="M239.73097,143.46528c0.08011,-0.15825 0.27335,-0.22161 0.4316,-0.1415c0.15825,0.08011 0.2216,0.27336 0.14149,0.43161c-0.08011,0.15825 -0.27336,0.2216 -0.43161,0.14149c-0.15825,-0.08011 -0.2216,-0.27335 -0.14149,-0.4316z" fill="#ffa3cf" stroke="none" stroke-width="0.5" stroke-linecap="butt"/><path d="M245.9065,137.85822c0.08011,-0.15825 0.27335,-0.2216 0.43161,-0.14149c0.15825,0.08011 0.2216,0.27335 0.14149,0.43161c-0.08011,0.15825 -0.27335,0.2216 -0.4316,0.14149c-0.15825,-0.08011 -0.2216,-0.27335 -0.14149,-0.4316z" fill="#ffa3cf" stroke="none" stroke-width="0.5" stroke-linecap="butt"/><path d="M243.05679,140.97412c-0.1613,0.31863 -0.74809,0.34608 -1.31063,0.06131c-0.56254,-0.28477 -0.88782,-0.77392 -0.72652,-1.09256c0.1613,-0.31863 0.74809,-0.34608 1.31063,-0.06131c0.56254,0.28477 0.88782,0.77392 0.72652,1.09256z" fill="#000000" stroke="none" stroke-width="NaN" stroke-linecap="butt"/><path d="M242.36365,142.30778c-0.0632,0.12484 -0.52553,0.11462 -0.96714,-0.10893c-0.44161,-0.22355 -0.72843,-0.58048 -0.66523,-0.70532c0.0632,-0.12484 0.47242,-0.04483 0.91403,0.17872c0.44161,0.22355 0.78153,0.51069 0.71833,0.63553z" fill="#fb9a9a" stroke="none" stroke-width="0" stroke-linecap="butt"/><path d="M248.79833,107.2452c0.16232,-0.33676 0.56691,-0.47817 0.90367,-0.31585c0.33676,0.16232 0.47817,0.56692 0.31585,0.90368c-0.16232,0.33676 -0.56691,0.47817 -0.90367,0.31585c-0.33676,-0.16232 -0.47817,-0.56692 -0.31585,-0.90368z" fill="#ffa3cf" stroke="none" stroke-width="0.5" stroke-linecap="butt"/><path d="M249.83921,110.68558c0.01651,-0.03262 0.03784,-0.06122 0.06268,-0.08535c-0.11961,-0.19061 -0.14158,-0.43662 -0.03666,-0.65429c0.16232,-0.33676 0.56692,-0.47817 0.90367,-0.31585c0.33676,0.16232 0.47817,0.56691 0.31585,0.90367c-0.12267,0.25449 -0.38369,0.39742 -0.64924,0.38202c-0.00561,0.02032 -0.01331,0.04039 -0.02319,0.05992c-0.08011,0.15825 -0.27336,0.2216 -0.43161,0.14149c-0.15825,-0.08011 -0.2216,-0.27335 -0.14149,-0.4316z" fill="#ffa3cf" stroke="none" stroke-width="0.5" stroke-linecap="butt"/><path d="M246.37759,106.39075c1.23651,-2.5653 4.31852,-3.64252 6.88383,-2.406c2.5653,1.23651 3.64251,4.31851 2.406,6.88383c-1.23651,2.5653 -5.5469,5.8743 -8.11221,4.63779c-2.5653,-1.23651 -2.41412,-6.5503 -1.17761,-9.11561z" fill="#ffa3a3" stroke="#000000" stroke-width="2" stroke-linecap="butt"/><path d="M255.56695,104.15451l0.25274,0.5725l0.19397,0.70177c0.03625,0.12851 0.0275,0.27022 -0.03503,0.39995c-0.136,0.28212 -0.47493,0.40058 -0.75705,0.2646c-0.03223,-0.01554 -0.06234,-0.0337 -0.09015,-0.05416c-0.15064,0.07336 -0.33221,0.07955 -0.49487,0.00114c-0.05866,-0.02827 -0.11026,-0.06533 -0.15395,-0.10883c-0.28477,0.70409 -1.10757,0.55782 -1.86293,0.18467c-0.135,-0.04226 -0.2682,-0.09359 -0.39853,-0.15299l-0.08638,0.16849l-0.51535,-0.26421c-0.04441,-0.02258 -0.08461,-0.05025 -0.12022,-0.08195l-0.01429,0.01812l-0.48892,-0.3856c-0.21114,-0.15954 -0.28773,-0.45084 -0.16841,-0.69839c0.07039,-0.14604 0.19516,-0.24821 0.33828,-0.29396l-0.23619,-0.29318c-0.13947,-0.16564 -0.17727,-0.40413 -0.07715,-0.61181c0.09285,-0.19261 0.28029,-0.30893 0.47964,-0.32009c-0.00827,-0.16825 0.03321,-0.47775 0.42666,-0.57636c0.23864,-0.05982 0.3997,0.00986 0.50557,0.10792c0.16323,-0.19076 0.44012,-0.25593 0.67696,-0.14177l0.55738,0.26867l-0.00411,0.0085l0.03198,0.0059c0.00643,0.00944 0.01284,0.01887 0.01926,0.02829l0.00777,-0.01239l0.52174,0.32697c0.10939,0.06655 0.18931,0.16572 0.23319,0.27864l0.28309,-0.05572c0.11789,-0.02453 0.24451,-0.01187 0.36135,0.04445c0.1546,0.07453 0.26005,0.21 0.30142,0.36366c0.21264,0.08759 0.31249,0.30713 0.31249,0.30713z" fill="#a3ffa7" stroke="none" stroke-width="0.5" stroke-linecap="butt"/><path d="M249.36571,105.69405c0.136,-0.28212 0.47494,-0.40059 0.75706,-0.26461c0.28212,0.13599 0.40059,0.47494 0.26461,0.75706c-0.136,0.28212 -0.47495,0.40059 -0.75706,0.2646c-0.28212,-0.13599 -0.4006,-0.47493 -0.2646,-0.75705z" fill="#ffa3cf" stroke="none" stroke-width="0.5" stroke-linecap="butt"/><path d="M250.09909,107.49766c0.136,-0.28212 0.47493,-0.40059 0.75706,-0.2646c0.28212,0.13599 0.40058,0.47493 0.26461,0.75706c-0.136,0.28212 -0.47494,0.40059 -0.75706,0.2646c-0.28212,-0.13599 -0.40059,-0.47494 -0.2646,-0.75706z" fill="#ffa3cf" stroke="none" stroke-width="0.5" stroke-linecap="butt"/><path d="M247.10493,107.69256c0.136,-0.28212 0.47493,-0.40058 0.75706,-0.2646c0.28212,0.13599 0.40059,0.47493 0.2646,0.75706c-0.136,0.28212 -0.47493,0.40058 -0.75705,0.2646c-0.28212,-0.13599 -0.40059,-0.47493 -0.2646,-0.75706z" fill="#ffa3cf" stroke="none" stroke-width="0.5" stroke-linecap="butt"/><path d="M252.0564,106.76206c0.136,-0.28212 0.47494,-0.40059 0.75706,-0.2646c0.28212,0.13599 0.4006,0.47493 0.2646,0.75705c-0.136,0.28212 -0.47494,0.40059 -0.75706,0.2646c-0.28212,-0.13599 -0.40059,-0.47493 -0.2646,-0.75705z" fill="#ffa3cf" stroke="none" stroke-width="0.5" stroke-linecap="butt"/><path d="M250.72908,109.51577c0.136,-0.28212 0.47494,-0.40059 0.75706,-0.2646c0.28212,0.13599 0.40059,0.47494 0.2646,0.75706c-0.136,0.28212 -0.47493,0.40059 -0.75706,0.2646c-0.28212,-0.13599 -0.4006,-0.47494 -0.2646,-0.75706z" fill="#ffa3cf" stroke="none" stroke-width="0.5" stroke-linecap="butt"/><path d="M253.04643,109.29993c0.136,-0.28212 0.47493,-0.40059 0.75705,-0.2646c0.28212,0.13599 0.40059,0.47494 0.2646,0.75706c-0.136,0.28212 -0.47494,0.40059 -0.75705,0.2646c-0.28212,-0.13599 -0.40059,-0.47494 -0.2646,-0.75706z" fill="#ffa3cf" stroke="none" stroke-width="0.5" stroke-linecap="butt"/><path d="M251.02225,110.64927c0.136,-0.28212 0.47493,-0.40059 0.75705,-0.2646c0.28212,0.13599 0.40058,0.47494 0.26461,0.75706c-0.136,0.28212 -0.47494,0.40059 -0.75706,0.2646c-0.28212,-0.13599 -0.40058,-0.47494 -0.2646,-0.75706z" fill="#ffa3cf" stroke="none" stroke-width="0.5" stroke-linecap="butt"/><path d="M251.53108,111.81037c0.136,-0.28212 0.47494,-0.40059 0.75706,-0.2646c0.28212,0.13599 0.40058,0.47493 0.2646,0.75705c-0.136,0.28212 -0.47494,0.40059 -0.75706,0.26461c-0.28212,-0.13599 -0.40058,-0.47494 -0.2646,-0.75706z" fill="#ffa3cf" stroke="none" stroke-width="0.5" stroke-linecap="butt"/><path d="M249.87638,106.41712c0.55114,0.26567 0.78258,0.92782 0.51692,1.47897c-0.26567,0.55114 -0.92781,0.78258 -1.47897,0.51692c-0.55114,-0.26567 -0.78258,-0.92782 -0.51692,-1.47897c0.26567,-0.55114 0.92782,-0.78257 1.47896,-0.51691z" data-paper-data="{&quot;index&quot;:null}" fill="#000000" stroke="none" stroke-width="0" stroke-linecap="butt"/><path d="M250.04768,106.94853c0.1952,0.0941 0.27717,0.32862 0.18308,0.52381c-0.09409,0.19519 -0.32862,0.27716 -0.52382,0.18308c-0.1952,-0.0941 -0.27716,-0.32862 -0.18308,-0.52381c0.0941,-0.19521 0.32861,-0.27716 0.52381,-0.18308z" data-paper-data="{&quot;index&quot;:null}" fill="#ffffff" stroke="none" stroke-width="0" stroke-linecap="butt"/><path d="M249.21269,107.46134c0.10845,0.05227 0.15399,0.18257 0.10171,0.291c-0.05227,0.10845 -0.18257,0.15398 -0.291,0.1017c-0.10845,-0.05227 -0.15399,-0.18256 -0.10171,-0.29099c0.05227,-0.10845 0.18257,-0.15399 0.291,-0.10171z" data-paper-data="{&quot;index&quot;:null}" fill="#ffffff" stroke="none" stroke-width="0" stroke-linecap="butt"/><path d="M254.18708,109.766c-0.26567,0.55114 -0.92782,0.78257 -1.47897,0.51691c-0.55114,-0.26567 -0.78257,-0.92782 -0.51691,-1.47898c0.26567,-0.55114 0.92781,-0.78257 1.47895,-0.51691c0.55114,0.26567 0.78259,0.92782 0.51693,1.47897z" data-paper-data="{&quot;index&quot;:null}" fill="#000000" stroke="none" stroke-width="0" stroke-linecap="butt"/><path d="M253.33084,109.00789c-0.0941,0.19521 -0.32861,0.27716 -0.52381,0.18308c-0.1952,-0.0941 -0.27716,-0.32863 -0.18308,-0.52382c0.0941,-0.19521 0.32861,-0.27716 0.5238,-0.18308c0.1952,0.0941 0.27718,0.3286 0.18308,0.5238z" data-paper-data="{&quot;index&quot;:null}" fill="#ffffff" stroke="none" stroke-width="0" stroke-linecap="butt"/><path d="M253.36845,109.74771c-0.05226,0.10844 -0.18256,0.15399 -0.29102,0.10171c-0.10844,-0.05226 -0.15399,-0.18256 -0.10171,-0.29102c0.05226,-0.10844 0.18257,-0.15398 0.29102,-0.10171c0.10844,0.05226 0.15399,0.18256 0.10172,0.29102z" data-paper-data="{&quot;index&quot;:null}" fill="#ffffff" stroke="none" stroke-width="0" stroke-linecap="butt"/><path d="M247.9483,109.23135c0.08011,-0.15825 0.27335,-0.22161 0.4316,-0.1415c0.15825,0.08011 0.2216,0.27336 0.14149,0.43161c-0.08011,0.15825 -0.27335,0.22159 -0.4316,0.14148c-0.15825,-0.08011 -0.2216,-0.27334 -0.14149,-0.4316z" fill="#ffa3cf" stroke="none" stroke-width="0.5" stroke-linecap="butt"/><path d="M246.2708,110.44122c0.08011,-0.15825 0.27335,-0.22161 0.43161,-0.1415c0.15825,0.08011 0.2216,0.27336 0.14149,0.43161c-0.08011,0.15825 -0.27336,0.2216 -0.43161,0.14149c-0.15825,-0.08011 -0.2216,-0.27335 -0.14149,-0.43161z" fill="#ffa3cf" stroke="none" stroke-width="0.5" stroke-linecap="butt"/><path d="M248.52521,112.86049c0.08011,-0.15825 0.27335,-0.2216 0.4316,-0.14149c0.15825,0.08011 0.22161,0.27335 0.1415,0.43161c-0.08011,0.15825 -0.27336,0.2216 -0.43161,0.14149c-0.15825,-0.08011 -0.2216,-0.27335 -0.14149,-0.43161z" fill="#ffa3cf" stroke="none" stroke-width="0.5" stroke-linecap="butt"/><path d="M250.5913,113.26738c0.08011,-0.15825 0.27336,-0.2216 0.43161,-0.14149c0.15825,0.08011 0.2216,0.27335 0.14149,0.43161c-0.08011,0.15825 -0.27335,0.2216 -0.43161,0.14149c-0.15825,-0.08011 -0.2216,-0.27335 -0.14149,-0.43161z" fill="#ffa3cf" stroke="none" stroke-width="0.5" stroke-linecap="butt"/><path d="M247.76819,111.27023c0.08011,-0.15825 0.27335,-0.2216 0.4316,-0.14149c0.15825,0.08011 0.2216,0.27335 0.14149,0.43161c-0.08011,0.15825 -0.27335,0.22161 -0.43161,0.1415c-0.15825,-0.08011 -0.2216,-0.27336 -0.14149,-0.43161z" fill="#ffa3cf" stroke="none" stroke-width="0.5" stroke-linecap="butt"/><path d="M247.89999,113.25401c0.08011,-0.15825 0.27335,-0.2216 0.4316,-0.14149c0.15825,0.08011 0.2216,0.27335 0.14149,0.43161c-0.08011,0.15825 -0.27336,0.2216 -0.43161,0.14149c-0.15825,-0.08011 -0.2216,-0.27335 -0.14149,-0.4316z" fill="#ffa3cf" stroke="none" stroke-width="0.5" stroke-linecap="butt"/><path d="M254.07552,107.64695c0.08011,-0.15825 0.27335,-0.22161 0.43161,-0.1415c0.15825,0.08011 0.2216,0.27336 0.14149,0.43161c-0.08011,0.15825 -0.27335,0.2216 -0.4316,0.14149c-0.15825,-0.08011 -0.2216,-0.27335 -0.14149,-0.4316z" fill="#ffa3cf" stroke="none" stroke-width="0.5" stroke-linecap="butt"/><path d="M251.22581,110.76285c-0.1613,0.31863 -0.74809,0.34607 -1.31063,0.06131c-0.56254,-0.28477 -0.88782,-0.77393 -0.72652,-1.09256c0.1613,-0.31863 0.74809,-0.34607 1.31063,-0.06131c0.56254,0.28477 0.88782,0.77393 0.72652,1.09256z" fill="#000000" stroke="none" stroke-width="NaN" stroke-linecap="butt"/><path d="M250.53267,112.09651c-0.0632,0.12484 -0.52553,0.11462 -0.96714,-0.10893c-0.44161,-0.22355 -0.72843,-0.58048 -0.66523,-0.70532c0.0632,-0.12484 0.47242,-0.04483 0.91403,0.17873c0.44161,0.22355 0.78153,0.51068 0.71833,0.63553z" fill="#fb9a9a" stroke="none" stroke-width="0" stroke-linecap="butt"/><path d="M263.12931,134.4283c0.16231,-0.33676 0.56691,-0.47817 0.90367,-0.31585c0.33676,0.16232 0.47817,0.56692 0.31585,0.90368c-0.16231,0.33676 -0.56691,0.47817 -0.90367,0.31585c-0.33676,-0.16232 -0.47816,-0.56691 -0.31585,-0.90367z" fill="#ffa3cf" stroke="none" stroke-width="0.5" stroke-linecap="butt"/><path d="M264.17019,137.86868c0.01652,-0.03262 0.03783,-0.06122 0.06267,-0.08535c-0.1196,-0.19062 -0.14158,-0.43662 -0.03666,-0.65429c0.16231,-0.33676 0.56693,-0.47818 0.90368,-0.31585c0.33676,0.16232 0.47816,0.56691 0.31585,0.90367c-0.12266,0.25449 -0.38369,0.39742 -0.64924,0.38202c-0.00561,0.02033 -0.01331,0.04038 -0.02319,0.05991c-0.08011,0.15825 -0.27336,0.22159 -0.43161,0.14148c-0.15825,-0.08011 -0.2216,-0.27334 -0.14149,-0.4316z" fill="#ffa3cf" stroke="none" stroke-width="0.5" stroke-linecap="butt"/><path d="M260.70857,133.57385c1.23651,-2.5653 4.31852,-3.64253 6.88383,-2.406c2.56531,1.23651 3.6425,4.31851 2.406,6.88383c-1.23651,2.5653 -5.5469,5.8743 -8.11221,4.63779c-2.56531,-1.23651 -2.41412,-6.5503 -1.17761,-9.11561z" fill="#ffa3a3" stroke="#000000" stroke-width="2" stroke-linecap="butt"/><path d="M269.89793,131.33761l0.25274,0.5725l0.19396,0.70177c0.03625,0.1285 0.0275,0.27023 -0.03503,0.39996c-0.13599,0.28212 -0.47493,0.40058 -0.75705,0.2646c-0.03223,-0.01554 -0.06234,-0.0337 -0.09015,-0.05416c-0.15064,0.07336 -0.33221,0.07955 -0.49487,0.00114c-0.05866,-0.02827 -0.11026,-0.06533 -0.15395,-0.10883c-0.28477,0.70408 -1.10757,0.55782 -1.86294,0.18467c-0.135,-0.04226 -0.26819,-0.09358 -0.39852,-0.15299l-0.08638,0.16849l-0.51535,-0.26422c-0.04442,-0.02257 -0.0846,-0.05025 -0.12021,-0.08195l-0.01429,0.01812l-0.48892,-0.3856c-0.21114,-0.15955 -0.28773,-0.45084 -0.16841,-0.69839c0.0704,-0.14604 0.19516,-0.24821 0.33828,-0.29396l-0.2362,-0.29318c-0.13947,-0.16565 -0.17727,-0.40412 -0.07715,-0.61181c0.09285,-0.1926 0.28028,-0.30893 0.47964,-0.32009c-0.00827,-0.16825 0.03322,-0.47776 0.42667,-0.57636c0.23865,-0.05981 0.3997,0.00986 0.50558,0.10793c0.16323,-0.19076 0.44012,-0.25593 0.67696,-0.14177l0.55738,0.26867l-0.00411,0.0085l0.03197,0.0059c0.00642,0.00944 0.01284,0.01887 0.01927,0.0283l0.00776,-0.01238l0.52174,0.32697c0.10939,0.06654 0.18932,0.16572 0.2332,0.27864l0.28309,-0.05572c0.11789,-0.02453 0.24451,-0.01187 0.36136,0.04445c0.15459,0.07453 0.26005,0.21 0.30142,0.36366c0.21263,0.08759 0.31249,0.30713 0.31249,0.30713z" fill="#a3ffa7" stroke="none" stroke-width="0.5" stroke-linecap="butt"/><path d="M263.69669,132.87715c0.13599,-0.28212 0.47494,-0.40059 0.75705,-0.26461c0.28211,0.136 0.40059,0.47494 0.26461,0.75706c-0.13599,0.28212 -0.47495,0.40059 -0.75706,0.2646c-0.28211,-0.136 -0.40059,-0.47493 -0.2646,-0.75705z" fill="#ffa3cf" stroke="none" stroke-width="0.5" stroke-linecap="butt"/><path d="M264.43008,134.68076c0.13599,-0.28212 0.47492,-0.40059 0.75705,-0.2646c0.28211,0.136 0.40058,0.47493 0.26461,0.75706c-0.13599,0.28212 -0.47494,0.4006 -0.75706,0.2646c-0.28211,-0.136 -0.40058,-0.47494 -0.2646,-0.75706z" fill="#ffa3cf" stroke="none" stroke-width="0.5" stroke-linecap="butt"/><path d="M261.43591,134.87566c0.13599,-0.28212 0.47493,-0.40058 0.75705,-0.2646c0.28211,0.136 0.40059,0.47493 0.2646,0.75706c-0.13599,0.28212 -0.47493,0.40058 -0.75706,0.2646c-0.28211,-0.136 -0.40059,-0.47493 -0.2646,-0.75706z" fill="#ffa3cf" stroke="none" stroke-width="0.5" stroke-linecap="butt"/><path d="M266.38739,133.94516c0.13599,-0.28212 0.47494,-0.40059 0.75705,-0.2646c0.28211,0.136 0.4006,0.47493 0.26461,0.75705c-0.13599,0.28212 -0.47495,0.40059 -0.75706,0.2646c-0.28211,-0.136 -0.40058,-0.47493 -0.2646,-0.75705z" fill="#ffa3cf" stroke="none" stroke-width="0.5" stroke-linecap="butt"/><path d="M265.06006,136.69887c0.13599,-0.28212 0.47494,-0.4006 0.75706,-0.2646c0.28211,0.136 0.40058,0.47494 0.2646,0.75706c-0.13599,0.28212 -0.47492,0.40059 -0.75705,0.2646c-0.28211,-0.136 -0.4006,-0.47494 -0.2646,-0.75706z" fill="#ffa3cf" stroke="none" stroke-width="0.5" stroke-linecap="butt"/><path d="M267.37742,136.48303c0.13599,-0.28212 0.47493,-0.4006 0.75705,-0.2646c0.28211,0.136 0.40059,0.47494 0.2646,0.75706c-0.13599,0.28212 -0.47494,0.40059 -0.75706,0.2646c-0.28211,-0.136 -0.40058,-0.47494 -0.2646,-0.75706z" fill="#ffa3cf" stroke="none" stroke-width="0.5" stroke-linecap="butt"/><path d="M265.35324,137.83237c0.13599,-0.28212 0.47493,-0.4006 0.75705,-0.2646c0.28211,0.136 0.40058,0.47493 0.26461,0.75706c-0.13599,0.28212 -0.47495,0.40059 -0.75706,0.2646c-0.28211,-0.136 -0.40057,-0.47493 -0.2646,-0.75706z" fill="#ffa3cf" stroke="none" stroke-width="0.5" stroke-linecap="butt"/><path d="M265.86206,138.99347c0.13599,-0.28212 0.47494,-0.40059 0.75706,-0.2646c0.28211,0.136 0.40058,0.47493 0.2646,0.75706c-0.13599,0.28212 -0.47495,0.40059 -0.75706,0.2646c-0.28211,-0.136 -0.40057,-0.47493 -0.2646,-0.75706z" fill="#ffa3cf" stroke="none" stroke-width="0.5" stroke-linecap="butt"/><path d="M264.20736,133.60022c0.55114,0.26567 0.78258,0.92782 0.51691,1.47896c-0.26567,0.55114 -0.92781,0.78258 -1.47897,0.51692c-0.55114,-0.26567 -0.78258,-0.92782 -0.51692,-1.47897c0.26567,-0.55114 0.92782,-0.78257 1.47896,-0.51691z" data-paper-data="{&quot;index&quot;:null}" fill="#000000" stroke="none" stroke-width="0" stroke-linecap="butt"/><path d="M264.37865,134.13163c0.1952,0.0941 0.27717,0.32862 0.18308,0.52381c-0.09409,0.1952 -0.32862,0.27716 -0.52382,0.18308c-0.1952,-0.0941 -0.27716,-0.32861 -0.18307,-0.52381c0.0941,-0.1952 0.32861,-0.27716 0.52381,-0.18308z" data-paper-data="{&quot;index&quot;:null}" fill="#ffffff" stroke="none" stroke-width="0" stroke-linecap="butt"/><path d="M263.54367,134.64444c0.10845,0.05227 0.15399,0.18257 0.10172,0.291c-0.05227,0.10845 -0.18257,0.15398 -0.291,0.10171c-0.10845,-0.05227 -0.15399,-0.18257 -0.10171,-0.291c0.05227,-0.10845 0.18257,-0.15399 0.291,-0.10171z" data-paper-data="{&quot;index&quot;:null}" fill="#ffffff" stroke="none" stroke-width="0" stroke-linecap="butt"/><path d="M268.51806,136.9491c-0.26567,0.55114 -0.92782,0.78258 -1.47897,0.51692c-0.55114,-0.26567 -0.78258,-0.92782 -0.51691,-1.47898c0.26567,-0.55114 0.92781,-0.78257 1.47895,-0.51691c0.55114,0.26567 0.78259,0.92782 0.51693,1.47897z" data-paper-data="{&quot;index&quot;:null}" fill="#000000" stroke="none" stroke-width="0" stroke-linecap="butt"/><path d="M267.66183,136.19099c-0.0941,0.1952 -0.32861,0.27716 -0.52381,0.18308c-0.1952,-0.0941 -0.27717,-0.32862 -0.18308,-0.52382c0.0941,-0.1952 0.32861,-0.27716 0.5238,-0.18308c0.1952,0.0941 0.27717,0.32861 0.18308,0.52381z" data-paper-data="{&quot;index&quot;:null}" fill="#ffffff" stroke="none" stroke-width="0" stroke-linecap="butt"/><path d="M267.69943,136.93081c-0.05226,0.10844 -0.18256,0.15399 -0.29101,0.10172c-0.10844,-0.05226 -0.15399,-0.18256 -0.10171,-0.29102c0.05226,-0.10844 0.18257,-0.15399 0.29102,-0.10171c0.10844,0.05226 0.15399,0.18256 0.10172,0.29102z" data-paper-data="{&quot;index&quot;:null}" fill="#ffffff" stroke="none" stroke-width="0" stroke-linecap="butt"/><path d="M262.27928,136.41445c0.08011,-0.15825 0.27335,-0.2216 0.4316,-0.14149c0.15825,0.08011 0.2216,0.27335 0.14149,0.43161c-0.08011,0.15825 -0.27335,0.2216 -0.43161,0.14149c-0.15825,-0.08011 -0.2216,-0.27335 -0.14149,-0.4316z" fill="#ffa3cf" stroke="none" stroke-width="0.5" stroke-linecap="butt"/><path d="M260.60177,137.62432c0.08011,-0.15825 0.27335,-0.2216 0.4316,-0.14149c0.15825,0.08011 0.22161,0.27336 0.1415,0.43161c-0.08011,0.15825 -0.27335,0.2216 -0.43161,0.14149c-0.15825,-0.08011 -0.2216,-0.27335 -0.14149,-0.4316z" fill="#ffa3cf" stroke="none" stroke-width="0.5" stroke-linecap="butt"/><path d="M262.85619,140.04359c0.08011,-0.15825 0.27335,-0.2216 0.4316,-0.14149c0.15825,0.08011 0.22161,0.27335 0.1415,0.43161c-0.08011,0.15825 -0.27335,0.2216 -0.43161,0.14149c-0.15825,-0.08011 -0.2216,-0.27335 -0.14149,-0.43161z" fill="#ffa3cf" stroke="none" stroke-width="0.5" stroke-linecap="butt"/><path d="M264.92228,140.45048c0.08011,-0.15825 0.27335,-0.2216 0.43161,-0.14149c0.15825,0.08011 0.2216,0.27335 0.14149,0.4316c-0.08011,0.15825 -0.27335,0.2216 -0.4316,0.14149c-0.15825,-0.08011 -0.2216,-0.27335 -0.14149,-0.4316z" fill="#ffa3cf" stroke="none" stroke-width="0.5" stroke-linecap="butt"/><path d="M262.09916,138.45333c0.08011,-0.15825 0.27335,-0.2216 0.4316,-0.14149c0.15825,0.08011 0.2216,0.27335 0.14149,0.43161c-0.08011,0.15825 -0.27335,0.2216 -0.4316,0.14149c-0.15825,-0.08011 -0.2216,-0.27336 -0.14149,-0.43161z" fill="#ffa3cf" stroke="none" stroke-width="0.5" stroke-linecap="butt"/><path d="M262.23096,140.43711c0.08011,-0.15825 0.27335,-0.2216 0.4316,-0.14149c0.15825,0.08011 0.22161,0.27336 0.1415,0.43161c-0.08011,0.15825 -0.27335,0.22159 -0.43161,0.14148c-0.15825,-0.08011 -0.2216,-0.27335 -0.14149,-0.4316z" fill="#ffa3cf" stroke="none" stroke-width="0.5" stroke-linecap="butt"/><path d="M268.4065,134.83005c0.08011,-0.15825 0.27335,-0.22161 0.4316,-0.1415c0.15825,0.08011 0.2216,0.27336 0.14149,0.43161c-0.08011,0.15825 -0.27335,0.22159 -0.4316,0.14148c-0.15825,-0.08011 -0.2216,-0.27334 -0.14149,-0.4316z" fill="#ffa3cf" stroke="none" stroke-width="0.5" stroke-linecap="butt"/><path d="M265.55679,137.94595c-0.1613,0.31863 -0.74809,0.34607 -1.31063,0.0613c-0.56254,-0.28477 -0.88782,-0.77392 -0.72652,-1.09255c0.1613,-0.31863 0.74809,-0.34608 1.31063,-0.06131c0.56254,0.28477 0.88781,0.77392 0.72652,1.09256z" fill="#000000" stroke="none" stroke-width="NaN" stroke-linecap="butt"/><path d="M264.86365,139.27961c-0.0632,0.12484 -0.52553,0.11462 -0.96713,-0.10893c-0.4416,-0.22355 -0.72843,-0.58048 -0.66523,-0.70533c0.0632,-0.12484 0.47243,-0.04482 0.91403,0.17873c0.4416,0.22355 0.78153,0.51068 0.71833,0.63553z" fill="#fb9a9a" stroke="none" stroke-width="0" stroke-linecap="butt"/><path d="M260.911,117.42126c0.16231,-0.33676 0.56691,-0.47817 0.90367,-0.31585c0.33676,0.16232 0.47817,0.56692 0.31585,0.90368c-0.16231,0.33676 -0.56691,0.47817 -0.90368,0.31585c-0.33676,-0.16232 -0.47816,-0.56691 -0.31585,-0.90367z" fill="#ffa3cf" stroke="none" stroke-width="0.5" stroke-linecap="butt"/><path d="M261.95187,120.86164c0.01652,-0.03262 0.03784,-0.06121 0.06268,-0.08535c-0.1196,-0.19061 -0.14158,-0.43662 -0.03666,-0.65429c0.16231,-0.33676 0.56692,-0.47817 0.90367,-0.31585c0.33676,0.16232 0.47816,0.56691 0.31585,0.90367c-0.12266,0.25449 -0.38369,0.39743 -0.64924,0.38202c-0.00561,0.02032 -0.01331,0.04038 -0.02319,0.05991c-0.08011,0.15825 -0.27335,0.2216 -0.43161,0.14149c-0.15825,-0.08011 -0.2216,-0.27335 -0.14149,-0.4316z" fill="#ffa3cf" stroke="none" stroke-width="0.5" stroke-linecap="butt"/><path d="M258.49026,116.56681c1.23651,-2.5653 4.31852,-3.64253 6.88383,-2.406c2.56531,1.23651 3.64251,4.31851 2.406,6.88383c-1.23651,2.5653 -5.5469,5.8743 -8.11221,4.63779c-2.56531,-1.23651 -2.41412,-6.5503 -1.17761,-9.11561z" fill="#ffa3a3" stroke="#000000" stroke-width="2" stroke-linecap="butt"/><path d="M267.67962,114.33057l0.25274,0.57249l0.19396,0.70177c0.03625,0.12851 0.02751,0.27023 -0.03502,0.39996c-0.13599,0.28212 -0.47493,0.40058 -0.75706,0.2646c-0.03223,-0.01554 -0.06234,-0.0337 -0.09015,-0.05416c-0.15064,0.07336 -0.33221,0.07955 -0.49487,0.00113c-0.05866,-0.02827 -0.11026,-0.06533 -0.15395,-0.10883c-0.28477,0.70409 -1.10757,0.55782 -1.86293,0.18467c-0.135,-0.04226 -0.26819,-0.09359 -0.39853,-0.15299l-0.08638,0.16849l-0.51535,-0.26422c-0.04442,-0.02258 -0.08461,-0.05025 -0.12022,-0.08195l-0.01429,0.01812l-0.48891,-0.3856c-0.21114,-0.15954 -0.28774,-0.45084 -0.16842,-0.69839c0.0704,-0.14604 0.19516,-0.24821 0.33829,-0.29395l-0.2362,-0.29318c-0.13947,-0.16564 -0.17727,-0.40413 -0.07715,-0.61181c0.09285,-0.19261 0.28028,-0.30894 0.47964,-0.32009c-0.00827,-0.16825 0.03322,-0.47775 0.42667,-0.57636c0.23865,-0.05982 0.3997,0.00986 0.50557,0.10792c0.16323,-0.19076 0.44012,-0.25592 0.67696,-0.14176l0.55738,0.26867l-0.00411,0.0085l0.03197,0.0059c0.00642,0.00944 0.01284,0.01887 0.01927,0.02829l0.00777,-0.01238l0.52174,0.32697c0.10939,0.06655 0.18931,0.16572 0.23319,0.27864l0.28309,-0.05572c0.11789,-0.02453 0.24451,-0.01187 0.36136,0.04445c0.15459,0.07453 0.26005,0.21 0.30142,0.36366c0.21263,0.08759 0.31249,0.30713 0.31249,0.30713z" fill="#a3ffa7" stroke="none" stroke-width="0.5" stroke-linecap="butt"/><path d="M261.47838,115.87011c0.13599,-0.28212 0.47494,-0.40059 0.75706,-0.2646c0.28211,0.13599 0.40059,0.47494 0.2646,0.75706c-0.13599,0.28212 -0.47494,0.40059 -0.75706,0.2646c-0.28211,-0.13599 -0.4006,-0.47494 -0.2646,-0.75706z" fill="#ffa3cf" stroke="none" stroke-width="0.5" stroke-linecap="butt"/><path d="M262.21177,117.67372c0.13599,-0.28212 0.47493,-0.40059 0.75706,-0.2646c0.28211,0.13599 0.40058,0.47493 0.2646,0.75705c-0.13599,0.28212 -0.47494,0.40059 -0.75706,0.2646c-0.28211,-0.13599 -0.40059,-0.47494 -0.2646,-0.75705z" fill="#ffa3cf" stroke="none" stroke-width="0.5" stroke-linecap="butt"/><path d="M259.21759,117.86862c0.13599,-0.28212 0.47493,-0.40058 0.75706,-0.2646c0.28211,0.13599 0.40059,0.47493 0.2646,0.75706c-0.13599,0.28212 -0.47493,0.40058 -0.75705,0.2646c-0.28211,-0.13599 -0.40059,-0.47493 -0.2646,-0.75706z" fill="#ffa3cf" stroke="none" stroke-width="0.5" stroke-linecap="butt"/><path d="M264.16908,116.93812c0.13599,-0.28212 0.47494,-0.40059 0.75706,-0.2646c0.28211,0.13599 0.4006,0.47493 0.2646,0.75705c-0.13599,0.28212 -0.47494,0.40059 -0.75706,0.2646c-0.28211,-0.13599 -0.40059,-0.47494 -0.2646,-0.75705z" fill="#ffa3cf" stroke="none" stroke-width="0.5" stroke-linecap="butt"/><path d="M262.84175,119.69183c0.13599,-0.28212 0.47493,-0.40059 0.75705,-0.2646c0.28211,0.13599 0.40059,0.47495 0.2646,0.75706c-0.13599,0.28212 -0.47493,0.40059 -0.75706,0.2646c-0.28211,-0.13599 -0.40059,-0.47494 -0.2646,-0.75706z" fill="#ffa3cf" stroke="none" stroke-width="0.5" stroke-linecap="butt"/><path d="M265.15909,119.47599c0.13599,-0.28212 0.47494,-0.40059 0.75706,-0.2646c0.28211,0.13599 0.40058,0.47494 0.2646,0.75706c-0.13599,0.28212 -0.47494,0.40059 -0.75705,0.2646c-0.28211,-0.13599 -0.40059,-0.47495 -0.2646,-0.75706z" fill="#ffa3cf" stroke="none" stroke-width="0.5" stroke-linecap="butt"/><path d="M263.13491,120.82533c0.13599,-0.28212 0.47494,-0.40059 0.75706,-0.2646c0.28211,0.13599 0.40058,0.47494 0.2646,0.75706c-0.13599,0.28212 -0.47494,0.40059 -0.75706,0.2646c-0.28211,-0.13599 -0.40058,-0.47494 -0.2646,-0.75706z" fill="#ffa3cf" stroke="none" stroke-width="0.5" stroke-linecap="butt"/><path d="M263.64374,121.98643c0.13599,-0.28212 0.47495,-0.40059 0.75706,-0.2646c0.28211,0.13599 0.40057,0.47493 0.2646,0.75706c-0.13599,0.28212 -0.47494,0.40059 -0.75706,0.2646c-0.28211,-0.13599 -0.40058,-0.47494 -0.2646,-0.75706z" fill="#ffa3cf" stroke="none" stroke-width="0.5" stroke-linecap="butt"/><path d="M261.98905,116.59318c0.55114,0.26567 0.78258,0.92782 0.51691,1.47897c-0.26567,0.55114 -0.92781,0.78258 -1.47896,0.51692c-0.55114,-0.26567 -0.78259,-0.92782 -0.51693,-1.47897c0.26567,-0.55114 0.92782,-0.78257 1.47897,-0.51691z" data-paper-data="{&quot;index&quot;:null}" fill="#000000" stroke="none" stroke-width="0" stroke-linecap="butt"/><path d="M262.16035,117.12459c0.1952,0.0941 0.27716,0.32862 0.18308,0.52381c-0.09409,0.19519 -0.32862,0.27716 -0.52381,0.18308c-0.1952,-0.0941 -0.27716,-0.32861 -0.18308,-0.52381c0.0941,-0.19521 0.32862,-0.27717 0.52381,-0.18308z" data-paper-data="{&quot;index&quot;:null}" fill="#ffffff" stroke="none" stroke-width="0" stroke-linecap="butt"/><path d="M261.32537,117.6374c0.10845,0.05227 0.15399,0.18257 0.10172,0.291c-0.05227,0.10845 -0.18258,0.15398 -0.29101,0.1017c-0.10845,-0.05227 -0.15398,-0.18256 -0.10171,-0.29099c0.05227,-0.10845 0.18257,-0.15399 0.291,-0.10171z" data-paper-data="{&quot;index&quot;:null}" fill="#ffffff" stroke="none" stroke-width="0" stroke-linecap="butt"/><path d="M266.29975,119.94206c-0.26567,0.55114 -0.92782,0.78257 -1.47896,0.51691c-0.55114,-0.26567 -0.78258,-0.92782 -0.51692,-1.47897c0.26567,-0.55114 0.92781,-0.78257 1.47896,-0.51691c0.55114,0.26567 0.78258,0.92781 0.51692,1.47897z" data-paper-data="{&quot;index&quot;:null}" fill="#000000" stroke="none" stroke-width="0" stroke-linecap="butt"/><path d="M265.44352,119.18395c-0.0941,0.19521 -0.32862,0.27716 -0.52381,0.18308c-0.1952,-0.0941 -0.27717,-0.32863 -0.18308,-0.52382c0.0941,-0.19521 0.32861,-0.27716 0.52381,-0.18308c0.1952,0.0941 0.27717,0.32861 0.18308,0.52381z" data-paper-data="{&quot;index&quot;:null}" fill="#ffffff" stroke="none" stroke-width="0" stroke-linecap="butt"/><path d="M265.48112,119.92377c-0.05226,0.10844 -0.18256,0.15399 -0.29102,0.10171c-0.10844,-0.05226 -0.15398,-0.18256 -0.10171,-0.29102c0.05226,-0.10844 0.18257,-0.15398 0.29102,-0.10171c0.10844,0.05226 0.15399,0.18256 0.10171,0.29102z" data-paper-data="{&quot;index&quot;:null}" fill="#ffffff" stroke="none" stroke-width="0" stroke-linecap="butt"/><path d="M260.06097,119.40741c0.08011,-0.15825 0.27335,-0.2216 0.4316,-0.14149c0.15825,0.08011 0.2216,0.27335 0.14149,0.43161c-0.08011,0.15825 -0.27335,0.2216 -0.4316,0.14149c-0.15825,-0.08011 -0.2216,-0.27335 -0.14149,-0.4316z" fill="#ffa3cf" stroke="none" stroke-width="0.5" stroke-linecap="butt"/><path d="M258.38347,120.61728c0.08011,-0.15825 0.27335,-0.22161 0.4316,-0.1415c0.15825,0.08011 0.22161,0.27336 0.1415,0.43161c-0.08011,0.15825 -0.27336,0.2216 -0.43161,0.14149c-0.15825,-0.08011 -0.2216,-0.27335 -0.14149,-0.4316z" fill="#ffa3cf" stroke="none" stroke-width="0.5" stroke-linecap="butt"/><path d="M260.63788,123.03655c0.08011,-0.15825 0.27335,-0.2216 0.4316,-0.14149c0.15825,0.08011 0.2216,0.27335 0.14149,0.43161c-0.08011,0.15825 -0.27335,0.2216 -0.43161,0.14149c-0.15825,-0.08011 -0.2216,-0.27335 -0.14149,-0.4316z" fill="#ffa3cf" stroke="none" stroke-width="0.5" stroke-linecap="butt"/><path d="M262.70397,123.44344c0.08011,-0.15825 0.27335,-0.2216 0.43161,-0.14149c0.15825,0.08011 0.2216,0.27335 0.14149,0.4316c-0.08011,0.15825 -0.27335,0.2216 -0.4316,0.14149c-0.15825,-0.08011 -0.22161,-0.27335 -0.1415,-0.43161z" fill="#ffa3cf" stroke="none" stroke-width="0.5" stroke-linecap="butt"/><path d="M259.88086,121.44629c0.08011,-0.15825 0.27335,-0.2216 0.4316,-0.14149c0.15825,0.08011 0.2216,0.27335 0.14149,0.43161c-0.08011,0.15825 -0.27335,0.2216 -0.4316,0.14149c-0.15825,-0.08011 -0.2216,-0.27335 -0.14149,-0.43161z" fill="#ffa3cf" stroke="none" stroke-width="0.5" stroke-linecap="butt"/><path d="M260.01266,123.43007c0.08011,-0.15825 0.27335,-0.22161 0.4316,-0.1415c0.15825,0.08011 0.22161,0.27336 0.1415,0.43161c-0.08011,0.15825 -0.27336,0.2216 -0.43161,0.14149c-0.15825,-0.08011 -0.2216,-0.27335 -0.14149,-0.4316z" fill="#ffa3cf" stroke="none" stroke-width="0.5" stroke-linecap="butt"/><path d="M266.18818,117.82301c0.08011,-0.15825 0.27335,-0.2216 0.4316,-0.14149c0.15825,0.08011 0.2216,0.27335 0.14149,0.43161c-0.08011,0.15825 -0.27335,0.2216 -0.4316,0.14149c-0.15825,-0.08011 -0.2216,-0.27335 -0.14149,-0.4316z" fill="#ffa3cf" stroke="none" stroke-width="0.5" stroke-linecap="butt"/><path d="M263.33848,120.93891c-0.1613,0.31863 -0.74808,0.34607 -1.31062,0.0613c-0.56254,-0.28477 -0.88782,-0.77392 -0.72652,-1.09255c0.1613,-0.31863 0.74809,-0.34607 1.31063,-0.06131c0.56254,0.28477 0.88781,0.77393 0.72651,1.09256z" fill="#000000" stroke="none" stroke-width="NaN" stroke-linecap="butt"/><path d="M262.64534,122.27257c-0.0632,0.12484 -0.52553,0.11462 -0.96713,-0.10893c-0.4416,-0.22355 -0.72843,-0.58048 -0.66523,-0.70533c0.0632,-0.12484 0.47242,-0.04483 0.91403,0.17873c0.4416,0.22355 0.78154,0.51069 0.71834,0.63553z" fill="#fb9a9a" stroke="none" stroke-width="0" stroke-linecap="butt"/><path d="M226.95579,143.56465c-0.11646,-0.35523 0.07713,-0.73762 0.43236,-0.85408c0.35523,-0.11646 0.73763,0.07714 0.85408,0.43237c0.11646,0.35523 -0.07714,0.73762 -0.43237,0.85408c-0.35523,0.11646 -0.73762,-0.07714 -0.85408,-0.43237z" fill="#ffa3cf" stroke="none" stroke-width="0.5" stroke-linecap="butt"/><path d="M230.09087,145.32274c-0.01071,-0.03496 -0.01516,-0.07035 -0.01399,-0.10496c-0.21834,-0.05447 -0.40471,-0.21654 -0.47998,-0.44616c-0.11646,-0.35523 0.07714,-0.73763 0.43237,-0.85408c0.35523,-0.11646 0.73762,0.07713 0.85407,0.43237c0.088,0.26845 -0.00105,0.55242 -0.20312,0.72539c0.01005,0.01854 0.0184,0.03833 0.02482,0.05926c0.05196,0.16959 -0.04341,0.3492 -0.213,0.40117c-0.16959,0.05196 -0.3492,-0.0434 -0.40116,-0.21299z" fill="#ffa3cf" stroke="none" stroke-width="0.5" stroke-linecap="butt"/><path d="M224.61875,144.62687c-0.88706,-2.70608 0.58754,-5.61893 3.29363,-6.50599c2.70608,-0.88706 5.61891,0.58755 6.50599,3.29363c0.88706,2.70608 0.07418,8.07899 -2.6319,8.96606c-2.70608,0.88706 -6.28064,-3.04762 -7.16771,-5.7537z" fill="#ffa3a3" stroke="#000000" stroke-width="2" stroke-linecap="butt"/><path d="M229.69175,136.64503l0.57902,0.23742l0.62627,0.37134c0.1152,0.06749 0.20714,0.1757 0.25201,0.31254c0.09755,0.2976 -0.06462,0.61793 -0.36222,0.7155c-0.034,0.01114 -0.06829,0.01892 -0.10252,0.02346c-0.05772,0.1573 -0.18429,0.28762 -0.35589,0.34386c-0.06188,0.02029 -0.12476,0.02935 -0.1864,0.02828c0.28283,0.70487 -0.41159,1.16981 -1.21468,1.42449c-0.12659,0.06312 -0.25817,0.11846 -0.39329,0.16599l0.05454,0.18132l-0.55459,0.16681c-0.04766,0.01452 -0.09581,0.02243 -0.14345,0.02427l0.00226,0.02297l-0.61968,0.06099c-0.26278,0.03138 -0.51991,-0.12548 -0.60551,-0.38661c-0.0505,-0.15406 -0.0314,-0.31418 0.04005,-0.44637l-0.37347,-0.04758c-0.21535,-0.02271 -0.40791,-0.16839 -0.47971,-0.38748c-0.0666,-0.20318 -0.01214,-0.41696 0.12381,-0.56319c-0.12259,-0.11553 -0.30724,-0.36736 -0.09202,-0.71117c0.13054,-0.20854 0.29492,-0.26997 0.4392,-0.27268c-0.01459,-0.25064 0.13981,-0.48955 0.38964,-0.57145l0.58797,-0.19273l0.00293,0.00898l0.02714,-0.01791c0.01117,0.00235 0.02234,0.0047 0.0335,0.00704l-0.00299,-0.01431l0.60269,-0.12601c0.12497,-0.02787 0.25133,-0.01179 0.36123,0.03918l0.16541,-0.2364c0.06796,-0.0994 0.168,-0.17805 0.29126,-0.21845c0.16309,-0.05345 0.333,-0.02891 0.46934,0.05316c0.21398,-0.08427 0.43813,0.00474 0.43813,0.00474z" fill="#a3ffa7" stroke="none" stroke-width="0.5" stroke-linecap="butt"/><path d="M226.28946,142.05335c-0.09755,-0.2976 0.06462,-0.61795 0.36222,-0.7155c0.2976,-0.09755 0.61796,0.06462 0.71551,0.36222c0.09755,0.2976 -0.06463,0.61795 -0.36223,0.7155c-0.2976,0.09755 -0.61795,-0.06461 -0.7155,-0.36222z" fill="#ffa3cf" stroke="none" stroke-width="0.5" stroke-linecap="butt"/><path d="M228.06831,142.84491c-0.09755,-0.2976 0.06461,-0.61794 0.36222,-0.7155c0.2976,-0.09755 0.61794,0.06462 0.7155,0.36222c0.09755,0.2976 -0.06462,0.61796 -0.36223,0.7155c-0.2976,0.09755 -0.61795,-0.06462 -0.7155,-0.36222z" fill="#ffa3cf" stroke="none" stroke-width="0.5" stroke-linecap="butt"/><path d="M226.04539,145.06095c-0.09755,-0.2976 0.06462,-0.61793 0.36222,-0.7155c0.2976,-0.09755 0.61794,0.06461 0.7155,0.36223c0.09755,0.2976 -0.06462,0.61793 -0.36222,0.7155c-0.2976,0.09755 -0.61794,-0.06461 -0.7155,-0.36223z" fill="#ffa3cf" stroke="none" stroke-width="0.5" stroke-linecap="butt"/><path d="M228.96911,140.95792c-0.09755,-0.2976 0.06462,-0.61795 0.36222,-0.7155c0.2976,-0.09755 0.61795,0.06461 0.7155,0.36221c0.09755,0.2976 -0.06463,0.61795 -0.36223,0.7155c-0.2976,0.09755 -0.61794,-0.06462 -0.7155,-0.36222z" fill="#ffa3cf" stroke="none" stroke-width="0.5" stroke-linecap="butt"/><path d="M229.92133,143.86275c-0.09755,-0.2976 0.06461,-0.61795 0.36222,-0.7155c0.2976,-0.09755 0.61795,0.06463 0.7155,0.36223c0.09755,0.2976 -0.06461,0.61794 -0.36222,0.7155c-0.2976,0.09755 -0.61796,-0.06462 -0.7155,-0.36223z" fill="#ffa3cf" stroke="none" stroke-width="0.5" stroke-linecap="butt"/><path d="M231.44192,142.10078c-0.09755,-0.2976 0.06461,-0.61795 0.36222,-0.7155c0.2976,-0.09755 0.61795,0.06463 0.7155,0.36223c0.09755,0.2976 -0.06462,0.61795 -0.36222,0.7155c-0.2976,0.09755 -0.61795,-0.06463 -0.7155,-0.36223z" fill="#ffa3cf" stroke="none" stroke-width="0.5" stroke-linecap="butt"/><path d="M230.91837,144.47648c-0.09755,-0.2976 0.06461,-0.61795 0.36222,-0.7155c0.2976,-0.09755 0.61794,0.06462 0.71551,0.36222c0.09755,0.2976 -0.06463,0.61795 -0.36223,0.7155c-0.2976,0.09755 -0.61794,-0.06463 -0.7155,-0.36223z" fill="#ffa3cf" stroke="none" stroke-width="0.5" stroke-linecap="butt"/><path d="M232.08998,144.96062c-0.09755,-0.2976 0.06463,-0.61795 0.36223,-0.7155c0.2976,-0.09755 0.61793,0.06462 0.7155,0.36222c0.09755,0.2976 -0.06462,0.61796 -0.36222,0.71551c-0.2976,0.09755 -0.61794,-0.06463 -0.7155,-0.36223z" fill="#ffa3cf" stroke="none" stroke-width="0.5" stroke-linecap="butt"/><path d="M227.15876,142.22051c0.58139,-0.19057 1.2072,0.12624 1.39778,0.70763c0.19057,0.58139 -0.12623,1.2072 -0.70762,1.39779c-0.58139,0.19057 -1.20721,-0.12623 -1.39779,-0.70763c-0.19057,-0.58139 0.12624,-1.2072 0.70763,-1.39778z" data-paper-data="{&quot;index&quot;:null}" fill="#000000" stroke="none" stroke-width="0" stroke-linecap="butt"/><path d="M227.6506,142.48477c0.20592,-0.06749 0.42756,0.04472 0.49506,0.25063c0.0675,0.20591 -0.04472,0.42756 -0.25063,0.49506c-0.20592,0.06749 -0.42756,-0.04472 -0.49506,-0.25062c-0.06749,-0.20592 0.04472,-0.42756 0.25062,-0.49506z" data-paper-data="{&quot;index&quot;:null}" fill="#ffffff" stroke="none" stroke-width="0" stroke-linecap="butt"/><path d="M227.40427,143.43319c0.1144,-0.0375 0.23755,0.02484 0.27504,0.13923c0.0375,0.1144 -0.02485,0.23754 -0.13924,0.27503c-0.1144,0.0375 -0.23754,-0.02484 -0.27503,-0.13923c-0.0375,-0.1144 0.02484,-0.23755 0.13923,-0.27503z" data-paper-data="{&quot;index&quot;:null}" fill="#ffffff" stroke="none" stroke-width="0" stroke-linecap="butt"/><path d="M232.58712,141.646c0.19057,0.58139 -0.12624,1.2072 -0.70763,1.39778c-0.58139,0.19057 -1.2072,-0.12624 -1.39779,-0.70764c-0.19057,-0.58139 0.12623,-1.20719 0.70762,-1.39777c0.58139,-0.19057 1.20721,0.12623 1.39779,0.70763z" data-paper-data="{&quot;index&quot;:null}" fill="#000000" stroke="none" stroke-width="0" stroke-linecap="butt"/><path d="M231.44447,141.69315c0.06749,0.20592 -0.04472,0.42756 -0.25062,0.49506c-0.20592,0.06749 -0.42757,-0.04472 -0.49507,-0.25063c-0.06749,-0.20592 0.04472,-0.42755 0.25062,-0.49505c0.20592,-0.06749 0.42756,0.0447 0.49506,0.25062z" data-paper-data="{&quot;index&quot;:null}" fill="#ffffff" stroke="none" stroke-width="0" stroke-linecap="butt"/><path d="M231.98441,142.2003c0.0375,0.11438 -0.02483,0.23754 -0.13924,0.27504c-0.11438,0.0375 -0.23753,-0.02484 -0.27504,-0.13924c-0.0375,-0.11438 0.02484,-0.23754 0.13925,-0.27504c0.11438,-0.0375 0.23754,0.02483 0.27504,0.13924z" data-paper-data="{&quot;index&quot;:null}" fill="#ffffff" stroke="none" stroke-width="0" stroke-linecap="butt"/><path d="M227.71993,145.58539c-0.05196,-0.16959 0.0434,-0.34921 0.21299,-0.40117c0.16959,-0.05196 0.34921,0.04341 0.40117,0.213c0.05196,0.16959 -0.04341,0.3492 -0.213,0.40116c-0.16959,0.05196 -0.3492,-0.0434 -0.40116,-0.21299z" fill="#ffa3cf" stroke="none" stroke-width="0.5" stroke-linecap="butt"/><path d="M227.34957,147.62024c-0.05196,-0.16959 0.0434,-0.34921 0.21299,-0.40117c0.16959,-0.05196 0.34921,0.0434 0.40117,0.213c0.05196,0.16959 -0.04341,0.34921 -0.213,0.40117c-0.16959,0.05196 -0.3492,-0.0434 -0.40117,-0.213z" fill="#ffa3cf" stroke="none" stroke-width="0.5" stroke-linecap="butt"/><path d="M230.65147,147.80116c-0.05196,-0.16959 0.0434,-0.3492 0.213,-0.40117c0.16959,-0.05196 0.34921,0.0434 0.40117,0.21299c0.05196,0.16959 -0.04341,0.34921 -0.213,0.40117c-0.16959,0.05196 -0.3492,-0.0434 -0.40117,-0.213z" fill="#ffa3cf" stroke="none" stroke-width="0.5" stroke-linecap="butt"/><path d="M232.42264,146.6622c-0.05196,-0.16959 0.04341,-0.34921 0.213,-0.40117c0.16959,-0.05196 0.3492,0.0434 0.40117,0.213c0.05196,0.16959 -0.0434,0.3492 -0.213,0.40117c-0.16959,0.05196 -0.34921,-0.0434 -0.40117,-0.21299z" fill="#ffa3cf" stroke="none" stroke-width="0.5" stroke-linecap="butt"/><path d="M229.00348,147.17976c-0.05196,-0.16959 0.0434,-0.3492 0.213,-0.40117c0.16959,-0.05196 0.3492,0.0434 0.40117,0.213c0.05196,0.16959 -0.0434,0.34921 -0.21299,0.40117c-0.16959,0.05196 -0.34921,-0.04341 -0.40117,-0.213z" fill="#ffa3cf" stroke="none" stroke-width="0.5" stroke-linecap="butt"/><path d="M230.47363,148.51819c-0.05196,-0.16959 0.0434,-0.34921 0.21299,-0.40117c0.16959,-0.05196 0.34921,0.0434 0.40117,0.213c0.05196,0.16959 -0.04341,0.3492 -0.213,0.40117c-0.16959,0.05196 -0.3492,-0.0434 -0.40116,-0.21299z" fill="#ffa3cf" stroke="none" stroke-width="0.5" stroke-linecap="butt"/><path d="M231.03778,140.19605c-0.05196,-0.16959 0.0434,-0.34921 0.21299,-0.40117c0.16959,-0.05196 0.34921,0.04341 0.40117,0.213c0.05196,0.16959 -0.04341,0.3492 -0.213,0.40116c-0.16959,0.05196 -0.3492,-0.0434 -0.40116,-0.21299z" fill="#ffa3cf" stroke="none" stroke-width="0.5" stroke-linecap="butt"/><path d="M231.14382,144.41724c0.10462,0.34146 -0.29928,0.76801 -0.90213,0.95271c-0.60285,0.18471 -1.17638,0.05764 -1.281,-0.28383c-0.10462,-0.34146 0.29928,-0.76801 0.90213,-0.95272c0.60285,-0.18471 1.17637,-0.05763 1.28099,0.28383z" fill="#000000" stroke="none" stroke-width="NaN" stroke-linecap="butt"/><path d="M231.56874,145.85895c0.04099,0.13379 -0.29932,0.44691 -0.77257,0.59191c-0.47325,0.145 -0.9274,0.08657 -0.96839,-0.04722c-0.04099,-0.13379 0.30942,-0.35979 0.78267,-0.50479c0.47325,-0.145 0.91729,-0.17369 0.95829,-0.0399z" fill="#fb9a9a" stroke="none" stroke-width="0" stroke-linecap="butt"/><path d="M232.83607,104.19845c-0.11646,-0.35523 0.07712,-0.73762 0.43236,-0.85408c0.35523,-0.11646 0.73763,0.07714 0.85408,0.43237c0.11646,0.35523 -0.07713,0.73762 -0.43237,0.85408c-0.35523,0.11646 -0.73762,-0.07714 -0.85407,-0.43237z" fill="#ffa3cf" stroke="none" stroke-width="0.5" stroke-linecap="butt"/><path d="M235.97116,105.95654c-0.01072,-0.03496 -0.01517,-0.07035 -0.01399,-0.10496c-0.21834,-0.05447 -0.40471,-0.21654 -0.47998,-0.44616c-0.11646,-0.35523 0.07713,-0.73764 0.43237,-0.85408c0.35523,-0.11646 0.73762,0.07713 0.85407,0.43237c0.08801,0.26845 -0.00105,0.55241 -0.20311,0.72539c0.01004,0.01854 0.0184,0.03834 0.02481,0.05927c0.05196,0.16959 -0.04341,0.3492 -0.213,0.40116c-0.16959,0.05196 -0.3492,-0.0434 -0.40116,-0.21299z" fill="#ffa3cf" stroke="none" stroke-width="0.5" stroke-linecap="butt"/><path d="M230.49903,105.26067c-0.88707,-2.70608 0.58755,-5.61893 3.29364,-6.50599c2.70608,-0.88707 5.61891,0.58755 6.50599,3.29363c0.88707,2.70608 0.07417,8.07898 -2.63191,8.96605c-2.70608,0.88707 -6.28064,-3.04762 -7.16771,-5.75369z" fill="#ffa3a3" stroke="#000000" stroke-width="2" stroke-linecap="butt"/><path d="M235.57204,97.27883l0.57901,0.23742l0.62627,0.37134c0.11521,0.0675 0.20714,0.17569 0.252,0.31255c0.09754,0.29761 -0.06462,0.61793 -0.36222,0.7155c-0.034,0.01114 -0.0683,0.01892 -0.10252,0.02346c-0.05773,0.1573 -0.18429,0.28762 -0.35589,0.34386c-0.06187,0.02029 -0.12475,0.02935 -0.1864,0.02829c0.28283,0.70487 -0.4116,1.16981 -1.21469,1.42449c-0.12659,0.06312 -0.25817,0.11847 -0.39329,0.166l0.05454,0.18131l-0.55459,0.16681c-0.04766,0.01452 -0.09581,0.02244 -0.14345,0.02427l0.00226,0.02296l-0.61969,0.061c-0.26278,0.03137 -0.5199,-0.12548 -0.6055,-0.38662c-0.0505,-0.15405 -0.0314,-0.31418 0.04004,-0.44637l-0.37347,-0.04758c-0.21535,-0.02271 -0.40791,-0.16839 -0.47971,-0.38747c-0.0666,-0.20318 -0.01214,-0.41696 0.12381,-0.56319c-0.12259,-0.11553 -0.30724,-0.36737 -0.09202,-0.71117c0.13054,-0.20854 0.29491,-0.26997 0.4392,-0.27268c-0.01459,-0.25064 0.13981,-0.48954 0.38965,-0.57144l0.58797,-0.19273l0.00293,0.00898l0.02714,-0.01792c0.01118,0.00235 0.02233,0.0047 0.0335,0.00704l-0.00299,-0.01431l0.6027,-0.12601c0.12497,-0.02786 0.25133,-0.01179 0.36123,0.03918l0.16541,-0.2364c0.06796,-0.0994 0.168,-0.17804 0.29126,-0.21845c0.16309,-0.05345 0.333,-0.02891 0.46934,0.05316c0.21398,-0.08426 0.43813,0.00475 0.43813,0.00475z" fill="#a3ffa7" stroke="none" stroke-width="0.5" stroke-linecap="butt"/><path d="M232.16974,102.68716c-0.09754,-0.29761 0.06462,-0.61795 0.36222,-0.71551c0.29761,-0.09754 0.61795,0.06462 0.71551,0.36222c0.09754,0.29761 -0.06463,0.61795 -0.36222,0.7155c-0.29761,0.09754 -0.61795,-0.06461 -0.7155,-0.36222z" fill="#ffa3cf" stroke="none" stroke-width="0.5" stroke-linecap="butt"/><path d="M233.94859,103.47872c-0.09754,-0.29761 0.06462,-0.61794 0.36222,-0.7155c0.29761,-0.09754 0.61794,0.06462 0.71551,0.36221c0.09754,0.29761 -0.06462,0.61795 -0.36222,0.71551c-0.29761,0.09754 -0.61795,-0.06462 -0.71551,-0.36222z" fill="#ffa3cf" stroke="none" stroke-width="0.5" stroke-linecap="butt"/><path d="M231.92567,105.69475c-0.09754,-0.29761 0.06463,-0.61793 0.36222,-0.7155c0.29761,-0.09754 0.61794,0.06462 0.7155,0.36222c0.09754,0.29761 -0.06462,0.61793 -0.36222,0.7155c-0.29761,0.09754 -0.61795,-0.06462 -0.71551,-0.36222z" fill="#ffa3cf" stroke="none" stroke-width="0.5" stroke-linecap="butt"/><path d="M234.84939,101.59172c-0.09754,-0.29761 0.06462,-0.61795 0.36222,-0.7155c0.29761,-0.09754 0.61795,0.06461 0.7155,0.36221c0.09754,0.29761 -0.06463,0.61795 -0.36222,0.71551c-0.29761,0.09754 -0.61794,-0.06462 -0.7155,-0.36222z" fill="#ffa3cf" stroke="none" stroke-width="0.5" stroke-linecap="butt"/><path d="M235.80161,104.49655c-0.09754,-0.29761 0.06462,-0.61795 0.36222,-0.7155c0.29761,-0.09754 0.61795,0.06463 0.7155,0.36222c0.09754,0.29761 -0.06461,0.61794 -0.36222,0.7155c-0.29761,0.09754 -0.61795,-0.06462 -0.71551,-0.36223z" fill="#ffa3cf" stroke="none" stroke-width="0.5" stroke-linecap="butt"/><path d="M237.3222,102.73459c-0.09754,-0.29761 0.06462,-0.61795 0.36222,-0.7155c0.29761,-0.09754 0.61795,0.06463 0.7155,0.36222c0.09754,0.29761 -0.06462,0.61795 -0.36222,0.7155c-0.29761,0.09754 -0.61795,-0.06463 -0.7155,-0.36222z" fill="#ffa3cf" stroke="none" stroke-width="0.5" stroke-linecap="butt"/><path d="M236.79865,105.11028c-0.09754,-0.29761 0.06462,-0.61795 0.36222,-0.7155c0.29761,-0.09754 0.61794,0.06463 0.71551,0.36222c0.09754,0.29761 -0.06463,0.61795 -0.36223,0.7155c-0.29761,0.09754 -0.61794,-0.06463 -0.7155,-0.36222z" fill="#ffa3cf" stroke="none" stroke-width="0.5" stroke-linecap="butt"/><path d="M237.97027,105.59442c-0.09754,-0.29761 0.06463,-0.61795 0.36222,-0.71551c0.29761,-0.09754 0.61793,0.06462 0.7155,0.36222c0.09754,0.29761 -0.06462,0.61796 -0.36222,0.71551c-0.29761,0.09754 -0.61794,-0.06463 -0.7155,-0.36222z" fill="#ffa3cf" stroke="none" stroke-width="0.5" stroke-linecap="butt"/><path d="M233.03904,102.85431c0.58139,-0.19057 1.2072,0.12624 1.39778,0.70763c0.19057,0.58139 -0.12623,1.2072 -0.70763,1.39779c-0.58139,0.19057 -1.20721,-0.12623 -1.3978,-0.70763c-0.19057,-0.58139 0.12624,-1.2072 0.70763,-1.39778z" data-paper-data="{&quot;index&quot;:null}" fill="#000000" stroke="none" stroke-width="0" stroke-linecap="butt"/><path d="M233.53088,103.11858c0.20593,-0.0675 0.42756,0.04472 0.49506,0.25062c0.0675,0.20591 -0.04472,0.42756 -0.25063,0.49506c-0.20593,0.0675 -0.42755,-0.04472 -0.49505,-0.25063c-0.0675,-0.20593 0.04471,-0.42755 0.25062,-0.49505z" data-paper-data="{&quot;index&quot;:null}" fill="#ffffff" stroke="none" stroke-width="0" stroke-linecap="butt"/><path d="M233.28455,104.06699c0.1144,-0.03751 0.23755,0.02484 0.27504,0.13923c0.03751,0.1144 -0.02486,0.23755 -0.13924,0.27503c-0.1144,0.03751 -0.23754,-0.02484 -0.27502,-0.13923c-0.03751,-0.1144 0.02484,-0.23755 0.13923,-0.27503z" data-paper-data="{&quot;index&quot;:null}" fill="#ffffff" stroke="none" stroke-width="0" stroke-linecap="butt"/><path d="M238.4674,102.2798c0.19057,0.58139 -0.12624,1.20721 -0.70763,1.39779c-0.58139,0.19057 -1.2072,-0.12624 -1.39779,-0.70764c-0.19057,-0.58139 0.12624,-1.20719 0.70763,-1.39777c0.58139,-0.19057 1.20721,0.12623 1.3978,0.70762z" data-paper-data="{&quot;index&quot;:null}" fill="#000000" stroke="none" stroke-width="0" stroke-linecap="butt"/><path d="M237.32475,102.32695c0.0675,0.20593 -0.04472,0.42756 -0.25062,0.49506c-0.20593,0.0675 -0.42757,-0.04472 -0.49507,-0.25063c-0.0675,-0.20593 0.04471,-0.42755 0.25062,-0.49505c0.20593,-0.0675 0.42756,0.0447 0.49506,0.25062z" data-paper-data="{&quot;index&quot;:null}" fill="#ffffff" stroke="none" stroke-width="0" stroke-linecap="butt"/><path d="M237.8647,102.8341c0.03751,0.11438 -0.02483,0.23754 -0.13924,0.27504c-0.11438,0.03751 -0.23754,-0.02483 -0.27504,-0.13924c-0.03751,-0.11438 0.02484,-0.23754 0.13925,-0.27504c0.11438,-0.03751 0.23754,0.02483 0.27505,0.13924z" data-paper-data="{&quot;index&quot;:null}" fill="#ffffff" stroke="none" stroke-width="0" stroke-linecap="butt"/><path d="M233.60022,106.21919c-0.05196,-0.16959 0.0434,-0.3492 0.21299,-0.40117c0.16959,-0.05196 0.3492,0.04341 0.40117,0.213c0.05196,0.16959 -0.04341,0.3492 -0.213,0.40116c-0.16959,0.05196 -0.3492,-0.0434 -0.40116,-0.213z" fill="#ffa3cf" stroke="none" stroke-width="0.5" stroke-linecap="butt"/><path d="M233.22985,108.25405c-0.05196,-0.16959 0.0434,-0.34921 0.21299,-0.40118c0.16959,-0.05196 0.34921,0.04341 0.40118,0.213c0.05196,0.16959 -0.04341,0.3492 -0.213,0.40117c-0.16959,0.05196 -0.3492,-0.0434 -0.40116,-0.21299z" fill="#ffa3cf" stroke="none" stroke-width="0.5" stroke-linecap="butt"/><path d="M236.53175,108.43496c-0.05196,-0.16959 0.0434,-0.34921 0.213,-0.40117c0.16959,-0.05196 0.34921,0.0434 0.40117,0.213c0.05196,0.16959 -0.04341,0.3492 -0.213,0.40117c-0.16959,0.05196 -0.34921,-0.0434 -0.40117,-0.21299z" fill="#ffa3cf" stroke="none" stroke-width="0.5" stroke-linecap="butt"/><path d="M238.30292,107.296c-0.05196,-0.16959 0.04341,-0.34921 0.213,-0.40117c0.16959,-0.05196 0.34921,0.0434 0.40117,0.213c0.05196,0.16959 -0.04341,0.3492 -0.213,0.40117c-0.16959,0.05196 -0.34921,-0.0434 -0.40117,-0.21299z" fill="#ffa3cf" stroke="none" stroke-width="0.5" stroke-linecap="butt"/><path d="M234.88376,107.81356c-0.05196,-0.16959 0.0434,-0.3492 0.213,-0.40116c0.16959,-0.05196 0.3492,0.0434 0.40116,0.21299c0.05196,0.16959 -0.0434,0.34921 -0.21299,0.40117c-0.16959,0.05196 -0.34921,-0.04341 -0.40117,-0.213z" fill="#ffa3cf" stroke="none" stroke-width="0.5" stroke-linecap="butt"/><path d="M236.35391,109.15199c-0.05196,-0.16959 0.0434,-0.34921 0.21299,-0.40117c0.16959,-0.05196 0.34921,0.0434 0.40118,0.213c0.05196,0.16959 -0.04341,0.3492 -0.21301,0.40116c-0.16959,0.05196 -0.3492,-0.0434 -0.40116,-0.21299z" fill="#ffa3cf" stroke="none" stroke-width="0.5" stroke-linecap="butt"/><path d="M236.91806,100.82985c-0.05196,-0.16959 0.0434,-0.34921 0.21299,-0.40117c0.16959,-0.05196 0.34921,0.04341 0.40117,0.213c0.05196,0.16959 -0.04341,0.3492 -0.213,0.40116c-0.16959,0.05196 -0.3492,-0.0434 -0.40116,-0.213z" fill="#ffa3cf" stroke="none" stroke-width="0.5" stroke-linecap="butt"/><path d="M237.0241,105.05104c0.10462,0.34146 -0.29928,0.768 -0.90213,0.95271c-0.60285,0.18471 -1.17637,0.05764 -1.28099,-0.28382c-0.10462,-0.34146 0.29928,-0.76801 0.90213,-0.95272c0.60285,-0.18471 1.17637,-0.05764 1.28099,0.28383z" fill="#000000" stroke="none" stroke-width="NaN" stroke-linecap="butt"/><path d="M237.44902,106.49275c0.04099,0.13379 -0.29932,0.44691 -0.77257,0.59191c-0.47325,0.145 -0.9274,0.08657 -0.96839,-0.04722c-0.04099,-0.13379 0.30943,-0.35979 0.78268,-0.50479c0.47325,-0.145 0.91729,-0.17369 0.95828,-0.0399z" fill="#fb9a9a" stroke="none" stroke-width="0" stroke-linecap="butt"/><path d="M170.55261,226.11295v-145.99262h183.62627v145.99262z" fill="none" stroke="none" stroke-width="0" stroke-linecap="butt"/></g></g></svg>