<svg version="1.1" xmlns="http://www.w3.org/2000/svg" xmlns:xlink="http://www.w3.org/1999/xlink" width="206.66066" height="132.8392" viewBox="0,0,206.66066,132.8392"><g transform="translate(-164.06405,-108.58426)"><g data-paper-data="{&quot;isPaintingLayer&quot;:true}" fill-rule="nonzero" stroke-linecap="butt" stroke-linejoin="miter" stroke-miterlimit="10" stroke-dasharray="" stroke-dashoffset="0" style="mix-blend-mode: normal"><path d="M185.49614,241.42346v-122h104v122z" fill="none" stroke="none" stroke-width="0"/><text transform="translate(259.40916,185.49673) scale(0.30016,0.30016)" font-size="40" xml:space="preserve" fill="#000000" fill-rule="nonzero" stroke="none" stroke-width="1" stroke-linecap="butt" stroke-linejoin="miter" stroke-miterlimit="10" stroke-dasharray="" stroke-dashoffset="0" font-family="Handwriting" font-weight="normal" text-anchor="start" style="mix-blend-mode: normal"><tspan x="0" dy="0">-  Tom the Blueberry</tspan></text><path d="M222.99462,180.72031c-0.16676,-4.92722 -0.2602,-11.34107 2.98293,-14.56039c2.93923,-2.91771 8.98316,-2.87114 13.4487,-3.0223c4.93618,-0.16706 11.81708,-1.25566 15.03759,1.99806c2.90756,2.93759 2.3943,9.97698 2.5451,14.43357c0.20668,6.10805 0.15907,12.45885 -4.57454,15.62156c-2.54558,1.70078 -8.57236,1.84994 -11.85709,1.96108c-3.64857,0.12349 -9.51584,-0.3347 -12.35188,-2.19679c-4.46491,-2.93157 -5.03643,-8.49064 -5.23081,-14.23484z" fill="#2ab5ff" stroke="#000000" stroke-width="2"/><path d="M235.08323,170.16366c0.06356,1.87763 -1.57018,3.45676 -3.64896,3.52713c-2.07883,0.07033 -3.81552,-1.39472 -3.87908,-3.27235c-0.06356,-1.87763 1.57018,-3.45676 3.64896,-3.52713c2.07883,-0.07033 3.81552,1.39477 3.87908,3.27235z" fill="#a4dfff" stroke="none" stroke-width="0"/><path d="M243.6685,174.33753c0.06356,1.87763 -1.57018,3.45676 -3.64896,3.52713c-2.07883,0.07033 -3.81552,-1.39472 -3.87908,-3.27235c-0.06356,-1.87763 1.57017,-3.45681 3.64896,-3.52713c2.07883,-0.07033 3.81552,1.39477 3.87909,3.2724z" fill="#a4dfff" stroke="none" stroke-width="0"/><path d="M252.04842,169.76636c0.06356,1.87763 -1.57018,3.45676 -3.64896,3.52713c-2.07883,0.07033 -3.81552,-1.39472 -3.87908,-3.27235c-0.06356,-1.87763 1.57017,-3.45681 3.64896,-3.52713c2.07883,-0.07033 3.81552,1.39477 3.87909,3.2724z" fill="#a4dfff" stroke="none" stroke-width="0"/><path d="M232.86787,176.92282c2.1611,-0.07311 3.97231,1.61952 4.04543,3.78063c0.07311,2.1611 -1.61952,3.97231 -3.78058,4.04542c-2.1611,0.07311 -3.97231,-1.61952 -4.04542,-3.78058c-0.07311,-2.1611 1.61952,-3.97231 3.78058,-4.04542z" data-paper-data="{&quot;index&quot;:null}" fill="#000000" stroke="none" stroke-width="0"/><path d="M234.27622,178.30497c0.76542,-0.02591 1.40688,0.5736 1.43279,1.33897c0.02591,0.76537 -0.5736,1.40688 -1.33902,1.43279c-0.76542,0.02591 -1.40688,-0.5736 -1.43279,-1.33902c-0.02591,-0.76542 0.5736,-1.40688 1.33897,-1.43279z" data-paper-data="{&quot;index&quot;:null}" fill="#ffffff" stroke="none" stroke-width="0"/><path d="M232.5045,181.28052c0.42523,-0.01438 0.78159,0.31865 0.79602,0.74387c0.01438,0.42523 -0.3187,0.7816 -0.74387,0.79602c-0.42523,0.01438 -0.7816,-0.3187 -0.79597,-0.74388c-0.01438,-0.42523 0.31865,-0.78159 0.74388,-0.79597z" data-paper-data="{&quot;index&quot;:null}" fill="#ffffff" stroke="none" stroke-width="0"/><path d="M251.85672,180.32916c0.07311,2.1611 -1.61952,3.97231 -3.78058,4.04542c-2.1611,0.07311 -3.97231,-1.61952 -4.04542,-3.78058c-0.07311,-2.1611 1.61952,-3.97231 3.78058,-4.04542c2.1611,-0.07311 3.97231,1.61952 4.04542,3.78058z" data-paper-data="{&quot;index&quot;:null}" fill="#000000" stroke="none" stroke-width="0"/><path d="M247.93239,179.36173c0.02591,0.76542 -0.5736,1.40688 -1.33902,1.43279c-0.76542,0.02591 -1.40688,-0.5736 -1.43279,-1.33897c-0.02591,-0.76542 0.5736,-1.40688 1.33902,-1.43279c0.76542,-0.02591 1.40688,0.5736 1.43279,1.33902z" data-paper-data="{&quot;index&quot;:null}" fill="#ffffff" stroke="none" stroke-width="0"/><path d="M249.26441,181.61556c0.01438,0.42523 -0.31865,0.78159 -0.74387,0.79602c-0.42523,0.01438 -0.78159,-0.31865 -0.79602,-0.74387c-0.01438,-0.42523 0.31865,-0.78159 0.74388,-0.79597c0.42523,-0.01438 0.78159,0.31865 0.79602,0.74387z" data-paper-data="{&quot;index&quot;:null}" fill="#ffffff" stroke="none" stroke-width="0"/><path d="M172.38389,224.56787v-115.98361h141.80328v115.98361z" fill="none" stroke="none" stroke-width="NaN"/><path d="M244.5591,187.00821c0,1.80106 -1.75205,3.2611 -3.91332,3.2611c-2.16127,0 -3.91332,-1.46004 -3.91332,-3.2611c0,-1.80106 1.75205,-3.2611 3.91332,-3.2611c2.16127,0 3.91332,1.46004 3.91332,3.2611z" fill="#000000" stroke="none" stroke-width="NaN"/><path d="M239.95755,187.04217c0.67719,0.19849 1.24141,1.8538 0.76418,3.48193c-0.47723,1.62813 -1.7936,2.73221 -2.47079,2.53372c-0.67719,-0.19849 -1.30706,-1.67364 -0.82983,-3.30178c0.47723,-1.62813 1.85924,-2.91235 2.53643,-2.71386z" fill="#fb9a9a" stroke="none" stroke-width="0"/><path d="M240.35506,189.81431c-0.05172,-0.04023 -0.09541,-0.08146 -0.13208,-0.12322c-0.33928,0.03139 -0.73453,-0.06833 -1.10878,-0.25694c-0.57538,-0.11797 -1.15281,-0.37165 -1.58131,-0.78244c0,0 -0.53033,-0.53033 0,-1.06066c0.07365,-0.07365 0.14729,-0.12684 0.21952,-0.16384c0.03671,-0.21453 0.13366,-0.42874 0.30518,-0.63478c0.51688,-0.62091 1.33743,-0.39644 1.93205,0.02848c0.00006,0 0.00013,0 0.00019,0c0.08105,0 0.15909,0.01286 0.23221,0.03664l0.90073,0.27022l-0.0817,0.27235l0.02689,0.01921l-0.0563,0.07882l-0.00679,0.02264c0.47417,0.17995 0.90048,0.45149 1.2014,0.82921l-0.79874,1.33275c0,0 -0.46046,0.59201 -1.05247,0.13156z" fill="#000000" stroke="none" stroke-width="0.5"/><path d="M241.53185,189.78398c-0.12686,0.49253 -1.15743,0.65284 -2.30183,0.35807c-1.1444,-0.29477 -1.96928,-0.933 -1.84242,-1.42553c0.12686,-0.49253 1.15743,-0.65284 2.30183,-0.35807c1.1444,0.29477 1.96928,0.933 1.84242,1.42553z" fill="#000000" stroke="none" stroke-width="0"/><path d="M164.06405,221.89538v-77.5383h206.66066v77.5383z" fill="none" stroke="none" stroke-width="0"/></g></g></svg>