<svg version="1.1" xmlns="http://www.w3.org/2000/svg" xmlns:xlink="http://www.w3.org/1999/xlink" width="128.4735" height="129.12236" viewBox="0,0,128.4735,129.12236"><g transform="translate(-181.25874,-87.9066)"><g data-paper-data="{&quot;isPaintingLayer&quot;:true}" fill-rule="nonzero" stroke-linejoin="miter" stroke-miterlimit="10" stroke-dasharray="" stroke-dashoffset="0" style="mix-blend-mode: normal"><path d="M222.13003,167.9428l-20.45243,-36.72139" fill="none" stroke="#000000" stroke-width="2" stroke-linecap="round"/><path d="M265.80817,133.0423l-13.0264,32.77612" fill="none" stroke="#000000" stroke-width="2" stroke-linecap="round"/><path d="M277.06034,138.20151c0,9.21848 -7.52573,18.20896 -37.02488,18.20896c-29.49915,0 -41.27363,-8.99047 -41.27363,-18.20896c0,-9.21848 9.34662,-46.73632 38.84577,-46.73632c29.49915,0 39.45274,37.51784 39.45274,46.73632z" fill="#e0f6ff" stroke="#000000" stroke-width="2" stroke-linecap="butt"/><path d="M219.38639,179.68938c-0.16676,-4.92722 -0.2602,-11.34107 2.98293,-14.56039c2.93923,-2.91771 8.98316,-2.87114 13.4487,-3.0223c4.93618,-0.16706 11.81708,-1.25566 15.03759,1.99806c2.90756,2.93759 2.3943,9.97698 2.5451,14.43357c0.20668,6.10805 0.15907,12.45885 -4.57454,15.62156c-2.54558,1.70078 -8.57236,1.84994 -11.85709,1.96108c-3.64857,0.12349 -9.51584,-0.3347 -12.35188,-2.19679c-4.46491,-2.93157 -5.03643,-8.49064 -5.23081,-14.23484z" fill="#2ab5ff" stroke="#000000" stroke-width="2" stroke-linecap="butt"/><path d="M231.475,169.13273c0.06356,1.87763 -1.57018,3.45676 -3.64896,3.52713c-2.07883,0.07033 -3.81552,-1.39472 -3.87908,-3.27235c-0.06356,-1.87763 1.57018,-3.45676 3.64896,-3.52713c2.07883,-0.07033 3.81552,1.39477 3.87908,3.27235z" fill="#a4dfff" stroke="none" stroke-width="0" stroke-linecap="butt"/><path d="M240.06027,173.3066c0.06356,1.87763 -1.57018,3.45676 -3.64896,3.52713c-2.07883,0.07033 -3.81552,-1.39472 -3.87908,-3.27235c-0.06356,-1.87763 1.57017,-3.45681 3.64896,-3.52713c2.07883,-0.07033 3.81552,1.39477 3.87909,3.2724z" fill="#a4dfff" stroke="none" stroke-width="0" stroke-linecap="butt"/><path d="M248.44019,168.73543c0.06356,1.87763 -1.57018,3.45676 -3.64896,3.52713c-2.07883,0.07033 -3.81552,-1.39472 -3.87908,-3.27235c-0.06356,-1.87763 1.57017,-3.45681 3.64896,-3.52713c2.07883,-0.07033 3.81552,1.39477 3.87909,3.2724z" fill="#a4dfff" stroke="none" stroke-width="0" stroke-linecap="butt"/><path d="M229.25964,175.89189c2.1611,-0.07311 3.97231,1.61952 4.04543,3.78063c0.07311,2.1611 -1.61952,3.97231 -3.78058,4.04542c-2.1611,0.07311 -3.97231,-1.61952 -4.04542,-3.78058c-0.07311,-2.1611 1.61952,-3.97231 3.78058,-4.04542z" data-paper-data="{&quot;index&quot;:null}" fill="#000000" stroke="none" stroke-width="0" stroke-linecap="butt"/><path d="M230.66799,177.27404c0.76542,-0.02591 1.40688,0.5736 1.43279,1.33897c0.02591,0.76537 -0.5736,1.40688 -1.33902,1.43279c-0.76542,0.02591 -1.40688,-0.5736 -1.43279,-1.33902c-0.02591,-0.76542 0.5736,-1.40688 1.33897,-1.43279z" data-paper-data="{&quot;index&quot;:null}" fill="#ffffff" stroke="none" stroke-width="0" stroke-linecap="butt"/><path d="M228.89627,180.24959c0.42523,-0.01438 0.78159,0.31865 0.79602,0.74387c0.01438,0.42523 -0.3187,0.7816 -0.74387,0.79602c-0.42523,0.01438 -0.7816,-0.3187 -0.79597,-0.74388c-0.01438,-0.42523 0.31865,-0.78159 0.74388,-0.79597z" data-paper-data="{&quot;index&quot;:null}" fill="#ffffff" stroke="none" stroke-width="0" stroke-linecap="butt"/><path d="M248.24849,179.29823c0.07311,2.1611 -1.61952,3.97231 -3.78058,4.04542c-2.1611,0.07311 -3.97231,-1.61952 -4.04542,-3.78058c-0.07311,-2.1611 1.61952,-3.97231 3.78058,-4.04542c2.1611,-0.07311 3.97231,1.61952 4.04542,3.78058z" data-paper-data="{&quot;index&quot;:null}" fill="#000000" stroke="none" stroke-width="0" stroke-linecap="butt"/><path d="M244.32416,178.3308c0.02591,0.76542 -0.5736,1.40688 -1.33902,1.43279c-0.76542,0.02591 -1.40688,-0.5736 -1.43279,-1.33897c-0.02591,-0.76542 0.5736,-1.40688 1.33902,-1.43279c0.76542,-0.02591 1.40688,0.5736 1.43279,1.33902z" data-paper-data="{&quot;index&quot;:null}" fill="#ffffff" stroke="none" stroke-width="0" stroke-linecap="butt"/><path d="M245.65618,180.58463c0.01438,0.42523 -0.31865,0.78159 -0.74387,0.79602c-0.42523,0.01438 -0.78159,-0.31865 -0.79602,-0.74387c-0.01438,-0.42523 0.31865,-0.78159 0.74388,-0.79597c0.42523,-0.01438 0.78159,0.31865 0.79602,0.74387z" data-paper-data="{&quot;index&quot;:null}" fill="#ffffff" stroke="none" stroke-width="0" stroke-linecap="butt"/><path d="M240.95087,185.97728c0,1.80106 -1.75205,3.2611 -3.91332,3.2611c-2.16127,0 -3.91332,-1.46004 -3.91332,-3.2611c0,-1.80106 1.75205,-3.2611 3.91332,-3.2611c2.16127,0 3.91332,1.46004 3.91332,3.2611z" fill="#000000" stroke="none" stroke-width="NaN" stroke-linecap="butt"/><path d="M236.34932,186.01124c0.67719,0.19849 1.24141,1.8538 0.76418,3.48193c-0.47723,1.62813 -1.7936,2.73221 -2.47079,2.53372c-0.67719,-0.19849 -1.30706,-1.67364 -0.82983,-3.30178c0.47723,-1.62813 1.85924,-2.91235 2.53643,-2.71386z" fill="#fb9a9a" stroke="none" stroke-width="0" stroke-linecap="butt"/><path d="M236.74683,188.78338c-0.05172,-0.04023 -0.09541,-0.08146 -0.13208,-0.12322c-0.33928,0.03139 -0.73453,-0.06833 -1.10878,-0.25694c-0.57538,-0.11797 -1.15281,-0.37165 -1.58131,-0.78244c0,0 -0.53033,-0.53033 0,-1.06066c0.07365,-0.07365 0.14729,-0.12684 0.21952,-0.16384c0.03671,-0.21453 0.13366,-0.42874 0.30518,-0.63478c0.51688,-0.62091 1.33743,-0.39644 1.93205,0.02848c0.00006,0 0.00013,0 0.00019,0c0.08105,0 0.15909,0.01286 0.23221,0.03664l0.90073,0.27022l-0.0817,0.27235l0.02689,0.01921l-0.0563,0.07882l-0.00679,0.02264c0.47417,0.17995 0.90048,0.45149 1.2014,0.82921l-0.79874,1.33275c0,0 -0.46046,0.59201 -1.05247,0.13156z" fill="#000000" stroke="none" stroke-width="0.5" stroke-linecap="butt"/><path d="M237.92362,188.75305c-0.12686,0.49253 -1.15743,0.65284 -2.30183,0.35807c-1.1444,-0.29477 -1.96928,-0.933 -1.84242,-1.42553c0.12686,-0.49253 1.15743,-0.65284 2.30183,-0.35807c1.1444,0.29477 1.96928,0.933 1.84242,1.42553z" fill="#000000" stroke="none" stroke-width="0" stroke-linecap="butt"/><path d="M223.8308,119.81311c-0.06413,-1.89496 -0.10007,-4.36165 1.1472,-5.59977c1.1304,-1.12212 3.45483,-1.10421 5.17223,-1.16234c1.8984,-0.06425 4.54472,-0.48291 5.78329,0.76843c1.11822,1.12977 0.92082,3.83704 0.97882,5.551c0.07949,2.34909 0.06118,4.79154 -1.75932,6.00788c-0.979,0.6541 -3.29684,0.71147 -4.56011,0.75421c-1.4032,0.04749 -3.65969,-0.12872 -4.7504,-0.84486c-1.71716,-1.12745 -1.93696,-3.26541 -2.01171,-5.47457z" fill="#2ab5ff" stroke="#000000" stroke-width="2" stroke-linecap="butt"/><path d="M228.47995,115.75313c0.02444,0.72212 -0.60387,1.32943 -1.40335,1.3565c-0.7995,0.02705 -1.46741,-0.53639 -1.49185,-1.25851c-0.02444,-0.72212 0.60387,-1.32943 1.40335,-1.3565c0.7995,-0.02705 1.46741,0.53641 1.49185,1.25851z" fill="#a4dfff" stroke="none" stroke-width="0" stroke-linecap="butt"/><path d="M231.78175,117.35836c0.02444,0.72212 -0.60387,1.32943 -1.40335,1.3565c-0.7995,0.02705 -1.46741,-0.53639 -1.49185,-1.25851c-0.02444,-0.72212 0.60387,-1.32945 1.40335,-1.3565c0.7995,-0.02705 1.46741,0.53641 1.49186,1.25853z" fill="#a4dfff" stroke="none" stroke-width="0" stroke-linecap="butt"/><path d="M235.00458,115.60034c0.02444,0.72212 -0.60387,1.32943 -1.40335,1.3565c-0.7995,0.02705 -1.46741,-0.53639 -1.49185,-1.25851c-0.02444,-0.72212 0.60387,-1.32945 1.40335,-1.3565c0.7995,-0.02705 1.46741,0.53641 1.49186,1.25853z" fill="#a4dfff" stroke="none" stroke-width="0" stroke-linecap="butt"/><path d="M227.62795,118.35263c0.83114,-0.02812 1.52771,0.62285 1.55583,1.45399c0.02812,0.83114 -0.62285,1.52771 -1.45397,1.55582c-0.83114,0.02812 -1.52771,-0.62285 -1.55582,-1.45397c-0.02812,-0.83114 0.62285,-1.52771 1.45397,-1.55582z" data-paper-data="{&quot;index&quot;:null}" fill="#000000" stroke="none" stroke-width="0" stroke-linecap="butt"/><path d="M228.16958,118.88419c0.29437,-0.00996 0.54107,0.2206 0.55104,0.51495c0.00996,0.29435 -0.2206,0.54107 -0.51497,0.55104c-0.29437,0.00996 -0.54107,-0.2206 -0.55104,-0.51497c-0.00996,-0.29437 0.2206,-0.54107 0.51495,-0.55104z" data-paper-data="{&quot;index&quot;:null}" fill="#ffffff" stroke="none" stroke-width="0" stroke-linecap="butt"/><path d="M227.4882,120.02856c0.16354,-0.00553 0.30059,0.12255 0.30614,0.28608c0.00553,0.16354 -0.12257,0.30059 -0.28608,0.30614c-0.16354,0.00553 -0.30059,-0.12257 -0.30612,-0.28609c-0.00553,-0.16354 0.12255,-0.30059 0.28609,-0.30612z" data-paper-data="{&quot;index&quot;:null}" fill="#ffffff" stroke="none" stroke-width="0" stroke-linecap="butt"/><path d="M234.93085,119.66267c0.02812,0.83114 -0.62285,1.52771 -1.45397,1.55582c-0.83114,0.02812 -1.52771,-0.62285 -1.55582,-1.45397c-0.02812,-0.83114 0.62285,-1.52771 1.45397,-1.55582c0.83114,-0.02812 1.52771,0.62285 1.55582,1.45397z" data-paper-data="{&quot;index&quot;:null}" fill="#000000" stroke="none" stroke-width="0" stroke-linecap="butt"/><path d="M233.4216,119.29061c0.00996,0.29437 -0.2206,0.54107 -0.51497,0.55104c-0.29437,0.00996 -0.54107,-0.2206 -0.55104,-0.51495c-0.00996,-0.29437 0.2206,-0.54107 0.51497,-0.55104c0.29437,-0.00996 0.54107,0.2206 0.55104,0.51497z" data-paper-data="{&quot;index&quot;:null}" fill="#ffffff" stroke="none" stroke-width="0" stroke-linecap="butt"/><path d="M233.93388,120.15741c0.00553,0.16354 -0.12255,0.30059 -0.28608,0.30614c-0.16354,0.00553 -0.30059,-0.12255 -0.30614,-0.28608c-0.00553,-0.16354 0.12255,-0.30059 0.28609,-0.30612c0.16354,-0.00553 0.30059,0.12255 0.30614,0.28608z" data-paper-data="{&quot;index&quot;:null}" fill="#ffffff" stroke="none" stroke-width="0" stroke-linecap="butt"/><path d="M232.12427,122.23136c0,0.69267 -0.67382,1.25418 -1.50502,1.25418c-0.8312,0 -1.50502,-0.56152 -1.50502,-1.25418c0,-0.69267 0.67382,-1.25418 1.50502,-1.25418c0.8312,0 1.50502,0.56152 1.50502,1.25418z" fill="#000000" stroke="none" stroke-width="NaN" stroke-linecap="butt"/><path d="M230.35456,122.24443c0.26044,0.07634 0.47743,0.71295 0.2939,1.33911c-0.18354,0.62616 -0.6898,1.05078 -0.95024,0.97444c-0.26044,-0.07634 -0.50268,-0.64366 -0.31914,-1.26983c0.18354,-0.62616 0.71504,-1.12006 0.97548,-1.04372z" fill="#fb9a9a" stroke="none" stroke-width="0" stroke-linecap="butt"/><path d="M230.50744,123.31056c-0.01989,-0.01547 -0.03669,-0.03133 -0.0508,-0.04739c-0.13048,0.01207 -0.28249,-0.02628 -0.42642,-0.09882c-0.22128,-0.04537 -0.44336,-0.14293 -0.60815,-0.30092c0,0 -0.20396,-0.20396 0,-0.40792c0.02832,-0.02832 0.05665,-0.04878 0.08443,-0.06301c0.01412,-0.08251 0.0514,-0.16489 0.11737,-0.24413c0.19879,-0.2388 0.51436,-0.15247 0.74305,0.01095c0.00002,0 0.00005,0 0.00007,0c0.03117,0 0.06118,0.00495 0.08931,0.01409l0.34641,0.10392l-0.03142,0.10474l0.01034,0.00739l-0.02165,0.03031l-0.00261,0.00871c0.18236,0.06921 0.34631,0.17364 0.46205,0.31891l-0.30719,0.51256c0,0 -0.17709,0.22768 -0.40477,0.0506z" fill="#000000" stroke="none" stroke-width="0.5" stroke-linecap="butt"/><path d="M230.96002,123.2989c-0.04879,0.18942 -0.44514,0.25108 -0.88526,0.13771c-0.44012,-0.11337 -0.75736,-0.35882 -0.70857,-0.54824c0.04879,-0.18942 0.44514,-0.25108 0.88526,-0.13771c0.44012,0.11337 0.75736,0.35882 0.70857,0.54824z" fill="#000000" stroke="none" stroke-width="0" stroke-linecap="butt"/><path d="M248.03711,136.41183c-0.81246,-1.71315 -1.82642,-3.9621 -1.17442,-5.59413c0.5909,-1.47912 2.73073,-2.38709 4.28335,-3.12343c1.71626,-0.81393 3.97781,-2.25049 5.61188,-1.59494c1.47528,0.59187 2.37084,3.15435 3.10568,4.70387c1.00715,2.12372 1.9617,4.37199 0.7751,6.21201c-0.63812,0.98949 -2.74196,1.96392 -3.88404,2.50553c-1.26857,0.60162 -3.40902,1.33733 -4.69457,1.11403c-2.0239,-0.35155 -3.07583,-2.22576 -4.02299,-4.22297z" fill="#2ab5ff" stroke="#000000" stroke-width="2" stroke-linecap="butt"/><path d="M250.68816,130.83779c0.30961,0.65283 -0.02536,1.45994 -0.74813,1.80272c-0.72279,0.34277 -1.5597,0.09143 -1.86931,-0.5614c-0.30961,-0.65283 0.02536,-1.45994 0.74813,-1.80272c0.72279,-0.34277 1.5597,-0.09141 1.8693,0.56141z" fill="#a4dfff" stroke="none" stroke-width="0" stroke-linecap="butt"/><path d="M254.35601,130.99751c0.30961,0.65283 -0.02536,1.45993 -0.74813,1.80271c-0.72279,0.34277 -1.55969,0.09143 -1.8693,-0.56141c-0.30961,-0.65283 0.02534,-1.45995 0.74813,-1.80272c0.72279,-0.34277 1.5597,-0.09141 1.86931,0.56142z" fill="#a4dfff" stroke="none" stroke-width="0" stroke-linecap="butt"/><path d="M256.61386,128.10279c0.30961,0.65283 -0.02536,1.45993 -0.74813,1.80271c-0.72279,0.34277 -1.5597,0.09143 -1.86931,-0.5614c-0.30961,-0.65283 0.02535,-1.45995 0.74813,-1.80271c0.72279,-0.34277 1.5597,-0.09141 1.86932,0.56142z" fill="#a4dfff" stroke="none" stroke-width="0" stroke-linecap="butt"/><path d="M250.94024,133.56172c0.7514,-0.35633 1.6494,-0.03609 2.00574,0.71531c0.35633,0.7514 0.03609,1.64941 -0.7153,2.00573c-0.7514,0.35633 -1.64941,0.03609 -2.00573,-0.7153c-0.35633,-0.7514 -0.03609,-1.64941 0.7153,-2.00573z" data-paper-data="{&quot;index&quot;:null}" fill="#000000" stroke="none" stroke-width="0" stroke-linecap="butt"/><path d="M251.6486,133.83403c0.26613,-0.12621 0.58417,-0.01278 0.71038,0.25333c0.12621,0.26611 0.01277,0.58417 -0.25336,0.71039c-0.26613,0.12621 -0.58417,0.01278 -0.71039,-0.25335c-0.12621,-0.26613 -0.01278,-0.58417 0.25334,-0.71038z" data-paper-data="{&quot;index&quot;:null}" fill="#ffffff" stroke="none" stroke-width="0" stroke-linecap="butt"/><path d="M251.47852,135.15498c0.14785,-0.07011 0.32453,-0.0071 0.39466,0.14074c0.07011,0.14785 0.00708,0.32455 -0.14074,0.39466c-0.14785,0.07011 -0.32454,0.00709 -0.39464,-0.14075c-0.07011,-0.14785 -0.00711,-0.32454 0.14074,-0.39465z" data-paper-data="{&quot;index&quot;:null}" fill="#ffffff" stroke="none" stroke-width="0" stroke-linecap="butt"/><path d="M258.16178,131.85938c0.35633,0.7514 0.03609,1.64941 -0.7153,2.00573c-0.7514,0.35633 -1.64941,0.03609 -2.00573,-0.7153c-0.35633,-0.7514 -0.03609,-1.64941 0.7153,-2.00573c0.7514,-0.35633 1.64941,-0.03609 2.00573,0.7153z" data-paper-data="{&quot;index&quot;:null}" fill="#000000" stroke="none" stroke-width="0" stroke-linecap="butt"/><path d="M256.62905,132.11822c0.12621,0.26613 0.01277,0.58417 -0.25336,0.71039c-0.26613,0.12621 -0.58417,0.01278 -0.71038,-0.25333c-0.12621,-0.26613 -0.01277,-0.58417 0.25336,-0.71039c0.26613,-0.12621 0.58417,-0.01278 0.71039,0.25335z" data-paper-data="{&quot;index&quot;:null}" fill="#ffffff" stroke="none" stroke-width="0" stroke-linecap="butt"/><path d="M257.4438,132.7098c0.07011,0.14785 0.0071,0.32453 -0.14074,0.39466c-0.14785,0.07011 -0.32453,0.0071 -0.39466,-0.14074c-0.07011,-0.14785 -0.00711,-0.32453 0.14075,-0.39464c0.14785,-0.07011 0.32454,-0.0071 0.39467,0.14074z" data-paper-data="{&quot;index&quot;:null}" fill="#ffffff" stroke="none" stroke-width="0" stroke-linecap="butt"/><path d="M256.60824,135.33236c0.27547,0.63554 -0.11946,1.41871 -0.8821,1.74928c-0.76264,0.33056 -1.60419,0.08334 -1.87967,-0.5522c-0.27547,-0.63554 0.11946,-1.41871 0.8821,-1.74928c0.76264,-0.33056 1.60419,-0.08334 1.87967,0.5522z" fill="#000000" stroke="none" stroke-width="NaN" stroke-linecap="butt"/><path d="M254.9897,136.04815c0.26932,-0.03354 0.72159,0.46428 0.80221,1.11178c0.08062,0.64751 -0.21502,1.23843 -0.48433,1.27197c-0.26932,0.03354 -0.7172,-0.39066 -0.79782,-1.03817c-0.08062,-0.64751 0.21062,-1.31204 0.47994,-1.34557z" fill="#fb9a9a" stroke="none" stroke-width="0" stroke-linecap="butt"/><path d="M255.55396,136.96554c-0.0244,-0.00628 -0.04612,-0.01415 -0.06545,-0.02328c-0.11492,0.06297 -0.26964,0.08823 -0.43055,0.07892c-0.22108,0.04638 -0.46364,0.04518 -0.67767,-0.03424c0,0 -0.26825,-0.10602 -0.16223,-0.37427c0.01472,-0.03725 0.03257,-0.06728 0.0524,-0.09139c-0.01986,-0.08132 -0.01842,-0.17173 0.0106,-0.27067c0.08742,-0.29815 0.4113,-0.34445 0.68611,-0.28546c0.00002,-0.00001 0.00005,-0.00002 0.00007,-0.00003c0.0286,-0.0124 0.05811,-0.01979 0.08754,-0.02258l0.35917,-0.04242l0.01283,0.1086l0.01243,0.00266l-0.00781,0.03643l0.00107,0.00903c0.19484,-0.00903 0.38681,0.02159 0.55076,0.10885l-0.07801,0.59245c0,0 -0.07194,0.27933 -0.35126,0.2074z" fill="#000000" stroke="none" stroke-width="0.5" stroke-linecap="butt"/><path d="M255.96458,136.77485c0.03057,0.1932 -0.30857,0.40739 -0.75748,0.47841c-0.44891,0.07102 -0.8376,-0.02803 -0.86816,-0.22123c-0.03057,-0.1932 0.30857,-0.40739 0.75748,-0.47841c0.44891,-0.07102 0.8376,0.02802 0.86816,0.22122z" fill="#000000" stroke="none" stroke-width="0" stroke-linecap="butt"/><path d="M210.17757,137.92487c-0.64202,-1.35376 -1.44327,-3.13093 -0.92804,-4.42059c0.46694,-1.16882 2.15787,-1.88632 3.38479,-2.46819c1.35622,-0.64319 3.14334,-1.77838 4.43461,-1.26035c1.1658,0.46771 1.87348,2.49263 2.45417,3.71709c0.79587,1.6782 1.55018,3.45483 0.6125,4.90885c-0.50426,0.78192 -2.16675,1.55192 -3.06924,1.97992c-1.00245,0.47541 -2.69387,1.05679 -3.70974,0.88033c-1.59932,-0.27781 -2.43058,-1.75884 -3.17904,-3.33707z" fill="#2ab5ff" stroke="#000000" stroke-width="2" stroke-linecap="butt"/><path d="M212.27248,133.52016c0.24466,0.51588 -0.02004,1.15367 -0.59118,1.42454c-0.57117,0.27087 -1.2325,0.07225 -1.47716,-0.44363c-0.24466,-0.51588 0.02004,-1.15367 0.59119,-1.42454c0.57117,-0.27087 1.2325,-0.07223 1.47716,0.44364z" fill="#a4dfff" stroke="none" stroke-width="0" stroke-linecap="butt"/><path d="M215.17088,133.64637c0.24466,0.51588 -0.02004,1.15366 -0.59118,1.42453c-0.57117,0.27087 -1.2325,0.07225 -1.47716,-0.44363c-0.24466,-0.51588 0.02003,-1.15368 0.59119,-1.42454c0.57117,-0.27087 1.2325,-0.07223 1.47716,0.44364z" fill="#a4dfff" stroke="none" stroke-width="0" stroke-linecap="butt"/><path d="M216.95508,131.35891c0.24466,0.51588 -0.02004,1.15366 -0.59119,1.42453c-0.57117,0.27087 -1.2325,0.07225 -1.47716,-0.44363c-0.24466,-0.51588 0.02003,-1.15368 0.59119,-1.42453c0.57117,-0.27087 1.2325,-0.07223 1.47717,0.44364z" fill="#a4dfff" stroke="none" stroke-width="0" stroke-linecap="butt"/><path d="M212.47168,135.67266c0.59377,-0.28158 1.30339,-0.02852 1.58497,0.56525c0.28158,0.59377 0.02852,1.30339 -0.56524,1.58497c-0.59377,0.28158 -1.30339,0.02852 -1.58497,-0.56524c-0.28158,-0.59377 -0.02851,-1.30339 0.56525,-1.58497z" data-paper-data="{&quot;index&quot;:null}" fill="#000000" stroke="none" stroke-width="0" stroke-linecap="butt"/><path d="M213.03144,135.88784c0.2103,-0.09973 0.46163,-0.0101 0.56136,0.20019c0.09973,0.21029 0.01009,0.46163 -0.20021,0.56136c-0.2103,0.09973 -0.46163,0.0101 -0.56136,-0.2002c-0.09973,-0.2103 -0.0101,-0.46163 0.20019,-0.56136z" data-paper-data="{&quot;index&quot;:null}" fill="#ffffff" stroke="none" stroke-width="0" stroke-linecap="butt"/><path d="M212.89704,136.93168c0.11683,-0.05541 0.25645,-0.00561 0.31187,0.11122c0.05541,0.11683 0.0056,0.25646 -0.11121,0.31187c-0.11683,0.05541 -0.25646,0.0056 -0.31186,-0.11122c-0.05541,-0.11683 -0.00562,-0.25645 0.11122,-0.31186z" data-paper-data="{&quot;index&quot;:null}" fill="#ffffff" stroke="none" stroke-width="0" stroke-linecap="butt"/><path d="M218.17828,134.32744c0.28158,0.59377 0.02852,1.30339 -0.56524,1.58497c-0.59377,0.28158 -1.30339,0.02852 -1.58497,-0.56524c-0.28158,-0.59377 -0.02852,-1.30339 0.56524,-1.58497c0.59377,-0.28158 1.30339,-0.02851 1.58497,0.56525z" data-paper-data="{&quot;index&quot;:null}" fill="#000000" stroke="none" stroke-width="0" stroke-linecap="butt"/><path d="M216.96708,134.53198c0.09973,0.2103 0.01009,0.46163 -0.20021,0.56136c-0.2103,0.09973 -0.46162,0.0101 -0.56135,-0.20019c-0.09973,-0.2103 -0.01009,-0.46163 0.20021,-0.56136c0.2103,-0.09973 0.46163,-0.0101 0.56136,0.2002z" data-paper-data="{&quot;index&quot;:null}" fill="#ffffff" stroke="none" stroke-width="0" stroke-linecap="butt"/><path d="M217.61091,134.99945c0.05541,0.11683 0.00561,0.25645 -0.11122,0.31187c-0.11683,0.05541 -0.25645,0.00561 -0.31187,-0.11122c-0.05541,-0.11683 -0.00561,-0.25645 0.11122,-0.31186c0.11683,-0.05541 0.25646,-0.00561 0.31188,0.11122z" data-paper-data="{&quot;index&quot;:null}" fill="#ffffff" stroke="none" stroke-width="0" stroke-linecap="butt"/><path d="M216.95064,137.07185c0.21768,0.50221 -0.0944,1.12109 -0.69705,1.38231c-0.60265,0.26122 -1.26766,0.06585 -1.48535,-0.43636c-0.21768,-0.50221 0.0944,-1.12109 0.69705,-1.38231c0.60265,-0.26122 1.26766,-0.06585 1.48535,0.43636z" fill="#000000" stroke="none" stroke-width="NaN" stroke-linecap="butt"/><path d="M215.67164,137.63748c0.21282,-0.0265 0.57021,0.36688 0.63392,0.87855c0.06371,0.51167 -0.16991,0.97863 -0.38273,1.00513c-0.21282,0.0265 -0.56675,-0.30871 -0.63046,-0.82039c-0.06371,-0.51167 0.16644,-1.03679 0.37926,-1.06329z" fill="#fb9a9a" stroke="none" stroke-width="0" stroke-linecap="butt"/><path d="M216.11753,138.36242c-0.01928,-0.00497 -0.03644,-0.01119 -0.05172,-0.0184c-0.09081,0.04976 -0.21308,0.06972 -0.34023,0.06236c-0.1747,0.03665 -0.36637,0.0357 -0.5355,-0.02706c0,0 -0.21198,-0.08378 -0.12819,-0.29576c0.01164,-0.02944 0.02574,-0.05317 0.04141,-0.07221c-0.01569,-0.06426 -0.01455,-0.1357 0.00837,-0.21389c0.06908,-0.23561 0.32502,-0.27219 0.54218,-0.22558c0.00002,-0.00001 0.00004,-0.00002 0.00006,-0.00002c0.0226,-0.00979 0.04591,-0.01564 0.06918,-0.01784l0.28382,-0.03352l0.01013,0.08582l0.00982,0.0021l-0.00618,0.02878l0.00085,0.00714c0.15397,-0.00713 0.30566,0.01706 0.43522,0.08602l-0.06164,0.46817c0,0 -0.05684,0.22073 -0.27757,0.16389z" fill="#000000" stroke="none" stroke-width="0.5" stroke-linecap="butt"/><path d="M216.442,138.21174c0.02415,0.15267 -0.24384,0.32193 -0.59857,0.37805c-0.35473,0.05612 -0.66189,-0.02215 -0.68604,-0.17482c-0.02415,-0.15267 0.24384,-0.32193 0.59857,-0.37805c0.35473,-0.05612 0.66188,0.02215 0.68604,0.17482z" fill="#000000" stroke="none" stroke-width="0" stroke-linecap="butt"/><path d="M230.72758,142.68092c-0.54117,-1.14112 -1.21656,-2.63913 -0.78227,-3.72621c0.39359,-0.98523 1.81892,-1.59002 2.85312,-2.08049c1.14319,-0.54216 2.64959,-1.49904 3.73803,-1.06238c0.98268,0.39424 1.5792,2.10109 2.06867,3.13321c0.67086,1.4146 1.30667,2.91215 0.51629,4.13778c-0.42505,0.65909 -1.8264,1.30815 -2.58713,1.66891c-0.84499,0.40073 -2.27073,0.89079 -3.12702,0.74205c-1.34811,-0.23417 -2.04879,-1.48257 -2.67968,-2.81289z" fill="#2ab5ff" stroke="#000000" stroke-width="2" stroke-linecap="butt"/><path d="M232.49343,138.9681c0.20623,0.43485 -0.01689,0.97245 -0.49832,1.20078c-0.48145,0.22832 -1.03891,0.0609 -1.24514,-0.37395c-0.20623,-0.43485 0.0169,-0.97246 0.49833,-1.20078c0.48145,-0.22832 1.03891,-0.06088 1.24513,0.37395z" fill="#a4dfff" stroke="none" stroke-width="0" stroke-linecap="butt"/><path d="M234.93656,139.07449c0.20623,0.43485 -0.01689,0.97245 -0.49832,1.20077c-0.48145,0.22832 -1.0389,0.0609 -1.24513,-0.37395c-0.20623,-0.43485 0.01689,-0.97246 0.49833,-1.20078c0.48145,-0.22832 1.0389,-0.06089 1.24513,0.37396z" fill="#a4dfff" stroke="none" stroke-width="0" stroke-linecap="butt"/><path d="M236.4405,137.14633c0.20623,0.43485 -0.01689,0.97245 -0.49832,1.20077c-0.48145,0.22832 -1.0389,0.0609 -1.24513,-0.37395c-0.20623,-0.43485 0.01688,-0.97246 0.49832,-1.20077c0.48145,-0.22832 1.0389,-0.06089 1.24514,0.37396z" fill="#a4dfff" stroke="none" stroke-width="0" stroke-linecap="butt"/><path d="M232.66134,140.78249c0.5005,-0.23735 1.09865,-0.02404 1.33601,0.47647c0.23735,0.5005 0.02404,1.09866 -0.47645,1.33601c-0.5005,0.23735 -1.09866,0.02404 -1.33601,-0.47646c-0.23735,-0.5005 -0.02404,-1.09866 0.47646,-1.33601z" data-paper-data="{&quot;index&quot;:null}" fill="#000000" stroke="none" stroke-width="0" stroke-linecap="butt"/><path d="M233.13317,140.96387c0.17726,-0.08407 0.38911,-0.00851 0.47318,0.16874c0.08406,0.17726 0.0085,0.38911 -0.16876,0.47318c-0.17726,0.08407 -0.38911,0.00851 -0.47318,-0.16875c-0.08407,-0.17726 -0.00851,-0.38911 0.16875,-0.47318z" data-paper-data="{&quot;index&quot;:null}" fill="#ffffff" stroke="none" stroke-width="0" stroke-linecap="butt"/><path d="M233.01988,141.84375c0.09848,-0.0467 0.21617,-0.00473 0.26288,0.09375c0.0467,0.09848 0.00472,0.21618 -0.09374,0.26288c-0.09848,0.0467 -0.21618,0.00472 -0.26287,-0.09375c-0.0467,-0.09848 -0.00474,-0.21617 0.09375,-0.26287z" data-paper-data="{&quot;index&quot;:null}" fill="#ffffff" stroke="none" stroke-width="0" stroke-linecap="butt"/><path d="M237.47156,139.64857c0.23735,0.5005 0.02404,1.09865 -0.47646,1.336c-0.5005,0.23735 -1.09866,0.02404 -1.33601,-0.47645c-0.23735,-0.5005 -0.02404,-1.09866 0.47646,-1.33601c0.5005,-0.23735 1.09866,-0.02404 1.33601,0.47646z" data-paper-data="{&quot;index&quot;:null}" fill="#000000" stroke="none" stroke-width="0" stroke-linecap="butt"/><path d="M236.45062,139.82099c0.08407,0.17726 0.0085,0.38911 -0.16876,0.47318c-0.17726,0.08407 -0.38911,0.00852 -0.47318,-0.16874c-0.08407,-0.17726 -0.00851,-0.38912 0.16876,-0.47319c0.17726,-0.08407 0.38911,-0.00851 0.47318,0.16876z" data-paper-data="{&quot;index&quot;:null}" fill="#ffffff" stroke="none" stroke-width="0" stroke-linecap="butt"/><path d="M236.99331,140.21503c0.0467,0.09848 0.00473,0.21617 -0.09375,0.26288c-0.09848,0.0467 -0.21617,0.00473 -0.26288,-0.09375c-0.0467,-0.09848 -0.00473,-0.21617 0.09375,-0.26287c0.09848,-0.0467 0.21617,-0.00473 0.26289,0.09375z" data-paper-data="{&quot;index&quot;:null}" fill="#ffffff" stroke="none" stroke-width="0" stroke-linecap="butt"/><path d="M236.43675,141.9619c0.18349,0.42332 -0.07958,0.94499 -0.58756,1.16518c-0.50799,0.22019 -1.06854,0.05551 -1.25203,-0.36782c-0.18349,-0.42332 0.07957,-0.94499 0.58756,-1.16518c0.50799,-0.22019 1.06855,-0.05551 1.25203,0.36782z" fill="#000000" stroke="none" stroke-width="NaN" stroke-linecap="butt"/><path d="M235.35866,142.43868c0.17939,-0.02234 0.48065,0.30926 0.53435,0.74055c0.0537,0.4313 -0.14322,0.82491 -0.32261,0.84725c-0.17939,0.02234 -0.47773,-0.26022 -0.53143,-0.69152c-0.0537,-0.4313 0.1403,-0.87394 0.31969,-0.89628z" fill="#fb9a9a" stroke="none" stroke-width="0" stroke-linecap="butt"/><path d="M235.73451,143.04975c-0.01625,-0.00419 -0.03072,-0.00943 -0.0436,-0.01551c-0.07655,0.04194 -0.17961,0.05877 -0.28679,0.05257c-0.14726,0.03089 -0.30883,0.03009 -0.45139,-0.02281c0,0 -0.17868,-0.07062 -0.10806,-0.2493c0.00981,-0.02482 0.0217,-0.04481 0.03491,-0.06087c-0.01323,-0.05416 -0.01227,-0.11439 0.00706,-0.18029c0.05823,-0.1986 0.27396,-0.22944 0.45702,-0.19014c0.00002,-0.00001 0.00003,-0.00001 0.00005,-0.00002c0.01905,-0.00826 0.0387,-0.01318 0.05831,-0.01504l0.23924,-0.02826l0.00854,0.07234l0.00828,0.00177l-0.00521,0.02426l0.00072,0.00601c0.12978,-0.00601 0.25765,0.01438 0.36686,0.0725l-0.05196,0.39463c0,0 -0.04792,0.18606 -0.23397,0.13815z" fill="#000000" stroke="none" stroke-width="0.5" stroke-linecap="butt"/><path d="M236.00801,142.92273c0.02036,0.12869 -0.20553,0.27137 -0.50455,0.31867c-0.29901,0.0473 -0.55792,-0.01867 -0.57828,-0.14736c-0.02036,-0.12869 0.20554,-0.27136 0.50455,-0.31867c0.29901,-0.0473 0.55791,0.01867 0.57827,0.14736z" fill="#000000" stroke="none" stroke-width="0" stroke-linecap="butt"/><path d="M242.42861,111.08299c-0.54118,-1.14112 -1.21656,-2.63913 -0.78227,-3.72621c0.39359,-0.98523 1.81892,-1.59002 2.85312,-2.08049c1.14319,-0.54216 2.64959,-1.49904 3.73803,-1.06238c0.98268,0.39424 1.57921,2.10109 2.06868,3.13322c0.67085,1.41459 1.30667,2.91215 0.51629,4.13778c-0.42505,0.6591 -1.8264,1.30815 -2.58713,1.66891c-0.84499,0.40073 -2.27073,0.89079 -3.12703,0.74205c-1.34811,-0.23417 -2.04879,-1.48257 -2.67969,-2.8129z" fill="#2ab5ff" stroke="#000000" stroke-width="2" stroke-linecap="butt"/><path d="M244.19446,107.37016c0.20623,0.43484 -0.01689,0.97246 -0.49832,1.20078c-0.48145,0.22832 -1.0389,0.0609 -1.24514,-0.37395c-0.20623,-0.43484 0.0169,-0.97246 0.49832,-1.20078c0.48145,-0.22832 1.03891,-0.06088 1.24513,0.37395z" fill="#a4dfff" stroke="none" stroke-width="0" stroke-linecap="butt"/><path d="M246.63759,107.47655c0.20623,0.43484 -0.0169,0.97245 -0.49833,1.20078c-0.48145,0.22832 -1.0389,0.0609 -1.24513,-0.37395c-0.20623,-0.43484 0.01689,-0.97246 0.49832,-1.20078c0.48145,-0.22832 1.0389,-0.06088 1.24513,0.37396z" fill="#a4dfff" stroke="none" stroke-width="0" stroke-linecap="butt"/><path d="M248.14153,105.5484c0.20623,0.43484 -0.01689,0.97245 -0.49832,1.20077c-0.48145,0.22832 -1.0389,0.06089 -1.24513,-0.37395c-0.20623,-0.43484 0.01689,-0.97245 0.49832,-1.20077c0.48145,-0.22832 1.0389,-0.06089 1.24514,0.37396z" fill="#a4dfff" stroke="none" stroke-width="0" stroke-linecap="butt"/><path d="M244.36237,109.18455c0.5005,-0.23736 1.09865,-0.02404 1.33601,0.47647c0.23736,0.5005 0.02404,1.09866 -0.47645,1.33601c-0.5005,0.23736 -1.09866,0.02404 -1.336,-0.47646c-0.23736,-0.5005 -0.02404,-1.09866 0.47645,-1.336z" data-paper-data="{&quot;index&quot;:null}" fill="#000000" stroke="none" stroke-width="0" stroke-linecap="butt"/><path d="M244.8342,109.36593c0.17726,-0.08407 0.38911,-0.00851 0.47318,0.16875c0.08407,0.17726 0.0085,0.38911 -0.16876,0.47318c-0.17726,0.08407 -0.38912,0.0085 -0.47319,-0.16876c-0.08407,-0.17726 -0.00851,-0.38911 0.16875,-0.47317z" data-paper-data="{&quot;index&quot;:null}" fill="#ffffff" stroke="none" stroke-width="0" stroke-linecap="butt"/><path d="M244.72092,110.24581c0.09849,-0.0467 0.21616,-0.00473 0.26288,0.09375c0.0467,0.09849 0.00473,0.21618 -0.09374,0.26288c-0.09849,0.0467 -0.21618,0.00472 -0.26287,-0.09375c-0.0467,-0.09849 -0.00474,-0.21618 0.09375,-0.26288z" data-paper-data="{&quot;index&quot;:null}" fill="#ffffff" stroke="none" stroke-width="0" stroke-linecap="butt"/><path d="M249.17259,108.05063c0.23736,0.5005 0.02403,1.09866 -0.47646,1.33601c-0.5005,0.23735 -1.09866,0.02404 -1.336,-0.47646c-0.23736,-0.5005 -0.02404,-1.09865 0.47645,-1.336c0.5005,-0.23736 1.09866,-0.02404 1.33601,0.47646z" data-paper-data="{&quot;index&quot;:null}" fill="#000000" stroke="none" stroke-width="0" stroke-linecap="butt"/><path d="M248.15165,108.22305c0.08407,0.17726 0.0085,0.38912 -0.16876,0.47319c-0.17726,0.08407 -0.38912,0.00852 -0.47318,-0.16874c-0.08407,-0.17726 -0.0085,-0.38912 0.16876,-0.47319c0.17726,-0.08407 0.38912,-0.0085 0.47319,0.16876z" data-paper-data="{&quot;index&quot;:null}" fill="#ffffff" stroke="none" stroke-width="0" stroke-linecap="butt"/><path d="M248.69434,108.61709c0.0467,0.09849 0.00473,0.21617 -0.09375,0.26289c-0.09849,0.0467 -0.21617,0.00473 -0.26288,-0.09375c-0.0467,-0.09849 -0.00474,-0.21617 0.09375,-0.26287c0.09849,-0.0467 0.21617,-0.00473 0.26289,0.09374z" data-paper-data="{&quot;index&quot;:null}" fill="#ffffff" stroke="none" stroke-width="0" stroke-linecap="butt"/><path d="M248.13779,110.36396c0.18348,0.42333 -0.07958,0.94499 -0.58757,1.16518c-0.50798,0.22019 -1.06855,0.05551 -1.25203,-0.36782c-0.18348,-0.42333 0.07958,-0.94499 0.58756,-1.16518c0.50798,-0.22019 1.06855,-0.0555 1.25204,0.36782z" fill="#000000" stroke="none" stroke-width="NaN" stroke-linecap="butt"/><path d="M247.05969,110.84074c0.17939,-0.02233 0.48065,0.30925 0.53435,0.74055c0.0537,0.4313 -0.14321,0.82492 -0.32261,0.84725c-0.17939,0.02233 -0.47773,-0.26022 -0.53143,-0.69152c-0.0537,-0.4313 0.1403,-0.87394 0.31969,-0.89628z" fill="#fb9a9a" stroke="none" stroke-width="0" stroke-linecap="butt"/><path d="M247.43554,111.45182c-0.01625,-0.00419 -0.03072,-0.00943 -0.0436,-0.01551c-0.07655,0.04194 -0.17961,0.05877 -0.28679,0.05257c-0.14726,0.03089 -0.30883,0.03009 -0.45139,-0.02281c0,0 -0.17869,-0.07062 -0.10806,-0.2493c0.00981,-0.02481 0.0217,-0.04481 0.03491,-0.06087c-0.01323,-0.05416 -0.01227,-0.11439 0.00706,-0.1803c0.05823,-0.1986 0.27396,-0.22943 0.45701,-0.19014c0.00001,-0.00001 0.00004,-0.00002 0.00005,-0.00003c0.01905,-0.00825 0.0387,-0.01317 0.05831,-0.01503l0.23924,-0.02826l0.00854,0.07235l0.00828,0.00177l-0.00521,0.02427l0.00072,0.00601c0.12978,-0.00601 0.25765,0.01438 0.36686,0.0725l-0.05196,0.39463c0,0 -0.04791,0.18606 -0.23397,0.13815z" fill="#000000" stroke="none" stroke-width="0.5" stroke-linecap="butt"/><path d="M247.70904,111.3248c0.02036,0.12869 -0.20554,0.27137 -0.50455,0.31867c-0.29901,0.0473 -0.55791,-0.01867 -0.57827,-0.14736c-0.02036,-0.12869 0.20553,-0.27136 0.50455,-0.31866c0.29901,-0.0473 0.55792,0.01866 0.57828,0.14735z" fill="#000000" stroke="none" stroke-width="0" stroke-linecap="butt"/><path d="M255.58395,117.20289c0.39153,-1.20072 0.93095,-2.75288 1.99369,-3.24373c0.96316,-0.44487 2.41401,0.09586 3.50222,0.45069c1.2029,0.39224 2.95468,0.73301 3.44489,1.79841c0.44257,0.96188 -0.2977,2.61148 -0.65184,3.69751c-0.48537,1.48847 -1.05322,3.0131 -2.4698,3.35974c-0.76179,0.1864 -2.22566,-0.30569 -3.02611,-0.56671c-0.88912,-0.28992 -2.26139,-0.91425 -2.78096,-1.61096c-0.81798,-1.09687 -0.46853,-2.48516 -0.01208,-3.88496z" fill="#2ab5ff" stroke="#000000" stroke-width="2" stroke-linecap="butt"/><path d="M259.41885,115.72071c-0.14919,0.45756 -0.68083,0.69457 -1.18741,0.52939c-0.50659,-0.16519 -0.79631,-0.67002 -0.64711,-1.12758c0.14919,-0.45756 0.68084,-0.69457 1.18742,-0.52939c0.50659,0.16519 0.7963,0.67004 0.6471,1.12758z" fill="#a4dfff" stroke="none" stroke-width="0" stroke-linecap="butt"/><path d="M261.11987,117.47762c-0.14919,0.45756 -0.68083,0.69457 -1.18741,0.52939c-0.50659,-0.16519 -0.7963,-0.67002 -0.64711,-1.12758c0.14919,-0.45756 0.68083,-0.69458 1.18741,-0.52939c0.50659,0.16519 0.79629,0.67003 0.6471,1.12759z" fill="#a4dfff" stroke="none" stroke-width="0" stroke-linecap="butt"/><path d="M263.53761,117.11138c-0.14919,0.45756 -0.68082,0.69457 -1.1874,0.52939c-0.50659,-0.16519 -0.7963,-0.67003 -0.64711,-1.12759c0.14919,-0.45756 0.68082,-0.69457 1.1874,-0.52938c0.50659,0.16519 0.79629,0.67003 0.6471,1.12759z" fill="#a4dfff" stroke="none" stroke-width="0" stroke-linecap="butt"/><path d="M258.29339,117.15373c0.52664,0.17173 0.81435,0.73787 0.64261,1.26451c-0.17173,0.52664 -0.73787,0.81435 -1.2645,0.64262c-0.52664,-0.17173 -0.81435,-0.73787 -0.64262,-1.2645c0.17173,-0.52664 0.73787,-0.81435 1.2645,-0.64262z" data-paper-data="{&quot;index&quot;:null}" fill="#000000" stroke="none" stroke-width="0" stroke-linecap="butt"/><path d="M258.51133,117.60983c0.18652,0.06082 0.28842,0.26133 0.2276,0.44785c-0.06082,0.18652 -0.26134,0.28841 -0.44786,0.22759c-0.18652,-0.06082 -0.28842,-0.26134 -0.2276,-0.44786c0.06082,-0.18652 0.26133,-0.28842 0.44785,-0.2276z" data-paper-data="{&quot;index&quot;:null}" fill="#ffffff" stroke="none" stroke-width="0" stroke-linecap="butt"/><path d="M257.82415,118.1709c0.10362,0.0338 0.16022,0.14518 0.12645,0.24881c-0.0338,0.10362 -0.14519,0.16024 -0.2488,0.12645c-0.10362,-0.0338 -0.16023,-0.14519 -0.12644,-0.2488c0.0338,-0.10362 0.14518,-0.16024 0.2488,-0.12645z" data-paper-data="{&quot;index&quot;:null}" fill="#ffffff" stroke="none" stroke-width="0" stroke-linecap="butt"/><path d="M262.56606,119.63732c-0.17173,0.52664 -0.73787,0.81435 -1.2645,0.64262c-0.52664,-0.17173 -0.81435,-0.73787 -0.64262,-1.2645c0.17173,-0.52664 0.73787,-0.81435 1.2645,-0.64262c0.52664,0.17173 0.81436,0.73787 0.64263,1.2645z" data-paper-data="{&quot;index&quot;:null}" fill="#000000" stroke="none" stroke-width="0" stroke-linecap="butt"/><path d="M261.70614,119.06063c-0.06082,0.18652 -0.26134,0.28841 -0.44787,0.2276c-0.18652,-0.06082 -0.28843,-0.26133 -0.22761,-0.44785c0.06082,-0.18652 0.26134,-0.28842 0.44787,-0.2276c0.18652,0.06082 0.28841,0.26134 0.2276,0.44787z" data-paper-data="{&quot;index&quot;:null}" fill="#ffffff" stroke="none" stroke-width="0" stroke-linecap="butt"/><path d="M261.82933,119.71987c-0.0338,0.10362 -0.14518,0.16023 -0.24881,0.12645c-0.10362,-0.0338 -0.16023,-0.14518 -0.12645,-0.24881c0.0338,-0.10362 0.14518,-0.16023 0.2488,-0.12644c0.10362,0.0338 0.16023,0.14519 0.12646,0.24881z" data-paper-data="{&quot;index&quot;:null}" fill="#ffffff" stroke="none" stroke-width="0" stroke-linecap="butt"/><path d="M260.2242,120.6058c-0.15779,0.43356 -0.70747,0.63153 -1.22774,0.44219c-0.52027,-0.18934 -0.81412,-0.69432 -0.65633,-1.12788c0.15779,-0.43356 0.70747,-0.63153 1.22774,-0.44219c0.52027,0.18934 0.81412,0.69432 0.65633,1.12788z" fill="#000000" stroke="none" stroke-width="NaN" stroke-linecap="butt"/><path d="M259.11351,120.21084c0.14563,0.10711 0.13643,0.55502 -0.12109,0.90514c-0.25752,0.35012 -0.67113,0.50058 -0.81675,0.39347c-0.14563,-0.10711 -0.16802,-0.51741 0.0895,-0.86753c0.25752,-0.35012 0.70271,-0.53819 0.84834,-0.43108z" fill="#fb9a9a" stroke="none" stroke-width="0" stroke-linecap="butt"/><path d="M258.96633,120.91299c-0.00892,-0.01421 -0.01582,-0.02797 -0.02099,-0.04123c-0.08442,-0.02216 -0.17083,-0.0808 -0.2444,-0.15899c-0.12817,-0.07881 -0.24495,-0.19046 -0.31211,-0.32689c0,0 -0.08121,-0.17413 0.09292,-0.25533c0.02418,-0.01128 0.04656,-0.01763 0.0672,-0.02021c0.02763,-0.04842 0.06973,-0.0915 0.12908,-0.12608c0.17882,-0.10419 0.35668,0.02174 0.4626,0.17612c0.00002,0 0.00004,0.00001 0.00005,0.00002c0.01951,0.0071 0.03716,0.01704 0.05268,0.02917l0.19316,0.14396l-0.04353,0.05841l0.0048,0.00698l-0.02047,0.01404l-0.00361,0.00486c0.09838,0.08486 0.17722,0.18758 0.21656,0.30487l-0.30904,0.25085c0,0 -0.16271,0.10217 -0.26488,-0.06054z" fill="#000000" stroke="none" stroke-width="0.5" stroke-linecap="butt"/><path d="M259.25226,121.00878c-0.07369,0.10745 -0.33582,0.05576 -0.58548,-0.11546c-0.24966,-0.17122 -0.39231,-0.39712 -0.31862,-0.50457c0.07369,-0.10745 0.33582,-0.05575 0.58548,0.11547c0.24966,0.17122 0.39232,0.39712 0.31863,0.50457z" fill="#000000" stroke="none" stroke-width="0" stroke-linecap="butt"/><path d="M219.0891,103.13073c0.39153,-1.20072 0.93095,-2.75289 1.9937,-3.24373c0.96317,-0.44486 2.41401,0.09586 3.50223,0.45069c1.2029,0.39224 2.95468,0.73301 3.44488,1.79841c0.44257,0.96188 -0.2977,2.61148 -0.65184,3.69751c-0.48537,1.48847 -1.05322,3.0131 -2.4698,3.35974c-0.76179,0.1864 -2.22566,-0.30569 -3.02612,-0.56671c-0.88912,-0.28992 -2.26138,-0.91425 -2.78095,-1.61096c-0.81798,-1.09687 -0.46854,-2.48516 -0.01209,-3.88496z" fill="#2ab5ff" stroke="#000000" stroke-width="2" stroke-linecap="butt"/><path d="M222.924,101.64855c-0.1492,0.45756 -0.68083,0.69457 -1.18741,0.52939c-0.50659,-0.16519 -0.79631,-0.67002 -0.64711,-1.12758c0.1492,-0.45756 0.68084,-0.69458 1.18741,-0.52939c0.50659,0.16519 0.7963,0.67004 0.64711,1.12758z" fill="#a4dfff" stroke="none" stroke-width="0" stroke-linecap="butt"/><path d="M224.62502,103.40545c-0.1492,0.45756 -0.68083,0.69457 -1.18741,0.52939c-0.50659,-0.16519 -0.79631,-0.67002 -0.64711,-1.12758c0.1492,-0.45756 0.68084,-0.69458 1.18741,-0.52939c0.50659,0.16519 0.79628,0.67002 0.64709,1.12759z" fill="#a4dfff" stroke="none" stroke-width="0" stroke-linecap="butt"/><path d="M227.04276,103.03922c-0.1492,0.45756 -0.68083,0.69457 -1.1874,0.52939c-0.50659,-0.16519 -0.79631,-0.67002 -0.64711,-1.12758c0.1492,-0.45756 0.68083,-0.69458 1.18741,-0.52939c0.50659,0.16519 0.79629,0.67003 0.6471,1.12759z" fill="#a4dfff" stroke="none" stroke-width="0" stroke-linecap="butt"/><path d="M221.79855,103.08157c0.52663,0.17173 0.81435,0.73786 0.64261,1.2645c-0.17173,0.52663 -0.73786,0.81436 -1.2645,0.64263c-0.52663,-0.17173 -0.81435,-0.73787 -0.64262,-1.2645c0.17173,-0.52663 0.73786,-0.81436 1.2645,-0.64263z" data-paper-data="{&quot;index&quot;:null}" fill="#000000" stroke="none" stroke-width="0" stroke-linecap="butt"/><path d="M222.01648,103.53767c0.18652,0.06082 0.28842,0.26133 0.2276,0.44785c-0.06082,0.18652 -0.26134,0.28841 -0.44786,0.22759c-0.18652,-0.06082 -0.28841,-0.26134 -0.2276,-0.44786c0.06081,-0.18652 0.26133,-0.28842 0.44785,-0.2276z" data-paper-data="{&quot;index&quot;:null}" fill="#ffffff" stroke="none" stroke-width="0" stroke-linecap="butt"/><path d="M221.3293,104.09874c0.10363,0.03379 0.16023,0.14518 0.12645,0.24881c-0.03379,0.10362 -0.1452,0.16023 -0.24881,0.12645c-0.10363,-0.03379 -0.16023,-0.14519 -0.12644,-0.2488c0.03379,-0.10362 0.14518,-0.16024 0.24881,-0.12645z" data-paper-data="{&quot;index&quot;:null}" fill="#ffffff" stroke="none" stroke-width="0" stroke-linecap="butt"/><path d="M226.07122,105.56516c-0.17173,0.52663 -0.73787,0.81435 -1.2645,0.64262c-0.52663,-0.17173 -0.81435,-0.73786 -0.64262,-1.26449c0.17173,-0.52663 0.73786,-0.81435 1.2645,-0.64262c0.52663,0.17173 0.81436,0.73787 0.64263,1.2645z" data-paper-data="{&quot;index&quot;:null}" fill="#000000" stroke="none" stroke-width="0" stroke-linecap="butt"/><path d="M225.21129,104.98846c-0.06081,0.18652 -0.26135,0.28842 -0.44786,0.2276c-0.18652,-0.06082 -0.28843,-0.26133 -0.22761,-0.44785c0.06081,-0.18652 0.26135,-0.28842 0.44786,-0.2276c0.18652,0.06082 0.28841,0.26135 0.2276,0.44787z" data-paper-data="{&quot;index&quot;:null}" fill="#ffffff" stroke="none" stroke-width="0" stroke-linecap="butt"/><path d="M225.33449,105.64771c-0.03379,0.10362 -0.14518,0.16023 -0.24881,0.12645c-0.10363,-0.03379 -0.16023,-0.14518 -0.12645,-0.24881c0.03379,-0.10362 0.14517,-0.16024 0.2488,-0.12644c0.10363,0.03379 0.16024,0.14518 0.12646,0.24881z" data-paper-data="{&quot;index&quot;:null}" fill="#ffffff" stroke="none" stroke-width="0" stroke-linecap="butt"/><path d="M223.72935,106.53364c-0.15779,0.43356 -0.70747,0.63152 -1.22774,0.44218c-0.52027,-0.18934 -0.81412,-0.69432 -0.65633,-1.12788c0.15779,-0.43356 0.70747,-0.63153 1.22773,-0.44219c0.52027,0.18934 0.81412,0.69432 0.65633,1.12788z" fill="#000000" stroke="none" stroke-width="NaN" stroke-linecap="butt"/><path d="M222.61866,106.13867c0.14562,0.10711 0.13643,0.55502 -0.12109,0.90514c-0.25752,0.35012 -0.67113,0.50058 -0.81676,0.39347c-0.14562,-0.10711 -0.16802,-0.51741 0.0895,-0.86753c0.25752,-0.35012 0.70271,-0.53819 0.84834,-0.43108z" fill="#fb9a9a" stroke="none" stroke-width="0" stroke-linecap="butt"/><path d="M222.47148,106.84082c-0.00892,-0.01421 -0.01582,-0.02797 -0.02099,-0.04124c-0.08443,-0.02217 -0.17083,-0.0808 -0.2444,-0.15899c-0.12817,-0.07881 -0.24496,-0.19046 -0.31212,-0.32689c0,0 -0.0812,-0.17413 0.09293,-0.25533c0.02418,-0.01128 0.04656,-0.01762 0.06719,-0.0202c0.02763,-0.04842 0.06973,-0.0915 0.12908,-0.12608c0.17883,-0.10419 0.35669,0.02173 0.4626,0.17612c0.00002,0.00001 0.00004,0.00001 0.00006,0.00001c0.01951,0.0071 0.03716,0.01704 0.05268,0.02917l0.19316,0.14395l-0.04353,0.05841l0.0048,0.00698l-0.02047,0.01404l-0.00361,0.00486c0.09837,0.08486 0.17721,0.18757 0.21656,0.30486l-0.30904,0.25086c0,0 -0.16271,0.10217 -0.26488,-0.06054z" fill="#000000" stroke="none" stroke-width="0.5" stroke-linecap="butt"/><path d="M222.75743,106.93662c-0.07369,0.10745 -0.33582,0.05576 -0.58549,-0.11547c-0.24966,-0.17122 -0.39231,-0.39713 -0.31862,-0.50458c0.07369,-0.10745 0.33582,-0.05575 0.58548,0.11547c0.24966,0.17122 0.39232,0.39712 0.31863,0.50457z" fill="#000000" stroke="none" stroke-width="0" stroke-linecap="butt"/><path d="M211.46024,116.63588c0.39153,-1.20072 0.93095,-2.75289 1.9937,-3.24373c0.96317,-0.44486 2.41401,0.09586 3.50223,0.45069c1.2029,0.39224 2.95468,0.73301 3.44488,1.79841c0.44257,0.96188 -0.29771,2.61148 -0.65185,3.69751c-0.48537,1.48847 -1.05322,3.0131 -2.4698,3.35974c-0.76179,0.1864 -2.22566,-0.30569 -3.02612,-0.56671c-0.88912,-0.28992 -2.26139,-0.91424 -2.78096,-1.61096c-0.81798,-1.09687 -0.46853,-2.48517 -0.01208,-3.88497z" fill="#2ab5ff" stroke="#000000" stroke-width="2" stroke-linecap="butt"/><path d="M215.29514,115.1537c-0.14919,0.45756 -0.68083,0.69457 -1.1874,0.52939c-0.50659,-0.16519 -0.79631,-0.67002 -0.64712,-1.12758c0.14919,-0.45756 0.68084,-0.69458 1.18742,-0.52939c0.50659,0.16519 0.7963,0.67004 0.6471,1.12758z" fill="#a4dfff" stroke="none" stroke-width="0" stroke-linecap="butt"/><path d="M216.99616,116.9106c-0.14919,0.45756 -0.68083,0.69457 -1.1874,0.52939c-0.50659,-0.16519 -0.7963,-0.67002 -0.64711,-1.12758c0.14919,-0.45756 0.68083,-0.69458 1.18741,-0.52939c0.50659,0.16519 0.79629,0.67003 0.6471,1.12759z" fill="#a4dfff" stroke="none" stroke-width="0" stroke-linecap="butt"/><path d="M219.4139,116.54437c-0.14919,0.45756 -0.68082,0.69457 -1.1874,0.52939c-0.50659,-0.16519 -0.7963,-0.67003 -0.64711,-1.12759c0.14919,-0.45756 0.68082,-0.69457 1.1874,-0.52938c0.50659,0.16519 0.79629,0.67003 0.6471,1.12759z" fill="#a4dfff" stroke="none" stroke-width="0" stroke-linecap="butt"/><path d="M214.16968,116.58672c0.52663,0.17173 0.81435,0.73786 0.64261,1.2645c-0.17173,0.52663 -0.73786,0.81436 -1.26449,0.64263c-0.52663,-0.17173 -0.81435,-0.73787 -0.64262,-1.2645c0.17173,-0.52663 0.73786,-0.81435 1.2645,-0.64262z" data-paper-data="{&quot;index&quot;:null}" fill="#000000" stroke="none" stroke-width="0" stroke-linecap="butt"/><path d="M214.38761,117.04282c0.18652,0.06082 0.28843,0.26133 0.22761,0.44785c-0.06082,0.18652 -0.26134,0.28841 -0.44786,0.22759c-0.18652,-0.06082 -0.28841,-0.26134 -0.2276,-0.44786c0.06081,-0.18652 0.26133,-0.28842 0.44785,-0.2276z" data-paper-data="{&quot;index&quot;:null}" fill="#ffffff" stroke="none" stroke-width="0" stroke-linecap="butt"/><path d="M213.70043,117.60389c0.10362,0.03379 0.16023,0.14518 0.12645,0.24881c-0.03379,0.10362 -0.1452,0.16023 -0.24881,0.12645c-0.10362,-0.03379 -0.16023,-0.14519 -0.12644,-0.2488c0.03379,-0.10362 0.14518,-0.16024 0.2488,-0.12645z" data-paper-data="{&quot;index&quot;:null}" fill="#ffffff" stroke="none" stroke-width="0" stroke-linecap="butt"/><path d="M218.44236,119.07031c-0.17173,0.52663 -0.73787,0.81435 -1.2645,0.64262c-0.52663,-0.17173 -0.81435,-0.73786 -0.64262,-1.26449c0.17173,-0.52663 0.73786,-0.81435 1.2645,-0.64262c0.52663,0.17173 0.81436,0.73787 0.64263,1.2645z" data-paper-data="{&quot;index&quot;:null}" fill="#000000" stroke="none" stroke-width="0" stroke-linecap="butt"/><path d="M217.58243,118.49361c-0.06081,0.18652 -0.26135,0.28842 -0.44787,0.2276c-0.18652,-0.06082 -0.28843,-0.26133 -0.22761,-0.44785c0.06081,-0.18652 0.26135,-0.28842 0.44787,-0.2276c0.18652,0.06082 0.28841,0.26135 0.2276,0.44787z" data-paper-data="{&quot;index&quot;:null}" fill="#ffffff" stroke="none" stroke-width="0" stroke-linecap="butt"/><path d="M217.70562,119.15286c-0.03379,0.10362 -0.14518,0.16023 -0.24881,0.12645c-0.10362,-0.03379 -0.16024,-0.14518 -0.12645,-0.24881c0.03379,-0.10362 0.14517,-0.16024 0.2488,-0.12644c0.10362,0.03379 0.16024,0.14518 0.12646,0.24881z" data-paper-data="{&quot;index&quot;:null}" fill="#ffffff" stroke="none" stroke-width="0" stroke-linecap="butt"/><path d="M216.10048,120.03879c-0.15779,0.43356 -0.70747,0.63152 -1.22774,0.44218c-0.52027,-0.18934 -0.81412,-0.69432 -0.65633,-1.12788c0.15779,-0.43356 0.70746,-0.63153 1.22773,-0.44219c0.52027,0.18934 0.81413,0.69432 0.65634,1.12788z" fill="#000000" stroke="none" stroke-width="NaN" stroke-linecap="butt"/><path d="M214.9898,119.64382c0.14562,0.10711 0.13643,0.55502 -0.12109,0.90514c-0.25752,0.35012 -0.67113,0.50058 -0.81676,0.39347c-0.14562,-0.10711 -0.16801,-0.51741 0.08951,-0.86753c0.25752,-0.35012 0.70271,-0.53819 0.84833,-0.43108z" fill="#fb9a9a" stroke="none" stroke-width="0" stroke-linecap="butt"/><path d="M214.84262,120.34597c-0.00893,-0.01421 -0.01582,-0.02797 -0.02099,-0.04124c-0.08443,-0.02217 -0.17083,-0.0808 -0.2444,-0.15899c-0.12817,-0.07881 -0.24495,-0.19046 -0.31211,-0.32689c0,0 -0.08121,-0.17413 0.09292,-0.25533c0.02418,-0.01128 0.04656,-0.01763 0.06719,-0.02021c0.02763,-0.04842 0.06973,-0.0915 0.12908,-0.12608c0.17882,-0.10419 0.35668,0.02174 0.4626,0.17612c0.00002,0.00001 0.00003,0.00001 0.00006,0.00001c0.01951,0.0071 0.03716,0.01704 0.05268,0.02917l0.19316,0.14395l-0.04353,0.05841l0.0048,0.00698l-0.02047,0.01404l-0.00361,0.00486c0.09838,0.08486 0.17721,0.18757 0.21656,0.30486l-0.30904,0.25086c0,0 -0.16271,0.10217 -0.26488,-0.06054z" fill="#000000" stroke="none" stroke-width="0.5" stroke-linecap="butt"/><path d="M215.12856,120.44177c-0.07369,0.10745 -0.33582,0.05576 -0.58549,-0.11547c-0.24966,-0.17122 -0.39231,-0.39713 -0.31862,-0.50458c0.07369,-0.10745 0.33582,-0.05575 0.58548,0.11547c0.24966,0.17122 0.39232,0.39712 0.31863,0.50457z" fill="#000000" stroke="none" stroke-width="0" stroke-linecap="butt"/><path d="M262.21068,141.35281c-0.22232,-1.24322 -0.48037,-2.86606 0.2243,-3.80083c0.63864,-0.84719 2.1728,-1.05622 3.29953,-1.25771c1.24548,-0.22272 2.95037,-0.75017 3.88583,-0.04286c0.84456,0.63859 0.97164,2.44221 1.17271,3.56668c0.27559,1.54116 0.49557,3.15317 -0.58908,4.12804c-0.58329,0.52425 -2.10595,0.78229 -2.93474,0.93049c-0.92059,0.16463 -2.425,0.26284 -3.21212,-0.10567c-1.2392,-0.58016 -1.58725,-1.96881 -1.84642,-3.41816z" fill="#2ab5ff" stroke="#000000" stroke-width="2" stroke-linecap="butt"/><path d="M264.89005,138.23443c0.08472,0.47375 -0.27182,0.93385 -0.79632,1.02765c-0.52452,0.09379 -1.0184,-0.21422 -1.10313,-0.68797c-0.08472,-0.47375 0.27182,-0.93386 0.79633,-1.02765c0.52452,-0.09379 1.01841,0.21424 1.10312,0.68798z" fill="#a4dfff" stroke="none" stroke-width="0" stroke-linecap="butt"/><path d="M267.21938,138.97903c0.08472,0.47375 -0.27182,0.93385 -0.79632,1.02765c-0.52452,0.09379 -1.0184,-0.21422 -1.10312,-0.68797c-0.08472,-0.47375 0.27182,-0.93386 0.79633,-1.02765c0.52452,-0.09379 1.01839,0.21423 1.10312,0.68799z" fill="#a4dfff" stroke="none" stroke-width="0" stroke-linecap="butt"/><path d="M269.17711,137.5138c0.08472,0.47375 -0.27182,0.93384 -0.79632,1.02764c-0.52452,0.09379 -1.0184,-0.21422 -1.10313,-0.68798c-0.08472,-0.47375 0.27181,-0.93385 0.79632,-1.02764c0.52452,-0.09379 1.01839,0.21423 1.10312,0.68799z" fill="#a4dfff" stroke="none" stroke-width="0" stroke-linecap="butt"/><path d="M264.57532,140.02919c0.54528,-0.0975 1.06636,0.26549 1.16386,0.81077c0.0975,0.54528 -0.26548,1.06637 -0.81076,1.16387c-0.54528,0.0975 -1.06636,-0.26549 -1.16387,-0.81076c-0.0975,-0.54528 0.26548,-1.06637 0.81076,-1.16387z" data-paper-data="{&quot;index&quot;:null}" fill="#000000" stroke="none" stroke-width="0" stroke-linecap="butt"/><path d="M264.9829,140.32818c0.19312,-0.03454 0.37768,0.09402 0.41221,0.28715c0.03454,0.19312 -0.09404,0.37767 -0.28716,0.41221c-0.19312,0.03454 -0.37768,-0.09404 -0.41222,-0.28716c-0.03454,-0.19312 0.09403,-0.37768 0.28715,-0.41221z" data-paper-data="{&quot;index&quot;:null}" fill="#ffffff" stroke="none" stroke-width="0" stroke-linecap="butt"/><path d="M264.64241,141.14737c0.1073,-0.01918 0.20982,0.05224 0.22901,0.15953c0.01918,0.1073 -0.05225,0.20982 -0.15952,0.22901c-0.1073,0.01918 -0.20982,-0.05224 -0.229,-0.15952c-0.01918,-0.1073 0.05223,-0.20982 0.15953,-0.22901z" data-paper-data="{&quot;index&quot;:null}" fill="#ffffff" stroke="none" stroke-width="0" stroke-linecap="butt"/><path d="M269.51446,140.19903c0.0975,0.54528 -0.26549,1.06637 -0.81077,1.16387c-0.54528,0.0975 -1.06636,-0.26548 -1.16386,-0.81076c-0.0975,-0.54528 0.26548,-1.06637 0.81076,-1.16387c0.54528,-0.0975 1.06637,0.26548 1.16388,0.81076z" data-paper-data="{&quot;index&quot;:null}" fill="#000000" stroke="none" stroke-width="0" stroke-linecap="butt"/><path d="M268.48409,140.09713c0.03454,0.19312 -0.09404,0.37768 -0.28716,0.41222c-0.19312,0.03454 -0.37768,-0.09402 -0.41222,-0.28714c-0.03454,-0.19312 0.09404,-0.37768 0.28716,-0.41222c0.19312,-0.03454 0.37768,0.09404 0.41222,0.28716z" data-paper-data="{&quot;index&quot;:null}" fill="#ffffff" stroke="none" stroke-width="0" stroke-linecap="butt"/><path d="M268.90418,140.61992c0.01918,0.1073 -0.05223,0.20982 -0.15953,0.22902c-0.1073,0.01918 -0.20982,-0.05223 -0.22902,-0.15953c-0.01918,-0.1073 0.05223,-0.20982 0.15952,-0.229c0.1073,-0.01918 0.20983,0.05223 0.22902,0.15953z" data-paper-data="{&quot;index&quot;:null}" fill="#ffffff" stroke="none" stroke-width="0" stroke-linecap="butt"/><path d="M267.90818,142.15918c0.06581,0.45666 -0.32509,0.89087 -0.87308,0.96985c-0.54799,0.07898 -1.04558,-0.22721 -1.11139,-0.68387c-0.06581,-0.45666 0.32508,-0.89088 0.87307,-0.96985c0.54799,-0.07898 1.04559,0.22721 1.1114,0.68388z" fill="#000000" stroke="none" stroke-width="NaN" stroke-linecap="butt"/><path d="M266.74267,142.33592c0.17895,0.02558 0.3825,0.42468 0.32099,0.85493c-0.06151,0.43025 -0.35494,0.7583 -0.53389,0.73271c-0.17895,-0.02558 -0.39257,-0.37661 -0.33105,-0.80686c0.06151,-0.43025 0.365,-0.80637 0.54395,-0.78078z" fill="#fb9a9a" stroke="none" stroke-width="0" stroke-linecap="butt"/><path d="M266.94476,143.02429c-0.01458,-0.00831 -0.02716,-0.01717 -0.03799,-0.02642c-0.08488,0.02036 -0.18874,0.00951 -0.29052,-0.02463c-0.1502,-0.00889 -0.30588,-0.05211 -0.42954,-0.14061c0,0 -0.15385,-0.11509 -0.03876,-0.26894c0.01598,-0.02137 0.03271,-0.03753 0.04967,-0.04956c0.00147,-0.05573 0.01822,-0.11359 0.05418,-0.1721c0.10837,-0.17632 0.32462,-0.14939 0.49092,-0.06338c0.00002,-0.00001 0.00004,-0.00001 0.00006,-0.00001c0.02055,-0.00296 0.0408,-0.00254 0.06021,0.00081l0.23826,0.0356l-0.01076,0.07205l0.00752,0.00389l-0.0114,0.02204l-0.00089,0.00599c0.1268,0.0283 0.24482,0.08157 0.33492,0.16635l-0.15382,0.36711c0,0 -0.09512,0.16693 -0.26205,0.07181z" fill="#000000" stroke="none" stroke-width="0.5" stroke-linecap="butt"/><path d="M267.24203,142.97359c-0.01417,0.12952 -0.26962,0.20783 -0.57056,0.1749c-0.30094,-0.03293 -0.53341,-0.16461 -0.51924,-0.29413c0.01417,-0.12952 0.26962,-0.20782 0.57055,-0.17489c0.30094,0.03293 0.53341,0.1646 0.51924,0.29412z" fill="#000000" stroke="none" stroke-width="0" stroke-linecap="butt"/><path d="M181.25874,217.02896v-129.12236h128.4735v129.12236z" fill="none" stroke="none" stroke-width="0" stroke-linecap="butt"/></g></g></svg>